<svg width="824" height="353" viewBox="0 0 824 353" fill="none" xmlns="http://www.w3.org/2000/svg">
<rect width="824" height="353" rx="8" fill="white"/>
<path d="M160.658 205.958C160.658 266.892 209.85 316.289 270.532 316.289C331.213 316.289 380.405 266.892 380.405 205.958C380.405 145.024 331.213 95.627 270.532 95.627" stroke="#00001A" stroke-opacity="0.3" stroke-width="0.508439"/>
<path d="M270.99 95.6261V91.5586M360.249 141.106L363.54 138.715M375.921 240.052L379.789 241.308M305.084 310.889L306.341 314.757M206.138 295.217L203.748 298.508M160.658 205.957H156.591" stroke="#00001A" stroke-opacity="0.3" stroke-width="0.508439"/>
<path d="M281.373 96.1154L281.501 94.7656M291.664 97.5801L291.918 96.2482M301.772 100.007L302.15 98.7046M311.606 103.374L312.105 102.113M321.08 107.651L321.695 106.443M330.109 112.801L330.835 111.657M338.613 118.778L339.444 117.707M346.517 125.529L347.445 124.541M353.751 132.994L354.768 132.097M365.957 149.794L367.124 149.104M370.821 158.98L372.048 158.403M374.799 168.584L376.074 168.124M377.855 178.519L379.168 178.182M379.963 188.697L381.302 188.485M381.104 199.029L382.457 198.944M381.267 209.423L382.622 209.465M380.451 219.785L381.797 219.955M378.664 230.025L379.987 230.321M372.247 249.775L373.492 250.313M367.674 259.109L368.862 259.763M362.243 267.972L363.364 268.734M356.002 276.285L357.047 277.149M349.006 283.973L349.965 284.932M341.318 290.969L342.182 292.013M333.006 297.21L333.768 298.331M324.143 302.641L324.796 303.829M314.808 307.214L315.347 308.458M295.058 313.631L295.354 314.954M284.818 315.418L284.988 316.763M274.456 316.234L274.498 317.589M264.062 316.071L263.977 317.424M253.731 314.93L253.519 316.269M243.552 312.822L243.215 314.135M233.617 309.766L233.158 311.041M224.013 305.788L223.436 307.014M214.827 300.924L214.137 302.091M198.027 288.718L197.13 289.735M190.562 281.484L189.574 282.412M183.811 273.58L182.74 274.411M177.834 265.075L176.69 265.802M172.684 256.046L171.476 256.662M168.407 246.573L167.146 247.072M165.04 236.738L163.738 237.117M162.613 226.631L161.281 226.885M161.149 216.34L159.799 216.468" stroke="#00001A" stroke-opacity="0.15" stroke-width="0.508439"/>
<path d="M272.508 91.1802C270.881 91.1802 269.732 89.6752 269.732 87.5093C269.732 85.3433 270.881 83.8384 272.508 83.8384C274.135 83.8384 275.284 85.3433 275.284 87.5093C275.284 89.6752 274.135 91.1802 272.508 91.1802ZM272.508 90.5192C273.738 90.5192 274.542 89.3397 274.542 87.5093C274.542 85.6789 273.738 84.4993 272.508 84.4993C271.278 84.4993 270.474 85.6789 270.474 87.5093C270.474 89.3397 271.278 90.5192 272.508 90.5192Z" fill="black" fill-opacity="0.5"/>
<path d="M362.082 135.993L362.518 135.676L366.709 136.15C367.696 136.263 368.138 136.18 368.582 135.858C369.158 135.439 369.216 134.618 368.708 133.919C368.313 133.376 367.825 133.102 366.903 132.905L367.063 132.261C368.05 132.461 368.75 132.87 369.24 133.545C369.993 134.581 369.912 135.784 369.04 136.418C368.464 136.836 367.976 136.926 366.689 136.781L363.13 136.363L365.296 139.326L364.777 139.703L362.082 135.993ZM366.933 142.861C365.977 141.544 366.519 139.73 368.272 138.457C370.024 137.184 371.917 137.229 372.873 138.545C373.83 139.862 373.287 141.676 371.535 142.949C369.783 144.222 367.89 144.177 366.933 142.861ZM367.468 142.472C368.191 143.468 369.618 143.424 371.099 142.348C372.58 141.272 373.062 139.929 372.338 138.934C371.615 137.938 370.189 137.982 368.708 139.058C367.227 140.134 366.745 141.477 367.468 142.472Z" fill="black" fill-opacity="0.5"/>
<path d="M380.357 241.704L382.165 242.292L383.353 238.636L383.904 238.815L387.145 243.846L386.903 244.591L382.551 243.177L382.247 244.115L381.637 243.917L381.942 242.979L380.134 242.391L380.357 241.704ZM383.698 239.647L382.775 242.49L386.285 243.631L383.698 239.647ZM378.581 246.807C379.084 245.259 380.871 244.632 382.93 245.301C384.99 245.97 386.067 247.528 385.564 249.076C385.061 250.623 383.275 251.251 381.215 250.581C379.155 249.912 378.079 248.354 378.581 246.807ZM379.21 247.011C378.83 248.181 379.703 249.31 381.444 249.875C383.185 250.441 384.555 250.041 384.935 248.871C385.315 247.701 384.442 246.573 382.701 246.007C380.96 245.441 379.59 245.841 379.21 247.011Z" fill="black" fill-opacity="0.5"/>
<path d="M307.197 315.046C308.754 314.54 310.283 315.529 310.903 317.435C311.632 319.678 310.903 321.551 309.076 322.145C308.515 322.327 307.871 322.354 307.342 322.205L307.514 321.551C307.986 321.654 308.484 321.642 308.929 321.497C310.322 321.045 310.812 319.624 310.228 317.729C309.936 318.54 309.323 319.156 308.579 319.398C307.263 319.825 306.027 319.243 305.631 318.025C305.213 316.739 305.882 315.473 307.197 315.046ZM308.49 318.796C309.196 318.566 309.76 317.966 310.033 317.193C309.464 315.935 308.439 315.316 307.404 315.652C306.486 315.951 306.022 316.861 306.321 317.779C306.616 318.688 307.513 319.113 308.49 318.796ZM301.216 316.979C302.763 316.476 304.321 317.552 304.99 319.612C305.659 321.672 305.032 323.459 303.484 323.961C301.937 324.464 300.379 323.388 299.71 321.328C299.04 319.268 299.668 317.482 301.216 316.979ZM301.42 317.607C300.25 317.988 299.85 319.358 300.416 321.099C300.981 322.839 302.11 323.713 303.28 323.333C304.45 322.953 304.85 321.582 304.284 319.842C303.719 318.101 302.59 317.227 301.42 317.607Z" fill="black" fill-opacity="0.5"/>
<path d="M204.512 299.391C205.696 300.251 206.052 301.578 205.365 302.524C204.857 303.224 203.867 303.409 202.932 303.019C203.469 303.698 203.553 304.551 203.11 305.16C202.489 306.016 201.241 306.089 200.196 305.33C199.152 304.571 198.836 303.362 199.458 302.506C199.9 301.897 200.737 301.714 201.549 302.015C200.889 301.246 200.76 300.247 201.268 299.548C201.955 298.602 203.327 298.53 204.512 299.391ZM202.061 302.764C201.354 302.25 200.482 302.308 200.052 302.9C199.621 303.492 199.835 304.339 200.543 304.853C201.25 305.367 202.122 305.309 202.553 304.717C202.983 304.125 202.769 303.278 202.061 302.764ZM204.165 299.868C203.334 299.264 202.324 299.322 201.834 299.997C201.344 300.671 201.601 301.65 202.432 302.254C203.263 302.857 204.273 302.799 204.763 302.125C205.253 301.45 204.996 300.471 204.165 299.868ZM199.35 295.64C200.666 296.596 200.711 298.489 199.438 300.242C198.165 301.994 196.35 302.536 195.034 301.58C193.718 300.623 193.673 298.73 194.946 296.978C196.219 295.226 198.033 294.684 199.35 295.64ZM198.961 296.175C197.966 295.452 196.622 295.934 195.546 297.415C194.471 298.895 194.427 300.322 195.423 301.045C196.418 301.768 197.761 301.286 198.837 299.805C199.913 298.325 199.956 296.898 198.961 296.175Z" fill="black" fill-opacity="0.5"/>
<path d="M156.11 209.673H149.785L150.294 210.812H149.623L148.992 209.398V208.941H156.11V209.673ZM156.222 204.755C156.222 206.382 154.717 207.531 152.551 207.531C150.385 207.531 148.88 206.382 148.88 204.755C148.88 203.128 150.385 201.979 152.551 201.979C154.717 201.979 156.222 203.128 156.222 204.755ZM155.561 204.755C155.561 203.524 154.382 202.721 152.551 202.721C150.721 202.721 149.541 203.524 149.541 204.755C149.541 205.985 150.721 206.788 152.551 206.788C154.382 206.788 155.561 205.985 155.561 204.755ZM156.222 198.042C156.222 199.669 154.717 200.818 152.551 200.818C150.385 200.818 148.88 199.669 148.88 198.042C148.88 196.415 150.385 195.266 152.551 195.266C154.717 195.266 156.222 196.415 156.222 198.042ZM155.561 198.042C155.561 196.811 154.382 196.008 152.551 196.008C150.721 196.008 149.541 196.811 149.541 198.042C149.541 199.272 150.721 200.075 152.551 200.075C154.382 200.075 155.561 199.272 155.561 198.042Z" fill="black" fill-opacity="0.5"/>
<path d="M205.949 295.218L270.531 205.958L359.421 141.107M270.531 205.958L375.027 240.053M270.531 205.958L304.484 310.89" stroke="#00001A" stroke-opacity="0.15" stroke-width="0.508439" stroke-dasharray="1.02 1.02"/>
<path d="M270.532 95.627V205.958H160.658" stroke="#00001A" stroke-opacity="0.3" stroke-width="0.508439"/>
<g clip-path="url(#clip0_3870_15920)">
<path d="M243.932 115.254L248.179 107.481H243.054V106.712H249.131V107.395L244.933 115.254H243.932ZM252.836 115.388C251.713 115.388 250.737 114.998 249.931 114.229L250.48 113.631C251.225 114.339 251.92 114.632 252.848 114.632C254.092 114.632 254.947 113.802 254.947 112.594C254.947 111.459 254.092 110.69 252.848 110.69C252.201 110.69 251.603 110.837 250.932 111.178L250.322 110.983L250.517 106.712H255.374V107.481H251.274L251.139 110.434C251.786 110.117 252.36 109.982 253.031 109.982C254.703 109.982 255.825 111.02 255.825 112.557C255.825 114.241 254.617 115.388 252.836 115.388ZM258.575 111.044C257.513 111.044 256.793 110.153 256.793 108.848C256.793 107.542 257.513 106.651 258.575 106.651C259.636 106.651 260.356 107.542 260.356 108.848C260.356 110.153 259.636 111.044 258.575 111.044ZM258.196 115.254L262.992 106.712H263.7L258.892 115.254H258.196ZM258.575 110.495C259.282 110.495 259.746 109.86 259.746 108.848C259.746 107.835 259.282 107.2 258.575 107.2C257.867 107.2 257.403 107.835 257.403 108.848C257.403 109.86 257.867 110.495 258.575 110.495ZM263.334 115.315C262.272 115.315 261.552 114.424 261.552 113.118C261.552 111.813 262.272 110.922 263.334 110.922C264.395 110.922 265.115 111.813 265.115 113.118C265.115 114.424 264.395 115.315 263.334 115.315ZM263.334 114.766C264.041 114.766 264.505 114.131 264.505 113.118C264.505 112.106 264.041 111.471 263.334 111.471C262.626 111.471 262.162 112.106 262.162 113.118C262.162 114.131 262.626 114.766 263.334 114.766Z" fill="black" fill-opacity="0.9"/>
<path d="M237.881 143.304V135.714L236.515 136.324V135.518L238.211 134.762H238.76V143.304H237.881ZM243.795 143.426C241.83 143.426 240.452 141.73 240.452 139.326C240.452 136.495 241.977 134.628 244.283 134.628C244.991 134.628 245.735 134.835 246.284 135.201L245.845 135.885C245.345 135.592 244.771 135.421 244.21 135.421C242.453 135.421 241.367 136.861 241.33 139.24C241.965 138.423 242.892 137.947 243.832 137.947C245.491 137.947 246.687 139.069 246.687 140.607C246.687 142.23 245.455 143.426 243.795 143.426ZM243.71 138.667C242.819 138.667 241.952 139.143 241.355 139.924C241.538 141.571 242.477 142.657 243.783 142.657C244.942 142.657 245.808 141.791 245.808 140.631C245.808 139.484 244.942 138.667 243.71 138.667ZM248.598 143.401C248.244 143.401 247.951 143.108 247.951 142.742C247.951 142.376 248.244 142.083 248.598 142.083C248.952 142.083 249.245 142.376 249.245 142.742C249.245 143.108 248.952 143.401 248.598 143.401ZM250.892 143.304L255.138 135.531H250.013V134.762H256.09V135.445L251.892 143.304H250.892ZM258.575 139.094C257.513 139.094 256.793 138.203 256.793 136.897C256.793 135.592 257.513 134.701 258.575 134.701C259.636 134.701 260.356 135.592 260.356 136.897C260.356 138.203 259.636 139.094 258.575 139.094ZM258.196 143.304L262.992 134.762H263.7L258.892 143.304H258.196ZM258.575 138.545C259.282 138.545 259.746 137.91 259.746 136.897C259.746 135.885 259.282 135.25 258.575 135.25C257.867 135.25 257.403 135.885 257.403 136.897C257.403 137.91 257.867 138.545 258.575 138.545ZM263.334 143.365C262.272 143.365 261.552 142.474 261.552 141.168C261.552 139.863 262.272 138.972 263.334 138.972C264.395 138.972 265.115 139.863 265.115 141.168C265.115 142.474 264.395 143.365 263.334 143.365ZM263.334 142.816C264.041 142.816 264.505 142.181 264.505 141.168C264.505 140.155 264.041 139.521 263.334 139.521C262.626 139.521 262.162 140.155 262.162 141.168C262.162 142.181 262.626 142.816 263.334 142.816Z" fill="black" fill-opacity="0.9"/>
<path d="M242.847 171.488C241.09 171.488 239.808 170.451 239.808 169.047C239.808 168.01 240.638 167.131 241.822 166.851C240.821 166.57 240.138 165.801 240.138 164.898C240.138 163.629 241.297 162.678 242.847 162.678C244.397 162.678 245.556 163.629 245.556 164.898C245.556 165.801 244.872 166.57 243.872 166.851C245.056 167.131 245.885 168.01 245.885 169.047C245.885 170.451 244.604 171.488 242.847 171.488ZM242.847 166.485C243.896 166.485 244.702 165.814 244.702 164.935C244.702 164.056 243.896 163.385 242.847 163.385C241.797 163.385 240.992 164.056 240.992 164.935C240.992 165.814 241.797 166.485 242.847 166.485ZM242.847 170.78C244.079 170.78 245.019 170.011 245.019 169.011C245.019 168.01 244.079 167.241 242.847 167.241C241.614 167.241 240.675 168.01 240.675 169.011C240.675 170.011 241.614 170.78 242.847 170.78ZM247.883 171.451C247.529 171.451 247.236 171.158 247.236 170.792C247.236 170.426 247.529 170.133 247.883 170.133C248.237 170.133 248.53 170.426 248.53 170.792C248.53 171.158 248.237 171.451 247.883 171.451ZM252.73 171.488C251.559 171.488 250.522 171.073 249.741 170.28L250.327 169.706C251.046 170.426 251.754 170.719 252.718 170.719C253.963 170.719 254.841 170.011 254.841 168.998C254.841 168.047 254.073 167.363 252.999 167.363H251.986V166.607H252.962C253.89 166.607 254.524 165.984 254.524 165.069C254.524 164.166 253.719 163.458 252.669 163.458C251.791 163.458 251.156 163.751 250.436 164.496L249.851 163.91C250.619 163.105 251.596 162.678 252.682 162.678C254.244 162.678 255.403 163.678 255.403 165.02C255.403 165.923 254.768 166.68 253.804 166.961C254.951 167.217 255.72 168.034 255.72 169.023C255.72 170.451 254.463 171.488 252.73 171.488ZM258.575 167.144C257.513 167.144 256.793 166.253 256.793 164.947C256.793 163.642 257.513 162.751 258.575 162.751C259.636 162.751 260.356 163.642 260.356 164.947C260.356 166.253 259.636 167.144 258.575 167.144ZM258.196 171.354L262.992 162.812H263.7L258.892 171.354H258.196ZM258.575 166.595C259.282 166.595 259.746 165.96 259.746 164.947C259.746 163.934 259.282 163.3 258.575 163.3C257.867 163.3 257.403 163.934 257.403 164.947C257.403 165.96 257.867 166.595 258.575 166.595ZM263.334 171.415C262.272 171.415 261.552 170.524 261.552 169.218C261.552 167.912 262.272 167.022 263.334 167.022C264.395 167.022 265.115 167.912 265.115 169.218C265.115 170.524 264.395 171.415 263.334 171.415ZM263.334 170.865C264.041 170.865 264.505 170.231 264.505 169.218C264.505 168.205 264.041 167.571 263.334 167.571C262.626 167.571 262.162 168.205 262.162 169.218C262.162 170.231 262.626 170.865 263.334 170.865Z" fill="black" fill-opacity="0.9"/>
</g>
<path opacity="0.1" d="M270.989 100.041C291.938 100.041 312.416 106.253 329.834 117.891C347.252 129.53 360.828 146.072 368.845 165.426C376.861 184.78 378.959 206.076 374.872 226.623C370.785 247.169 360.697 266.041 345.885 280.854C331.072 295.667 312.199 305.755 291.653 309.842C271.107 313.929 249.81 311.831 230.456 303.814C211.102 295.798 194.56 282.222 182.922 264.804C171.283 247.386 165.071 226.908 165.071 205.959H186.537C186.537 222.662 191.49 238.99 200.77 252.878C210.05 266.766 223.239 277.59 238.671 283.982C254.102 290.374 271.083 292.047 287.465 288.788C303.847 285.53 318.895 277.486 330.706 265.676C342.517 253.865 350.56 238.817 353.818 222.435C357.077 206.053 355.405 189.072 349.013 173.641C342.621 158.209 331.796 145.019 317.908 135.74C304.02 126.46 287.692 121.507 270.989 121.507L270.989 100.041Z" fill="#92C5F9"/>
<path d="M270.989 100.041C286.3 100.041 301.429 103.36 315.333 109.77C329.237 116.18 341.586 125.528 351.53 137.171C361.473 148.813 368.775 162.473 372.931 177.209C377.087 191.944 377.998 207.406 375.603 222.528C373.208 237.65 367.563 252.073 359.057 264.804C350.551 277.534 339.386 288.269 326.331 296.269C313.277 304.269 298.643 309.343 283.439 311.143C268.234 312.942 252.82 311.424 238.259 306.693L244.892 286.278C256.502 290.05 268.792 291.26 280.916 289.826C293.039 288.391 304.707 284.345 315.115 277.966C325.524 271.588 334.426 263.028 341.208 252.878C347.991 242.728 352.492 231.228 354.401 219.17C356.311 207.113 355.584 194.785 352.27 183.035C348.957 171.286 343.135 160.395 335.207 151.112C327.279 141.829 317.432 134.375 306.346 129.265C295.26 124.154 283.197 121.507 270.989 121.507V100.041Z" fill="#2097F7"/>
<path opacity="0.1" d="M270.99 126.871C286.631 126.871 301.922 131.509 314.927 140.199C327.933 148.889 338.069 161.241 344.055 175.692C350.041 190.143 351.607 206.044 348.556 221.385C345.504 236.726 337.972 250.818 326.912 261.878C315.851 272.939 301.76 280.471 286.419 283.522C271.077 286.574 255.176 285.008 240.725 279.022C226.274 273.036 213.923 262.9 205.233 249.894C196.543 236.888 191.904 221.598 191.904 205.957H213.37C213.37 217.353 216.75 228.493 223.081 237.968C229.412 247.444 238.411 254.829 248.94 259.19C259.468 263.551 271.054 264.692 282.231 262.469C293.408 260.245 303.675 254.758 311.733 246.7C319.791 238.641 325.279 228.375 327.502 217.197C329.725 206.02 328.584 194.435 324.223 183.907C319.862 173.378 312.477 164.379 303.001 158.048C293.526 151.716 282.386 148.337 270.99 148.337V126.871Z" fill="#FF928A"/>
<path d="M270.99 126.871C291.878 126.871 311.919 135.135 326.736 149.859L311.605 165.086C300.809 154.358 286.209 148.337 270.99 148.337V126.871Z" fill="#FF5A43"/>
<path opacity="0.1" d="M270.989 153.703C281.324 153.703 291.426 156.768 300.019 162.509C308.612 168.251 315.31 176.412 319.265 185.96C323.219 195.508 324.254 206.014 322.238 216.15C320.222 226.286 315.245 235.597 307.938 242.904C300.63 250.212 291.319 255.189 281.183 257.205C271.047 259.221 260.541 258.186 250.993 254.231C241.445 250.276 233.284 243.579 227.543 234.986C221.801 226.393 218.736 216.291 218.736 205.956H240.202C240.202 212.045 242.008 217.997 245.391 223.06C248.774 228.123 253.582 232.069 259.208 234.399C264.833 236.729 271.023 237.339 276.995 236.151C282.967 234.963 288.453 232.031 292.759 227.726C297.064 223.42 299.997 217.934 301.184 211.962C302.372 205.99 301.763 199.8 299.433 194.174C297.102 188.549 293.156 183.741 288.093 180.358C283.031 176.975 277.078 175.169 270.989 175.169L270.989 153.703Z" fill="#FFD6A8"/>
<path d="M270.989 153.703C277.879 153.703 284.7 155.066 291.061 157.712L282.815 177.531C279.068 175.972 275.048 175.169 270.989 175.169V153.703Z" fill="#FCCB8F"/>
<path d="M51.7976 46.7285V32.7285H57.4576C60.0176 32.7285 61.6776 34.1285 61.6776 36.2885C61.6776 37.8285 60.7176 38.9885 59.1976 39.4485C61.0576 39.8685 62.2176 41.1285 62.2176 42.8485C62.2176 45.1885 60.4176 46.7285 57.6776 46.7285H51.7976ZM53.3376 38.8485H57.3376C59.0376 38.8485 60.1376 37.9085 60.1376 36.4485C60.1376 34.9885 59.0376 34.0485 57.3376 34.0485H53.3376V38.8485ZM53.3376 45.4085H57.5176C59.4176 45.4085 60.6576 44.3485 60.6576 42.7485C60.6576 41.1485 59.4376 40.1085 57.5176 40.1085H53.3376V45.4085ZM67.9165 46.9085C65.8365 46.9085 64.3765 45.6885 64.3765 43.9285C64.3765 42.1885 65.8365 41.0285 68.0365 41.0285C69.1565 41.0285 70.1565 41.2685 71.0165 41.7885V40.4485C71.0165 38.8485 70.1565 38.0285 68.4965 38.0285C67.5965 38.0285 66.6765 38.2885 65.5365 38.8685L64.9965 37.7485C66.3365 37.1085 67.4965 36.8085 68.6765 36.8085C71.0965 36.8085 72.4565 38.0285 72.4565 40.2485V46.7285H71.0165V45.5885C70.1565 46.4685 69.1165 46.9085 67.9165 46.9085ZM65.7765 43.8885C65.7765 45.0285 66.7565 45.7885 68.2165 45.7885C69.3165 45.7885 70.2165 45.4285 71.0165 44.6685V42.7885C70.1965 42.3085 69.3565 42.0885 68.2565 42.0885C66.7565 42.0885 65.7765 42.8085 65.7765 43.8885ZM78.4438 46.9285C76.8438 46.9285 75.4438 46.4285 74.4838 45.4885L75.2638 44.5285C76.4238 45.3885 77.3638 45.7485 78.4038 45.7485C79.8238 45.7485 80.8638 45.0085 80.8638 43.9685C80.8638 43.1685 80.3438 42.7485 79.1038 42.5085L77.5038 42.2285C75.6038 41.8885 74.7438 41.0885 74.7438 39.6685C74.7438 37.9885 76.2038 36.8085 78.2638 36.8085C79.6038 36.8085 80.7438 37.1885 81.9838 38.0285L81.2638 39.0485C80.2438 38.3285 79.2438 38.0085 78.2038 38.0085C76.9238 38.0085 76.0838 38.6085 76.0838 39.5685C76.0838 40.3685 76.5038 40.7485 77.7638 40.9685L79.4038 41.2685C81.3638 41.6285 82.2438 42.4485 82.2438 43.8885C82.2438 45.6085 80.6038 46.9285 78.4438 46.9285ZM88.9645 46.9285C86.2245 46.9285 84.1245 44.7285 84.1245 41.8485C84.1245 38.9885 86.1245 36.8085 88.7245 36.8085C91.2845 36.8085 93.2045 38.9285 93.2045 41.7285V42.1685H85.5445C85.6845 44.1685 87.1645 45.6485 89.0245 45.6485C90.0445 45.6485 91.0445 45.2685 91.7045 44.6485L92.6245 45.6285C91.5045 46.5085 90.3245 46.9285 88.9645 46.9285ZM85.5845 41.1285H91.7645C91.5445 39.3685 90.3045 38.0685 88.7045 38.0685C87.0845 38.0685 85.8445 39.3285 85.5845 41.1285ZM99.7573 46.8685C97.2173 46.8685 95.2573 44.6685 95.2573 41.8685C95.2573 39.0485 97.2573 36.8485 99.8373 36.8485C101.037 36.8485 102.097 37.3285 102.877 38.2085V32.2885L104.337 31.9885V46.7285H102.877V45.4285C102.137 46.3685 101.037 46.8685 99.7573 46.8685ZM100.117 45.5885C101.257 45.5885 102.257 45.1285 102.877 44.2885V39.4485C102.237 38.6285 101.217 38.1285 100.117 38.1285C98.1573 38.1285 96.6973 39.7085 96.6973 41.8485C96.6973 43.9885 98.1573 45.5885 100.117 45.5885ZM116.306 46.8885C113.606 46.8885 111.566 44.7285 111.566 41.8485C111.566 38.9685 113.606 36.8085 116.306 36.8085C119.006 36.8085 121.046 38.9685 121.046 41.8485C121.046 44.7285 119.006 46.8885 116.306 46.8885ZM116.306 45.6085C118.206 45.6085 119.606 43.9885 119.606 41.8485C119.606 39.7085 118.206 38.0885 116.306 38.0885C114.406 38.0885 113.006 39.7085 113.006 41.8485C113.006 43.9885 114.406 45.6085 116.306 45.6085ZM123.607 46.7285V36.9685H125.067V38.5485C125.807 37.3885 126.867 36.8085 128.167 36.8085C130.267 36.8085 131.707 38.2685 131.707 40.4085V46.7285H130.247V40.8285C130.247 39.1085 129.227 38.0285 127.627 38.0285C126.547 38.0285 125.647 38.5485 125.067 39.5285V46.7285H123.607ZM139.731 51.1085C139.451 51.1085 139.131 51.0685 138.791 50.9685V49.6685C139.051 49.7285 139.371 49.7485 139.591 49.7485C140.331 49.7485 140.791 49.3685 141.151 48.5085L141.871 46.7285L138.111 36.9685H139.731L142.691 44.9885L145.831 36.9685H147.451L142.531 48.9485C141.871 50.5285 141.171 51.1085 139.731 51.1085ZM153.279 46.8885C150.579 46.8885 148.539 44.7285 148.539 41.8485C148.539 38.9685 150.579 36.8085 153.279 36.8085C155.979 36.8085 158.019 38.9685 158.019 41.8485C158.019 44.7285 155.979 46.8885 153.279 46.8885ZM153.279 45.6085C155.179 45.6085 156.579 43.9885 156.579 41.8485C156.579 39.7085 155.179 38.0885 153.279 38.0885C151.379 38.0885 149.979 39.7085 149.979 41.8485C149.979 43.9885 151.379 45.6085 153.279 45.6085ZM164.06 46.8885C161.96 46.8885 160.52 45.4085 160.52 43.2685V36.9685H162V42.8485C162 44.5885 163 45.6685 164.6 45.6685C165.68 45.6685 166.58 45.1485 167.16 44.1885V36.9685H168.62V46.7285H167.16V45.1485C166.42 46.3085 165.38 46.8885 164.06 46.8885ZM171.615 46.7285V36.9685H173.075V38.9685C173.575 37.6085 174.555 36.8085 175.795 36.8085C176.135 36.8085 176.415 36.8485 176.715 36.9485V38.2685C176.395 38.1685 176.015 38.0885 175.695 38.0885C174.495 38.0885 173.575 38.8085 173.075 40.0685V46.7285H171.615ZM186.334 46.9085C184.254 46.9085 182.794 45.6885 182.794 43.9285C182.794 42.1885 184.254 41.0285 186.454 41.0285C187.574 41.0285 188.574 41.2685 189.434 41.7885V40.4485C189.434 38.8485 188.574 38.0285 186.914 38.0285C186.014 38.0285 185.094 38.2885 183.954 38.8685L183.414 37.7485C184.754 37.1085 185.914 36.8085 187.094 36.8085C189.514 36.8085 190.874 38.0285 190.874 40.2485V46.7285H189.434V45.5885C188.574 46.4685 187.534 46.9085 186.334 46.9085ZM184.194 43.8885C184.194 45.0285 185.174 45.7885 186.634 45.7885C187.734 45.7885 188.634 45.4285 189.434 44.6685V42.7885C188.614 42.3085 187.774 42.0885 186.674 42.0885C185.174 42.0885 184.194 42.8085 184.194 43.8885ZM198.222 46.8885C195.502 46.8885 193.402 44.6685 193.402 41.8485C193.402 39.0285 195.502 36.8085 198.222 36.8085C199.662 36.8085 201.022 37.3685 201.982 38.3285L201.042 39.3485C200.342 38.5885 199.302 38.1285 198.282 38.1285C196.362 38.1285 194.862 39.7685 194.862 41.8485C194.862 43.9285 196.362 45.5685 198.282 45.5685C199.302 45.5685 200.342 45.1085 201.042 44.3485L201.982 45.3685C201.022 46.3285 199.662 46.8885 198.222 46.8885ZM207.933 46.9285C206.253 46.9285 205.373 46.1085 205.373 44.5485V38.1685H203.353V36.9685H205.373V34.2885L206.833 33.9485V36.9685H209.633V38.1685H206.833V44.1685C206.833 45.2085 207.233 45.6285 208.253 45.6285C208.753 45.6285 209.093 45.5685 209.633 45.3685V46.6685C209.093 46.8485 208.493 46.9285 207.933 46.9285ZM215.251 46.8885C213.151 46.8885 211.711 45.4085 211.711 43.2685V36.9685H213.191V42.8485C213.191 44.5885 214.191 45.6685 215.791 45.6685C216.871 45.6685 217.771 45.1485 218.351 44.1885V36.9685H219.811V46.7285H218.351V45.1485C217.611 46.3085 216.571 46.8885 215.251 46.8885ZM225.827 46.9085C223.747 46.9085 222.287 45.6885 222.287 43.9285C222.287 42.1885 223.747 41.0285 225.947 41.0285C227.067 41.0285 228.067 41.2685 228.927 41.7885V40.4485C228.927 38.8485 228.067 38.0285 226.407 38.0285C225.507 38.0285 224.587 38.2885 223.447 38.8685L222.907 37.7485C224.247 37.1085 225.407 36.8085 226.587 36.8085C229.007 36.8085 230.367 38.0285 230.367 40.2485V46.7285H228.927V45.5885C228.067 46.4685 227.027 46.9085 225.827 46.9085ZM223.687 43.8885C223.687 45.0285 224.667 45.7885 226.127 45.7885C227.227 45.7885 228.127 45.4285 228.927 44.6685V42.7885C228.107 42.3085 227.267 42.0885 226.167 42.0885C224.667 42.0885 223.687 42.8085 223.687 43.8885ZM233.334 46.7285V32.2885L234.794 31.9885V46.7285H233.334ZM244.195 46.7285L241.515 36.9685H242.935L244.975 44.7685L247.315 36.9685H248.615L250.955 44.7685L252.975 36.9685H254.355L251.695 46.7285H250.275L247.955 38.8485L245.635 46.7285H244.195ZM260.525 46.8885C257.825 46.8885 255.785 44.7285 255.785 41.8485C255.785 38.9685 257.825 36.8085 260.525 36.8085C263.225 36.8085 265.265 38.9685 265.265 41.8485C265.265 44.7285 263.225 46.8885 260.525 46.8885ZM260.525 45.6085C262.425 45.6085 263.825 43.9885 263.825 41.8485C263.825 39.7085 262.425 38.0885 260.525 38.0885C258.625 38.0885 257.225 39.7085 257.225 41.8485C257.225 43.9885 258.625 45.6085 260.525 45.6085ZM267.826 46.7285V36.9685H269.286V38.9685C269.786 37.6085 270.766 36.8085 272.006 36.8085C272.346 36.8085 272.626 36.8485 272.926 36.9485V38.2685C272.606 38.1685 272.226 38.0885 271.906 38.0885C270.706 38.0885 269.786 38.8085 269.286 40.0685V46.7285H267.826ZM274.857 46.7285V32.2885L276.317 31.9885V41.3485L280.957 36.9685H282.717L277.757 41.6085L282.937 46.7285H281.017L276.317 42.0685V46.7285H274.857ZM293.691 46.8885C290.971 46.8885 288.871 44.6685 288.871 41.8485C288.871 39.0285 290.971 36.8085 293.691 36.8085C295.131 36.8085 296.491 37.3685 297.451 38.3285L296.511 39.3485C295.811 38.5885 294.771 38.1285 293.751 38.1285C291.831 38.1285 290.331 39.7685 290.331 41.8485C290.331 43.9285 291.831 45.5685 293.751 45.5685C294.771 45.5685 295.811 45.1085 296.511 44.3485L297.451 45.3685C296.491 46.3285 295.131 46.8885 293.691 46.8885ZM303.493 46.8885C300.793 46.8885 298.753 44.7285 298.753 41.8485C298.753 38.9685 300.793 36.8085 303.493 36.8085C306.193 36.8085 308.233 38.9685 308.233 41.8485C308.233 44.7285 306.193 46.8885 303.493 46.8885ZM303.493 45.6085C305.393 45.6085 306.793 43.9885 306.793 41.8485C306.793 39.7085 305.393 38.0885 303.493 38.0885C301.593 38.0885 300.193 39.7085 300.193 41.8485C300.193 43.9885 301.593 45.6085 303.493 45.6085ZM310.795 46.7285V36.9685H312.255V38.5485C312.995 37.3885 314.055 36.8085 315.355 36.8085C317.455 36.8085 318.895 38.2685 318.895 40.4085V46.7285H317.435V40.8285C317.435 39.1085 316.415 38.0285 314.815 38.0285C313.735 38.0285 312.835 38.5485 312.255 39.5285V46.7285H310.795ZM325.257 46.9285C323.577 46.9285 322.697 46.1085 322.697 44.5485V38.1685H320.677V36.9685H322.697V34.2885L324.157 33.9485V36.9685H326.957V38.1685H324.157V44.1685C324.157 45.2085 324.557 45.6285 325.577 45.6285C326.077 45.6285 326.417 45.5685 326.957 45.3685V46.6685C326.417 46.8485 325.817 46.9285 325.257 46.9285ZM333.3 46.9285C330.56 46.9285 328.46 44.7285 328.46 41.8485C328.46 38.9885 330.46 36.8085 333.06 36.8085C335.62 36.8085 337.54 38.9285 337.54 41.7285V42.1685H329.88C330.02 44.1685 331.5 45.6485 333.36 45.6485C334.38 45.6485 335.38 45.2685 336.04 44.6485L336.96 45.6285C335.84 46.5085 334.66 46.9285 333.3 46.9285ZM329.92 41.1285H336.1C335.88 39.3685 334.64 38.0685 333.04 38.0685C331.42 38.0685 330.18 39.3285 329.92 41.1285ZM338.188 46.7285L341.928 41.6685L338.408 36.9685H340.148L342.848 40.6885L345.528 36.9685H347.188L343.648 41.7085L347.408 46.7285H345.668L342.748 42.7485L339.848 46.7285H338.188ZM352.699 46.9285C351.019 46.9285 350.139 46.1085 350.139 44.5485V38.1685H348.119V36.9685H350.139V34.2885L351.599 33.9485V36.9685H354.399V38.1685H351.599V44.1685C351.599 45.2085 351.999 45.6285 353.019 45.6285C353.519 45.6285 353.859 45.5685 354.399 45.3685V46.6685C353.859 46.8485 353.259 46.9285 352.699 46.9285ZM356.037 49.8685L357.237 45.2485H358.797L357.177 49.8685H356.037ZM367.945 46.7285L365.265 36.9685H366.685L368.725 44.7685L371.065 36.9685H372.365L374.705 44.7685L376.725 36.9685H378.105L375.445 46.7285H374.025L371.705 38.8485L369.385 46.7285H367.945ZM380.17 46.7285V32.2885L381.63 31.9885V38.5485C382.37 37.3885 383.43 36.8085 384.73 36.8085C386.83 36.8085 388.27 38.2685 388.27 40.4085V46.7285H386.81V40.8285C386.81 39.1085 385.79 38.0285 384.19 38.0285C383.11 38.0285 382.21 38.5485 381.63 39.5285V46.7285H380.17ZM391.925 34.5485C391.345 34.5485 390.865 34.0685 390.865 33.5085C390.865 32.9485 391.345 32.4685 391.925 32.4685C392.505 32.4685 392.985 32.9485 392.985 33.5085C392.985 34.0685 392.505 34.5485 391.925 34.5485ZM391.185 46.7285V36.9685H392.645V46.7285H391.185ZM400.019 46.8885C397.299 46.8885 395.199 44.6685 395.199 41.8485C395.199 39.0285 397.299 36.8085 400.019 36.8085C401.459 36.8085 402.819 37.3685 403.779 38.3285L402.839 39.3485C402.139 38.5885 401.099 38.1285 400.079 38.1285C398.159 38.1285 396.659 39.7685 396.659 41.8485C396.659 43.9285 398.159 45.5685 400.079 45.5685C401.099 45.5685 402.139 45.1085 402.839 44.3485L403.779 45.3685C402.819 46.3285 401.459 46.8885 400.019 46.8885ZM405.814 46.7285V32.2885L407.274 31.9885V38.5485C408.014 37.3885 409.074 36.8085 410.374 36.8085C412.474 36.8085 413.914 38.2685 413.914 40.4085V46.7285H412.454V40.8285C412.454 39.1085 411.434 38.0285 409.834 38.0285C408.754 38.0285 407.854 38.5485 407.274 39.5285V46.7285H405.814ZM422.238 34.5485C421.658 34.5485 421.178 34.0685 421.178 33.5085C421.178 32.9485 421.658 32.4685 422.238 32.4685C422.818 32.4685 423.298 32.9485 423.298 33.5085C423.298 34.0685 422.818 34.5485 422.238 34.5485ZM421.498 46.7285V36.9685H422.958V46.7285H421.498ZM425.951 46.7285V36.9685H427.411V38.5485C428.151 37.3885 429.211 36.8085 430.511 36.8085C432.611 36.8085 434.051 38.2685 434.051 40.4085V46.7285H432.591V40.8285C432.591 39.1085 431.571 38.0285 429.971 38.0285C428.891 38.0285 427.991 38.5485 427.411 39.5285V46.7285H425.951ZM437.933 46.7285V38.1685H435.753V36.9685H437.933V34.9285C437.933 33.0085 438.973 31.9285 440.853 31.9285C441.393 31.9285 441.813 31.9885 442.173 32.1085V33.4285C441.733 33.3085 441.433 33.2485 440.993 33.2485C439.873 33.2485 439.393 33.7885 439.393 34.9485V36.9685H442.173V38.1685H439.393V46.7285H437.933ZM448.005 46.8885C445.305 46.8885 443.265 44.7285 443.265 41.8485C443.265 38.9685 445.305 36.8085 448.005 36.8085C450.705 36.8085 452.745 38.9685 452.745 41.8485C452.745 44.7285 450.705 46.8885 448.005 46.8885ZM448.005 45.6085C449.905 45.6085 451.305 43.9885 451.305 41.8485C451.305 39.7085 449.905 38.0885 448.005 38.0885C446.105 38.0885 444.705 39.7085 444.705 41.8485C444.705 43.9885 446.105 45.6085 448.005 45.6085ZM455.307 46.7285V36.9685H456.767V38.9685C457.267 37.6085 458.247 36.8085 459.487 36.8085C459.827 36.8085 460.107 36.8485 460.407 36.9485V38.2685C460.087 38.1685 459.707 38.0885 459.387 38.0885C458.187 38.0885 457.267 38.8085 456.767 40.0685V46.7285H455.307ZM462.338 46.7285V36.9685H463.798V38.4885C464.538 37.3685 465.498 36.8085 466.698 36.8085C468.078 36.8085 469.158 37.5485 469.698 38.7085C470.458 37.4485 471.538 36.8085 472.958 36.8085C474.918 36.8085 476.278 38.2885 476.278 40.4285V46.7285H474.818V40.7885C474.818 39.0885 473.898 38.0285 472.418 38.0285C471.398 38.0285 470.578 38.5285 469.978 39.5685C470.038 39.8485 470.058 40.1285 470.058 40.4285V46.7285H468.598V40.7885C468.598 39.0885 467.658 38.0285 466.178 38.0285C465.178 38.0285 464.378 38.5085 463.798 39.4685V46.7285H462.338ZM482.252 46.9085C480.172 46.9085 478.712 45.6885 478.712 43.9285C478.712 42.1885 480.172 41.0285 482.372 41.0285C483.492 41.0285 484.492 41.2685 485.352 41.7885V40.4485C485.352 38.8485 484.492 38.0285 482.832 38.0285C481.932 38.0285 481.012 38.2885 479.872 38.8685L479.332 37.7485C480.672 37.1085 481.832 36.8085 483.012 36.8085C485.432 36.8085 486.792 38.0285 486.792 40.2485V46.7285H485.352V45.5885C484.492 46.4685 483.452 46.9085 482.252 46.9085ZM480.112 43.8885C480.112 45.0285 481.092 45.7885 482.552 45.7885C483.652 45.7885 484.552 45.4285 485.352 44.6685V42.7885C484.532 42.3085 483.692 42.0885 482.592 42.0885C481.092 42.0885 480.112 42.8085 480.112 43.8885ZM493.187 46.9285C491.507 46.9285 490.627 46.1085 490.627 44.5485V38.1685H488.607V36.9685H490.627V34.2885L492.087 33.9485V36.9685H494.887V38.1685H492.087V44.1685C492.087 45.2085 492.487 45.6285 493.507 45.6285C494.007 45.6285 494.347 45.5685 494.887 45.3685V46.6685C494.347 46.8485 493.747 46.9285 493.187 46.9285ZM497.745 34.5485C497.165 34.5485 496.685 34.0685 496.685 33.5085C496.685 32.9485 497.165 32.4685 497.745 32.4685C498.325 32.4685 498.805 32.9485 498.805 33.5085C498.805 34.0685 498.325 34.5485 497.745 34.5485ZM497.005 46.7285V36.9685H498.465V46.7285H497.005ZM505.759 46.8885C503.059 46.8885 501.019 44.7285 501.019 41.8485C501.019 38.9685 503.059 36.8085 505.759 36.8085C508.459 36.8085 510.499 38.9685 510.499 41.8485C510.499 44.7285 508.459 46.8885 505.759 46.8885ZM505.759 45.6085C507.659 45.6085 509.059 43.9885 509.059 41.8485C509.059 39.7085 507.659 38.0885 505.759 38.0885C503.859 38.0885 502.459 39.7085 502.459 41.8485C502.459 43.9885 503.859 45.6085 505.759 45.6085ZM513.061 46.7285V36.9685H514.521V38.5485C515.261 37.3885 516.321 36.8085 517.621 36.8085C519.721 36.8085 521.161 38.2685 521.161 40.4085V46.7285H519.701V40.8285C519.701 39.1085 518.681 38.0285 517.081 38.0285C516.001 38.0285 515.101 38.5485 514.521 39.5285V46.7285H513.061ZM530.504 46.7285L527.824 36.9685H529.244L531.284 44.7685L533.624 36.9685H534.924L537.264 44.7685L539.284 36.9685H540.664L538.004 46.7285H536.584L534.264 38.8485L531.944 46.7285H530.504ZM546.833 46.8885C544.133 46.8885 542.093 44.7285 542.093 41.8485C542.093 38.9685 544.133 36.8085 546.833 36.8085C549.533 36.8085 551.573 38.9685 551.573 41.8485C551.573 44.7285 549.533 46.8885 546.833 46.8885ZM546.833 45.6085C548.733 45.6085 550.133 43.9885 550.133 41.8485C550.133 39.7085 548.733 38.0885 546.833 38.0885C544.933 38.0885 543.533 39.7085 543.533 41.8485C543.533 43.9885 544.933 45.6085 546.833 45.6085ZM557.615 46.8885C555.515 46.8885 554.075 45.4085 554.075 43.2685V36.9685H555.555V42.8485C555.555 44.5885 556.555 45.6685 558.155 45.6685C559.235 45.6685 560.135 45.1485 560.715 44.1885V36.9685H562.175V46.7285H560.715V45.1485C559.975 46.3085 558.935 46.8885 557.615 46.8885ZM565.17 46.7285V32.2885L566.63 31.9885V46.7285H565.17ZM573.683 46.8685C571.143 46.8685 569.183 44.6685 569.183 41.8685C569.183 39.0485 571.183 36.8485 573.763 36.8485C574.963 36.8485 576.023 37.3285 576.803 38.2085V32.2885L578.263 31.9885V46.7285H576.803V45.4285C576.063 46.3685 574.963 46.8685 573.683 46.8685ZM574.043 45.5885C575.183 45.5885 576.183 45.1285 576.803 44.2885V39.4485C576.163 38.6285 575.143 38.1285 574.043 38.1285C572.083 38.1285 570.623 39.7085 570.623 41.8485C570.623 43.9885 572.083 45.5885 574.043 45.5885ZM586.352 51.1085C586.072 51.1085 585.752 51.0685 585.412 50.9685V49.6685C585.672 49.7285 585.992 49.7485 586.212 49.7485C586.952 49.7485 587.412 49.3685 587.772 48.5085L588.492 46.7285L584.732 36.9685H586.352L589.312 44.9885L592.452 36.9685H594.072L589.152 48.9485C588.492 50.5285 587.792 51.1085 586.352 51.1085ZM599.9 46.8885C597.2 46.8885 595.16 44.7285 595.16 41.8485C595.16 38.9685 597.2 36.8085 599.9 36.8085C602.6 36.8085 604.64 38.9685 604.64 41.8485C604.64 44.7285 602.6 46.8885 599.9 46.8885ZM599.9 45.6085C601.8 45.6085 603.2 43.9885 603.2 41.8485C603.2 39.7085 601.8 38.0885 599.9 38.0885C598 38.0885 596.6 39.7085 596.6 41.8485C596.6 43.9885 598 45.6085 599.9 45.6085ZM610.681 46.8885C608.581 46.8885 607.141 45.4085 607.141 43.2685V36.9685H608.621V42.8485C608.621 44.5885 609.621 45.6685 611.221 45.6685C612.301 45.6685 613.201 45.1485 613.781 44.1885V36.9685H615.241V46.7285H613.781V45.1485C613.041 46.3085 612.001 46.8885 610.681 46.8885ZM624.644 46.7285L621.964 36.9685H623.384L625.424 44.7685L627.764 36.9685H629.064L631.404 44.7685L633.424 36.9685H634.804L632.144 46.7285H630.724L628.404 38.8485L626.084 46.7285H624.644ZM639.791 46.9085C637.711 46.9085 636.251 45.6885 636.251 43.9285C636.251 42.1885 637.711 41.0285 639.911 41.0285C641.031 41.0285 642.031 41.2685 642.891 41.7885V40.4485C642.891 38.8485 642.031 38.0285 640.371 38.0285C639.471 38.0285 638.551 38.2885 637.411 38.8685L636.871 37.7485C638.211 37.1085 639.371 36.8085 640.551 36.8085C642.971 36.8085 644.331 38.0285 644.331 40.2485V46.7285H642.891V45.5885C642.031 46.4685 640.991 46.9085 639.791 46.9085ZM637.651 43.8885C637.651 45.0285 638.631 45.7885 640.091 45.7885C641.191 45.7885 642.091 45.4285 642.891 44.6685V42.7885C642.071 42.3085 641.231 42.0885 640.131 42.0885C638.631 42.0885 637.651 42.8085 637.651 43.8885ZM647.299 46.7285V36.9685H648.759V38.5485C649.499 37.3885 650.559 36.8085 651.859 36.8085C653.959 36.8085 655.399 38.2685 655.399 40.4085V46.7285H653.939V40.8285C653.939 39.1085 652.919 38.0285 651.319 38.0285C650.239 38.0285 649.339 38.5485 648.759 39.5285V46.7285H647.299ZM661.761 46.9285C660.081 46.9285 659.201 46.1085 659.201 44.5485V38.1685H657.181V36.9685H659.201V34.2885L660.661 33.9485V36.9685H663.461V38.1685H660.661V44.1685C660.661 45.2085 661.061 45.6285 662.081 45.6285C662.581 45.6285 662.921 45.5685 663.461 45.3685V46.6685C662.921 46.8485 662.321 46.9285 661.761 46.9285ZM673.988 46.9285C672.308 46.9285 671.428 46.1085 671.428 44.5485V38.1685H669.408V36.9685H671.428V34.2885L672.888 33.9485V36.9685H675.688V38.1685H672.888V44.1685C672.888 45.2085 673.288 45.6285 674.308 45.6285C674.808 45.6285 675.148 45.5685 675.688 45.3685V46.6685C675.148 46.8485 674.548 46.9285 673.988 46.9285ZM681.931 46.8885C679.231 46.8885 677.191 44.7285 677.191 41.8485C677.191 38.9685 679.231 36.8085 681.931 36.8085C684.631 36.8085 686.671 38.9685 686.671 41.8485C686.671 44.7285 684.631 46.8885 681.931 46.8885ZM681.931 45.6085C683.831 45.6085 685.231 43.9885 685.231 41.8485C685.231 39.7085 683.831 38.0885 681.931 38.0885C680.031 38.0885 678.631 39.7085 678.631 41.8485C678.631 43.9885 680.031 45.6085 681.931 45.6085ZM696.92 46.9285C695.32 46.9285 693.92 46.4285 692.96 45.4885L693.74 44.5285C694.9 45.3885 695.84 45.7485 696.88 45.7485C698.3 45.7485 699.34 45.0085 699.34 43.9685C699.34 43.1685 698.82 42.7485 697.58 42.5085L695.98 42.2285C694.08 41.8885 693.22 41.0885 693.22 39.6685C693.22 37.9885 694.68 36.8085 696.74 36.8085C698.08 36.8085 699.22 37.1885 700.46 38.0285L699.74 39.0485C698.72 38.3285 697.72 38.0085 696.68 38.0085C695.4 38.0085 694.56 38.6085 694.56 39.5685C694.56 40.3685 694.98 40.7485 696.24 40.9685L697.88 41.2685C699.84 41.6285 700.72 42.4485 700.72 43.8885C700.72 45.6085 699.08 46.9285 696.92 46.9285ZM707.441 46.9285C704.701 46.9285 702.601 44.7285 702.601 41.8485C702.601 38.9885 704.601 36.8085 707.201 36.8085C709.761 36.8085 711.681 38.9285 711.681 41.7285V42.1685H704.021C704.161 44.1685 705.641 45.6485 707.501 45.6485C708.521 45.6485 709.521 45.2685 710.181 44.6485L711.101 45.6285C709.981 46.5085 708.801 46.9285 707.441 46.9285ZM704.061 41.1285H710.241C710.021 39.3685 708.781 38.0685 707.181 38.0685C705.561 38.0685 704.321 39.3285 704.061 41.1285ZM718.574 46.9285C715.834 46.9285 713.734 44.7285 713.734 41.8485C713.734 38.9885 715.734 36.8085 718.334 36.8085C720.894 36.8085 722.814 38.9285 722.814 41.7285V42.1685H715.154C715.294 44.1685 716.774 45.6485 718.634 45.6485C719.654 45.6485 720.654 45.2685 721.314 44.6485L722.234 45.6285C721.114 46.5085 719.934 46.9285 718.574 46.9285ZM715.194 41.1285H721.374C721.154 39.3685 719.914 38.0685 718.314 38.0685C716.694 38.0685 715.454 39.3285 715.194 41.1285ZM731.215 46.7285V38.1685H729.035V36.9685H731.215V34.9285C731.215 33.0085 732.255 31.9285 734.135 31.9285C734.675 31.9285 735.095 31.9885 735.455 32.1085V33.4285C735.015 33.3085 734.715 33.2485 734.275 33.2485C733.155 33.2485 732.675 33.7885 732.675 34.9485V36.9685H735.455V38.1685H732.675V46.7285H731.215ZM738.097 34.5485C737.517 34.5485 737.037 34.0685 737.037 33.5085C737.037 32.9485 737.517 32.4685 738.097 32.4685C738.677 32.4685 739.157 32.9485 739.157 33.5085C739.157 34.0685 738.677 34.5485 738.097 34.5485ZM737.357 46.7285V36.9685H738.817V46.7285H737.357ZM741.811 46.7285V36.9685H743.271V38.9685C743.771 37.6085 744.751 36.8085 745.991 36.8085C746.331 36.8085 746.611 36.8485 746.911 36.9485V38.2685C746.591 38.1685 746.211 38.0885 745.891 38.0885C744.691 38.0885 743.771 38.8085 743.271 40.0685V46.7285H741.811ZM751.764 46.9285C750.164 46.9285 748.764 46.4285 747.804 45.4885L748.584 44.5285C749.744 45.3885 750.684 45.7485 751.724 45.7485C753.144 45.7485 754.184 45.0085 754.184 43.9685C754.184 43.1685 753.664 42.7485 752.424 42.5085L750.824 42.2285C748.924 41.8885 748.064 41.0885 748.064 39.6685C748.064 37.9885 749.524 36.8085 751.584 36.8085C752.924 36.8085 754.064 37.1885 755.304 38.0285L754.584 39.0485C753.564 38.3285 752.564 38.0085 751.524 38.0085C750.244 38.0085 749.404 38.6085 749.404 39.5685C749.404 40.3685 749.824 40.7485 751.084 40.9685L752.724 41.2685C754.684 41.6285 755.564 42.4485 755.564 43.8885C755.564 45.6085 753.924 46.9285 751.764 46.9285ZM761.312 46.9285C759.632 46.9285 758.752 46.1085 758.752 44.5485V38.1685H756.732V36.9685H758.752V34.2885L760.212 33.9485V36.9685H763.012V38.1685H760.212V44.1685C760.212 45.2085 760.612 45.6285 761.632 45.6285C762.132 45.6285 762.472 45.5685 763.012 45.3685V46.6685C762.472 46.8485 761.872 46.9285 761.312 46.9285ZM767.608 42.5885C767.508 40.9285 767.928 39.9485 769.168 39.0285L770.008 38.4085C771.108 37.5685 771.508 36.9485 771.508 36.0485C771.508 34.8285 770.308 33.8885 768.768 33.8885C767.508 33.8885 766.408 34.5085 765.548 35.6885L764.428 34.9285C765.508 33.4085 767.068 32.5685 768.828 32.5685C771.168 32.5685 772.928 34.0485 772.928 36.0285C772.928 37.4085 772.388 38.2485 770.688 39.4685L770.048 39.9485C769.128 40.6285 768.788 41.3885 768.868 42.5885H767.608ZM768.268 46.8885C767.668 46.8885 767.208 46.4085 767.208 45.8285C767.208 45.2285 767.668 44.7685 768.268 44.7685C768.848 44.7685 769.308 45.2285 769.308 45.8285C769.308 46.4085 768.848 46.8885 768.268 46.8885Z" fill="black"/>
<rect x="412" y="167" width="10" height="10" fill="#2097F6"/>
<path d="M431.78 179V165H433.92L438.6 174.96L443.28 165H445.42V179H443.96V166.82L438.6 178L433.22 166.78V179H431.78ZM453.007 179.16C452.114 179.16 451.307 178.94 450.587 178.5C449.867 178.06 449.3 177.46 448.887 176.7C448.474 175.94 448.267 175.08 448.267 174.12C448.267 173.16 448.474 172.3 448.887 171.54C449.3 170.78 449.867 170.18 450.587 169.74C451.307 169.3 452.114 169.08 453.007 169.08C453.914 169.08 454.72 169.3 455.427 169.74C456.147 170.18 456.714 170.78 457.127 171.54C457.54 172.3 457.747 173.16 457.747 174.12C457.747 175.08 457.54 175.94 457.127 176.7C456.714 177.46 456.147 178.06 455.427 178.5C454.72 178.94 453.914 179.16 453.007 179.16ZM453.007 177.88C453.647 177.88 454.214 177.72 454.707 177.4C455.2 177.067 455.587 176.613 455.867 176.04C456.16 175.467 456.307 174.827 456.307 174.12C456.307 173.4 456.16 172.76 455.867 172.2C455.587 171.627 455.2 171.18 454.707 170.86C454.214 170.527 453.647 170.36 453.007 170.36C452.367 170.36 451.8 170.527 451.307 170.86C450.814 171.18 450.42 171.627 450.127 172.2C449.847 172.76 449.707 173.4 449.707 174.12C449.707 174.827 449.847 175.467 450.127 176.04C450.42 176.613 450.814 177.067 451.307 177.4C451.8 177.72 452.367 177.88 453.007 177.88ZM464.369 179.14C463.529 179.14 462.769 178.92 462.089 178.48C461.409 178.027 460.869 177.427 460.469 176.68C460.069 175.92 459.869 175.073 459.869 174.14C459.869 173.193 460.069 172.347 460.469 171.6C460.882 170.84 461.435 170.24 462.129 169.8C462.822 169.347 463.595 169.12 464.449 169.12C465.049 169.12 465.609 169.24 466.129 169.48C466.649 169.707 467.102 170.04 467.489 170.48V164.56L468.949 164.26V179H467.489V177.7C467.115 178.167 466.662 178.527 466.129 178.78C465.595 179.02 465.009 179.14 464.369 179.14ZM464.729 177.86C465.302 177.86 465.829 177.747 466.309 177.52C466.789 177.293 467.182 176.973 467.489 176.56V171.72C467.169 171.307 466.762 170.987 466.269 170.76C465.789 170.52 465.275 170.4 464.729 170.4C464.075 170.4 463.489 170.56 462.969 170.88C462.462 171.2 462.055 171.64 461.749 172.2C461.455 172.76 461.309 173.4 461.309 174.12C461.309 174.827 461.455 175.467 461.749 176.04C462.055 176.6 462.462 177.047 462.969 177.38C463.489 177.7 464.075 177.86 464.729 177.86ZM476.349 179.2C475.443 179.2 474.623 178.98 473.889 178.54C473.156 178.087 472.576 177.48 472.149 176.72C471.723 175.947 471.509 175.08 471.509 174.12C471.509 173.16 471.709 172.3 472.109 171.54C472.523 170.78 473.076 170.18 473.769 169.74C474.463 169.3 475.243 169.08 476.109 169.08C476.963 169.08 477.723 169.3 478.389 169.74C479.069 170.167 479.603 170.753 479.989 171.5C480.389 172.233 480.589 173.067 480.589 174V174.44H472.929C472.983 175.107 473.163 175.707 473.469 176.24C473.789 176.76 474.203 177.173 474.709 177.48C475.229 177.773 475.796 177.92 476.409 177.92C476.916 177.92 477.403 177.833 477.869 177.66C478.349 177.473 478.756 177.227 479.089 176.92L480.009 177.9C479.449 178.34 478.869 178.667 478.269 178.88C477.669 179.093 477.029 179.2 476.349 179.2ZM472.969 173.4H479.149C479.083 172.813 478.903 172.293 478.609 171.84C478.329 171.373 477.969 171.007 477.529 170.74C477.103 170.473 476.623 170.34 476.089 170.34C475.556 170.34 475.069 170.473 474.629 170.74C474.189 170.993 473.823 171.353 473.529 171.82C473.249 172.273 473.063 172.8 472.969 173.4ZM483.082 179V164.56L484.542 164.26V179H483.082ZM496.263 179.14C495.423 179.14 494.663 178.92 493.983 178.48C493.303 178.027 492.763 177.427 492.363 176.68C491.963 175.92 491.763 175.073 491.763 174.14C491.763 173.193 491.963 172.347 492.363 171.6C492.776 170.84 493.33 170.24 494.023 169.8C494.716 169.347 495.49 169.12 496.343 169.12C496.943 169.12 497.503 169.24 498.023 169.48C498.543 169.707 498.996 170.04 499.383 170.48V164.56L500.843 164.26V179H499.383V177.7C499.01 178.167 498.556 178.527 498.023 178.78C497.49 179.02 496.903 179.14 496.263 179.14ZM496.623 177.86C497.196 177.86 497.723 177.747 498.203 177.52C498.683 177.293 499.076 176.973 499.383 176.56V171.72C499.063 171.307 498.656 170.987 498.163 170.76C497.683 170.52 497.17 170.4 496.623 170.4C495.97 170.4 495.383 170.56 494.863 170.88C494.356 171.2 493.95 171.64 493.643 172.2C493.35 172.76 493.203 173.4 493.203 174.12C493.203 174.827 493.35 175.467 493.643 176.04C493.95 176.6 494.356 177.047 494.863 177.38C495.383 177.7 495.97 177.86 496.623 177.86ZM508.244 179.2C507.337 179.2 506.517 178.98 505.784 178.54C505.05 178.087 504.47 177.48 504.044 176.72C503.617 175.947 503.404 175.08 503.404 174.12C503.404 173.16 503.604 172.3 504.004 171.54C504.417 170.78 504.97 170.18 505.664 169.74C506.357 169.3 507.137 169.08 508.004 169.08C508.857 169.08 509.617 169.3 510.284 169.74C510.964 170.167 511.497 170.753 511.884 171.5C512.284 172.233 512.484 173.067 512.484 174V174.44H504.824C504.877 175.107 505.057 175.707 505.364 176.24C505.684 176.76 506.097 177.173 506.604 177.48C507.124 177.773 507.69 177.92 508.304 177.92C508.81 177.92 509.297 177.833 509.764 177.66C510.244 177.473 510.65 177.227 510.984 176.92L511.904 177.9C511.344 178.34 510.764 178.667 510.164 178.88C509.564 179.093 508.924 179.2 508.244 179.2ZM504.864 173.4H511.044C510.977 172.813 510.797 172.293 510.504 171.84C510.224 171.373 509.864 171.007 509.424 170.74C508.997 170.473 508.517 170.34 507.984 170.34C507.45 170.34 506.964 170.473 506.524 170.74C506.084 170.993 505.717 171.353 505.424 171.82C505.144 172.273 504.957 172.8 504.864 173.4ZM518.404 179.2C517.564 179.2 516.924 179 516.484 178.6C516.057 178.187 515.844 177.593 515.844 176.82V170.44H513.824V169.24H515.844V166.56L517.304 166.22V169.24H520.104V170.44H517.304V176.44C517.304 176.96 517.41 177.333 517.624 177.56C517.85 177.787 518.217 177.9 518.724 177.9C518.977 177.9 519.204 177.88 519.404 177.84C519.604 177.8 519.837 177.733 520.104 177.64V178.94C519.837 179.033 519.557 179.1 519.264 179.14C518.97 179.18 518.684 179.2 518.404 179.2ZM525.262 179.18C524.569 179.18 523.956 179.053 523.422 178.8C522.889 178.547 522.469 178.2 522.162 177.76C521.869 177.307 521.722 176.787 521.722 176.2C521.722 175.613 521.876 175.107 522.182 174.68C522.489 174.24 522.916 173.9 523.462 173.66C524.009 173.42 524.649 173.3 525.382 173.3C525.942 173.3 526.469 173.36 526.962 173.48C527.469 173.6 527.936 173.793 528.362 174.06V172.72C528.362 171.92 528.149 171.32 527.722 170.92C527.296 170.507 526.669 170.3 525.842 170.3C525.389 170.3 524.922 170.367 524.442 170.5C523.976 170.633 523.456 170.847 522.882 171.14L522.342 170.02C523.649 169.393 524.876 169.08 526.022 169.08C527.236 169.08 528.169 169.38 528.822 169.98C529.476 170.567 529.802 171.413 529.802 172.52V179H528.362V177.86C527.936 178.3 527.462 178.633 526.942 178.86C526.422 179.073 525.862 179.18 525.262 179.18ZM523.122 176.16C523.122 176.733 523.342 177.193 523.782 177.54C524.236 177.887 524.829 178.06 525.562 178.06C526.109 178.06 526.609 177.967 527.062 177.78C527.529 177.593 527.962 177.313 528.362 176.94V175.06C527.949 174.82 527.522 174.647 527.082 174.54C526.642 174.42 526.149 174.36 525.602 174.36C524.856 174.36 524.256 174.527 523.802 174.86C523.349 175.18 523.122 175.613 523.122 176.16ZM532.75 179V169.24H534.21V179H532.75ZM533.49 166.82C533.196 166.82 532.943 166.72 532.73 166.52C532.53 166.307 532.43 166.06 532.43 165.78C532.43 165.5 532.53 165.26 532.73 165.06C532.943 164.847 533.196 164.74 533.49 164.74C533.783 164.74 534.03 164.847 534.23 165.06C534.443 165.26 534.55 165.5 534.55 165.78C534.55 166.06 534.443 166.307 534.23 166.52C534.03 166.72 533.783 166.82 533.49 166.82ZM537.203 179V164.56L538.663 164.26V179H537.203ZM544.676 179.2C543.876 179.2 543.136 179.08 542.456 178.84C541.776 178.587 541.196 178.227 540.716 177.76L541.496 176.8C542.083 177.227 542.623 177.54 543.116 177.74C543.61 177.927 544.116 178.02 544.636 178.02C545.343 178.02 545.93 177.853 546.396 177.52C546.863 177.187 547.096 176.76 547.096 176.24C547.096 175.84 546.956 175.527 546.676 175.3C546.41 175.073 545.963 174.9 545.336 174.78L543.736 174.5C542.79 174.327 542.09 174.033 541.636 173.62C541.196 173.207 540.976 172.647 540.976 171.94C540.976 171.38 541.123 170.887 541.416 170.46C541.723 170.033 542.143 169.7 542.676 169.46C543.21 169.207 543.816 169.08 544.496 169.08C545.163 169.08 545.796 169.18 546.396 169.38C546.996 169.567 547.603 169.873 548.216 170.3L547.496 171.32C546.99 170.96 546.483 170.7 545.976 170.54C545.47 170.367 544.956 170.28 544.436 170.28C543.796 170.28 543.283 170.42 542.896 170.7C542.51 170.98 542.316 171.36 542.316 171.84C542.316 172.24 542.436 172.547 542.676 172.76C542.93 172.973 543.37 173.133 543.996 173.24L545.636 173.54C546.623 173.713 547.343 174.013 547.796 174.44C548.25 174.867 548.476 175.44 548.476 176.16C548.476 176.733 548.31 177.253 547.976 177.72C547.643 178.173 547.19 178.533 546.616 178.8C546.043 179.067 545.396 179.2 544.676 179.2ZM551.699 179.16C551.406 179.16 551.153 179.053 550.939 178.84C550.739 178.627 550.639 178.373 550.639 178.08C550.639 177.773 550.739 177.52 550.939 177.32C551.153 177.107 551.406 177 551.699 177C551.993 177 552.239 177.107 552.439 177.32C552.653 177.52 552.759 177.773 552.759 178.08C552.759 178.373 552.653 178.627 552.439 178.84C552.239 179.053 551.993 179.16 551.699 179.16ZM551.699 171.22C551.406 171.22 551.153 171.113 550.939 170.9C550.739 170.687 550.639 170.433 550.639 170.14C550.639 169.833 550.739 169.58 550.939 169.38C551.153 169.167 551.406 169.06 551.699 169.06C551.993 169.06 552.239 169.167 552.439 169.38C552.653 169.58 552.759 169.833 552.759 170.14C552.759 170.433 552.653 170.687 552.439 170.9C552.239 171.113 551.993 171.22 551.699 171.22ZM561.327 179L568.287 166.26H559.887V165H569.847V166.12L562.967 179H561.327ZM576.619 179.22C574.779 179.22 573.193 178.587 571.859 177.32L572.759 176.34C573.373 176.913 573.979 177.333 574.579 177.6C575.193 177.853 575.879 177.98 576.639 177.98C577.319 177.98 577.919 177.84 578.439 177.56C578.959 177.28 579.359 176.887 579.639 176.38C579.933 175.873 580.079 175.293 580.079 174.64C580.079 173.707 579.759 172.953 579.119 172.38C578.493 171.807 577.666 171.52 576.639 171.52C576.106 171.52 575.586 171.587 575.079 171.72C574.573 171.84 574.046 172.04 573.499 172.32L572.499 172L572.819 165H580.779V166.26H574.059L573.839 171.1C574.373 170.833 574.886 170.647 575.379 170.54C575.873 170.42 576.393 170.36 576.939 170.36C577.859 170.36 578.659 170.54 579.339 170.9C580.033 171.247 580.566 171.74 580.939 172.38C581.326 173.007 581.519 173.74 581.519 174.58C581.519 175.5 581.313 176.307 580.899 177C580.486 177.693 579.913 178.24 579.179 178.64C578.446 179.027 577.593 179.22 576.619 179.22ZM586.352 172.1C585.485 172.1 584.778 171.767 584.232 171.1C583.698 170.433 583.432 169.567 583.432 168.5C583.432 167.433 583.698 166.567 584.232 165.9C584.778 165.233 585.485 164.9 586.352 164.9C587.218 164.9 587.918 165.233 588.452 165.9C588.998 166.567 589.272 167.433 589.272 168.5C589.272 169.567 588.998 170.433 588.452 171.1C587.918 171.767 587.218 172.1 586.352 172.1ZM586.352 171.2C586.938 171.2 587.405 170.96 587.752 170.48C588.098 169.987 588.272 169.327 588.272 168.5C588.272 167.673 588.098 167.02 587.752 166.54C587.405 166.047 586.938 165.8 586.352 165.8C585.778 165.8 585.312 166.047 584.952 166.54C584.605 167.02 584.432 167.673 584.432 168.5C584.432 169.327 584.605 169.987 584.952 170.48C585.312 170.96 585.778 171.2 586.352 171.2ZM585.732 179L593.592 165H594.752L586.872 179H585.732ZM594.152 179.1C593.285 179.1 592.578 178.767 592.032 178.1C591.498 177.433 591.232 176.567 591.232 175.5C591.232 174.433 591.498 173.567 592.032 172.9C592.578 172.233 593.285 171.9 594.152 171.9C595.018 171.9 595.718 172.233 596.252 172.9C596.798 173.567 597.072 174.433 597.072 175.5C597.072 176.567 596.798 177.433 596.252 178.1C595.718 178.767 595.018 179.1 594.152 179.1ZM594.152 178.2C594.738 178.2 595.205 177.96 595.552 177.48C595.898 176.987 596.072 176.327 596.072 175.5C596.072 174.673 595.898 174.02 595.552 173.54C595.205 173.047 594.738 172.8 594.152 172.8C593.578 172.8 593.112 173.047 592.752 173.54C592.405 174.02 592.232 174.673 592.232 175.5C592.232 176.327 592.405 176.987 592.752 177.48C593.112 177.96 593.578 178.2 594.152 178.2Z" fill="#151515"/>
<rect x="412" y="201" width="10" height="10" fill="#FF5A43"/>
<path d="M431.78 213V199H437.52C438.413 199 439.193 199.173 439.86 199.52C440.527 199.853 441.047 200.32 441.42 200.92C441.793 201.52 441.98 202.227 441.98 203.04C441.98 203.973 441.72 204.773 441.2 205.44C440.68 206.093 439.967 206.553 439.06 206.82L442.04 213H440.34L437.5 207.02H433.32V213H431.78ZM433.32 205.74H437.4C438.32 205.74 439.053 205.5 439.6 205.02C440.16 204.527 440.44 203.873 440.44 203.06C440.44 202.233 440.16 201.58 439.6 201.1C439.053 200.607 438.32 200.36 437.4 200.36H433.32V205.74ZM448.341 213.2C447.435 213.2 446.615 212.98 445.881 212.54C445.148 212.087 444.568 211.48 444.141 210.72C443.715 209.947 443.501 209.08 443.501 208.12C443.501 207.16 443.701 206.3 444.101 205.54C444.515 204.78 445.068 204.18 445.761 203.74C446.455 203.3 447.235 203.08 448.101 203.08C448.955 203.08 449.715 203.3 450.381 203.74C451.061 204.167 451.595 204.753 451.981 205.5C452.381 206.233 452.581 207.067 452.581 208V208.44H444.921C444.975 209.107 445.155 209.707 445.461 210.24C445.781 210.76 446.195 211.173 446.701 211.48C447.221 211.773 447.788 211.92 448.401 211.92C448.908 211.92 449.395 211.833 449.861 211.66C450.341 211.473 450.748 211.227 451.081 210.92L452.001 211.9C451.441 212.34 450.861 212.667 450.261 212.88C449.661 213.093 449.021 213.2 448.341 213.2ZM444.961 207.4H451.141C451.075 206.813 450.895 206.293 450.601 205.84C450.321 205.373 449.961 205.007 449.521 204.74C449.095 204.473 448.615 204.34 448.081 204.34C447.548 204.34 447.061 204.473 446.621 204.74C446.181 204.993 445.815 205.353 445.521 205.82C445.241 206.273 445.055 206.8 444.961 207.4ZM459.454 213.16C458.548 213.16 457.728 212.94 456.994 212.5C456.274 212.047 455.701 211.44 455.274 210.68C454.848 209.907 454.634 209.053 454.634 208.12C454.634 207.173 454.848 206.32 455.274 205.56C455.701 204.8 456.274 204.2 456.994 203.76C457.728 203.307 458.548 203.08 459.454 203.08C460.174 203.08 460.861 203.213 461.514 203.48C462.168 203.747 462.734 204.12 463.214 204.6L462.274 205.62C461.928 205.233 461.508 204.933 461.014 204.72C460.521 204.507 460.021 204.4 459.514 204.4C458.874 204.4 458.294 204.567 457.774 204.9C457.268 205.233 456.861 205.68 456.554 206.24C456.248 206.8 456.094 207.427 456.094 208.12C456.094 208.813 456.248 209.44 456.554 210C456.861 210.56 457.268 211.007 457.774 211.34C458.294 211.673 458.874 211.84 459.514 211.84C460.021 211.84 460.521 211.733 461.014 211.52C461.508 211.293 461.928 210.993 462.274 210.62L463.214 211.64C462.734 212.12 462.168 212.493 461.514 212.76C460.861 213.027 460.174 213.16 459.454 213.16ZM469.257 213.16C468.364 213.16 467.557 212.94 466.837 212.5C466.117 212.06 465.55 211.46 465.137 210.7C464.724 209.94 464.517 209.08 464.517 208.12C464.517 207.16 464.724 206.3 465.137 205.54C465.55 204.78 466.117 204.18 466.837 203.74C467.557 203.3 468.364 203.08 469.257 203.08C470.164 203.08 470.97 203.3 471.677 203.74C472.397 204.18 472.964 204.78 473.377 205.54C473.79 206.3 473.997 207.16 473.997 208.12C473.997 209.08 473.79 209.94 473.377 210.7C472.964 211.46 472.397 212.06 471.677 212.5C470.97 212.94 470.164 213.16 469.257 213.16ZM469.257 211.88C469.897 211.88 470.464 211.72 470.957 211.4C471.45 211.067 471.837 210.613 472.117 210.04C472.41 209.467 472.557 208.827 472.557 208.12C472.557 207.4 472.41 206.76 472.117 206.2C471.837 205.627 471.45 205.18 470.957 204.86C470.464 204.527 469.897 204.36 469.257 204.36C468.617 204.36 468.05 204.527 467.557 204.86C467.064 205.18 466.67 205.627 466.377 206.2C466.097 206.76 465.957 207.4 465.957 208.12C465.957 208.827 466.097 209.467 466.377 210.04C466.67 210.613 467.064 211.067 467.557 211.4C468.05 211.72 468.617 211.88 469.257 211.88ZM476.559 213V203.24H478.019V204.76C478.392 204.2 478.819 203.78 479.299 203.5C479.779 203.22 480.319 203.08 480.919 203.08C481.612 203.08 482.219 203.253 482.739 203.6C483.259 203.933 483.652 204.393 483.919 204.98C484.305 204.353 484.765 203.88 485.299 203.56C485.845 203.24 486.472 203.08 487.179 203.08C487.832 203.08 488.405 203.233 488.899 203.54C489.405 203.847 489.799 204.273 490.079 204.82C490.359 205.353 490.499 205.98 490.499 206.7V213H489.039V207.06C489.039 206.207 488.825 205.533 488.399 205.04C487.972 204.547 487.385 204.3 486.639 204.3C486.132 204.3 485.672 204.427 485.259 204.68C484.859 204.933 484.505 205.32 484.199 205.84C484.225 205.973 484.245 206.113 484.259 206.26C484.272 206.407 484.279 206.553 484.279 206.7V213H482.819V207.06C482.819 206.207 482.599 205.533 482.159 205.04C481.732 204.547 481.145 204.3 480.399 204.3C479.399 204.3 478.605 204.78 478.019 205.74V213H476.559ZM493.453 213V203.24H494.913V204.76C495.286 204.2 495.713 203.78 496.193 203.5C496.673 203.22 497.213 203.08 497.813 203.08C498.506 203.08 499.113 203.253 499.633 203.6C500.153 203.933 500.546 204.393 500.813 204.98C501.2 204.353 501.66 203.88 502.193 203.56C502.74 203.24 503.366 203.08 504.073 203.08C504.726 203.08 505.3 203.233 505.793 203.54C506.3 203.847 506.693 204.273 506.973 204.82C507.253 205.353 507.393 205.98 507.393 206.7V213H505.933V207.06C505.933 206.207 505.72 205.533 505.293 205.04C504.866 204.547 504.28 204.3 503.533 204.3C503.026 204.3 502.566 204.427 502.153 204.68C501.753 204.933 501.4 205.32 501.093 205.84C501.12 205.973 501.14 206.113 501.153 206.26C501.166 206.407 501.173 206.553 501.173 206.7V213H499.713V207.06C499.713 206.207 499.493 205.533 499.053 205.04C498.626 204.547 498.04 204.3 497.293 204.3C496.293 204.3 495.5 204.78 494.913 205.74V213H493.453ZM514.748 213.2C513.841 213.2 513.021 212.98 512.288 212.54C511.554 212.087 510.974 211.48 510.548 210.72C510.121 209.947 509.908 209.08 509.908 208.12C509.908 207.16 510.108 206.3 510.508 205.54C510.921 204.78 511.474 204.18 512.168 203.74C512.861 203.3 513.641 203.08 514.508 203.08C515.361 203.08 516.121 203.3 516.788 203.74C517.468 204.167 518.001 204.753 518.388 205.5C518.788 206.233 518.988 207.067 518.988 208V208.44H511.328C511.381 209.107 511.561 209.707 511.868 210.24C512.188 210.76 512.601 211.173 513.108 211.48C513.628 211.773 514.194 211.92 514.808 211.92C515.314 211.92 515.801 211.833 516.268 211.66C516.748 211.473 517.154 211.227 517.488 210.92L518.408 211.9C517.848 212.34 517.268 212.667 516.668 212.88C516.068 213.093 515.428 213.2 514.748 213.2ZM511.368 207.4H517.548C517.481 206.813 517.301 206.293 517.008 205.84C516.728 205.373 516.368 205.007 515.928 204.74C515.501 204.473 515.021 204.34 514.488 204.34C513.954 204.34 513.468 204.473 513.028 204.74C512.588 204.993 512.221 205.353 511.928 205.82C511.648 206.273 511.461 206.8 511.368 207.4ZM521.48 213V203.24H522.94V204.82C523.314 204.233 523.76 203.8 524.28 203.52C524.8 203.227 525.387 203.08 526.04 203.08C526.747 203.08 527.36 203.233 527.88 203.54C528.414 203.833 528.827 204.253 529.12 204.8C529.427 205.333 529.58 205.96 529.58 206.68V213H528.12V207.1C528.12 206.233 527.88 205.553 527.4 205.06C526.934 204.553 526.3 204.3 525.5 204.3C524.967 204.3 524.48 204.427 524.04 204.68C523.6 204.933 523.234 205.307 522.94 205.8V213H521.48ZM536.576 213.14C535.736 213.14 534.976 212.92 534.296 212.48C533.616 212.027 533.076 211.427 532.676 210.68C532.276 209.92 532.076 209.073 532.076 208.14C532.076 207.193 532.276 206.347 532.676 205.6C533.089 204.84 533.642 204.24 534.336 203.8C535.029 203.347 535.802 203.12 536.656 203.12C537.256 203.12 537.816 203.24 538.336 203.48C538.856 203.707 539.309 204.04 539.696 204.48V198.56L541.156 198.26V213H539.696V211.7C539.322 212.167 538.869 212.527 538.336 212.78C537.802 213.02 537.216 213.14 536.576 213.14ZM536.936 211.86C537.509 211.86 538.036 211.747 538.516 211.52C538.996 211.293 539.389 210.973 539.696 210.56V205.72C539.376 205.307 538.969 204.987 538.476 204.76C537.996 204.52 537.482 204.4 536.936 204.4C536.282 204.4 535.696 204.56 535.176 204.88C534.669 205.2 534.262 205.64 533.956 206.2C533.662 206.76 533.516 207.4 533.516 208.12C533.516 208.827 533.662 209.467 533.956 210.04C534.262 210.6 534.669 211.047 535.176 211.38C535.696 211.7 536.282 211.86 536.936 211.86ZM548.556 213.2C547.65 213.2 546.83 212.98 546.096 212.54C545.363 212.087 544.783 211.48 544.356 210.72C543.93 209.947 543.716 209.08 543.716 208.12C543.716 207.16 543.916 206.3 544.316 205.54C544.73 204.78 545.283 204.18 545.976 203.74C546.67 203.3 547.45 203.08 548.316 203.08C549.17 203.08 549.93 203.3 550.596 203.74C551.276 204.167 551.81 204.753 552.196 205.5C552.596 206.233 552.796 207.067 552.796 208V208.44H545.136C545.19 209.107 545.37 209.707 545.676 210.24C545.996 210.76 546.41 211.173 546.916 211.48C547.436 211.773 548.003 211.92 548.616 211.92C549.123 211.92 549.61 211.833 550.076 211.66C550.556 211.473 550.963 211.227 551.296 210.92L552.216 211.9C551.656 212.34 551.076 212.667 550.476 212.88C549.876 213.093 549.236 213.2 548.556 213.2ZM545.176 207.4H551.356C551.29 206.813 551.11 206.293 550.816 205.84C550.536 205.373 550.176 205.007 549.736 204.74C549.31 204.473 548.83 204.34 548.296 204.34C547.763 204.34 547.276 204.473 546.836 204.74C546.396 204.993 546.03 205.353 545.736 205.82C545.456 206.273 545.27 206.8 545.176 207.4ZM559.349 213.14C558.509 213.14 557.749 212.92 557.069 212.48C556.389 212.027 555.849 211.427 555.449 210.68C555.049 209.92 554.849 209.073 554.849 208.14C554.849 207.193 555.049 206.347 555.449 205.6C555.862 204.84 556.416 204.24 557.109 203.8C557.802 203.347 558.576 203.12 559.429 203.12C560.029 203.12 560.589 203.24 561.109 203.48C561.629 203.707 562.082 204.04 562.469 204.48V198.56L563.929 198.26V213H562.469V211.7C562.096 212.167 561.642 212.527 561.109 212.78C560.576 213.02 559.989 213.14 559.349 213.14ZM559.709 211.86C560.282 211.86 560.809 211.747 561.289 211.52C561.769 211.293 562.162 210.973 562.469 210.56V205.72C562.149 205.307 561.742 204.987 561.249 204.76C560.769 204.52 560.256 204.4 559.709 204.4C559.056 204.4 558.469 204.56 557.949 204.88C557.442 205.2 557.036 205.64 556.729 206.2C556.436 206.76 556.289 207.4 556.289 208.12C556.289 208.827 556.436 209.467 556.729 210.04C557.036 210.6 557.442 211.047 557.949 211.38C558.469 211.7 559.056 211.86 559.709 211.86ZM571.858 213V199H573.398V205.26H581.438V199H582.978V213H581.438V206.64H573.398V213H571.858ZM588.606 213L585.586 199H587.146L589.526 210.58L592.986 199H594.486L597.946 210.54L600.346 199H601.846L598.826 213H597.266L593.726 201.12L590.166 213H588.606ZM604.475 213V199H610.255C611.162 199 611.949 199.173 612.615 199.52C613.282 199.853 613.795 200.333 614.155 200.96C614.529 201.573 614.715 202.3 614.715 203.14C614.715 203.967 614.529 204.693 614.155 205.32C613.795 205.947 613.282 206.433 612.615 206.78C611.949 207.113 611.162 207.28 610.255 207.28H606.015V213H604.475ZM606.015 205.96H610.075C611.049 205.96 611.809 205.707 612.355 205.2C612.902 204.693 613.175 204.007 613.175 203.14C613.175 202.273 612.902 201.593 612.355 201.1C611.809 200.607 611.049 200.36 610.075 200.36H606.015V205.96ZM618.281 213.16C617.988 213.16 617.735 213.053 617.521 212.84C617.321 212.627 617.221 212.373 617.221 212.08C617.221 211.773 617.321 211.52 617.521 211.32C617.735 211.107 617.988 211 618.281 211C618.575 211 618.821 211.107 619.021 211.32C619.235 211.52 619.341 211.773 619.341 212.08C619.341 212.373 619.235 212.627 619.021 212.84C618.821 213.053 618.575 213.16 618.281 213.16ZM618.281 205.22C617.988 205.22 617.735 205.113 617.521 204.9C617.321 204.687 617.221 204.433 617.221 204.14C617.221 203.833 617.321 203.58 617.521 203.38C617.735 203.167 617.988 203.06 618.281 203.06C618.575 203.06 618.821 203.167 619.021 203.38C619.235 203.58 619.341 203.833 619.341 204.14C619.341 204.433 619.235 204.687 619.021 204.9C618.821 205.113 618.575 205.22 618.281 205.22ZM628.509 213V200.56L626.269 201.56V200.24L629.049 199H629.949V213H628.509ZM638.002 213.2C636.922 213.2 635.969 212.913 635.142 212.34C634.329 211.767 633.689 210.98 633.222 209.98C632.755 208.967 632.522 207.8 632.522 206.48C632.522 204.933 632.782 203.587 633.302 202.44C633.822 201.28 634.555 200.38 635.502 199.74C636.449 199.1 637.549 198.78 638.802 198.78C639.389 198.78 639.969 198.86 640.542 199.02C641.115 199.18 641.629 199.413 642.082 199.72L641.362 200.84C640.949 200.6 640.515 200.413 640.062 200.28C639.609 200.147 639.149 200.08 638.682 200.08C637.722 200.08 636.889 200.333 636.182 200.84C635.489 201.333 634.949 202.047 634.562 202.98C634.189 203.913 633.989 205.033 633.962 206.34C634.482 205.673 635.102 205.153 635.822 204.78C636.542 204.407 637.289 204.22 638.062 204.22C638.969 204.22 639.775 204.407 640.482 204.78C641.189 205.153 641.742 205.673 642.142 206.34C642.542 206.993 642.742 207.74 642.742 208.58C642.742 209.46 642.535 210.253 642.122 210.96C641.709 211.653 641.142 212.2 640.422 212.6C639.715 213 638.909 213.2 638.002 213.2ZM637.862 205.4C637.129 205.4 636.422 205.587 635.742 205.96C635.075 206.32 634.495 206.82 634.002 207.46C634.109 208.353 634.335 209.14 634.682 209.82C635.042 210.487 635.502 211.007 636.062 211.38C636.635 211.753 637.275 211.94 637.982 211.94C638.622 211.94 639.189 211.8 639.682 211.52C640.189 211.227 640.582 210.827 640.862 210.32C641.155 209.813 641.302 209.247 641.302 208.62C641.302 207.993 641.155 207.44 640.862 206.96C640.569 206.467 640.162 206.087 639.642 205.82C639.135 205.54 638.542 205.4 637.862 205.4ZM645.684 213.16C645.39 213.16 645.137 213.053 644.924 212.84C644.724 212.627 644.624 212.373 644.624 212.08C644.624 211.773 644.724 211.52 644.924 211.32C645.137 211.107 645.39 211 645.684 211C645.977 211 646.224 211.107 646.424 211.32C646.637 211.52 646.744 211.773 646.744 212.08C646.744 212.373 646.637 212.627 646.424 212.84C646.224 213.053 645.977 213.16 645.684 213.16ZM649.843 213L656.803 200.26H648.403V199H658.363V200.12L651.483 213H649.843ZM662.875 206.1C662.008 206.1 661.302 205.767 660.755 205.1C660.222 204.433 659.955 203.567 659.955 202.5C659.955 201.433 660.222 200.567 660.755 199.9C661.302 199.233 662.008 198.9 662.875 198.9C663.742 198.9 664.442 199.233 664.975 199.9C665.522 200.567 665.795 201.433 665.795 202.5C665.795 203.567 665.522 204.433 664.975 205.1C664.442 205.767 663.742 206.1 662.875 206.1ZM662.875 205.2C663.462 205.2 663.928 204.96 664.275 204.48C664.622 203.987 664.795 203.327 664.795 202.5C664.795 201.673 664.622 201.02 664.275 200.54C663.928 200.047 663.462 199.8 662.875 199.8C662.302 199.8 661.835 200.047 661.475 200.54C661.128 201.02 660.955 201.673 660.955 202.5C660.955 203.327 661.128 203.987 661.475 204.48C661.835 204.96 662.302 205.2 662.875 205.2ZM662.255 213L670.115 199H671.275L663.395 213H662.255ZM670.675 213.1C669.808 213.1 669.102 212.767 668.555 212.1C668.022 211.433 667.755 210.567 667.755 209.5C667.755 208.433 668.022 207.567 668.555 206.9C669.102 206.233 669.808 205.9 670.675 205.9C671.542 205.9 672.242 206.233 672.775 206.9C673.322 207.567 673.595 208.433 673.595 209.5C673.595 210.567 673.322 211.433 672.775 212.1C672.242 212.767 671.542 213.1 670.675 213.1ZM670.675 212.2C671.262 212.2 671.728 211.96 672.075 211.48C672.422 210.987 672.595 210.327 672.595 209.5C672.595 208.673 672.422 208.02 672.075 207.54C671.728 207.047 671.262 206.8 670.675 206.8C670.102 206.8 669.635 207.047 669.275 207.54C668.928 208.02 668.755 208.673 668.755 209.5C668.755 210.327 668.928 210.987 669.275 211.48C669.635 211.96 670.102 212.2 670.675 212.2Z" fill="#151515"/>
<rect x="412" y="235" width="10" height="10" fill="#3CC3DF"/>
<path d="M431.78 247V233H433.92L438.6 242.96L443.28 233H445.42V247H443.96V234.82L438.6 246L433.22 234.78V247H431.78ZM453.007 247.16C452.114 247.16 451.307 246.94 450.587 246.5C449.867 246.06 449.3 245.46 448.887 244.7C448.474 243.94 448.267 243.08 448.267 242.12C448.267 241.16 448.474 240.3 448.887 239.54C449.3 238.78 449.867 238.18 450.587 237.74C451.307 237.3 452.114 237.08 453.007 237.08C453.914 237.08 454.72 237.3 455.427 237.74C456.147 238.18 456.714 238.78 457.127 239.54C457.54 240.3 457.747 241.16 457.747 242.12C457.747 243.08 457.54 243.94 457.127 244.7C456.714 245.46 456.147 246.06 455.427 246.5C454.72 246.94 453.914 247.16 453.007 247.16ZM453.007 245.88C453.647 245.88 454.214 245.72 454.707 245.4C455.2 245.067 455.587 244.613 455.867 244.04C456.16 243.467 456.307 242.827 456.307 242.12C456.307 241.4 456.16 240.76 455.867 240.2C455.587 239.627 455.2 239.18 454.707 238.86C454.214 238.527 453.647 238.36 453.007 238.36C452.367 238.36 451.8 238.527 451.307 238.86C450.814 239.18 450.42 239.627 450.127 240.2C449.847 240.76 449.707 241.4 449.707 242.12C449.707 242.827 449.847 243.467 450.127 244.04C450.42 244.613 450.814 245.067 451.307 245.4C451.8 245.72 452.367 245.88 453.007 245.88ZM464.369 247.14C463.529 247.14 462.769 246.92 462.089 246.48C461.409 246.027 460.869 245.427 460.469 244.68C460.069 243.92 459.869 243.073 459.869 242.14C459.869 241.193 460.069 240.347 460.469 239.6C460.882 238.84 461.435 238.24 462.129 237.8C462.822 237.347 463.595 237.12 464.449 237.12C465.049 237.12 465.609 237.24 466.129 237.48C466.649 237.707 467.102 238.04 467.489 238.48V232.56L468.949 232.26V247H467.489V245.7C467.115 246.167 466.662 246.527 466.129 246.78C465.595 247.02 465.009 247.14 464.369 247.14ZM464.729 245.86C465.302 245.86 465.829 245.747 466.309 245.52C466.789 245.293 467.182 244.973 467.489 244.56V239.72C467.169 239.307 466.762 238.987 466.269 238.76C465.789 238.52 465.275 238.4 464.729 238.4C464.075 238.4 463.489 238.56 462.969 238.88C462.462 239.2 462.055 239.64 461.749 240.2C461.455 240.76 461.309 241.4 461.309 242.12C461.309 242.827 461.455 243.467 461.749 244.04C462.055 244.6 462.462 245.047 462.969 245.38C463.489 245.7 464.075 245.86 464.729 245.86ZM476.349 247.2C475.443 247.2 474.623 246.98 473.889 246.54C473.156 246.087 472.576 245.48 472.149 244.72C471.723 243.947 471.509 243.08 471.509 242.12C471.509 241.16 471.709 240.3 472.109 239.54C472.523 238.78 473.076 238.18 473.769 237.74C474.463 237.3 475.243 237.08 476.109 237.08C476.963 237.08 477.723 237.3 478.389 237.74C479.069 238.167 479.603 238.753 479.989 239.5C480.389 240.233 480.589 241.067 480.589 242V242.44H472.929C472.983 243.107 473.163 243.707 473.469 244.24C473.789 244.76 474.203 245.173 474.709 245.48C475.229 245.773 475.796 245.92 476.409 245.92C476.916 245.92 477.403 245.833 477.869 245.66C478.349 245.473 478.756 245.227 479.089 244.92L480.009 245.9C479.449 246.34 478.869 246.667 478.269 246.88C477.669 247.093 477.029 247.2 476.349 247.2ZM472.969 241.4H479.149C479.083 240.813 478.903 240.293 478.609 239.84C478.329 239.373 477.969 239.007 477.529 238.74C477.103 238.473 476.623 238.34 476.089 238.34C475.556 238.34 475.069 238.473 474.629 238.74C474.189 238.993 473.823 239.353 473.529 239.82C473.249 240.273 473.063 240.8 472.969 241.4ZM483.082 247V232.56L484.542 232.26V247H483.082ZM495.923 247.2C495.083 247.2 494.443 247 494.003 246.6C493.576 246.187 493.363 245.593 493.363 244.82V238.44H491.343V237.24H493.363V234.56L494.823 234.22V237.24H497.623V238.44H494.823V244.44C494.823 244.96 494.93 245.333 495.143 245.56C495.37 245.787 495.736 245.9 496.243 245.9C496.496 245.9 496.723 245.88 496.923 245.84C497.123 245.8 497.356 245.733 497.623 245.64V246.94C497.356 247.033 497.076 247.1 496.783 247.14C496.49 247.18 496.203 247.2 495.923 247.2ZM499.762 247V237.24H501.222V239.24C501.475 238.56 501.835 238.033 502.302 237.66C502.782 237.273 503.328 237.08 503.942 237.08C504.115 237.08 504.275 237.093 504.422 237.12C504.568 237.133 504.715 237.167 504.862 237.22V238.54C504.702 238.487 504.528 238.447 504.342 238.42C504.168 238.38 504.002 238.36 503.842 238.36C503.242 238.36 502.715 238.533 502.262 238.88C501.822 239.227 501.475 239.713 501.222 240.34V247H499.762ZM510.588 247.2C509.681 247.2 508.861 246.98 508.128 246.54C507.394 246.087 506.814 245.48 506.388 244.72C505.961 243.947 505.748 243.08 505.748 242.12C505.748 241.16 505.948 240.3 506.348 239.54C506.761 238.78 507.314 238.18 508.008 237.74C508.701 237.3 509.481 237.08 510.348 237.08C511.201 237.08 511.961 237.3 512.628 237.74C513.308 238.167 513.841 238.753 514.228 239.5C514.628 240.233 514.828 241.067 514.828 242V242.44H507.168C507.221 243.107 507.401 243.707 507.708 244.24C508.028 244.76 508.441 245.173 508.948 245.48C509.468 245.773 510.034 245.92 510.648 245.92C511.154 245.92 511.641 245.833 512.108 245.66C512.588 245.473 512.994 245.227 513.328 244.92L514.248 245.9C513.688 246.34 513.108 246.667 512.508 246.88C511.908 247.093 511.268 247.2 510.588 247.2ZM507.208 241.4H513.388C513.321 240.813 513.141 240.293 512.848 239.84C512.568 239.373 512.208 239.007 511.768 238.74C511.341 238.473 510.861 238.34 510.328 238.34C509.794 238.34 509.308 238.473 508.868 238.74C508.428 238.993 508.061 239.353 507.768 239.82C507.488 240.273 507.301 240.8 507.208 241.4ZM521.72 247.2C520.814 247.2 519.994 246.98 519.26 246.54C518.527 246.087 517.947 245.48 517.52 244.72C517.094 243.947 516.88 243.08 516.88 242.12C516.88 241.16 517.08 240.3 517.48 239.54C517.894 238.78 518.447 238.18 519.14 237.74C519.834 237.3 520.614 237.08 521.48 237.08C522.334 237.08 523.094 237.3 523.76 237.74C524.44 238.167 524.974 238.753 525.36 239.5C525.76 240.233 525.96 241.067 525.96 242V242.44H518.3C518.354 243.107 518.534 243.707 518.84 244.24C519.16 244.76 519.574 245.173 520.08 245.48C520.6 245.773 521.167 245.92 521.78 245.92C522.287 245.92 522.774 245.833 523.24 245.66C523.72 245.473 524.127 245.227 524.46 244.92L525.38 245.9C524.82 246.34 524.24 246.667 523.64 246.88C523.04 247.093 522.4 247.2 521.72 247.2ZM518.34 241.4H524.52C524.454 240.813 524.274 240.293 523.98 239.84C523.7 239.373 523.34 239.007 522.9 238.74C522.474 238.473 521.994 238.34 521.46 238.34C520.927 238.34 520.44 238.473 520 238.74C519.56 238.993 519.194 239.353 518.9 239.82C518.62 240.273 518.434 240.8 518.34 241.4ZM529.453 247.16C529.16 247.16 528.906 247.053 528.693 246.84C528.493 246.627 528.393 246.373 528.393 246.08C528.393 245.773 528.493 245.52 528.693 245.32C528.906 245.107 529.16 245 529.453 245C529.746 245 529.993 245.107 530.193 245.32C530.406 245.52 530.513 245.773 530.513 246.08C530.513 246.373 530.406 246.627 530.193 246.84C529.993 247.053 529.746 247.16 529.453 247.16ZM529.453 239.22C529.16 239.22 528.906 239.113 528.693 238.9C528.493 238.687 528.393 238.433 528.393 238.14C528.393 237.833 528.493 237.58 528.693 237.38C528.906 237.167 529.16 237.06 529.453 237.06C529.746 237.06 529.993 237.167 530.193 237.38C530.406 237.58 530.513 237.833 530.513 238.14C530.513 238.433 530.406 238.687 530.193 238.9C529.993 239.113 529.746 239.22 529.453 239.22ZM542.621 247.22C541.661 247.22 540.808 247.047 540.061 246.7C539.314 246.353 538.721 245.88 538.281 245.28C537.854 244.667 537.641 243.98 537.641 243.22C537.641 242.647 537.781 242.12 538.061 241.64C538.341 241.147 538.728 240.727 539.221 240.38C539.728 240.02 540.301 239.767 540.941 239.62C540.128 239.393 539.461 238.987 538.941 238.4C538.434 237.813 538.181 237.153 538.181 236.42C538.181 235.727 538.374 235.107 538.761 234.56C539.148 234.013 539.674 233.58 540.341 233.26C541.021 232.94 541.781 232.78 542.621 232.78C543.474 232.78 544.234 232.94 544.901 233.26C545.568 233.58 546.094 234.013 546.481 234.56C546.868 235.107 547.061 235.727 547.061 236.42C547.061 237.153 546.808 237.813 546.301 238.4C545.794 238.987 545.128 239.393 544.301 239.62C545.274 239.847 546.068 240.293 546.681 240.96C547.294 241.613 547.601 242.367 547.601 243.22C547.601 243.98 547.388 244.667 546.961 245.28C546.534 245.88 545.941 246.353 545.181 246.7C544.434 247.047 543.581 247.22 542.621 247.22ZM542.621 239.02C543.194 239.02 543.708 238.907 544.161 238.68C544.628 238.453 544.994 238.153 545.261 237.78C545.528 237.393 545.661 236.96 545.661 236.48C545.661 236 545.528 235.567 545.261 235.18C544.994 234.793 544.628 234.493 544.161 234.28C543.708 234.053 543.194 233.94 542.621 233.94C542.048 233.94 541.528 234.053 541.061 234.28C540.608 234.493 540.248 234.793 539.981 235.18C539.714 235.567 539.581 236 539.581 236.48C539.581 236.96 539.714 237.393 539.981 237.78C540.248 238.153 540.608 238.453 541.061 238.68C541.528 238.907 542.048 239.02 542.621 239.02ZM542.621 246.06C543.301 246.06 543.908 245.933 544.441 245.68C544.974 245.427 545.394 245.08 545.701 244.64C546.021 244.2 546.181 243.707 546.181 243.16C546.181 242.613 546.021 242.12 545.701 241.68C545.394 241.24 544.974 240.893 544.441 240.64C543.908 240.387 543.301 240.26 542.621 240.26C541.941 240.26 541.334 240.387 540.801 240.64C540.268 240.893 539.841 241.24 539.521 241.68C539.214 242.12 539.061 242.613 539.061 243.16C539.061 243.707 539.214 244.2 539.521 244.64C539.841 245.08 540.268 245.427 540.801 245.68C541.334 245.933 541.941 246.06 542.621 246.06ZM550.723 247.16C550.429 247.16 550.176 247.053 549.963 246.84C549.763 246.627 549.663 246.373 549.663 246.08C549.663 245.773 549.763 245.52 549.963 245.32C550.176 245.107 550.429 245 550.723 245C551.016 245 551.263 245.107 551.463 245.32C551.676 245.52 551.783 245.773 551.783 246.08C551.783 246.373 551.676 246.627 551.463 246.84C551.263 247.053 551.016 247.16 550.723 247.16ZM558.747 247.22C557.787 247.22 556.887 247.053 556.047 246.72C555.221 246.387 554.487 245.893 553.847 245.24L554.807 244.3C555.394 244.887 555.994 245.313 556.607 245.58C557.234 245.833 557.941 245.96 558.727 245.96C559.407 245.96 560.007 245.84 560.527 245.6C561.061 245.36 561.474 245.027 561.767 244.6C562.061 244.173 562.207 243.687 562.207 243.14C562.207 242.62 562.074 242.16 561.807 241.76C561.554 241.347 561.201 241.027 560.747 240.8C560.294 240.573 559.774 240.46 559.187 240.46H557.527V239.22H559.127C559.887 239.22 560.501 238.987 560.967 238.52C561.447 238.053 561.687 237.447 561.687 236.7C561.687 236.207 561.554 235.76 561.287 235.36C561.021 234.96 560.654 234.647 560.187 234.42C559.734 234.18 559.221 234.06 558.647 234.06C557.927 234.06 557.281 234.193 556.707 234.46C556.147 234.713 555.574 235.147 554.987 235.76L554.027 234.8C554.654 234.133 555.361 233.633 556.147 233.3C556.934 232.953 557.774 232.78 558.667 232.78C559.521 232.78 560.281 232.947 560.947 233.28C561.627 233.613 562.161 234.073 562.547 234.66C562.934 235.233 563.127 235.887 563.127 236.62C563.127 237.353 562.887 238.013 562.407 238.6C561.927 239.173 561.294 239.573 560.507 239.8C561.454 240.013 562.214 240.427 562.787 241.04C563.361 241.653 563.647 242.367 563.647 243.18C563.647 243.953 563.434 244.647 563.007 245.26C562.594 245.873 562.014 246.353 561.267 246.7C560.534 247.047 559.694 247.22 558.747 247.22ZM568.52 240.1C567.653 240.1 566.946 239.767 566.4 239.1C565.866 238.433 565.6 237.567 565.6 236.5C565.6 235.433 565.866 234.567 566.4 233.9C566.946 233.233 567.653 232.9 568.52 232.9C569.386 232.9 570.086 233.233 570.62 233.9C571.166 234.567 571.44 235.433 571.44 236.5C571.44 237.567 571.166 238.433 570.62 239.1C570.086 239.767 569.386 240.1 568.52 240.1ZM568.52 239.2C569.106 239.2 569.573 238.96 569.92 238.48C570.266 237.987 570.44 237.327 570.44 236.5C570.44 235.673 570.266 235.02 569.92 234.54C569.573 234.047 569.106 233.8 568.52 233.8C567.946 233.8 567.48 234.047 567.12 234.54C566.773 235.02 566.6 235.673 566.6 236.5C566.6 237.327 566.773 237.987 567.12 238.48C567.48 238.96 567.946 239.2 568.52 239.2ZM567.9 247L575.76 233H576.92L569.04 247H567.9ZM576.32 247.1C575.453 247.1 574.746 246.767 574.2 246.1C573.666 245.433 573.4 244.567 573.4 243.5C573.4 242.433 573.666 241.567 574.2 240.9C574.746 240.233 575.453 239.9 576.32 239.9C577.186 239.9 577.886 240.233 578.42 240.9C578.966 241.567 579.24 242.433 579.24 243.5C579.24 244.567 578.966 245.433 578.42 246.1C577.886 246.767 577.186 247.1 576.32 247.1ZM576.32 246.2C576.906 246.2 577.373 245.96 577.72 245.48C578.066 244.987 578.24 244.327 578.24 243.5C578.24 242.673 578.066 242.02 577.72 241.54C577.373 241.047 576.906 240.8 576.32 240.8C575.746 240.8 575.28 241.047 574.92 241.54C574.573 242.02 574.4 242.673 574.4 243.5C574.4 244.327 574.573 244.987 574.92 245.48C575.28 245.96 575.746 246.2 576.32 246.2Z" fill="#151515"/>
<defs>
<clipPath id="clip0_3870_15920">
<rect width="111.392" height="83.384" fill="white" transform="translate(156.102 103.254)"/>
</clipPath>
</defs>
</svg>
