<svg preserveAspectRatio="xMidYMid meet" width="100%" height="100%" overflow="visible" style="display: block;" viewBox="0 0 512 229.834" fill="none" xmlns="http://www.w3.org/2000/svg">
<foreignObject x="-17.1" y="-17.1" width="546.2" height="264.034"><div xmlns="http://www.w3.org/1999/xhtml" style="backdrop-filter:blur(8.55px);clip-path:url(#bgblur_0_0_16_clip_path);height:100%;width:100%"></div></foreignObject><path id="Rectangle 15" data-figma-bg-blur-radius="17.1" d="M494.965 1.03622C503.663 0.441661 511 7.33443 511 16.0606V213.834C511 222.118 504.284 228.834 496 228.834H16C7.71573 228.834 1 222.118 1 213.834V16.0606L1.00488 15.6534C1.22894 7.12108 8.47312 0.45094 17.0352 1.03622C60.1194 3.98134 175.454 11.3126 256 11.3126C336.546 11.3126 451.881 3.98134 494.965 1.03622Z" fill="var(--fill-0, white)" fill-opacity="0.05" stroke="url(#paint0_linear_0_16)" stroke-width="2"/>
<defs>
<clipPath id="bgblur_0_0_16_clip_path" transform="translate(17.1 17.1)"><path d="M494.965 1.03622C503.663 0.441661 511 7.33443 511 16.0606V213.834C511 222.118 504.284 228.834 496 228.834H16C7.71573 228.834 1 222.118 1 213.834V16.0606L1.00488 15.6534C1.22894 7.12108 8.47312 0.45094 17.0352 1.03622C60.1194 3.98134 175.454 11.3126 256 11.3126C336.546 11.3126 451.881 3.98134 494.965 1.03622Z"/>
</clipPath><linearGradient id="paint0_linear_0_16" x1="27" y1="13.7199" x2="115.472" y2="326.609" gradientUnits="userSpaceOnUse">
<stop stop-color="#FF9DFF"/>
<stop offset="1" stop-color="#72B8FF"/>
</linearGradient>
</defs>
</svg>
