<svg preserveAspectRatio="xMidYMid meet" width="100%" height="100%" overflow="visible" style="display: block;" viewBox="0 0 53.3333 53.3333" fill="none" xmlns="http://www.w3.org/2000/svg">
<path id="Vector" d="M28.0267 21.3067C28.0267 16.9067 24.4267 13.3067 20.0267 13.3067C15.6267 13.3067 12.0267 16.9067 12.0267 21.3067C12.0267 25.7067 15.6267 29.3067 20.0267 29.3067C24.4267 29.3067 28.0267 25.7067 28.0267 21.3067ZM20.0267 23.9733C18.56 23.9733 17.36 22.7733 17.36 21.3067C17.36 19.84 18.56 18.64 20.0267 18.64C21.4933 18.64 22.6933 19.84 22.6933 21.3067C22.6933 22.7733 21.4933 23.9733 20.0267 23.9733ZM37.36 29.3067C40.32 29.3067 42.6933 26.9333 42.6933 23.9733C42.6933 21.0133 40.32 18.64 37.36 18.64C34.4 18.64 32 21.0133 32.0267 23.9733C32.0267 26.9333 34.4 29.3067 37.36 29.3067ZM26.6667 0C11.9467 0 0 11.9467 0 26.6667C0 41.3867 11.9467 53.3333 26.6667 53.3333C41.3867 53.3333 53.3333 41.3867 53.3333 26.6667C53.3333 11.9467 41.3867 0 26.6667 0ZM10.2667 40.2933C12.08 38.8533 16.32 37.3333 20.0267 37.3333C20.2133 37.3333 20.4267 37.36 20.64 37.36C21.28 35.6533 22.4267 33.92 24.1067 32.4C22.6133 32.1333 21.2 31.9733 20.0267 31.9733C16.56 31.9733 10.9867 33.1733 7.41333 35.7867C6.08 33.0133 5.33333 29.92 5.33333 26.64C5.33333 14.88 14.9067 5.30667 26.6667 5.30667C38.4267 5.30667 48 14.88 48 26.64C48 29.84 47.28 32.88 46 35.6267C43.3333 34.0533 39.7067 33.3067 37.36 33.3067C33.3067 33.3067 25.36 35.4667 25.36 40.5067V47.92C19.3067 47.5733 13.92 44.6933 10.2667 40.2933Z" fill="var(--fill-0, #0066CC)"/>
</svg>
