<svg preserveAspectRatio="xMidYMid meet" width="100%" height="100%" overflow="visible" style="display: block;" viewBox="0 0 52.88 45.3333" fill="none" xmlns="http://www.w3.org/2000/svg">
<g id="Vector">
<path d="M5.33333 37.3333V35.6C5.33333 34.6933 5.76 33.84 6.42667 33.44C10.9333 30.7467 16.08 29.3333 21.3333 29.3333C21.4133 29.3333 21.4667 29.3333 21.5467 29.36C21.8133 27.4933 22.3467 25.7067 23.12 24.08C22.5333 24.0267 21.9467 24 21.3333 24C14.88 24 8.85333 25.7867 3.70667 28.8533C1.36 30.24 0 32.8533 0 35.6V42.6667H24.6933C23.5733 41.0667 22.6933 39.2533 22.1067 37.3333H5.33333Z" fill="var(--fill-0, #0066CC)"/>
<path d="M21.3333 21.3333C27.2267 21.3333 32 16.56 32 10.6667C32 4.77333 27.2267 0 21.3333 0C15.44 0 10.6667 4.77333 10.6667 10.6667C10.6667 16.56 15.44 21.3333 21.3333 21.3333ZM21.3333 5.33333C24.2667 5.33333 26.6667 7.73333 26.6667 10.6667C26.6667 13.6 24.2667 16 21.3333 16C18.4 16 16 13.6 16 10.6667C16 7.73333 18.4 5.33333 21.3333 5.33333Z" fill="var(--fill-0, #0066CC)"/>
<path d="M50 32C50 31.4133 49.92 30.88 49.84 30.32L52.88 27.6267L50.2133 23.0133L46.3467 24.32C45.4933 23.6 44.5333 23.04 43.4667 22.64L42.6667 18.6667H37.3333L36.5333 22.64C35.4667 23.04 34.5067 23.6 33.6533 24.32L29.7867 23.0133L27.12 27.6267L30.16 30.32C30.08 30.88 30 31.4133 30 32C30 32.5867 30.08 33.12 30.16 33.68L27.12 36.3733L29.7867 40.9867L33.6533 39.68C34.5067 40.4 35.4667 40.96 36.5333 41.36L37.3333 45.3333H42.6667L43.4667 41.36C44.5333 40.96 45.4933 40.4 46.3467 39.68L50.2133 40.9867L52.88 36.3733L49.84 33.68C49.92 33.12 50 32.5867 50 32ZM40 37.3333C37.0667 37.3333 34.6667 34.9333 34.6667 32C34.6667 29.0667 37.0667 26.6667 40 26.6667C42.9333 26.6667 45.3333 29.0667 45.3333 32C45.3333 34.9333 42.9333 37.3333 40 37.3333Z" fill="var(--fill-0, #0066CC)"/>
</g>
</svg>
