<svg xmlns="http://www.w3.org/2000/svg" viewBox="0 0 22.1504 22.1504" width="22" height="22" fill="none" aria-hidden="true">
<path d="M11.0752 0C17.1915 0 22.1503 4.96074 22.1504 11.0752C22.1504 17.1933 17.1915 22.1504 11.0752 22.1504C4.95895 22.1503 0 17.1932 0 11.0752C7.93706e-05 4.96079 4.959 7.93736e-05 11.0752 0ZM11.0752 13.3086C9.9408 13.3087 9.02163 14.2279 9.02148 15.3623C9.02148 16.4968 9.94071 17.4169 11.0752 17.417C12.2098 17.417 13.1299 16.4969 13.1299 15.3623C13.1297 14.2279 12.2097 13.3086 11.0752 13.3086ZM9.66016 5.35938C9.35284 5.35938 9.10844 5.61699 9.125 5.92383L9.45605 11.998C9.47169 12.2821 9.70673 12.5049 9.99121 12.5049H12.1592C12.4437 12.5049 12.6787 12.2821 12.6943 11.998L13.0254 5.92383C13.042 5.61698 12.7975 5.35938 12.4902 5.35938H9.66016Z" fill="#fff"/>
</svg>
