<svg xmlns="http://www.w3.org/2000/svg" viewBox="0 0 22.1504 22.1504" width="22" height="22" fill="none" aria-hidden="true">
<path d="M11.0752 0C17.1919 0 22.1503 4.95851 22.1504 11.0752C22.1504 17.1919 17.1919 22.1504 11.0752 22.1504C4.95851 22.1503 0 17.1919 0 11.0752C7.93347e-05 4.95856 4.95856 7.93323e-05 11.0752 0ZM17.001 6.70117C16.722 6.42224 16.2693 6.42219 15.9902 6.70117L9.28906 13.4033L6.16016 10.2744C5.88113 9.99538 5.42844 9.99538 5.14941 10.2744L4.13965 11.2842C3.86066 11.5632 3.86066 12.0159 4.13965 12.2949L8.78418 16.9395C9.06324 17.2183 9.51492 17.2183 9.79395 16.9395L18.0117 8.72266C18.2906 8.44366 18.2906 7.99094 18.0117 7.71191L17.001 6.70117Z" fill="#fff"/>
</svg>
