<svg xmlns="http://www.w3.org/2000/svg" viewBox="0 0 22.1289 22.1504" width="22" height="22" fill="none" aria-hidden="true">
<path d="M11.0537 0C11.8179 6.93412e-08 12.5568 0.0726303 13.2705 0.216797C13.9843 0.361003 14.6806 0.583889 15.3584 0.886719C16.0217 1.1751 16.649 1.51755 17.2402 1.91406C17.8315 2.31062 18.372 2.76189 18.8623 3.2666C19.367 3.75692 19.8183 4.29741 20.2148 4.88867C20.6114 5.47988 20.9538 6.1072 21.2422 6.77051C21.545 7.4483 21.7689 8.14456 21.9131 8.8584C22.0572 9.57209 22.1289 10.3111 22.1289 11.0752C22.1289 11.8395 22.0573 12.5827 21.9131 13.3037C21.7689 14.0246 21.545 14.7166 21.2422 15.3799C20.9538 16.0576 20.6113 16.6885 20.2148 17.2725C19.8183 17.8565 19.367 18.4015 18.8623 18.9062C18.3721 19.4108 17.8314 19.8613 17.2402 20.2578C16.649 20.6544 16.0217 20.9967 15.3584 21.2852C14.6806 21.5736 13.9843 21.7904 13.2705 21.9346C12.5568 22.0787 11.8179 22.1504 11.0537 22.1504C10.3182 22.1504 9.60432 22.0858 8.91211 21.9561C8.21994 21.8263 7.5493 21.6246 6.90039 21.3506L8.34961 18.8193C8.76776 18.9635 9.19694 19.0714 9.63672 19.1436C10.0766 19.2157 10.5348 19.252 11.0107 19.252C11.5586 19.2519 12.0958 19.2015 12.6221 19.1006C13.1484 18.9996 13.6642 18.8413 14.1689 18.625C14.6592 18.4087 15.1166 18.1556 15.542 17.8672C15.9674 17.5788 16.3682 17.248 16.7432 16.873C17.1181 16.5125 17.4499 16.1152 17.7383 15.6826C18.0265 15.2502 18.2789 14.7889 18.4951 14.2988C18.7114 13.7942 18.8733 13.2782 18.9814 12.752C19.0896 12.2256 19.1436 11.6806 19.1436 11.1182C19.1435 10.5703 19.0896 10.0331 18.9814 9.50684C18.8733 8.98056 18.7114 8.46462 18.4951 7.95996C18.2789 7.46987 18.0266 7.01217 17.7383 6.58691C17.45 6.16165 17.1179 5.76155 16.7432 5.38672C16.3682 5.01177 15.9674 4.68002 15.542 4.3916C15.1166 4.10321 14.6592 3.85009 14.1689 3.63379C13.6786 3.41747 13.1735 3.25915 12.6543 3.1582C12.1352 3.05727 11.6017 2.99977 11.0537 2.98535V0ZM3.1582 13.2598C3.20147 13.4328 3.25189 13.6062 3.30957 13.7793C3.36725 13.9523 3.4318 14.1258 3.50391 14.2988C3.7202 14.7891 3.97688 15.2501 4.27246 15.6826C4.56809 16.1152 4.89631 16.5196 5.25684 16.8945C5.28565 16.9233 5.31509 16.9515 5.3457 16.9785L5.53516 17.1348C5.56576 17.1618 5.59522 17.1899 5.62402 17.2188L4.1748 19.75C4.00185 19.6203 3.83982 19.4865 3.68848 19.3496C3.53717 19.2127 3.38923 19.0647 3.24512 18.9062C2.74038 18.4015 2.28916 17.8565 1.89258 17.2725C1.49609 16.6885 1.15361 16.0576 0.865234 15.3799C0.721085 15.0772 0.59799 14.7638 0.49707 14.4395C0.396156 14.1151 0.310372 13.7867 0.238281 13.4551L3.1582 13.2598ZM3.78516 7.39844C3.72759 7.49921 3.67698 7.59685 3.63379 7.69043C3.5906 7.78402 3.5471 7.88164 3.50391 7.98242C3.35979 8.31396 3.24115 8.65662 3.14746 9.00977C3.05378 9.36292 2.98466 9.72679 2.94141 10.1016L0 10.2969C0.0432631 9.67677 0.13704 9.07429 0.28125 8.49023C0.425457 7.90623 0.620097 7.33288 0.865234 6.77051C0.908458 6.65525 0.955439 6.54006 1.00586 6.4248C1.05633 6.30944 1.11028 6.20056 1.16797 6.09961L3.78516 7.39844Z" fill="#fff"/>
</svg>
