<svg xmlns="http://www.w3.org/2000/svg" viewBox="0 0 24.9189 22.1508" width="23" height="22" fill="none" aria-hidden="true">
<path d="M10.661 1.03756C11.46 -0.347038 13.4612 -0.344665 14.2587 1.03756L24.6385 19.0366C25.4369 20.4207 24.4346 22.1508 22.8397 22.1508H2.07897C0.48104 22.1508 -0.516702 20.4181 0.280145 19.0366L10.661 1.03756ZM12.4598 15.3149C11.3608 15.3149 10.4696 16.2061 10.4696 17.3051C10.4696 18.4042 11.3607 19.2954 12.4598 19.2954C13.5588 19.2952 14.4491 18.4041 14.4491 17.3051C14.449 16.2062 13.5587 15.3151 12.4598 15.3149ZM11.0887 7.6147C10.791 7.6147 10.5541 7.86427 10.5702 8.16158L10.8905 14.0454C10.9055 14.3206 11.1335 14.5364 11.4091 14.5366H13.5096C13.7853 14.5366 14.0132 14.3207 14.0282 14.0454L14.3485 8.16158C14.3646 7.8644 14.1285 7.61492 13.8309 7.6147H11.0887Z" fill="#1f1f1f"/>
</svg>
