<svg preserveAspectRatio="none" width="100%" height="100%" overflow="visible" style="display: block;" viewBox="0 0 33.3333 33.3333" fill="none" xmlns="http://www.w3.org/2000/svg">
<path id="Vector" d="M16.6667 0C7.46667 0 0 7.46667 0 16.6667C0 25.8667 7.46667 33.3333 16.6667 33.3333C25.8667 33.3333 33.3333 25.8667 33.3333 16.6667C33.3333 7.46667 25.8667 0 16.6667 0ZM16.6667 30C9.31667 30 3.33333 24.0167 3.33333 16.6667C3.33333 9.31667 9.31667 3.33333 16.6667 3.33333C24.0167 3.33333 30 9.31667 30 16.6667C30 24.0167 24.0167 30 16.6667 30ZM24.3167 9.3L13.3333 20.2833L9.01667 15.9833L6.66667 18.3333L13.3333 25L26.6667 11.6667L24.3167 9.3Z" fill="var(--fill-0, #0D0D0D)"/>
</svg>
