<svg preserveAspectRatio="none" width="100%" height="100%" overflow="visible" style="display: block;" viewBox="0 0 36.6667 36.6667" fill="none" xmlns="http://www.w3.org/2000/svg">
<g id="Vector">
<path d="M8.33333 16.6667C12.9333 16.6667 16.6667 12.9333 16.6667 8.33333C16.6667 3.73333 12.9333 0 8.33333 0C3.73333 0 0 3.73333 0 8.33333C0 12.9333 3.73333 16.6667 8.33333 16.6667ZM8.33333 3.33333C11.0833 3.33333 13.3333 5.58333 13.3333 8.33333C13.3333 11.0833 11.0833 13.3333 8.33333 13.3333C5.58333 13.3333 3.33333 11.0833 3.33333 8.33333C3.33333 5.58333 5.58333 3.33333 8.33333 3.33333Z" fill="var(--fill-0, #0D0D0D)"/>
<path d="M33.3333 21.6667H25C23.1667 21.6667 21.6667 23.1667 21.6667 25V33.3333C21.6667 35.1667 23.1667 36.6667 25 36.6667H33.3333C35.1667 36.6667 36.6667 35.1667 36.6667 33.3333V25C36.6667 23.1667 35.1667 21.6667 33.3333 21.6667ZM33.3333 33.3333H25V25H33.3333V33.3333Z" fill="var(--fill-0, #0D0D0D)"/>
<path d="M27.85 11.1667C28.5167 11.4833 29.2333 11.6667 30 11.6667C32.75 11.6667 35 9.41667 35 6.66667C35 3.91667 32.75 1.66667 30 1.66667C27.25 1.66667 25 3.91667 25 6.66667C25 7.43333 25.1833 8.15 25.5 8.81667L8.81667 25.5C8.15 25.1833 7.43333 25 6.66667 25C3.91667 25 1.66667 27.25 1.66667 30C1.66667 32.75 3.91667 35 6.66667 35C9.41667 35 11.6667 32.75 11.6667 30C11.6667 29.2333 11.4833 28.5167 11.1667 27.85L27.85 11.1667Z" fill="var(--fill-0, #0D0D0D)"/>
</g>
</svg>
