<svg preserveAspectRatio="none" width="100%" height="100%" overflow="visible" style="display: block;" viewBox="0 0 36.6667 36.6667" fill="none" xmlns="http://www.w3.org/2000/svg">
<path id="Vector" d="M36.6667 10V0H26.6667V3.33333H10V0H0V10H3.33333V26.6667H0V36.6667H10V33.3333H26.6667V36.6667H36.6667V26.6667H33.3333V10H36.6667ZM3.33333 3.33333H6.66667V6.66667H3.33333V3.33333ZM6.66667 33.3333H3.33333V30H6.66667V33.3333ZM26.6667 30H10V26.6667H6.66667V10H10V6.66667H26.6667V10H30V26.6667H26.6667V30ZM33.3333 33.3333H30V30H33.3333V33.3333ZM30 6.66667V3.33333H33.3333V6.66667H30ZM21.2167 21.6667H15.4L14.1833 25H11.4833L17.15 10H19.4833L25.1667 25H22.45L21.2167 21.6667ZM16.15 19.5667H20.5L18.3333 13.1833L16.15 19.5667Z" fill="var(--fill-0, #0D0D0D)"/>
</svg>
