<svg xmlns="http://www.w3.org/2000/svg" viewBox="0 0 44 38" preserveAspectRatio="xMidYMid meet" fill="none" aria-hidden="true">
<g id="Vector">
<path d="M40 0H4C1.8 0 0 1.8 0 4V20H4V4H40V36C42.2 36 44 34.2 44 32V4C44 1.8 42.2 0 40 0Z" fill="#F5921B"/>
<path d="M24 14C24 9.58 20.42 6 16 6C11.58 6 8 9.58 8 14C8 18.42 11.58 22 16 22C20.42 22 24 18.42 24 14ZM12 14C12 11.8 13.8 10 16 10C18.2 10 20 11.8 20 14C20 16.2 18.2 18 16 18C13.8 18 12 16.2 12 14Z" fill="#F5921B"/>
<path d="M28.78 27.12C25.42 25.4 21.06 24 16 24C10.94 24 6.58 25.4 3.22 27.12C1.22 28.14 0 30.2 0 32.44V38H32V32.44C32 30.2 30.78 28.14 28.78 27.12ZM28 34H4C4 32.56 3.8 31.32 5.04 30.68C7.42 29.46 11.26 28 16 28C20.74 28 24.58 29.46 26.96 30.68C28.22 31.32 28 32.58 28 34Z" fill="#F5921B"/>
</g>
</svg>
