<svg xmlns="http://www.w3.org/2000/svg" viewBox="0 0 39.6 39.6" preserveAspectRatio="xMidYMid meet" fill="none" aria-hidden="true">
<path id="Vector" d="M25.34 12.42L27.18 14.26L24.96 16.48L27.78 19.3L32.82 14.26L25.32 6.76L20.28 11.8L23.1 14.62L25.34 12.42ZM38.64 8.46C39.42 7.68 39.42 6.42 38.64 5.64L33.96 0.96C33.56 0.56 33.06 0.38 32.54 0.38C32.02 0.38 31.52 0.58 31.14 0.96L27.48 4.62L34.98 12.12L38.64 8.46ZM2.84 0L0 2.82L14.64 17.46L3.22 28.88V36.38H10.72L22.14 24.96L36.78 39.6L39.6 36.78L2.84 0ZM9.06 32.38H7.22V30.54L17.48 20.28L19.32 22.12L9.06 32.38Z" fill="#F5921B"/>
</svg>
