<svg xmlns="http://www.w3.org/2000/svg" viewBox="0 0 30.6667 29.72" preserveAspectRatio="xMidYMid meet" fill="none" aria-hidden="true">
<path id="Vector" d="M20 5.72C21.4667 5.72 22.6667 6.92 22.6667 8.38667C22.6667 9.70667 21.6933 10.8133 20.44 11.0133L17.36 7.93333C17.5867 6.68 18.68 5.72 20 5.72ZM20 3.05333C17.0533 3.05333 14.6667 5.44 14.6667 8.38667C14.6667 8.62667 14.7067 8.85333 14.7333 9.08L19.3067 13.6533C19.5333 13.68 19.76 13.72 20 13.72C22.9467 13.72 25.3333 11.3333 25.3333 8.38667C25.3333 5.44 22.9467 3.05333 20 3.05333ZM22.2533 16.6L30.04 24.3867H30.6667V21.72C30.6667 18.8667 25.92 17.0533 22.2533 16.6ZM17.3467 19.2267L19.84 21.72H12C12.1067 21.4 13.1733 20.3733 15.88 19.6267L17.3467 19.2267ZM1.88 0L0 1.88L5.33333 7.21333V11.0533H1.33333V13.72H5.33333V17.72H8V13.72H11.84L15.1867 17.0667C12.2533 17.8667 9.33333 19.4533 9.33333 21.72V24.3867H22.5067L27.84 29.72L29.72 27.84L1.88 0ZM8 11.0533V9.88L9.17333 11.0533H8Z" fill="#0D0D0D"/>
</svg>
