<svg xmlns="http://www.w3.org/2000/svg" viewBox="0 0 16.0005 13.1015" preserveAspectRatio="xMidYMid meet" fill="none" aria-hidden="true">
<g id="Quote Icon">
<path id="Vector" d="M5.53833 5.95532H3.38449C3.12807 5.95532 2.91007 5.86849 2.73057 5.69478C2.55117 5.52107 2.46135 5.31017 2.46135 5.06195V4.76433C2.46135 4.10673 2.70177 3.54537 3.18259 3.08006C3.66338 2.61492 4.24355 2.38225 4.923 2.38225H5.53833C5.70497 2.38225 5.84914 2.32329 5.97099 2.20547C6.09277 2.08759 6.15366 1.94806 6.15366 1.78677V0.595612C6.15366 0.434349 6.09273 0.294694 5.97099 0.176811C5.84917 0.0590905 5.705 3.46303e-05 5.53833 3.46303e-05H4.923C4.25628 3.46303e-05 3.6202 0.125773 3.01437 0.37689C2.40861 0.628171 1.88465 0.967839 1.44229 1.39593C0.999964 1.82382 0.649074 2.33091 0.389451 2.9172C0.129828 3.50343 0 4.11914 0 4.76429V11.3149C0 11.8114 0.179402 12.233 0.538375 12.5805C0.897381 12.9279 1.33337 13.1015 1.84615 13.1015H5.53856C6.05131 13.1015 6.48717 12.9279 6.84621 12.5805C7.20511 12.233 7.38462 11.8114 7.38462 11.3149V7.74192C7.38462 7.24548 7.20511 6.82388 6.84597 6.47632C6.4871 6.12903 6.05107 5.95532 5.53833 5.95532Z" fill="#C7C7C7"/>
<path id="Vector_2" d="M15.4624 6.47632C15.1035 6.12903 14.6676 5.95532 14.1547 5.95532H12.0009C11.7446 5.95532 11.5264 5.86849 11.3472 5.69478C11.1676 5.52107 11.078 5.31017 11.078 5.06195V4.76433C11.078 4.10673 11.3184 3.54537 11.799 3.08006C12.2796 2.61492 12.8598 2.38225 13.5395 2.38225H14.1547C14.3214 2.38225 14.4657 2.32329 14.5874 2.20547C14.7091 2.08759 14.7702 1.94806 14.7702 1.78677V0.595612C14.7702 0.434349 14.7091 0.294694 14.5874 0.176811C14.4657 0.0590905 14.3214 3.46303e-05 14.1547 3.46303e-05H13.5395C12.8725 3.46303e-05 12.2365 0.125773 11.6305 0.37689C11.0249 0.628171 10.5011 0.967839 10.0587 1.39593C9.61634 1.82382 9.26528 2.33091 9.00576 2.9172C8.74621 3.50343 8.61621 4.11914 8.61621 4.76429V11.3149C8.61621 11.8114 8.79578 12.233 9.15465 12.5805C9.51356 12.9279 9.94945 13.1015 10.4623 13.1015H14.1545C14.6674 13.1015 15.1032 12.9279 15.4621 12.5805C15.8213 12.233 16.0005 11.8114 16.0005 11.3149V7.74192C16.0005 7.24545 15.8213 6.82388 15.4624 6.47632Z" fill="#C7C7C7"/>
</g>
</svg>
