<svg xmlns="http://www.w3.org/2000/svg" viewBox="0 0 36 36" preserveAspectRatio="xMidYMid meet" fill="none" aria-hidden="true">
<path id="Vector" d="M0 4H4V0C1.8 0 0 1.8 0 4ZM0 20H4V16H0V20ZM8 36H12V32H8V36ZM0 12H4V8H0V12ZM20 0H16V4H20V0ZM32 0V4H36C36 1.8 34.2 0 32 0ZM4 36V32H0C0 34.2 1.8 36 4 36ZM0 28H4V24H0V28ZM12 0H8V4H12V0ZM16 36H20V32H16V36ZM32 20H36V16H32V20ZM32 36C34.2 36 36 34.2 36 32H32V36ZM32 12H36V8H32V12ZM32 28H36V24H32V28ZM24 36H28V32H24V36ZM24 4H28V0H24V4ZM8 28H28V8H8V28ZM12 12H24V24H12V12Z" fill="#F5921B"/>
</svg>
