<svg xmlns="http://www.w3.org/2000/svg" viewBox="0 0 40 40" preserveAspectRatio="xMidYMid meet" fill="none" aria-hidden="true">
<path id="Vector" d="M21.02 15.98C21.02 12.68 18.32 9.98 15.02 9.98C11.72 9.98 9.02 12.68 9.02 15.98C9.02 19.28 11.72 21.98 15.02 21.98C18.32 21.98 21.02 19.28 21.02 15.98ZM15.02 17.98C13.92 17.98 13.02 17.08 13.02 15.98C13.02 14.88 13.92 13.98 15.02 13.98C16.12 13.98 17.02 14.88 17.02 15.98C17.02 17.08 16.12 17.98 15.02 17.98ZM28.02 21.98C30.24 21.98 32.02 20.2 32.02 17.98C32.02 15.76 30.24 13.98 28.02 13.98C25.8 13.98 24 15.76 24.02 17.98C24.02 20.2 25.8 21.98 28.02 21.98ZM20 0C8.96 0 0 8.96 0 20C0 31.04 8.96 40 20 40C31.04 40 40 31.04 40 20C40 8.96 31.04 0 20 0ZM7.7 30.22C9.06 29.14 12.24 28 15.02 28C15.16 28 15.32 28.02 15.48 28.02C15.96 26.74 16.82 25.44 18.08 24.3C16.96 24.1 15.9 23.98 15.02 23.98C12.42 23.98 8.24 24.88 5.56 26.84C4.56 24.76 4 22.44 4 19.98C4 11.16 11.18 3.98 20 3.98C28.82 3.98 36 11.16 36 19.98C36 22.38 35.46 24.66 34.5 26.72C32.5 25.54 29.78 24.98 28.02 24.98C24.98 24.98 19.02 26.6 19.02 30.38V35.94C14.48 35.68 10.44 33.52 7.7 30.22Z" fill="#0066CC"/>
</svg>
