<svg xmlns="http://www.w3.org/2000/svg" viewBox="0 0 44 38.3" preserveAspectRatio="xMidYMid meet" fill="none" aria-hidden="true">
<path id="Vector" d="M22 7.1C29.58 7.1 36.34 11.36 39.64 18.1C38.46 20.54 36.8 22.64 34.82 24.34L37.64 27.16C40.42 24.7 42.62 21.62 44 18.1C40.54 9.32 32 3.1 22 3.1C19.46 3.1 17.02 3.5 14.72 4.24L18.02 7.54C19.32 7.28 20.64 7.1 22 7.1ZM19.86 9.38L24 13.52C25.14 14.02 26.06 14.94 26.56 16.08L30.7 20.22C30.86 19.54 30.98 18.82 30.98 18.08C31 13.12 26.96 9.1 22 9.1C21.26 9.1 20.56 9.2 19.86 9.38ZM2.02 2.84L7.38 8.2C4.12 10.76 1.54 14.16 0 18.1C3.46 26.88 12 33.1 22 33.1C25.04 33.1 27.96 32.52 30.64 31.46L37.48 38.3L40.3 35.48L4.84 0L2.02 2.84ZM17.02 17.84L22.24 23.06C22.16 23.08 22.08 23.1 22 23.1C19.24 23.1 17 20.86 17 18.1C17 18 17.02 17.94 17.02 17.84ZM10.22 11.04L13.72 14.54C13.26 15.64 13 16.84 13 18.1C13 23.06 17.04 27.1 22 27.1C23.26 27.1 24.46 26.84 25.54 26.38L27.5 28.34C25.74 28.82 23.9 29.1 22 29.1C14.42 29.1 7.66 24.84 4.36 18.1C5.76 15.24 7.8 12.88 10.22 11.04Z" fill="#F5921B"/>
</svg>
