<svg xmlns="http://www.w3.org/2000/svg" viewBox="0 0 29.3333 26.4" preserveAspectRatio="xMidYMid meet" fill="none" aria-hidden="true">
<path id="Vector" d="M2.41333 0L0.52 1.88L3.97333 5.33333C1.6 6.72 0 9.30667 0 12.2533C0 16.6667 3.58667 20.2533 8 20.2533C10.96 20.2533 13.5333 18.64 14.92 16.2533L25.04 26.4L26.92 24.52L2.41333 0ZM8 17.5867C5.05333 17.5867 2.66667 15.2 2.66667 12.2533C2.66667 10.0267 4.02667 8.12 5.96 7.32L8.24 9.6C8.16 9.58667 8.08 9.58667 8 9.58667C6.53333 9.58667 5.33333 10.7867 5.33333 12.2533C5.33333 13.72 6.53333 14.92 8 14.92C9.46667 14.92 10.6667 13.72 10.6667 12.2533C10.6667 12.1733 10.6667 12.0933 10.6533 12.0133L12.9733 14.3333C12.2933 15.56 10.8533 17.5867 8 17.5867ZM21.3333 15.1467V13.5867H19.7733L21.3333 15.1467ZM17.1067 10.92H26.6667V13.5867H24V17.5867L26.6667 20.2533V16.2533H29.3333V8.25333H14.44L17.1067 10.92Z" fill="#0D0D0D"/>
</svg>
