<svg preserveAspectRatio="none" width="100%" height="100%" overflow="visible" style="display: block;" viewBox="0 0 26.6667 25.3333" fill="none" xmlns="http://www.w3.org/2000/svg">
<path id="Vector" d="M14.6667 7.77333C15.8 7.37333 16.7067 6.46667 17.1067 5.33333H21.3333L17.3333 14.6667C17.3333 16.88 19.4267 18.6667 22 18.6667C24.5733 18.6667 26.6667 16.88 26.6667 14.6667L22.6667 5.33333H25.3333V2.66667H17.1067C16.56 1.10667 15.08 0 13.3333 0C11.5867 0 10.1067 1.10667 9.56 2.66667H1.33333V5.33333H4L0 14.6667C0 16.88 2.09333 18.6667 4.66667 18.6667C7.24 18.6667 9.33333 16.88 9.33333 14.6667L5.33333 5.33333H9.56C9.96 6.46667 10.8667 7.37333 12 7.77333V22.6667H0V25.3333H26.6667V22.6667H14.6667V7.77333ZM24.4933 14.6667H19.5067L22 8.85333L24.4933 14.6667ZM7.16 14.6667H2.17333L4.66667 8.85333L7.16 14.6667ZM13.3333 5.33333C12.6 5.33333 12 4.73333 12 4C12 3.26667 12.6 2.66667 13.3333 2.66667C14.0667 2.66667 14.6667 3.26667 14.6667 4C14.6667 4.73333 14.0667 5.33333 13.3333 5.33333Z" fill="var(--fill-0, #2097F7)"/>
</svg>
