<svg preserveAspectRatio="xMidYMid meet" width="100%" height="100%" overflow="visible" style="display: block;" viewBox="0 0 24.0002 23.9999" fill="none" xmlns="http://www.w3.org/2000/svg">
<path id="&#240;&#159;&#150;&#188;&#239;&#184;&#143; Icon" d="M12.478 1.97601C14.2137 0.241098 16.6586 -0.351514 18.8793 0.198662C19.3053 0.304566 19.455 0.832655 19.145 1.143L15.6596 4.62933L16.1899 7.81097L19.3715 8.34124L22.8569 4.85491C23.1653 4.54669 23.6952 4.69053 23.8002 5.1137C24.3528 7.33603 23.7605 9.78523 22.0229 11.5229C20.1526 13.3931 17.464 13.9106 15.1147 13.1274L5.12054 23.1215C3.94909 24.2925 2.04963 24.2928 0.878349 23.1215C-0.29291 21.9502 -0.292656 20.0508 0.878349 18.8793L10.8813 8.8764C10.1078 6.52794 10.6199 3.83411 12.478 1.97601ZM3.00042 19.8744C2.37937 19.8744 1.87549 20.378 1.87542 20.9994C1.87542 21.6205 2.37933 22.1244 3.00042 22.1244C3.62147 22.1244 4.12542 21.6205 4.12542 20.9994C4.12535 20.378 3.62142 19.8745 3.00042 19.8744Z" fill="var(--fill-0, #B1380B)"/>
</svg>
