<svg preserveAspectRatio="none" width="100%" height="100%" overflow="visible" style="display: block;" viewBox="0 0 26.6667 24" fill="none" xmlns="http://www.w3.org/2000/svg">
<g id="Vector">
<path d="M24 0H2.66667C1.18667 0 0 1.18667 0 2.66667V18.6667C0 20.1333 1.18667 21.3333 2.66667 21.3333H8V24H18.6667V21.3333H24C25.4667 21.3333 26.6667 20.1333 26.6667 18.6667V2.66667C26.6667 1.18667 25.4667 0 24 0ZM24 18.6667H2.66667V2.66667H24V18.6667Z" fill="var(--fill-0, #0D0D0D)"/>
<path d="M16 7H5.33333V9H16V7Z" fill="var(--fill-0, #0D0D0D)"/>
<path d="M19.3333 9H21.3333V7H19.3333V5.33333H17.3333V10.6667H19.3333V9Z" fill="var(--fill-0, #0D0D0D)"/>
<path d="M21.3333 12.3333H10.6667V14.3333H21.3333V12.3333Z" fill="var(--fill-0, #0D0D0D)"/>
<path d="M7.33333 16H9.33333V10.6667H7.33333V12.3333H5.33333V14.3333H7.33333V16Z" fill="var(--fill-0, #0D0D0D)"/>
</g>
</svg>
