<svg preserveAspectRatio="xMidYMid meet" width="100%" height="100%" overflow="visible" style="display: block;" viewBox="0 0 26.6667 26.6667" fill="none" xmlns="http://www.w3.org/2000/svg">
<path id="Vector" d="M13.3333 0C6 0 0 6 0 13.3333C0 20.6667 6 26.6667 13.3333 26.6667C20.6667 26.6667 26.6667 20.6667 26.6667 13.3333C26.6667 6 20.6667 0 13.3333 0ZM13.3333 24C7.45333 24 2.66667 19.2133 2.66667 13.3333C2.66667 7.45333 7.45333 2.66667 13.3333 2.66667C19.2133 2.66667 24 7.45333 24 13.3333C24 19.2133 19.2133 24 13.3333 24ZM6.66667 17.3333H20V20H6.66667V17.3333ZM11.0667 12.2667L8.53333 9.73333L6.66667 11.6L11.0667 16L20 7.06667L18.1333 5.2L11.0667 12.2667Z" fill="var(--fill-0, #0F172B)"/>
</svg>
