<svg preserveAspectRatio="none" width="100%" height="100%" overflow="visible" style="display: block;" viewBox="0 0 26.6667 26.6667" fill="none" xmlns="http://www.w3.org/2000/svg">
<path id="Vector" d="M13.3333 0C5.97333 0 0 5.97333 0 13.3333C0 20.6933 5.97333 26.6667 13.3333 26.6667C20.6933 26.6667 26.6667 20.6933 26.6667 13.3333C26.6667 5.97333 20.6933 0 13.3333 0ZM13.3333 24C7.45333 24 2.66667 19.2133 2.66667 13.3333C2.66667 7.45333 7.45333 2.66667 13.3333 2.66667C19.2133 2.66667 24 7.45333 24 13.3333C24 19.2133 19.2133 24 13.3333 24ZM16 10.6667H6.66667V13.3333H16V10.6667ZM16 6.66667H6.66667V9.33333H16V6.66667ZM6.66667 17.3333H10.6667V14.6667H6.66667V17.3333ZM22.6667 14.6667V17.3333H20V20H17.3333V17.3333H14.6667V14.6667H17.3333V12H20V14.6667H22.6667Z" fill="var(--fill-0, #0D0D0D)"/>
</svg>
