<svg preserveAspectRatio="xMidYMid meet" width="100%" height="100%" overflow="visible" style="display: block;" viewBox="0 0 24 29.3333" fill="none" xmlns="http://www.w3.org/2000/svg">
<path id="Vector" d="M12 0L0 5.33333V13.3333C0 20.7333 5.12 27.6533 12 29.3333C18.88 27.6533 24 20.7333 24 13.3333V5.33333L12 0ZM21.3333 13.3333C21.3333 15.8 20.6533 18.2 19.4933 20.28L17.56 18.3467C19.28 15.76 18.9867 12.24 16.7067 9.96C14.1067 7.36 9.88 7.36 7.28 9.96C4.68 12.56 4.68 16.7867 7.28 19.3867C9.56 21.6667 13.08 21.9467 15.6667 20.24L17.96 22.5333C16.3733 24.4267 14.32 25.88 12 26.5867C6.64 24.92 2.66667 19.36 2.66667 13.3333V7.06667L12 2.92L21.3333 7.06667V13.3333ZM12 18.6667C9.78667 18.6667 8 16.88 8 14.6667C8 12.4533 9.78667 10.6667 12 10.6667C14.2133 10.6667 16 12.4533 16 14.6667C16 16.88 14.2133 18.6667 12 18.6667Z" fill="var(--fill-0, #0F172B)"/>
</svg>
