<svg preserveAspectRatio="none" width="100%" height="100%" overflow="visible" style="display: block;" viewBox="0 0 21.3333 24" fill="none" xmlns="http://www.w3.org/2000/svg">
<path id="Vector" d="M18.6667 0V2.66667H16V0H5.33333V2.66667H2.66667V0H0V24H2.66667V21.3333H5.33333V24H16V21.3333H18.6667V24H21.3333V0H18.6667ZM5.33333 18.6667H2.66667V16H5.33333V18.6667ZM5.33333 13.3333H2.66667V10.6667H5.33333V13.3333ZM5.33333 8H2.66667V5.33333H5.33333V8ZM13.3333 21.3333H8V2.66667H13.3333V21.3333ZM18.6667 18.6667H16V16H18.6667V18.6667ZM18.6667 13.3333H16V10.6667H18.6667V13.3333ZM18.6667 8H16V5.33333H18.6667V8Z" fill="var(--fill-0, #2097F7)"/>
</svg>
