<svg preserveAspectRatio="none" width="100%" height="100%" overflow="visible" style="display: block;" viewBox="0 0 29.3333 29.3333" fill="none" xmlns="http://www.w3.org/2000/svg">
<g id="Vector">
<path d="M2.66667 4C2.66667 3.26667 3.26667 2.66667 4 2.66667H6.66667V0H4C1.78667 0 0 1.78667 0 4V6.66667H2.66667V4Z" fill="var(--fill-0, #2097F7)"/>
<path d="M2.66667 25.3333V22.6667H0V25.3333C0 27.5467 1.78667 29.3333 4 29.3333H6.66667V26.6667H4C3.26667 26.6667 2.66667 26.0667 2.66667 25.3333Z" fill="var(--fill-0, #2097F7)"/>
<path d="M25.3333 0H22.6667V2.66667H25.3333C26.0667 2.66667 26.6667 3.26667 26.6667 4V6.66667H29.3333V4C29.3333 1.78667 27.5467 0 25.3333 0Z" fill="var(--fill-0, #2097F7)"/>
<path d="M26.6667 25.3333C26.6667 26.0667 26.0667 26.6667 25.3333 26.6667H22.6667V29.3333H25.3333C27.5467 29.3333 29.3333 27.5467 29.3333 25.3333V22.6667H26.6667V25.3333Z" fill="var(--fill-0, #2097F7)"/>
<path d="M24 18.4933V10.84C24 9.88 23.4933 9 22.6667 8.53333L16 4.69333C15.5867 4.45333 15.1333 4.33333 14.6667 4.33333C14.2 4.33333 13.7467 4.45333 13.3333 4.69333L6.66667 8.52C5.84 9 5.33333 9.88 5.33333 10.84V18.4933C5.33333 19.4533 5.84 20.3333 6.66667 20.8L13.3333 24.64C13.7467 24.88 14.2 25 14.6667 25C15.1333 25 15.5867 24.88 16 24.64L22.6667 20.8C23.4933 20.3333 24 19.4533 24 18.4933ZM13.3333 21.56L8 18.4933V12.32L13.3333 15.4267V21.56ZM14.6667 13.12L9.38667 10.04L14.6667 7L19.9467 10.04L14.6667 13.12ZM21.3333 18.4933L16 21.56V15.4267L21.3333 12.32V18.4933Z" fill="var(--fill-0, #2097F7)"/>
</g>
</svg>
