<svg xmlns="http://www.w3.org/2000/svg" viewBox="0 0 40 36" preserveAspectRatio="xMidYMid meet" fill="none" aria-hidden="true">
<path fill-rule="evenodd" clip-rule="evenodd" d="M36 0H4C1.8 0 0 1.8 0 4V32C0 34.2 1.8 36 4 36H36C38.2 36 40 34.2 40 32V4C40 1.8 38.2 0 36 0ZM36 32H4V4H36V32Z" fill="#0066CC"/>
  <path fill-rule="evenodd" clip-rule="evenodd" d="M34.82 14.84L31.98 12L25.64 18.34L22.82 15.5L20 18.32L25.64 24L34.82 14.84Z" fill="#0066CC"/>
  <path d="M16 8H6V12H16V8Z" fill="#0066CC"/>
  <path d="M16 16H6V20H16V16Z" fill="#0066CC"/>
  <path d="M16 24H6V28H16V24Z" fill="#0066CC"/>
</svg>
