<svg width="80" height="80" viewBox="0 0 69 77" fill="none" xmlns="http://www.w3.org/2000/svg">
<g id="strategy">
<g id="Group">
<path id="Vector" d="M31.9298 18.6161C31.9796 18.6163 32.0281 18.6006 32.0682 18.5711C32.1083 18.5416 32.1379 18.5001 32.1526 18.4525C32.1655 18.3014 32.1265 18.1505 32.0422 18.0245C31.9482 17.8917 31.8422 17.7965 31.6682 17.8981C31.415 18.0461 31.6418 18.6161 31.9298 18.6161Z" fill="black"/>
<path id="Vector_2" d="M32.5635 17.927C32.8235 18.2528 33.1149 18.5523 33.4335 18.821C33.1023 19.0098 32.9643 19.061 32.9635 19.193C32.9657 19.2358 32.9822 19.2767 33.0103 19.309C33.034 19.3302 33.0627 19.345 33.0937 19.352C33.1247 19.359 33.157 19.358 33.1875 19.349C33.372 19.266 33.5482 19.1656 33.7139 19.0494C33.749 19.0254 33.7777 18.9931 33.7975 18.9553C33.8172 18.9176 33.8274 18.8756 33.8271 18.833C33.8239 18.6822 33.6835 18.5794 33.6087 18.5254C33.3231 18.277 33.0579 17.9914 32.7687 17.7138C32.7328 17.6883 32.6899 17.6744 32.6459 17.6738C32.6163 17.6738 32.5875 17.6832 32.5636 17.7005C32.5397 17.7179 32.5219 17.7424 32.5127 17.7705C32.5036 17.7986 32.5036 17.8289 32.5127 17.857C32.5218 17.8851 32.5396 17.9096 32.5635 17.927Z" fill="black"/>
<path id="Vector_3" d="M33.4294 19.2551C33.2519 19.3518 33.0519 19.3996 32.8499 19.3936C32.6479 19.3875 32.4511 19.3279 32.2798 19.2207C32.2827 19.1972 32.2803 19.1733 32.2729 19.1508C32.2655 19.1283 32.2531 19.1078 32.2368 19.0906C32.2204 19.0735 32.2005 19.0602 32.1784 19.0517C32.1563 19.0432 32.1326 19.0397 32.109 19.0415C32.0206 19.0415 31.989 19.0859 31.8182 19.2359C31.7958 19.2565 31.7798 19.2832 31.7724 19.3127C31.7649 19.3422 31.7662 19.3733 31.7761 19.4021C31.786 19.4309 31.804 19.4562 31.828 19.4749C31.8521 19.4936 31.881 19.5049 31.9114 19.5075C32.0434 20.3147 32.8186 20.6011 33.3062 20.1551C33.4318 20.0083 33.271 19.7735 33.0582 19.9151C32.9862 19.9828 32.8924 20.0227 32.7937 20.0274C32.695 20.0321 32.5978 20.0013 32.5198 19.9407C32.3991 19.8401 32.3109 19.706 32.2662 19.5555C32.8534 19.8203 33.5386 19.6107 33.6234 19.4419C33.6377 19.415 33.6428 19.3842 33.6381 19.3541C33.6333 19.324 33.6188 19.2963 33.5969 19.2752C33.575 19.2541 33.5467 19.2407 33.5165 19.2371C33.4863 19.2334 33.4557 19.2397 33.4294 19.2551Z" fill="black"/>
<path id="Vector_4" d="M31.6608 17.5997C31.9248 17.5737 31.9208 17.2925 31.7544 17.2637C31.6143 17.2673 31.4784 17.3126 31.3641 17.3937C31.2498 17.4749 31.1622 17.5882 31.1124 17.7193C31.1034 17.744 31.1012 17.7707 31.106 17.7966C31.1108 17.8224 31.1224 17.8465 31.1397 17.8664C31.157 17.8862 31.1792 17.9011 31.2042 17.9094C31.2292 17.9177 31.2559 17.9192 31.2816 17.9137C31.39 17.8885 31.3564 17.7937 31.5344 17.6677C31.5734 17.6395 31.6159 17.6167 31.6608 17.5997Z" fill="black"/>
<path id="Vector_5" d="M13.3249 30.9526C13.4877 30.851 13.3277 30.5646 13.1593 30.669C12.3513 31.1738 6.93526 34.5326 5.05806 35.749C5.02334 35.7758 5 35.8147 4.99268 35.858C4.98536 35.9012 4.99461 35.9456 5.01858 35.9824C5.04254 36.0191 5.07947 36.0455 5.122 36.0562C5.16453 36.0669 5.20954 36.0612 5.24806 36.0402C7.95806 34.4122 10.6257 32.6562 13.3249 30.9526Z" fill="black"/>
<path id="Vector_6" d="M10.2689 22.6453C10.2894 22.6464 10.3098 22.6429 10.3288 22.6349C10.3477 22.627 10.3646 22.6149 10.3781 22.5995C10.3917 22.5841 10.4016 22.5658 10.407 22.546C10.4125 22.5262 10.4134 22.5055 10.4097 22.4853C10.4125 22.4662 10.4113 22.4467 10.4062 22.4281C10.4011 22.4094 10.3922 22.392 10.3801 22.377C10.3679 22.362 10.3528 22.3496 10.3357 22.3407C10.3186 22.3318 10.2998 22.3266 10.2805 22.3253C6.89764 22.1388 3.50557 22.2066 0.132882 22.5281C0.0966553 22.5333 0.0634357 22.5511 0.0391185 22.5785C0.0148013 22.6058 0.00095901 22.6409 4.80087e-05 22.6775C-0.000862993 22.714 0.0112163 22.7498 0.0341422 22.7783C0.0570682 22.8068 0.0893581 22.8263 0.125282 22.8333C0.125282 22.8333 9.93128 22.6409 10.2689 22.6453Z" fill="black"/>
<path id="Vector_7" d="M11.3008 8.95046C11.3205 8.96712 11.3435 8.97927 11.3684 8.98606C11.3932 8.99286 11.4192 8.99412 11.4446 8.98978C11.47 8.98543 11.4942 8.97558 11.5153 8.96091C11.5365 8.94624 11.5542 8.92711 11.5672 8.90486C11.5788 8.87419 11.5819 8.84098 11.5763 8.80869C11.5707 8.77639 11.5565 8.7462 11.5352 8.72126C10.1596 7.28086 8.664 5.82086 6.9676 4.26366C6.95167 4.24896 6.93254 4.23816 6.91172 4.23212C6.8909 4.22607 6.86896 4.22494 6.84763 4.22882C6.8263 4.2327 6.80617 4.24148 6.78881 4.25446C6.77145 4.26745 6.75734 4.28429 6.7476 4.30366C6.6332 4.53246 6.5232 4.14566 11.3008 8.95046Z" fill="black"/>
<path id="Vector_8" d="M17.3407 3.33483C18.5715 5.67403 18.5547 5.69043 18.6879 5.69043H18.7243C18.7497 5.69025 18.7746 5.68317 18.7963 5.66995C18.8181 5.65672 18.8358 5.63785 18.8476 5.61535C18.8594 5.59284 18.8649 5.56755 18.8635 5.54217C18.8621 5.51679 18.8538 5.49227 18.8395 5.47123C18.6339 5.02403 18.3887 4.58603 18.1519 4.16163C18.0747 4.02403 17.1547 2.33003 16.9859 2.02323C16.9725 1.99807 16.952 1.97747 16.9268 1.96407C16.9016 1.95068 16.8731 1.94509 16.8447 1.94803C16.8207 1.94816 16.7971 1.95445 16.7762 1.9663C16.7553 1.97815 16.7378 1.99516 16.7254 2.01571C16.7129 2.03626 16.706 2.05965 16.7052 2.08366C16.7043 2.10767 16.7097 2.13148 16.7207 2.15283C16.9247 2.54643 17.1335 2.94083 17.3407 3.33483Z" fill="black"/>
<path id="Vector_9" d="M37.1147 6.28938C37.3267 6.20658 37.0307 6.38538 38.5547 0.18978C38.5602 0.160854 38.5576 0.130977 38.5472 0.103437C38.5368 0.0758976 38.519 0.0517636 38.4957 0.0336917C38.4725 0.0156197 38.4447 0.00431063 38.4154 0.00100925C38.3862 -0.00229214 38.3566 0.00254212 38.3299 0.01498C38.2866 0.0363124 38.2534 0.073807 38.2375 0.11938C37.6942 2.10064 37.2557 4.10916 36.9239 6.13658C36.9197 6.16118 36.9221 6.18647 36.9309 6.20981C36.9398 6.23315 36.9547 6.25369 36.9742 6.26929C36.9937 6.2849 37.017 6.29499 37.0417 6.29852C37.0664 6.30206 37.0916 6.2989 37.1147 6.28938Z" fill="black"/>
<path id="Vector_10" d="M51.4464 11.0721C51.8876 10.4929 52.4012 9.97264 52.9748 9.52407C52.9748 9.52407 57.5176 5.53927 58.3932 4.75687C58.5432 4.62767 58.3972 4.36367 58.1636 4.49807C57.3544 5.19447 52.6772 9.33807 52.6772 9.33807C52.1129 9.78297 51.6119 10.3027 51.188 10.8829C51.1656 10.9212 51.1586 10.9666 51.1683 11.01C51.178 11.0533 51.2038 11.0913 51.2404 11.1165C51.275 11.1316 51.3136 11.1354 51.3505 11.1275C51.3875 11.1195 51.421 11.1001 51.4464 11.0721Z" fill="black"/>
<path id="Vector_11" d="M55.9486 17.3708C55.8958 17.3904 55.8738 17.4456 55.8578 17.5096C55.8515 17.5345 55.8522 17.5606 55.8597 17.5851C55.8672 17.6096 55.8813 17.6315 55.9004 17.6486C55.9196 17.6656 55.943 17.6771 55.9682 17.6817C55.9935 17.6863 56.0195 17.684 56.0434 17.6748C58.9082 16.5824 59.411 16.5072 60.7066 16.0624C60.7458 16.0428 60.7773 16.0105 60.7958 15.9708C60.8073 15.9438 60.8112 15.9142 60.807 15.8852C60.8028 15.8562 60.7907 15.8289 60.7721 15.8062C60.7534 15.7836 60.7289 15.7666 60.7012 15.7569C60.6735 15.7473 60.6437 15.7455 60.615 15.7516C59.4838 16.0616 57.0354 16.9624 55.9486 17.3708Z" fill="black"/>
<path id="Vector_12" d="M68.6252 31.0606C68.5324 31.0242 56.1604 30.5618 55.25 30.5806C55.2255 30.5812 55.2016 30.5882 55.1807 30.6009C55.1597 30.6136 55.1425 30.6316 55.1307 30.653C55.1188 30.6745 55.1129 30.6987 55.1133 30.7232C55.1138 30.7477 55.1206 30.7716 55.1332 30.7926C55.1441 30.818 55.1618 30.8398 55.1844 30.8555C55.2071 30.8712 55.2337 30.8802 55.2612 30.8814C56.442 30.9214 68.0124 31.3866 68.5628 31.3866C68.6017 31.3859 68.6392 31.3718 68.669 31.3468C68.6987 31.3217 68.719 31.2872 68.7263 31.2489C68.7336 31.2107 68.7276 31.1712 68.7092 31.1369C68.6908 31.1026 68.6611 31.0757 68.6252 31.0606Z" fill="black"/>
<path id="Vector_13" d="M64.0172 39.324C63.9836 39.284 64.174 39.38 60.8664 37.8548C61.0488 37.5284 61.2374 37.2048 61.4324 36.884C61.4469 36.8444 61.4479 36.8011 61.4353 36.7609C61.4227 36.7207 61.3971 36.6857 61.3625 36.6615C61.328 36.6373 61.2864 36.6253 61.2443 36.6272C61.2021 36.6291 61.1618 36.6448 61.1296 36.672L59.7636 37.3836C57.2436 36.2064 54.9272 35.194 52.6932 34.2924C51.7824 33.926 49.3664 32.9724 49.3584 32.9672L49.3552 32.9732C49.2092 32.9308 49.1952 32.9624 49.164 33.0388C49.108 33.1776 49.116 33.1748 49.6736 33.402C47.468 37.6684 45.3936 41.1104 42.9436 46.1344C42.5785 46.3046 42.281 46.5924 42.0988 46.9516C41.852 47.5776 42.4764 47.5812 39.6988 35.5168C38.6412 30.9224 38.7236 31.1804 38.6692 31.1356C38.6454 31.1159 38.6167 31.1031 38.5862 31.0985C38.5557 31.0939 38.5245 31.0978 38.496 31.1096C38.496 31.1096 36.568 31.4612 35.8664 31.6064C35.8063 31.1351 35.8633 30.6561 36.0324 30.212C36.0598 30.2375 36.095 30.253 36.1323 30.256C36.1696 30.2591 36.2068 30.2495 36.238 30.2288C36.9033 29.8546 37.5171 29.3954 38.064 28.8628C38.352 28.6146 38.5964 28.32 38.7872 27.9912C38.8734 27.679 38.8327 27.3453 38.674 27.0628C38.406 26.2988 38.0852 25.5544 37.714 24.8348C41.9308 22.1709 45.625 18.7582 48.614 14.7652C48.7244 14.7788 49.4284 14.866 49.478 14.866C49.8256 14.866 49.97 14.5328 49.7624 14.3256C49.9112 14.3208 50.142 14.2888 50.1864 14.0708C50.1964 14.0102 50.1876 13.948 50.161 13.8926C50.1345 13.8372 50.0915 13.7914 50.038 13.7612C50.0576 13.7303 50.0708 13.6958 50.0769 13.6597C50.0829 13.6236 50.0817 13.5867 50.0732 13.5511C50.0647 13.5155 50.0492 13.4819 50.0276 13.4524C50.0059 13.4229 49.9786 13.398 49.9472 13.3792C49.686 13.22 49.3793 13.1519 49.0752 13.1856C49.111 13.1511 49.1378 13.1083 49.1531 13.0609C49.1684 13.0136 49.1718 12.9632 49.1629 12.9142C49.1541 12.8653 49.1332 12.8193 49.1023 12.7803C49.0714 12.7413 49.0313 12.7106 48.9856 12.6908C48.8642 12.6522 48.7324 12.6628 48.6188 12.7204C48.2142 12.843 47.8633 13.0994 47.6236 13.4476C47.4596 13.4808 44.1732 14.9948 42.0236 16.1556C39.8996 17.3044 35.148 20.1872 33.306 21.3444C33.2812 21.2844 33.2524 21.2128 33.236 21.1604C33.324 21.1342 33.4104 21.103 33.4948 21.0668C34.3052 20.594 34.5648 19.536 34.3904 18.6708C34.378 18.6056 34.3584 18.5428 34.3444 18.478C34.5586 18.1903 34.7335 17.8752 34.8644 17.5412C34.8821 17.3723 34.8662 17.2015 34.8174 17.0388C34.7687 16.876 34.6881 16.7246 34.5804 16.5932C34.5048 16.4955 34.4627 16.376 34.4604 16.2524C34.4884 16.0072 34.9004 15.7768 34.6204 15.2732C34.5263 15.1 34.4002 14.9462 34.2488 14.82C33.7263 14.2708 33.0834 13.8504 32.3708 13.592C31.708 13.3552 30.9836 13.3552 30.3208 13.592C30.0286 13.7504 29.7465 13.9266 29.476 14.1196C29.2069 14.257 28.9241 14.3658 28.6324 14.4444C28.2973 14.5819 28.0033 14.8032 27.7785 15.0871C27.5537 15.371 27.4057 15.708 27.3488 16.0656C27.2164 16.8012 27.5344 17.5056 27.446 18.2256C27.376 18.7928 26.75 19.1596 26.1468 19.4436C25.9469 19.5189 25.7545 19.6126 25.572 19.7236C20.3256 17.9636 15.518 16.566 12.5124 15.7984C12.4727 15.7815 12.4279 15.7806 12.3876 15.796C12.2431 15.5339 12.0526 15.2999 11.8252 15.1052C11.7763 15.0719 11.7198 15.0514 11.6609 15.0455C11.602 15.0397 11.5425 15.0486 11.488 15.0716C11.3084 15.164 11.3448 15.3952 11.3996 15.5892C11.0995 15.4593 10.7675 15.4217 10.446 15.4812C10.4027 15.4889 10.3621 15.5075 10.3279 15.5353C10.2938 15.563 10.2673 15.599 10.2509 15.6398C10.2345 15.6806 10.2287 15.7249 10.2341 15.7685C10.2396 15.8122 10.2561 15.8537 10.282 15.8892C10.2194 15.9045 10.1632 15.939 10.1211 15.9878C10.0791 16.0366 10.0533 16.0973 10.0473 16.1614C10.0414 16.2255 10.0556 16.2899 10.088 16.3456C10.1204 16.4013 10.1693 16.4455 10.228 16.472C10.1688 16.5234 10.1311 16.5951 10.1223 16.673C10.1135 16.7508 10.1342 16.8291 10.1804 16.8924C10.404 17.2148 10.7136 16.9812 11.7004 17.5208C11.6968 17.5436 11.6888 17.5636 11.6852 17.5864C11.6852 18.0336 12.0644 18.276 12.3688 18.4712C15.5232 20.4944 18.4588 22.3464 23.552 25.1316C23.132 26.0488 22.668 26.9568 22.1668 27.8312C22.1493 27.8655 22.1431 27.9045 22.149 27.9425C22.1549 27.9806 22.1726 28.0158 22.1996 28.0432C23.4188 29.0383 24.7553 29.8803 26.1792 30.5504C26.4123 30.706 26.6771 30.8078 26.9544 30.8484C27.0662 30.8507 27.1751 30.812 27.2604 30.7396C27.3004 30.6928 27.3336 30.6424 27.3696 30.5932C27.3812 30.598 27.3932 30.6016 27.4048 30.6064C27.454 31.7116 26.8588 32.6004 26.2776 33.5528C22.4628 34.3804 18.6088 35.2696 14.7976 36.2056C14.7563 36.2242 14.7231 36.2572 14.7042 36.2984C14.6854 36.3396 14.6822 36.3862 14.6952 36.4296C15.6864 39.1072 16.5892 41.8232 17.5352 44.5844C17.4952 44.5684 7.93159 40.8024 6.16999 40.3328C5.94639 40.0988 5.55079 40.518 5.89479 40.6008C9.10199 45.1016 12.5264 51.0724 17.0548 58.6808C15.5339 58.3848 13.9606 58.5177 12.5108 59.0644C11.3656 59.5068 10.1016 60.5244 10.3108 61.9376C10.516 63.3376 12.0488 64.0812 13.1944 64.5832C14.8133 65.271 16.3613 66.115 17.8164 67.1032C19.2331 68.1147 20.3265 69.5148 20.9644 71.1344C20.9317 71.1537 20.9068 71.1839 20.894 71.2196C20.6676 71.9164 20.202 74.0472 20.0244 74.852C19.9136 75.2449 19.8354 75.6463 19.7908 76.052C19.7912 76.0931 19.8065 76.1327 19.8339 76.1633C19.8614 76.1939 19.899 76.2135 19.9398 76.2184C19.9806 76.2233 20.0218 76.2132 20.0557 76.1899C20.0896 76.1667 20.1139 76.1319 20.124 76.092C20.242 75.6965 20.3319 75.2931 20.3932 74.8848C20.478 74.488 21.0756 71.9072 21.1532 71.5612C27.4332 74.0196 34.2064 74.3652 40.8524 72.9408C41.253 72.9055 41.6432 72.7941 42.002 72.6124C42.0936 72.8768 43.292 76.156 43.292 76.156C43.3083 76.2015 43.3419 76.2386 43.3856 76.2593C43.4293 76.2799 43.4793 76.2823 43.5248 76.266C43.5702 76.2498 43.6074 76.2161 43.628 76.1724C43.6486 76.1288 43.6511 76.0787 43.6348 76.0332C43.6348 76.0332 42.418 72.7412 42.2504 72.342C42.3754 72.1522 42.4457 71.9316 42.4536 71.7044C42.6668 70.4957 43.13 69.3449 43.8135 68.3255C44.4971 67.3061 45.3859 66.4406 46.4232 65.7844C49.018 64.1392 50.854 63.7196 53.7324 62.7228C54.54 62.4808 55.3277 62.1767 56.0884 61.8132C57.2772 61.232 58.4004 60.0348 57.7216 58.708C57.0612 57.4164 55.144 56.9032 53.646 56.9748C53.4009 56.9888 53.1568 57.0177 52.9152 57.0612C56.9072 51.388 59.9744 45.5012 64.018 39.5452C64.0437 39.5141 64.0578 39.4749 64.0576 39.4345C64.0575 39.3941 64.0432 39.355 64.0172 39.324ZM49.9988 33.5804C50.0388 33.5804 53.5824 34.9944 55.3696 35.768C56.2196 36.136 58.924 37.3484 59.4128 37.5652L43.4812 45.8604C45.2316 42.3272 49.9732 33.6204 49.9988 33.5804ZM42.0732 48.2072C42.0955 48.1871 42.1133 48.1624 42.1253 48.1348C42.1373 48.1072 42.1433 48.0773 42.1428 48.0472C42.1428 48.0308 42.138 48.014 42.136 47.9976C42.3516 47.2812 42.4296 46.7908 43.0756 46.4672C43.7752 46.1168 60.7296 37.2752 60.77 37.254C59.7909 39.0121 58.9391 40.8381 58.2212 42.718C58.0212 43.2076 52.054 57.4656 51.7412 58.08C51.4088 58.65 50.716 58.9244 50.1332 59.2452C45.0504 62.0488 40.078 64.7104 35.2064 67.7348C37.83 61.2656 40.0132 54.8764 42.0744 48.2076L42.0732 48.2072ZM31.658 32.0248C31.6901 32.1262 31.7437 32.2195 31.8153 32.2982C31.8868 32.3769 31.9745 32.4392 32.0724 32.4808C31.5148 32.5333 30.9533 32.5281 30.3968 32.4652C29.8746 32.3565 29.3582 32.2217 28.8496 32.0612L29.0368 31.1088C29.9251 31.3142 30.8324 31.4263 31.744 31.4432C31.6526 31.6225 31.6224 31.8268 31.658 32.0248ZM33.1988 31.8912C33.2939 31.8808 33.3884 31.8654 33.482 31.8452C33.3986 31.9516 33.2922 32.0376 33.1707 32.0967C33.0492 32.1559 32.9159 32.1867 32.7808 32.1868C32.5832 32.2108 32.2156 32.256 32.0696 32.0796C32.0062 31.9816 31.9773 31.8653 31.9874 31.749C31.9976 31.6328 32.0462 31.5232 32.1256 31.4376C32.5084 31.4299 32.89 31.3916 33.2668 31.3232C33.2728 31.3232 33.2788 31.3312 33.2848 31.3316C33.3628 31.3408 33.4344 31.3794 33.4848 31.4396L33.1648 31.494C33.1153 31.5024 33.0708 31.5291 33.0401 31.5687C33.0093 31.6083 32.9946 31.6581 32.9988 31.7081C33.0031 31.7581 33.0259 31.8047 33.0629 31.8386C33.0999 31.8725 33.1482 31.8913 33.1984 31.8912H33.1988ZM31.682 39.7952C31.7132 39.672 31.8152 39.3668 31.9292 39.3048C32.4232 37.0832 32.782 35.1964 32.4044 33.0172C32.3953 32.9649 32.4074 32.9112 32.438 32.8678C32.4685 32.8244 32.5151 32.7949 32.5674 32.7858C32.6197 32.7768 32.6734 32.7888 32.7168 32.8194C32.7602 32.85 32.7897 32.8965 32.7988 32.9488C32.9412 33.8849 32.9857 34.8332 32.9316 35.7784C33.0591 35.7005 33.1675 35.5949 33.2487 35.4695C33.3299 35.344 33.3819 35.2019 33.4008 35.0536C33.448 34.3342 33.4065 33.6117 33.2772 32.9024C33.2719 32.8763 33.272 32.8495 33.2772 32.8234C33.2825 32.7973 33.2929 32.7726 33.3079 32.7506C33.3228 32.7285 33.342 32.7098 33.3644 32.6953C33.3867 32.6808 33.4117 32.6709 33.4379 32.6662C33.464 32.6615 33.4909 32.662 33.5169 32.6678C33.5428 32.6736 33.5674 32.6846 33.5891 32.7C33.6108 32.7154 33.6292 32.735 33.6432 32.7576C33.6572 32.7802 33.6666 32.8054 33.6708 32.8316C33.8095 33.5832 33.8517 34.3494 33.7964 35.1116C33.7632 35.3654 33.661 35.6053 33.5008 35.8049C33.3406 36.0045 33.1286 36.1563 32.888 36.2436C32.7832 37.126 32.5436 38.3376 32.3424 39.276C32.3535 39.2789 32.3645 39.2824 32.3752 39.2864C32.5444 39.354 32.5652 39.8656 32.6036 40.0388C33.3564 43.5036 33.8948 44.5588 36.9276 52.4472C36.2284 52.6872 36.8424 52.5244 32.7276 54.09C31.9624 54.3812 29.2436 55.348 28.6568 55.5624C28.4052 55.0192 27.1216 52.2424 26.7232 51.3892C27.2752 50.2864 29.1348 45.9968 29.3904 45.3736C30.2892 43.1836 29.1248 46.1236 31.682 39.7952ZM33.756 31.218C34.0407 31.1439 34.3206 31.0521 34.594 30.9432L34.6376 31.898C34.2988 32.018 33.9608 32.1284 33.6248 32.2152C33.7725 32.099 33.8689 31.9297 33.8934 31.7433C33.9179 31.557 33.8686 31.3685 33.756 31.218ZM37.0412 52.7444C37.6064 54.2124 38.178 55.6788 38.7696 57.1372C38.7896 57.228 37.1232 61.8936 34.804 67.9132C32.7332 64.2988 30.6616 59.8828 28.7788 55.8256C31.0284 55.0808 36.352 53.0604 37.0412 52.7444ZM38.252 31.478C38.2994 31.4631 38.3476 31.4507 38.3964 31.4408C38.4337 31.5399 38.4627 31.6418 38.4832 31.7456C39.8692 37.9148 41.1316 42.8716 41.7632 47.9016C41.7108 48.0668 41.6692 48.2332 41.6232 48.3992C41.5824 47.3155 41.4448 46.2376 41.212 45.1784C40.122 39.7784 38.7472 36.6264 36.9604 33.8364C36.5087 33.2544 36.1584 32.6005 35.924 31.902C36.0724 31.8768 38.1092 31.5204 38.252 31.478ZM36.1432 33.646C36.1764 33.6302 36.2127 33.6218 36.2495 33.6213C36.2863 33.6208 36.3227 33.6283 36.3564 33.6432C36.3944 33.6627 36.4252 33.6939 36.4442 33.7321C36.4633 33.7704 36.4696 33.8137 36.4622 33.8558C36.4548 33.8979 36.4341 33.9365 36.4032 33.966C36.3723 33.9954 36.3328 34.0142 36.2904 34.0196C35.1848 34.3748 34.584 33.7332 34.3736 32.6216C34.3638 32.5695 34.3751 32.5156 34.405 32.4718C34.4349 32.428 34.481 32.3978 34.5332 32.388C34.5853 32.3782 34.6392 32.3895 34.683 32.4195C34.7268 32.4494 34.757 32.4955 34.7668 32.5476C34.9296 33.408 35.3108 33.9184 36.1432 33.646ZM35.5128 31.548C35.336 31.628 35.1596 31.7036 34.9832 31.7728C35.006 31.6528 35.0048 31.716 34.898 30.8184C35.1308 30.7137 35.3577 30.5966 35.578 30.4676C35.4893 30.8206 35.4672 31.187 35.5128 31.548ZM38.2024 26.8204C38.3432 27.0935 38.4394 27.3873 38.4872 27.6908C38.4872 27.9444 38.1728 28.22 37.9924 28.4156C37.4941 28.9515 36.9236 29.4153 36.2972 29.7936C36.2904 29.7536 36.0044 28.2588 35.996 28.218C36.0096 28.178 36.4676 24.258 36.2392 23.0808C37.042 24.2436 37.7012 25.4993 38.2024 26.8204ZM48.7148 13.1004C48.392 13.352 48.3812 13.3024 48.3492 13.3804C48.3368 13.4152 48.3348 13.4528 48.3433 13.4887C48.3518 13.5246 48.3705 13.5573 48.3972 13.5828C48.4191 13.6011 48.4449 13.6143 48.4726 13.6212C48.5003 13.6281 48.5292 13.6287 48.5572 13.6228C48.7511 13.5715 48.9525 13.5542 49.1524 13.5716C49.071 13.5825 48.9907 13.6002 48.9124 13.6248C48.8688 13.6367 48.8312 13.6643 48.8069 13.7023C48.7826 13.7404 48.7732 13.7861 48.7807 13.8306C48.7882 13.8751 48.8119 13.9153 48.8474 13.9432C48.8828 13.9712 48.9273 13.9851 48.9724 13.982C49.1494 13.9574 49.329 13.9574 49.506 13.982C49.5832 13.984 49.5316 13.9856 48.986 14.006C48.6744 13.9356 48.6136 14.3416 48.866 14.3728C49.0006 14.3974 49.1333 14.4319 49.2628 14.476C49.1556 14.4636 48.6852 14.404 48.5536 14.39C48.3687 14.112 48.1556 13.8538 47.9176 13.6196C48.1329 13.3799 48.408 13.2017 48.7148 13.1032V13.1004ZM45.2788 14.896C45.3188 14.8768 47.5888 13.8104 47.6292 13.826C47.871 14.0824 48.0864 14.3625 48.272 14.662C48.2166 14.7338 48.1574 14.8025 48.0948 14.868C45.1729 18.6825 41.5992 21.95 37.5388 24.5192C37.2208 23.9271 36.8692 23.3536 36.4856 22.8016C36.468 22.7761 36.444 22.7555 36.4161 22.742C36.3881 22.7285 36.3572 22.7225 36.3262 22.7246C36.2952 22.7266 36.2653 22.7367 36.2394 22.7538C36.2135 22.7709 36.1925 22.7944 36.1784 22.822C36.0908 22.3985 35.8952 22.0048 35.6105 21.6792C35.3258 21.3537 34.9617 21.1073 34.5536 20.964C38.0028 18.8528 41.57 16.6708 45.2788 14.896ZM34.1588 21.206C35.5764 21.3336 35.9728 22.966 35.9828 23.9132C35.9828 24.5492 35.936 24.9276 35.7592 27.14C35.4189 25.5872 34.9715 24.0598 34.42 22.5688C34.311 22.1424 34.0994 21.7491 33.8036 21.4232L34.1588 21.206ZM33.2484 21.7424C33.3368 21.716 33.324 21.7164 33.518 21.598C33.8756 22.0197 34.1264 22.5213 34.2492 23.0604C34.4016 23.5356 34.6652 24.2604 35.03 25.5912C35.4111 26.9826 35.7123 28.3946 35.932 29.8204C34.7929 30.6354 33.4343 31.0874 32.034 31.1172C29.4604 31.1772 27.7252 30.2944 27.5376 30.3364C27.9775 29.6213 28.3652 28.8754 28.6976 28.1044C29.5519 26.134 30.0454 24.0261 30.1544 21.8812C30.166 21.856 30.204 21.7676 30.2116 21.7484C32.9736 22.7764 30.298 21.7776 32.082 22.446C32.0993 22.4532 32.1179 22.4567 32.1367 22.4565C32.1554 22.4563 32.1739 22.4524 32.1911 22.4449C32.2083 22.4374 32.2238 22.4265 32.2367 22.413C32.2496 22.3994 32.2597 22.3833 32.2663 22.3658C32.2728 22.3482 32.2758 22.3295 32.2751 22.3108C32.2743 22.2921 32.2698 22.2737 32.2618 22.2567C32.2538 22.2398 32.2424 22.2246 32.2285 22.2121C32.2145 22.1996 32.1981 22.1901 32.1804 22.184C30.5804 21.584 30.8156 21.6788 30.7332 21.622C30.7276 21.5789 30.7193 21.5361 30.7084 21.494C30.7084 21.4816 30.7024 21.4724 30.7008 21.4608C31.1117 21.696 31.5696 21.8373 32.0416 21.8744C32.3144 21.93 32.5925 21.9551 32.8708 21.9492C32.9452 21.947 33.0181 21.927 33.0833 21.8911C33.1486 21.8551 33.2043 21.8042 33.246 21.7424H33.2484ZM28.522 31.9552C28.2347 31.864 27.9558 31.7481 27.6884 31.6088C27.7649 31.3258 27.7878 31.031 27.756 30.7396C28.058 30.8456 28.3648 30.9372 28.676 31.0176C28.516 31.7664 28.5 31.7804 28.522 31.9552ZM29.0388 18.9828C29.1828 18.478 29.9852 18.8916 30.0248 19.284C30.0221 19.3946 30.0454 19.5042 30.0928 19.604C30.16 19.6992 30.2184 19.678 30.3644 19.852C30.4788 19.988 30.6844 20.2332 30.7464 20.0668C30.8051 19.8274 30.7833 19.5754 30.6844 19.3496C30.6935 19.164 30.765 18.9869 30.8872 18.8468C31.1912 18.3888 30.878 17.8004 31.186 17.3648C31.5244 16.9368 31.8044 17.0604 32.2572 16.6532C32.3334 16.5834 32.389 16.4942 32.4182 16.3951C32.4474 16.296 32.449 16.1908 32.4228 16.0908C32.7318 16.2626 33.0154 16.4766 33.2652 16.7268C33.2816 16.7524 33.2976 16.7784 33.3132 16.8044H33.308C33.1867 16.8216 33.0767 16.8851 33.0012 16.9816C32.9016 17.1088 33.0812 17.3016 33.2012 17.2148C33.243 17.1761 33.2939 17.1486 33.3492 17.1348C33.3975 17.124 33.4479 17.1261 33.4952 17.1408H33.4996C33.5488 17.2376 33.5968 17.3352 33.64 17.4352C33.6129 17.4028 33.578 17.3778 33.5386 17.3627C33.4991 17.3476 33.4565 17.3428 33.4146 17.3488C33.3728 17.3548 33.3332 17.3714 33.2997 17.3971C33.2661 17.4227 33.2396 17.4565 33.2228 17.4952C33.1986 17.5956 33.2041 17.7008 33.2386 17.7981C33.2731 17.8954 33.3351 17.9806 33.4172 18.0432C33.4525 18.0752 33.4969 18.0952 33.5443 18.1006C33.5916 18.106 33.6394 18.0965 33.681 18.0733C33.7226 18.0501 33.7559 18.0145 33.7762 17.9715C33.7966 17.9284 33.8029 17.8801 33.7944 17.8332C34.0576 18.6052 34.1972 19.5784 33.7972 20.2648C33.7094 20.4193 33.5895 20.5531 33.4455 20.6571C33.3016 20.7612 33.137 20.8331 32.9628 20.868C32.9379 20.8745 32.9147 20.886 32.8943 20.9017C32.874 20.9174 32.8571 20.937 32.8446 20.9595C32.8321 20.9819 32.8242 21.0066 32.8215 21.0321C32.8188 21.0577 32.8213 21.0835 32.8288 21.108C32.9016 21.3216 32.9488 21.4404 32.9888 21.5596C32.9168 21.6244 32.6796 21.6032 32.5488 21.5912C31.8797 21.579 31.2238 21.4026 30.6388 21.0776C30.5804 21.0448 30.6152 21.1232 30.548 20.8804C30.5099 20.6944 30.4564 20.512 30.388 20.3348C30.3664 20.2884 30.2876 20.0348 30.108 20.1476C29.9502 20.1708 29.789 20.1437 29.6475 20.0702C29.5059 19.9967 29.391 19.8805 29.3192 19.738C29.219 19.6411 29.1418 19.523 29.0933 19.3923C29.0447 19.2616 29.0261 19.1217 29.0388 18.9828ZM29.7328 22.7132C29.5563 24.4207 29.1313 26.0931 28.4712 27.6776C28.5284 25.7128 28.4112 24.8188 28.4256 24.0376C29.0125 23.7765 29.4793 23.3035 29.7328 22.7132ZM11.7852 17.1616C11.4964 17.009 11.1881 16.8968 10.8688 16.828C10.7506 16.8064 10.6347 16.7736 10.5228 16.73C10.7006 16.7163 10.8794 16.7353 11.0504 16.786C11.083 16.7929 11.1168 16.7904 11.148 16.779C11.1793 16.7675 11.2067 16.7475 11.2271 16.7213C11.2475 16.695 11.2602 16.6635 11.2636 16.6304C11.267 16.5973 11.261 16.5639 11.2464 16.534C11.2427 16.5075 11.2314 16.4827 11.214 16.4624C11.1965 16.4421 11.1736 16.4273 11.148 16.4196C11.0621 16.3938 10.9744 16.3743 10.8856 16.3612L10.4888 16.2292C10.577 16.2172 10.6667 16.2249 10.7516 16.2516C10.8971 16.2794 11.0405 16.3172 11.1808 16.3648C11.4148 16.4448 11.472 16.0712 11.2944 16.0076C11.1501 15.967 11.0134 15.9033 10.8896 15.8188C11.1483 15.8486 11.3934 15.9503 11.5972 16.1124C11.6233 16.147 11.6613 16.1706 11.7038 16.1788C11.7463 16.187 11.7904 16.1792 11.8274 16.1568C11.8645 16.1344 11.892 16.0991 11.9046 16.0577C11.9172 16.0163 11.914 15.9716 11.8956 15.9324C11.8316 15.7808 11.7788 15.6246 11.7376 15.4652C11.9133 15.6766 12.0624 15.9087 12.1816 16.1564L11.9512 16.7564C11.8844 16.8865 11.8289 17.0221 11.7852 17.1616ZM27.38 29.8792C27.284 30.0432 27.1052 30.456 26.9512 30.4896C26.7836 30.5264 26.3048 30.2404 26.1036 30.1452C24.8999 29.5665 23.7654 28.8537 22.7216 28.0204C22.5744 27.9204 22.544 27.8796 22.5372 27.896C23.032 27.0605 23.4729 26.1942 23.8572 25.3024C23.888 25.3188 23.9184 25.3368 23.9496 25.3528C23.9911 25.3739 24.0393 25.3777 24.0836 25.3635C24.1279 25.3493 24.1649 25.3181 24.1864 25.2768C24.2078 25.2367 24.2124 25.1898 24.1992 25.1463C24.186 25.1028 24.1561 25.0663 24.116 25.0448C19.756 22.7096 16.6908 20.8604 12.5344 18.1988C12.1592 17.9588 11.9548 17.7968 12.0772 17.4388C12.2044 17.0092 12.3687 16.5914 12.568 16.19C12.608 16.1968 16.844 17.3824 17.3172 17.5204C20.8088 18.5132 22.9972 19.2436 25.1972 19.98C25.027 20.0778 24.882 20.214 24.7737 20.3777C24.6655 20.5415 24.5971 20.7283 24.574 20.9232C24.5524 21.406 25.0272 21.9588 24.694 22.3712C24.468 22.6576 23.974 22.6112 23.674 22.8512C23.5796 22.9515 23.51 23.0726 23.4709 23.2046C23.4318 23.3367 23.4242 23.4761 23.4488 23.6116C23.4734 23.7472 23.5294 23.875 23.6125 23.9849C23.6955 24.0948 23.8031 24.1837 23.9268 24.2444C23.9321 24.2487 23.9389 24.2507 23.9457 24.25C23.9525 24.2493 23.9587 24.2459 23.963 24.2406C23.9673 24.2353 23.9693 24.2285 23.9686 24.2217C23.9679 24.215 23.9645 24.2087 23.9592 24.2044C23.8124 24.0376 23.9592 23.7448 24.1696 23.6708C24.3995 23.6223 24.6389 23.6487 24.8528 23.746C25.6373 24.0477 26.4652 24.221 27.3048 24.2592C27.5702 24.2677 27.8352 24.2338 28.09 24.1588C28.0848 25.396 28.2424 26.5988 28.1084 28.4888C27.8756 28.9804 27.6312 29.4504 27.38 29.8792ZM26.6636 33.9544C27.1088 34.0246 27.5646 33.9434 27.9582 33.7237C28.3517 33.504 28.6601 33.1586 28.834 32.7428C28.8569 32.6963 28.897 32.6605 28.9458 32.643C28.9946 32.6255 29.0484 32.6276 29.0956 32.6489C29.1429 32.6703 29.1801 32.7091 29.1992 32.7573C29.2184 32.8055 29.2181 32.8593 29.1984 32.9072C28.9885 33.3974 28.6229 33.8047 28.1581 34.066C27.6934 34.3274 27.1554 34.4282 26.6276 34.3528C26.6013 34.3505 26.5758 34.343 26.5524 34.3307C26.5291 34.3185 26.5083 34.3018 26.4914 34.2815C26.4745 34.2613 26.4618 34.2379 26.4539 34.2127C26.4461 34.1876 26.4432 34.1611 26.4456 34.1348C26.448 34.1086 26.4555 34.083 26.4677 34.0597C26.4799 34.0363 26.4966 34.0156 26.5169 33.9987C26.5371 33.9818 26.5605 33.969 26.5857 33.9612C26.6108 33.9533 26.6373 33.9505 26.6636 33.9528V33.9544ZM15.3136 37.1244C15.0892 36.5156 15.0736 36.5492 15.0736 36.502C15.2792 36.4192 25.5956 34.0644 26.0412 33.9672C23.9176 37.6844 23.144 42.3872 22.6216 46.6424C22.4012 46.5516 19.2804 45.286 17.9196 44.7424C17.1636 42.23 16.3008 39.802 15.3136 37.1244ZM6.44599 40.7188C6.60599 40.7748 23.9704 47.5656 24.5452 47.8632C25.0748 48.3432 30.3544 60.7652 34.1692 67.5832C33.7184 67.3212 33.2507 67.0895 32.7692 66.8896C31.6568 66.352 19.0756 60.6704 18.6196 60.4324C18.3784 60.2848 10.6192 46.7156 6.44599 40.7188ZM55.1072 57.4424C55.8585 57.5777 56.5537 57.9299 57.1072 58.4556C57.3487 58.6965 57.5005 59.0128 57.5374 59.3519C57.5743 59.691 57.494 60.0325 57.31 60.3196C56.8969 60.8645 56.344 61.2873 55.71 61.5432C52.0892 63.0488 49.7052 63.2896 46.4008 65.3148C45.2891 66.0062 44.3314 66.9188 43.5872 67.9959C42.843 69.073 42.3282 70.2916 42.0748 71.576C42.0558 71.732 42.0219 71.8857 41.9736 72.0352C41.9265 72.1313 41.8556 72.2137 41.7675 72.2745C41.6795 72.3353 41.5773 72.3725 41.4708 72.3824C38.5091 73.0673 35.4778 73.405 32.438 73.3888C28.6457 73.3399 24.8929 72.611 21.358 71.2368V71.2316L21.3552 71.2208C20.4352 67.9692 17.2948 66.0936 15.0132 64.9656C13.1332 64.0372 12.1912 63.81 11.22 62.8612C10.9978 62.6421 10.8369 62.3684 10.7535 62.0677C10.6702 61.7669 10.6671 61.4495 10.7448 61.1472C10.9906 60.5151 11.4652 59.9986 12.0744 59.7004C13.4708 58.9004 15.4252 58.7028 17.3272 59.1404C17.5132 59.4532 17.7 59.7676 17.8872 60.0704C17.9986 60.2894 18.1357 60.4943 18.2956 60.6808C18.4148 60.7704 18.5461 60.8426 18.6856 60.8952C33.0024 67.4004 32.8948 67.3108 34.3428 68.132C34.644 68.3028 34.7364 68.4732 35.0944 68.248C35.708 67.8624 37.9992 66.294 48.7956 60.402C50.6732 59.3776 50.51 59.486 51.0116 59.188C50.9925 59.2216 50.971 59.2537 50.9472 59.284C50.8496 59.456 50.9944 59.6184 51.1648 59.444L51.1708 59.4472C51.4211 59.1445 51.6545 58.8281 51.87 58.4996C51.8857 58.4907 51.8993 58.4786 51.91 58.464C51.9268 58.4408 52.432 57.744 52.6452 57.446C53.4575 57.2821 54.2943 57.2809 55.1072 57.4424ZM63.3072 39.98C59.3516 45.938 56.476 51.28 52.7472 56.7C60.0416 39.3204 59.8536 39.7296 60.6984 38.17C63.8984 39.6396 63.5872 39.4788 63.6276 39.516C63.5384 39.6821 63.4313 39.8379 63.308 39.9804L63.3072 39.98Z" fill="black"/>
</g>
</g>
</svg>
