<svg xmlns="http://www.w3.org/2000/svg" viewBox="0 0 26.6667 26.6667" preserveAspectRatio="xMidYMid meet" fill="none" aria-hidden="true">
<path id="Vector" d="M12 16H9.33333C9.33333 9.37333 14.7067 4 21.3333 4V6.66667C16.1733 6.66667 12 10.84 12 16ZM21.3333 12V9.33333C17.6533 9.33333 14.6667 12.32 14.6667 16H17.3333C17.3333 13.7867 19.12 12 21.3333 12ZM6.66667 2.66667C6.66667 1.18667 5.48 0 4 0C2.52 0 1.33333 1.18667 1.33333 2.66667C1.33333 4.14667 2.52 5.33333 4 5.33333C5.48 5.33333 6.66667 4.14667 6.66667 2.66667ZM12.6 3.33333H9.93333C9.61333 5.22667 7.98667 6.66667 6 6.66667H2C0.893333 6.66667 0 7.56 0 8.66667V12H8V8.98667C10.48 8.2 12.3333 6.01333 12.6 3.33333ZM22.6667 20C24.1467 20 25.3333 18.8133 25.3333 17.3333C25.3333 15.8533 24.1467 14.6667 22.6667 14.6667C21.1867 14.6667 20 15.8533 20 17.3333C20 18.8133 21.1867 20 22.6667 20ZM24.6667 21.3333H20.6667C18.68 21.3333 17.0533 19.8933 16.7333 18H14.0667C14.3333 20.68 16.1867 22.8667 18.6667 23.6533V26.6667H26.6667V23.3333C26.6667 22.2267 25.7733 21.3333 24.6667 21.3333Z" fill="#151515"/>
</svg>
