<svg xmlns="http://www.w3.org/2000/svg" viewBox="0 0 26 26.6667" preserveAspectRatio="xMidYMid meet" fill="none" aria-hidden="true">
<g id="Vector">
<path d="M2.66667 5.33333H5.33333V9.33333H18.6667V5.33333H21.3333V12H24V5.33333C24 3.86667 22.8 2.66667 21.3333 2.66667H15.76C15.2 1.12 13.7333 0 12 0C10.2667 0 8.8 1.12 8.24 2.66667H2.66667C1.2 2.66667 0 3.86667 0 5.33333V24C0 25.4667 1.2 26.6667 2.66667 26.6667H10.6667V24H2.66667V5.33333ZM12 2.66667C12.7333 2.66667 13.3333 3.26667 13.3333 4C13.3333 4.73333 12.7333 5.33333 12 5.33333C11.2667 5.33333 10.6667 4.73333 10.6667 4C10.6667 3.26667 11.2667 2.66667 12 2.66667Z" fill="#151515"/>
<path d="M24 14L16.68 21.3333L12.6667 17.3333L10.6667 19.3333L16.68 25.3333L26 16L24 14Z" fill="#151515"/>
</g>
</svg>
