<svg xmlns="http://www.w3.org/2000/svg" viewBox="0 0 26.6667 26.5333" preserveAspectRatio="xMidYMid meet" fill="none" aria-hidden="true">
<path id="Vector" d="M22.1333 23.2667H25.3333V25.9333H17.3333V17.9333H20V21.5733C22.44 19.6133 24 16.6267 24 13.2667C24 7.84 19.92 3.34667 14.6667 2.69333V0C21.4 0.666667 26.6667 6.34667 26.6667 13.2667C26.6667 17.2533 24.9067 20.8267 22.1333 23.2667ZM2.66667 13.2667C2.66667 9.90667 4.22667 6.90667 6.66667 4.96V8.6H9.33333V0.6H1.33333V3.26667H4.53333C1.76 5.70667 0 9.28 0 13.2667C0 20.1867 5.26667 25.8667 12 26.5333V23.84C6.74667 23.1867 2.66667 18.6933 2.66667 13.2667ZM18.9867 8.08L11.44 15.6267L7.66667 11.8533L5.78667 13.7333L11.44 19.3867L20.8667 9.96L18.9867 8.08Z" fill="#151515"/>
</svg>
