<svg xmlns="http://www.w3.org/2000/svg" viewBox="0 0 48 48" preserveAspectRatio="xMidYMid meet" fill="none" aria-hidden="true">
  <path d="M44 18V14H40V18H36V22H40V26H44V22H48V18H44Z" fill="#2097F6"/>
  <path d="M16 24C20.42 24 24 20.42 24 16C24 11.58 20.42 8 16 8C11.58 8 8 11.58 8 16C8 20.42 11.58 24 16 24ZM16 12C18.2 12 20 13.8 20 16C20 18.2 18.2 20 16 20C13.8 20 12 18.2 12 16C12 13.8 13.8 12 16 12Z" fill="#2097F6"/>
  <path d="M16 26C10.66 26 0 28.68 0 34V40H32V34C32 28.68 21.34 26 16 26ZM28 36H4V34.02C4.4 32.58 10.6 30 16 30C21.4 30 27.6 32.58 28 34V36Z" fill="#2097F6"/>
  <path d="M25.02 8.1C26.86 10.22 28 12.98 28 16C28 19.02 26.86 21.78 25.02 23.9C28.94 23.4 32 20.08 32 16C32 11.92 28.94 8.6 25.02 8.1Z" fill="#2097F6"/>
  <path d="M33.06 27.66C34.84 29.32 36 31.4 36 34V40H40V34C40 31.1 36.82 28.98 33.06 27.66Z" fill="#2097F6"/>
</svg>
