<svg xmlns="http://www.w3.org/2000/svg" viewBox="0 0 48 48" preserveAspectRatio="xMidYMid meet" fill="none" aria-hidden="true">
  <path d="M13.64 26H22V22H13.64C12.8 19.68 10.6 18 8 18C4.68 18 2 20.68 2 24C2 27.32 4.68 30 8 30C10.6 30 12.8 28.32 13.64 26ZM8 26C6.9 26 6 25.1 6 24C6 22.9 6.9 22 8 22C9.1 22 10 22.9 10 24C10 25.1 9.1 26 8 26Z" fill="#2097F6"/>
  <path d="M46 24L38 18V22H29.9C28.9 11.9 20.38 4 10 4V8C18.84 8 26 15.16 26 24C26 32.84 18.84 40 10 40V44C20.38 44 28.9 36.1 29.9 26H38V30L46 24Z" fill="#2097F6"/>
</svg>
