<svg preserveAspectRatio="none" width="100%" height="100%" overflow="visible" style="display: block;" viewBox="0 0 49.9974 48.0005" fill="none" xmlns="http://www.w3.org/2000/svg">
<g id="Group">
<g id="Vector">
<mask id="path-1-inside-1_0_1042" fill="white">
<path d="M38.8455 18.8345C38.7351 18.8345 38.7351 19.0963 38.8455 19.0963C39.1081 19.0963 42.7671 19.0191 43.0745 18.9419C43.1025 18.9365 43.128 18.9185 43.1465 18.8911C43.1649 18.8636 43.1751 18.8287 43.1751 18.7925C43.1751 18.7563 43.1649 18.7214 43.1465 18.694C43.128 18.6666 43.1025 18.6485 43.0745 18.6431C42.1105 18.482 39.9067 18.8076 38.8455 18.8345ZM40.3112 25.6886C40.1903 25.6886 40.2114 25.9471 40.3269 25.9538C41.1832 25.9907 42.5176 25.9336 43.3923 25.8833C43.5525 25.8833 43.5709 25.5476 43.3923 25.5476C42.4125 25.5543 41.2936 25.5711 40.3112 25.6886ZM40.4241 14.1118C40.3987 14.1132 40.3745 14.1263 40.3561 14.1488C40.3376 14.1713 40.3262 14.2016 40.324 14.234C40.3217 14.2665 40.3288 14.2988 40.3438 14.3251C40.3589 14.3514 40.3809 14.3698 40.4057 14.3769C40.8759 14.4508 42.402 14.528 42.8617 14.2796C42.8852 14.2647 42.9043 14.2404 42.9161 14.2104C42.9278 14.1804 42.9316 14.1463 42.9269 14.1133C42.9221 14.0803 42.9091 14.0502 42.8898 14.0275C42.8704 14.0048 42.8458 13.9908 42.8197 13.9876C42.2103 13.9406 41.2331 14.189 40.4241 14.1118ZM37.4244 20.5967C39.6414 20.5564 42.1525 20.3584 44.3904 20.0965C44.5297 20.0965 44.5165 19.7609 44.3721 19.7609C42.1709 19.8314 39.5993 20.016 37.4113 20.3047C37.381 20.3069 37.3526 20.3244 37.3324 20.3534C37.3122 20.3823 37.3018 20.4203 37.3036 20.4591C37.3053 20.4978 37.319 20.534 37.3417 20.5598C37.3644 20.5857 37.3941 20.5989 37.4244 20.5967ZM40.6027 5.64645C41.22 5.58603 41.8373 5.53904 42.4414 5.44506C42.6148 5.42156 42.5701 5.1094 42.3994 5.1094C41.7848 5.16982 41.1701 5.27051 40.5607 5.36114C40.4189 5.38128 40.4583 5.65988 40.6027 5.64645ZM36.9989 12.6483C36.8676 12.6483 36.8623 12.9336 36.9989 12.947C38.4839 13.0354 39.9719 12.9025 41.4328 12.5509C41.5983 12.514 41.572 12.1784 41.4039 12.2153C39.9491 12.5323 38.4745 12.6773 36.9989 12.6483ZM41.8872 7.25425C42.1157 7.32474 42.1499 6.84811 41.9397 6.8951C40.9146 7.10749 39.8754 7.18957 38.8376 7.14013C38.6984 7.14013 38.6669 7.39859 38.8087 7.41873C39.8358 7.55048 40.8723 7.49511 41.8872 7.25425ZM36.1977 20.4389C35.9929 20.3382 35.0473 20.506 34.782 20.543C34.6532 20.543 34.648 20.8081 34.782 20.8048L35.8563 20.7611C36.3527 20.7377 36.3501 20.5161 36.1977 20.4389ZM37.2826 34.9629C37.0619 34.8957 35.4938 35.0468 35.2364 35.0669C35.0998 35.0669 35.126 35.3354 35.2626 35.3321C35.5411 35.3321 37.0672 35.3321 37.3088 35.2347C37.4165 35.1877 37.3798 34.9897 37.2826 34.9629ZM35.2337 33.543C35.9718 33.5867 37.8 33.6269 38.5381 33.402C38.5554 33.4019 38.5724 33.3971 38.5881 33.388C38.6038 33.3789 38.6179 33.3657 38.6294 33.3493C38.6408 33.3328 38.6495 33.3135 38.6547 33.2925C38.66 33.2715 38.6618 33.2493 38.6599 33.2274C38.6581 33.2055 38.6527 33.1843 38.644 33.1653C38.6354 33.1462 38.6237 33.1296 38.6098 33.1167C38.5958 33.1037 38.5799 33.0946 38.5631 33.09C38.5462 33.0854 38.5288 33.0854 38.5119 33.0899C37.4323 33.0899 36.4315 33.3215 35.2653 33.2611C35.1261 33.2544 35.0893 33.5329 35.2337 33.543ZM37.7817 27.575C37.9393 27.5381 37.9261 27.2394 37.7606 27.2394C36.5944 27.3904 36.3501 27.4273 35.1549 27.4877C35.0394 27.4877 35.0262 27.7428 35.1549 27.7529C36.0329 27.8274 36.9147 27.7677 37.7817 27.575ZM39.3997 25.4637C37.9708 25.5309 36.4867 25.8397 34.9947 25.9068C34.9681 25.912 34.9437 25.9293 34.9262 25.9555C34.9086 25.9816 34.8989 26.015 34.8989 26.0494C34.8989 26.0839 34.9086 26.1173 34.9262 26.1434C34.9437 26.1696 34.9681 26.1869 34.9947 26.1921C36.2319 26.1921 38.2229 26.1183 39.4286 25.7759C39.4538 25.7616 39.4747 25.7375 39.4883 25.7069C39.5019 25.6764 39.5075 25.6411 39.5043 25.6062C39.5011 25.5713 39.4892 25.5386 39.4703 25.513C39.4515 25.4873 39.4268 25.4701 39.3997 25.4637ZM44.267 34.1405C44.246 34.1405 42.8039 34.2915 42.557 34.2815C42.5336 34.2868 42.5122 34.3017 42.496 34.3239C42.4797 34.346 42.4695 34.3743 42.4669 34.4045C42.4642 34.4346 42.4692 34.4651 42.4812 34.4913C42.4932 34.5176 42.5115 34.5381 42.5334 34.55C42.8276 34.6205 44.0674 34.6473 44.3222 34.3721C44.335 34.354 44.3439 34.332 44.3481 34.3082C44.3523 34.2844 44.3516 34.2596 44.346 34.2363C44.3405 34.2129 44.3303 34.1918 44.3164 34.1751C44.3025 34.1583 44.2855 34.1464 44.267 34.1405ZM44.7319 26.8198C42.9116 26.9708 40.8785 27.0581 39.0661 27.2561C38.9243 27.2561 38.9505 27.528 39.0871 27.5381C40.0669 27.575 43.5525 27.3468 44.7556 27.1521C44.7727 27.1504 44.7895 27.1444 44.8048 27.1343C44.8201 27.1242 44.8336 27.1103 44.8446 27.0934C44.8557 27.0765 44.8639 27.0569 44.8689 27.0359C44.8739 27.0148 44.8756 26.9927 44.8738 26.9708C44.8704 26.9269 44.8537 26.8864 44.8271 26.8581C44.8006 26.8298 44.7664 26.816 44.7319 26.8198ZM37.8946 19.1869C37.9294 19.1869 37.9628 19.1692 37.9875 19.1378C38.0121 19.1063 38.0259 19.0636 38.0259 19.0191C38.0259 18.9746 38.0121 18.9319 37.9875 18.9004C37.9628 18.8689 37.9294 18.8513 37.8946 18.8513C36.7625 18.8882 35.6199 18.8982 34.4799 19.009C34.4554 19.016 34.4335 19.0334 34.4178 19.0584C34.402 19.0834 34.3935 19.1146 34.3935 19.1466C34.3935 19.1787 34.402 19.2098 34.4178 19.2348C34.4335 19.2599 34.4554 19.2773 34.4799 19.2842C35.6251 19.3111 36.7625 19.2339 37.8946 19.1869ZM42.3731 32.7374C41.9739 32.7374 40.5344 32.8683 40.193 32.9455C40.0826 32.969 40.0669 33.2006 40.193 33.2074C40.5633 33.2309 41.9949 33.1134 42.4099 33.0664C42.5701 33.0731 42.536 32.7374 42.3731 32.7374ZM41.6061 34.6205L38.3044 34.889C38.1546 34.889 38.1914 35.181 38.3385 35.171C38.9794 35.134 41.0414 35.03 41.6193 34.9293C41.748 34.9091 41.7506 34.6205 41.6061 34.6205ZM39.2421 5.44506C38.2728 5.30408 35.2311 5.53904 34.1988 5.6733C34.057 5.69009 34.0465 5.97204 34.1988 5.95526C35.8957 5.81428 37.5479 5.76729 39.2447 5.774C39.2744 5.76592 39.3009 5.74499 39.3198 5.71476C39.3388 5.68454 39.349 5.64687 39.3486 5.60816C39.3483 5.56944 39.3376 5.53205 39.3181 5.50232C39.2987 5.47259 39.2719 5.45236 39.2421 5.44506ZM39.5232 14.5045C39.6886 14.4743 39.6282 14.1688 39.4627 14.1688C37.7721 14.415 36.0711 14.5271 34.3696 14.5045C34.3449 14.5095 34.3224 14.5256 34.3062 14.5499C34.29 14.5742 34.2811 14.6051 34.2811 14.6371C34.2811 14.669 34.29 14.6999 34.3062 14.7242C34.3224 14.7485 34.3449 14.7646 34.3696 14.7696C36.0902 14.8755 37.8148 14.7868 39.5232 14.5045ZM37.7396 7.47579C37.7569 7.47369 37.7737 7.46724 37.789 7.4568C37.8043 7.44637 37.8179 7.43215 37.8289 7.41499C37.8398 7.39782 37.8481 7.37804 37.853 7.35679C37.858 7.33554 37.8596 7.31324 37.8578 7.29118C37.8562 7.26909 37.8511 7.24765 37.843 7.22808C37.8348 7.2085 37.8237 7.19119 37.8102 7.17715C37.7968 7.1631 37.7813 7.1526 37.7647 7.14625C37.7481 7.13989 37.7306 7.13781 37.7134 7.14013C36.555 7.32474 35.457 7.33146 34.3144 7.45901C34.1936 7.47579 34.1804 7.72753 34.3144 7.73425C35.4596 7.7579 36.6046 7.67151 37.7396 7.47579ZM34.4851 12.7893C34.3538 12.7893 34.3512 13.0544 34.5009 13.0611C34.9723 13.1179 35.4462 13.1336 35.9193 13.1081C35.9406 13.096 35.9587 13.0762 35.9714 13.0512C35.9841 13.0262 35.9909 12.997 35.9909 12.9672C35.9909 12.9373 35.9841 12.9082 35.9714 12.8831C35.9587 12.8581 35.9406 12.8383 35.9193 12.8262C35.872 12.7926 34.7268 12.7893 34.4851 12.7893ZM31.207 14.7227C31.3594 14.7227 31.9241 13.5277 32.2419 13.1182C32.3575 12.9705 32.1684 12.7221 32.0502 12.8631C31.7151 13.2492 31.425 13.6945 31.1886 14.1856L30.5241 13.4035C30.3875 13.2424 30.2115 13.5176 30.3376 13.6821C30.4636 13.8466 31.0126 14.7227 31.207 14.7227ZM29.4103 9.24135C30.4873 9.32191 31.6063 9.29506 32.7883 9.30513C32.8723 9.30513 32.9222 9.00639 32.7883 5.4417C32.7883 5.18324 32.7699 4.99192 32.7673 4.92143C32.7679 4.91103 32.7669 4.90057 32.7642 4.89074C32.7615 4.8809 32.7571 4.87192 32.7515 4.86437C32.6753 4.76031 32.1789 4.76703 31.0625 4.80395C29.1844 4.86101 28.9769 4.84423 28.9769 4.98185C28.969 5.0087 29.0873 9.20107 29.4103 9.24135ZM29.4839 8.99296C29.3525 8.09676 29.258 6.20364 29.1766 5.14296C29.9409 5.20003 31.6824 5.08926 32.5598 5.0624C32.5598 5.0624 32.607 8.04641 32.6281 9.00975C31.5984 8.97954 30.5241 8.92919 29.4734 8.97618L29.4839 8.99296Z"/>
</mask>
<path d="M38.8455 18.8345C38.7351 18.8345 38.7351 19.0963 38.8455 19.0963C39.1081 19.0963 42.7671 19.0191 43.0745 18.9419C43.1025 18.9365 43.128 18.9185 43.1465 18.8911C43.1649 18.8636 43.1751 18.8287 43.1751 18.7925C43.1751 18.7563 43.1649 18.7214 43.1465 18.694C43.128 18.6666 43.1025 18.6485 43.0745 18.6431C42.1105 18.482 39.9067 18.8076 38.8455 18.8345ZM40.3112 25.6886C40.1903 25.6886 40.2114 25.9471 40.3269 25.9538C41.1832 25.9907 42.5176 25.9336 43.3923 25.8833C43.5525 25.8833 43.5709 25.5476 43.3923 25.5476C42.4125 25.5543 41.2936 25.5711 40.3112 25.6886ZM40.4241 14.1118C40.3987 14.1132 40.3745 14.1263 40.3561 14.1488C40.3376 14.1713 40.3262 14.2016 40.324 14.234C40.3217 14.2665 40.3288 14.2988 40.3438 14.3251C40.3589 14.3514 40.3809 14.3698 40.4057 14.3769C40.8759 14.4508 42.402 14.528 42.8617 14.2796C42.8852 14.2647 42.9043 14.2404 42.9161 14.2104C42.9278 14.1804 42.9316 14.1463 42.9269 14.1133C42.9221 14.0803 42.9091 14.0502 42.8898 14.0275C42.8704 14.0048 42.8458 13.9908 42.8197 13.9876C42.2103 13.9406 41.2331 14.189 40.4241 14.1118ZM37.4244 20.5967C39.6414 20.5564 42.1525 20.3584 44.3904 20.0965C44.5297 20.0965 44.5165 19.7609 44.3721 19.7609C42.1709 19.8314 39.5993 20.016 37.4113 20.3047C37.381 20.3069 37.3526 20.3244 37.3324 20.3534C37.3122 20.3823 37.3018 20.4203 37.3036 20.4591C37.3053 20.4978 37.319 20.534 37.3417 20.5598C37.3644 20.5857 37.3941 20.5989 37.4244 20.5967ZM40.6027 5.64645C41.22 5.58603 41.8373 5.53904 42.4414 5.44506C42.6148 5.42156 42.5701 5.1094 42.3994 5.1094C41.7848 5.16982 41.1701 5.27051 40.5607 5.36114C40.4189 5.38128 40.4583 5.65988 40.6027 5.64645ZM36.9989 12.6483C36.8676 12.6483 36.8623 12.9336 36.9989 12.947C38.4839 13.0354 39.9719 12.9025 41.4328 12.5509C41.5983 12.514 41.572 12.1784 41.4039 12.2153C39.9491 12.5323 38.4745 12.6773 36.9989 12.6483ZM41.8872 7.25425C42.1157 7.32474 42.1499 6.84811 41.9397 6.8951C40.9146 7.10749 39.8754 7.18957 38.8376 7.14013C38.6984 7.14013 38.6669 7.39859 38.8087 7.41873C39.8358 7.55048 40.8723 7.49511 41.8872 7.25425ZM36.1977 20.4389C35.9929 20.3382 35.0473 20.506 34.782 20.543C34.6532 20.543 34.648 20.8081 34.782 20.8048L35.8563 20.7611C36.3527 20.7377 36.3501 20.5161 36.1977 20.4389ZM37.2826 34.9629C37.0619 34.8957 35.4938 35.0468 35.2364 35.0669C35.0998 35.0669 35.126 35.3354 35.2626 35.3321C35.5411 35.3321 37.0672 35.3321 37.3088 35.2347C37.4165 35.1877 37.3798 34.9897 37.2826 34.9629ZM35.2337 33.543C35.9718 33.5867 37.8 33.6269 38.5381 33.402C38.5554 33.4019 38.5724 33.3971 38.5881 33.388C38.6038 33.3789 38.6179 33.3657 38.6294 33.3493C38.6408 33.3328 38.6495 33.3135 38.6547 33.2925C38.66 33.2715 38.6618 33.2493 38.6599 33.2274C38.6581 33.2055 38.6527 33.1843 38.644 33.1653C38.6354 33.1462 38.6237 33.1296 38.6098 33.1167C38.5958 33.1037 38.5799 33.0946 38.5631 33.09C38.5462 33.0854 38.5288 33.0854 38.5119 33.0899C37.4323 33.0899 36.4315 33.3215 35.2653 33.2611C35.1261 33.2544 35.0893 33.5329 35.2337 33.543ZM37.7817 27.575C37.9393 27.5381 37.9261 27.2394 37.7606 27.2394C36.5944 27.3904 36.3501 27.4273 35.1549 27.4877C35.0394 27.4877 35.0262 27.7428 35.1549 27.7529C36.0329 27.8274 36.9147 27.7677 37.7817 27.575ZM39.3997 25.4637C37.9708 25.5309 36.4867 25.8397 34.9947 25.9068C34.9681 25.912 34.9437 25.9293 34.9262 25.9555C34.9086 25.9816 34.8989 26.015 34.8989 26.0494C34.8989 26.0839 34.9086 26.1173 34.9262 26.1434C34.9437 26.1696 34.9681 26.1869 34.9947 26.1921C36.2319 26.1921 38.2229 26.1183 39.4286 25.7759C39.4538 25.7616 39.4747 25.7375 39.4883 25.7069C39.5019 25.6764 39.5075 25.6411 39.5043 25.6062C39.5011 25.5713 39.4892 25.5386 39.4703 25.513C39.4515 25.4873 39.4268 25.4701 39.3997 25.4637ZM44.267 34.1405C44.246 34.1405 42.8039 34.2915 42.557 34.2815C42.5336 34.2868 42.5122 34.3017 42.496 34.3239C42.4797 34.346 42.4695 34.3743 42.4669 34.4045C42.4642 34.4346 42.4692 34.4651 42.4812 34.4913C42.4932 34.5176 42.5115 34.5381 42.5334 34.55C42.8276 34.6205 44.0674 34.6473 44.3222 34.3721C44.335 34.354 44.3439 34.332 44.3481 34.3082C44.3523 34.2844 44.3516 34.2596 44.346 34.2363C44.3405 34.2129 44.3303 34.1918 44.3164 34.1751C44.3025 34.1583 44.2855 34.1464 44.267 34.1405ZM44.7319 26.8198C42.9116 26.9708 40.8785 27.0581 39.0661 27.2561C38.9243 27.2561 38.9505 27.528 39.0871 27.5381C40.0669 27.575 43.5525 27.3468 44.7556 27.1521C44.7727 27.1504 44.7895 27.1444 44.8048 27.1343C44.8201 27.1242 44.8336 27.1103 44.8446 27.0934C44.8557 27.0765 44.8639 27.0569 44.8689 27.0359C44.8739 27.0148 44.8756 26.9927 44.8738 26.9708C44.8704 26.9269 44.8537 26.8864 44.8271 26.8581C44.8006 26.8298 44.7664 26.816 44.7319 26.8198ZM37.8946 19.1869C37.9294 19.1869 37.9628 19.1692 37.9875 19.1378C38.0121 19.1063 38.0259 19.0636 38.0259 19.0191C38.0259 18.9746 38.0121 18.9319 37.9875 18.9004C37.9628 18.8689 37.9294 18.8513 37.8946 18.8513C36.7625 18.8882 35.6199 18.8982 34.4799 19.009C34.4554 19.016 34.4335 19.0334 34.4178 19.0584C34.402 19.0834 34.3935 19.1146 34.3935 19.1466C34.3935 19.1787 34.402 19.2098 34.4178 19.2348C34.4335 19.2599 34.4554 19.2773 34.4799 19.2842C35.6251 19.3111 36.7625 19.2339 37.8946 19.1869ZM42.3731 32.7374C41.9739 32.7374 40.5344 32.8683 40.193 32.9455C40.0826 32.969 40.0669 33.2006 40.193 33.2074C40.5633 33.2309 41.9949 33.1134 42.4099 33.0664C42.5701 33.0731 42.536 32.7374 42.3731 32.7374ZM41.6061 34.6205L38.3044 34.889C38.1546 34.889 38.1914 35.181 38.3385 35.171C38.9794 35.134 41.0414 35.03 41.6193 34.9293C41.748 34.9091 41.7506 34.6205 41.6061 34.6205ZM39.2421 5.44506C38.2728 5.30408 35.2311 5.53904 34.1988 5.6733C34.057 5.69009 34.0465 5.97204 34.1988 5.95526C35.8957 5.81428 37.5479 5.76729 39.2447 5.774C39.2744 5.76592 39.3009 5.74499 39.3198 5.71476C39.3388 5.68454 39.349 5.64687 39.3486 5.60816C39.3483 5.56944 39.3376 5.53205 39.3181 5.50232C39.2987 5.47259 39.2719 5.45236 39.2421 5.44506ZM39.5232 14.5045C39.6886 14.4743 39.6282 14.1688 39.4627 14.1688C37.7721 14.415 36.0711 14.5271 34.3696 14.5045C34.3449 14.5095 34.3224 14.5256 34.3062 14.5499C34.29 14.5742 34.2811 14.6051 34.2811 14.6371C34.2811 14.669 34.29 14.6999 34.3062 14.7242C34.3224 14.7485 34.3449 14.7646 34.3696 14.7696C36.0902 14.8755 37.8148 14.7868 39.5232 14.5045ZM37.7396 7.47579C37.7569 7.47369 37.7737 7.46724 37.789 7.4568C37.8043 7.44637 37.8179 7.43215 37.8289 7.41499C37.8398 7.39782 37.8481 7.37804 37.853 7.35679C37.858 7.33554 37.8596 7.31324 37.8578 7.29118C37.8562 7.26909 37.8511 7.24765 37.843 7.22808C37.8348 7.2085 37.8237 7.19119 37.8102 7.17715C37.7968 7.1631 37.7813 7.1526 37.7647 7.14625C37.7481 7.13989 37.7306 7.13781 37.7134 7.14013C36.555 7.32474 35.457 7.33146 34.3144 7.45901C34.1936 7.47579 34.1804 7.72753 34.3144 7.73425C35.4596 7.7579 36.6046 7.67151 37.7396 7.47579ZM34.4851 12.7893C34.3538 12.7893 34.3512 13.0544 34.5009 13.0611C34.9723 13.1179 35.4462 13.1336 35.9193 13.1081C35.9406 13.096 35.9587 13.0762 35.9714 13.0512C35.9841 13.0262 35.9909 12.997 35.9909 12.9672C35.9909 12.9373 35.9841 12.9082 35.9714 12.8831C35.9587 12.8581 35.9406 12.8383 35.9193 12.8262C35.872 12.7926 34.7268 12.7893 34.4851 12.7893ZM31.207 14.7227C31.3594 14.7227 31.9241 13.5277 32.2419 13.1182C32.3575 12.9705 32.1684 12.7221 32.0502 12.8631C31.7151 13.2492 31.425 13.6945 31.1886 14.1856L30.5241 13.4035C30.3875 13.2424 30.2115 13.5176 30.3376 13.6821C30.4636 13.8466 31.0126 14.7227 31.207 14.7227ZM29.4103 9.24135C30.4873 9.32191 31.6063 9.29506 32.7883 9.30513C32.8723 9.30513 32.9222 9.00639 32.7883 5.4417C32.7883 5.18324 32.7699 4.99192 32.7673 4.92143C32.7679 4.91103 32.7669 4.90057 32.7642 4.89074C32.7615 4.8809 32.7571 4.87192 32.7515 4.86437C32.6753 4.76031 32.1789 4.76703 31.0625 4.80395C29.1844 4.86101 28.9769 4.84423 28.9769 4.98185C28.969 5.0087 29.0873 9.20107 29.4103 9.24135ZM29.4839 8.99296C29.3525 8.09676 29.258 6.20364 29.1766 5.14296C29.9409 5.20003 31.6824 5.08926 32.5598 5.0624C32.5598 5.0624 32.607 8.04641 32.6281 9.00975C31.5984 8.97954 30.5241 8.92919 29.4734 8.97618L29.4839 8.99296Z" fill="var(--fill-0, #155DFF)" stroke="var(--stroke-0, #2097F7)" stroke-width="2" mask="url(#path-1-inside-1_0_1042)"/>
</g>
<g id="Vector_2">
<mask id="path-2-inside-2_0_1042" fill="white">
<path d="M33.1488 15.599C33.3695 15.4882 33.1121 12.3599 33.0753 11.5375C33.0735 11.5206 33.067 11.5051 33.0569 11.4939C32.8993 11.3194 29.566 11.551 29.3979 11.5678C29.2298 11.5845 29.3979 12.7526 29.4268 13.5481C29.4872 15.5285 29.5581 15.6997 29.6369 15.7131C30.2096 15.8172 32.6235 15.8608 33.1488 15.599ZM29.5581 11.843C30.6955 11.749 31.8486 11.7423 32.873 11.7356C32.8993 12.521 32.9413 14.733 32.9939 15.3305C31.9233 15.472 30.846 15.5112 29.7709 15.448C29.8156 14.9478 29.5975 12.4103 29.5581 11.843ZM31.6963 20.3184L32.3057 19.6135C32.3234 19.5751 32.3313 19.5305 32.328 19.4862C32.3248 19.4418 32.3106 19.3998 32.2876 19.3663C32.2646 19.3328 32.2339 19.3095 32.1999 19.2996C32.1658 19.2897 32.1302 19.2939 32.0982 19.3114C31.8486 19.5078 31.6222 19.7485 31.4257 20.0263L30.8794 19.3819C30.8498 19.3467 30.8104 19.328 30.77 19.3299C30.7296 19.3318 30.6915 19.3541 30.664 19.392C30.6365 19.4298 30.6218 19.48 30.6233 19.5317C30.6248 19.5833 30.6423 19.632 30.6719 19.6672L31.1972 20.3385C30.7244 20.9763 30.5169 21.3757 30.5642 21.5569C30.6114 21.7382 30.7822 21.6576 30.8268 21.5771C31.0107 21.2884 31.2182 20.9595 31.4415 20.654C31.6628 20.9628 31.9084 21.2418 32.1743 21.4865C32.2018 21.4956 32.2306 21.495 32.2578 21.4849C32.2851 21.4748 32.3097 21.4555 32.329 21.4291C32.3484 21.4026 32.3618 21.37 32.3679 21.3346C32.3739 21.2992 32.3724 21.2624 32.3635 21.228C32.1657 20.8967 31.9422 20.5919 31.6963 20.3184ZM31.8355 5.92869C31.4159 6.3976 31.0731 6.96799 30.8268 7.60699C30.629 7.3043 30.4012 7.03576 30.1491 6.80812C29.9942 6.6705 29.7945 6.93231 29.9469 7.08C30.2465 7.41841 30.5266 7.78411 30.7848 8.17425C30.8531 8.26488 30.9188 8.21788 30.9766 8.12054C31.2626 7.40839 31.6154 6.74337 32.0272 6.14016C32.1533 5.96226 31.9721 5.76422 31.8355 5.92869ZM31.7514 27.8438C31.888 27.723 32.4081 26.4408 32.7102 26.0044C32.8284 25.8366 32.6235 25.605 32.4895 25.7829C32.13 26.2563 31.8216 26.7891 31.5728 27.3672L30.9608 26.6959C30.8268 26.5515 30.6482 26.81 30.7874 26.9812C30.9267 27.1524 31.5255 28.0922 31.7514 27.8438ZM33.7556 32.147C33.6558 31.8952 30.0625 32.147 30.0283 32.147C30.0205 32.1482 30.013 32.1519 30.0066 32.1578C30.0002 32.1636 29.995 32.1715 29.9915 32.1805C29.8707 32.4289 29.9915 36.4669 30.0782 36.8428C30.1807 37.2993 33.6637 36.92 33.837 36.9402C33.8423 36.9416 33.8477 36.9416 33.8529 36.9402C33.8581 36.9387 33.863 36.9358 33.8673 36.9316C33.8716 36.9275 33.875 36.9222 33.8775 36.9161C33.88 36.91 33.8814 36.9034 33.8817 36.8965C33.9369 36.383 33.7687 32.1805 33.7556 32.147ZM30.1964 32.392C31.2471 32.4491 32.4895 32.3651 33.556 32.3618C33.5717 32.9223 33.6663 36.2118 33.6794 36.6549C32.5132 36.722 31.5334 36.6985 30.291 36.6549C30.3041 36.0943 30.2122 32.9022 30.1964 32.4021V32.392Z"/>
</mask>
<path d="M33.1488 15.599C33.3695 15.4882 33.1121 12.3599 33.0753 11.5375C33.0735 11.5206 33.067 11.5051 33.0569 11.4939C32.8993 11.3194 29.566 11.551 29.3979 11.5678C29.2298 11.5845 29.3979 12.7526 29.4268 13.5481C29.4872 15.5285 29.5581 15.6997 29.6369 15.7131C30.2096 15.8172 32.6235 15.8608 33.1488 15.599ZM29.5581 11.843C30.6955 11.749 31.8486 11.7423 32.873 11.7356C32.8993 12.521 32.9413 14.733 32.9939 15.3305C31.9233 15.472 30.846 15.5112 29.7709 15.448C29.8156 14.9478 29.5975 12.4103 29.5581 11.843ZM31.6963 20.3184L32.3057 19.6135C32.3234 19.5751 32.3313 19.5305 32.328 19.4862C32.3248 19.4418 32.3106 19.3998 32.2876 19.3663C32.2646 19.3328 32.2339 19.3095 32.1999 19.2996C32.1658 19.2897 32.1302 19.2939 32.0982 19.3114C31.8486 19.5078 31.6222 19.7485 31.4257 20.0263L30.8794 19.3819C30.8498 19.3467 30.8104 19.328 30.77 19.3299C30.7296 19.3318 30.6915 19.3541 30.664 19.392C30.6365 19.4298 30.6218 19.48 30.6233 19.5317C30.6248 19.5833 30.6423 19.632 30.6719 19.6672L31.1972 20.3385C30.7244 20.9763 30.5169 21.3757 30.5642 21.5569C30.6114 21.7382 30.7822 21.6576 30.8268 21.5771C31.0107 21.2884 31.2182 20.9595 31.4415 20.654C31.6628 20.9628 31.9084 21.2418 32.1743 21.4865C32.2018 21.4956 32.2306 21.495 32.2578 21.4849C32.2851 21.4748 32.3097 21.4555 32.329 21.4291C32.3484 21.4026 32.3618 21.37 32.3679 21.3346C32.3739 21.2992 32.3724 21.2624 32.3635 21.228C32.1657 20.8967 31.9422 20.5919 31.6963 20.3184ZM31.8355 5.92869C31.4159 6.3976 31.0731 6.96799 30.8268 7.60699C30.629 7.3043 30.4012 7.03576 30.1491 6.80812C29.9942 6.6705 29.7945 6.93231 29.9469 7.08C30.2465 7.41841 30.5266 7.78411 30.7848 8.17425C30.8531 8.26488 30.9188 8.21788 30.9766 8.12054C31.2626 7.40839 31.6154 6.74337 32.0272 6.14016C32.1533 5.96226 31.9721 5.76422 31.8355 5.92869ZM31.7514 27.8438C31.888 27.723 32.4081 26.4408 32.7102 26.0044C32.8284 25.8366 32.6235 25.605 32.4895 25.7829C32.13 26.2563 31.8216 26.7891 31.5728 27.3672L30.9608 26.6959C30.8268 26.5515 30.6482 26.81 30.7874 26.9812C30.9267 27.1524 31.5255 28.0922 31.7514 27.8438ZM33.7556 32.147C33.6558 31.8952 30.0625 32.147 30.0283 32.147C30.0205 32.1482 30.013 32.1519 30.0066 32.1578C30.0002 32.1636 29.995 32.1715 29.9915 32.1805C29.8707 32.4289 29.9915 36.4669 30.0782 36.8428C30.1807 37.2993 33.6637 36.92 33.837 36.9402C33.8423 36.9416 33.8477 36.9416 33.8529 36.9402C33.8581 36.9387 33.863 36.9358 33.8673 36.9316C33.8716 36.9275 33.875 36.9222 33.8775 36.9161C33.88 36.91 33.8814 36.9034 33.8817 36.8965C33.9369 36.383 33.7687 32.1805 33.7556 32.147ZM30.1964 32.392C31.2471 32.4491 32.4895 32.3651 33.556 32.3618C33.5717 32.9223 33.6663 36.2118 33.6794 36.6549C32.5132 36.722 31.5334 36.6985 30.291 36.6549C30.3041 36.0943 30.2122 32.9022 30.1964 32.4021V32.392Z" fill="var(--fill-0, #155DFF)"/>
<path d="M33.1488 15.599L33.5949 16.494L33.5975 16.4927L33.1488 15.599ZM33.0753 11.5375L34.0743 11.4929L34.0729 11.4624L34.0697 11.4321L33.0753 11.5375ZM33.0569 11.4939L33.8015 10.8264L33.7991 10.8237L33.0569 11.4939ZM29.4268 13.5481L30.4264 13.5176L30.4261 13.5118L29.4268 13.5481ZM29.6369 15.7131L29.8157 14.7292L29.8049 14.7273L29.6369 15.7131ZM29.5581 11.843L29.4758 10.8464L28.4922 10.9277L28.5605 11.9123L29.5581 11.843ZM32.873 11.7356L33.8725 11.7022L33.8399 10.7292L32.8665 10.7356L32.873 11.7356ZM32.9939 15.3305L33.1249 16.3219L34.0739 16.1964L33.99 15.2429L32.9939 15.3305ZM29.7709 15.448L28.7749 15.359L28.6832 16.3857L29.7121 16.4462L29.7709 15.448ZM31.6963 20.3184L30.9398 19.6644L30.3632 20.3312L30.9526 20.9869L31.6963 20.3184ZM32.3057 19.6135L33.0622 20.2675L33.1541 20.1612L33.2131 20.0336L32.3057 19.6135ZM32.0982 19.3114L31.6185 18.4339L31.5453 18.474L31.4797 18.5256L32.0982 19.3114ZM31.4257 20.0263L30.6629 20.673L31.4972 21.6571L32.2422 20.6038L31.4257 20.0263ZM30.8794 19.3819L30.1144 20.026L30.1166 20.0285L30.8794 19.3819ZM30.6719 19.6672L31.4594 19.0509L31.4483 19.0368L31.4368 19.0231L30.6719 19.6672ZM31.1972 20.3385L32.0005 20.9341L32.4542 20.3221L31.9847 19.7222L31.1972 20.3385ZM30.8268 21.5771L29.9834 21.0399L29.967 21.0656L29.9522 21.0923L30.8268 21.5771ZM31.4415 20.654L32.2543 20.0715L31.4494 18.9486L30.6342 20.0639L31.4415 20.654ZM32.1743 21.4865L31.4973 22.2224L31.6556 22.368L31.8598 22.4357L32.1743 21.4865ZM32.3635 21.228L33.3313 20.9763L33.2953 20.8381L33.2221 20.7155L32.3635 21.228ZM31.8355 5.92869L32.5807 6.59553L32.593 6.58177L32.6048 6.56758L31.8355 5.92869ZM30.8268 7.60699L29.9898 8.15414L31.0579 9.78816L31.7599 7.96659L30.8268 7.60699ZM30.1491 6.80812L30.8195 6.066L30.8131 6.06038L30.1491 6.80812ZM29.9469 7.08L30.6956 6.4171L30.6703 6.38854L30.6429 6.362L29.9469 7.08ZM30.7848 8.17425L29.951 8.72623L29.9678 8.75169L29.9862 8.77607L30.7848 8.17425ZM30.9766 8.12054L31.8364 8.63103L31.8758 8.56477L31.9045 8.49327L30.9766 8.12054ZM32.0272 6.14016L31.2114 5.56193L31.2063 5.56908L31.2014 5.57633L32.0272 6.14016ZM31.7514 27.8438L31.0888 27.0949L31.0482 27.1308L31.0116 27.171L31.7514 27.8438ZM32.7102 26.0044L31.8926 25.4286L31.888 25.4352L32.7102 26.0044ZM32.4895 25.7829L33.2859 26.3878L33.2884 26.3844L32.4895 25.7829ZM31.5728 27.3672L30.8338 28.0409L31.8784 29.1866L32.4913 27.7626L31.5728 27.3672ZM30.9608 26.6959L31.6998 26.0221L31.6937 26.0156L30.9608 26.6959ZM33.7556 32.147L34.6869 31.7826L34.6852 31.7784L33.7556 32.147ZM30.0283 32.147V31.147H29.9505L29.8736 31.159L30.0283 32.147ZM29.9915 32.1805L30.8908 32.618L30.9104 32.5777L30.9263 32.5359L29.9915 32.1805ZM30.0782 36.8428L31.054 36.6239L31.0527 36.6181L30.0782 36.8428ZM33.837 36.9402L34.1084 35.9777L34.0316 35.9561L33.9524 35.9469L33.837 36.9402ZM33.8817 36.8965L32.8874 36.7897L32.8837 36.8243L32.8824 36.859L33.8817 36.8965ZM30.1964 32.392L30.2507 31.3935L29.1964 31.3362V32.392H30.1964ZM33.556 32.3618L34.5556 32.3337L34.5282 31.3587L33.5528 31.3618L33.556 32.3618ZM33.6794 36.6549L33.7369 37.6532L34.7078 37.5973L34.679 36.6252L33.6794 36.6549ZM30.291 36.6549L29.2913 36.6314L29.2681 37.6196L30.2559 37.6542L30.291 36.6549ZM30.1964 32.4021H29.1964V32.4178L29.1969 32.4336L30.1964 32.4021ZM33.1488 15.599L33.5975 16.4927C33.8195 16.3813 33.9454 16.219 34.0063 16.1254C34.0707 16.0264 34.1077 15.9342 34.1286 15.8747C34.17 15.7565 34.1896 15.6437 34.2004 15.5683C34.2232 15.4092 34.232 15.2262 34.2354 15.053C34.2424 14.697 34.2284 14.2429 34.2075 13.7891C34.1864 13.3307 34.1572 12.8519 34.1314 12.4407C34.105 12.0214 34.083 11.6865 34.0743 11.4929L33.0753 11.5375L32.0763 11.5822C32.086 11.7998 32.11 12.1643 32.1353 12.5663C32.1611 12.9764 32.1894 13.4408 32.2097 13.8811C32.2301 14.3261 32.2414 14.7263 32.2358 15.0137C32.2329 15.1622 32.2259 15.2482 32.2207 15.2846C32.2175 15.3069 32.2201 15.2734 32.241 15.2136C32.2516 15.1834 32.2775 15.1151 32.33 15.0345C32.379 14.9593 32.492 14.8098 32.7002 14.7053L33.1488 15.599ZM33.0753 11.5375L34.0697 11.4321C34.0487 11.2341 33.9694 11.0137 33.8015 10.8264L33.0569 11.4939L32.3123 12.1614C32.1645 11.9965 32.0983 11.8072 32.0809 11.643L33.0753 11.5375ZM33.0569 11.4939L33.7991 10.8237C33.6534 10.6623 33.4928 10.5878 33.4265 10.5594C33.345 10.5245 33.2718 10.5045 33.2234 10.493C33.126 10.4698 33.0305 10.458 32.9579 10.451C32.807 10.4363 32.6284 10.4308 32.45 10.4295C32.0867 10.4267 31.6296 10.4407 31.1877 10.46C30.3083 10.4985 29.4108 10.5615 29.2986 10.5727L29.3979 11.5678L29.4972 12.5628C29.4943 12.5631 29.5056 12.5621 29.5412 12.5593C29.5724 12.5569 29.6149 12.5538 29.6674 12.5501C29.7722 12.5427 29.9143 12.5331 30.0813 12.5226C30.4157 12.5015 30.8463 12.4769 31.275 12.4581C31.7071 12.4393 32.1235 12.4271 32.4347 12.4294C32.5936 12.4306 32.7026 12.4356 32.7648 12.4416C32.7987 12.4449 32.7911 12.446 32.76 12.4386C32.7447 12.4349 32.6992 12.4236 32.6395 12.398C32.5951 12.379 32.4506 12.3146 32.3147 12.1641L33.0569 11.4939ZM29.3979 11.5678L29.2986 10.5727C28.6142 10.641 28.4187 11.2545 28.3989 11.3153C28.3471 11.4742 28.3343 11.627 28.3292 11.7127C28.3178 11.9038 28.328 12.13 28.3404 12.3284C28.3693 12.7905 28.4132 13.1928 28.4275 13.5844L29.4268 13.5481L30.4261 13.5118C30.4115 13.108 30.3569 12.5285 30.3365 12.2035C30.3243 12.0083 30.3222 11.8896 30.3257 11.8321C30.328 11.7935 30.3294 11.846 30.3005 11.9348C30.2862 11.9787 30.2444 12.0961 30.1409 12.2212C30.0239 12.3628 29.809 12.5317 29.4972 12.5628L29.3979 11.5678ZM29.4268 13.5481L28.4273 13.5786C28.4574 14.5667 28.491 15.1459 28.5321 15.4877C28.5508 15.6428 28.5795 15.8326 28.6452 16.0046C28.6799 16.0953 28.75 16.2504 28.8922 16.396C29.0612 16.5692 29.2682 16.6647 29.469 16.6989L29.6369 15.7131L29.8049 14.7273C29.9859 14.7582 30.1735 14.8454 30.3234 14.999C30.4463 15.1249 30.4975 15.249 30.5135 15.2908C30.5419 15.365 30.5343 15.3857 30.5178 15.2488C30.4887 15.0066 30.4566 14.51 30.4263 13.5176L29.4268 13.5481ZM29.6369 15.7131L29.4581 16.697C29.8471 16.7677 30.6779 16.8021 31.4225 16.7932C31.8096 16.7886 32.2102 16.772 32.5591 16.7369C32.8526 16.7074 33.2778 16.652 33.5949 16.494L33.1488 15.599L32.7028 14.704C32.7572 14.6769 32.6837 14.7143 32.3589 14.747C32.0895 14.7741 31.7524 14.7891 31.3987 14.7933C30.6619 14.8021 29.9994 14.7626 29.8157 14.7292L29.6369 15.7131ZM29.5581 11.843L29.6405 12.8396C30.7337 12.7493 31.8489 12.7423 32.8796 12.7356L32.873 11.7356L32.8665 10.7356C31.8484 10.7423 30.6573 10.7488 29.4758 10.8464L29.5581 11.843ZM32.873 11.7356L31.8736 11.769C31.8982 12.5032 31.9421 14.7853 31.9977 15.4181L32.9939 15.3305L33.99 15.2429C33.9406 14.6808 33.9005 12.5389 33.8725 11.7022L32.873 11.7356ZM32.9939 15.3305L32.8628 14.3391C31.855 14.4723 30.8413 14.5092 29.8297 14.4497L29.7709 15.448L29.7121 16.4462C30.8508 16.5133 31.9916 16.4716 33.1249 16.3219L32.9939 15.3305ZM29.7709 15.448L30.7669 15.5369C30.7853 15.3315 30.775 15.0081 30.761 14.7069C30.7456 14.3783 30.7207 13.9874 30.6936 13.6007C30.6664 13.2129 30.6366 12.8239 30.6113 12.4978C30.5856 12.1677 30.5652 11.9101 30.5557 11.7737L29.5581 11.843L28.5605 11.9123C28.5708 12.0595 28.5924 12.3319 28.6173 12.6527C28.6425 12.9776 28.6718 13.3606 28.6985 13.7406C28.7252 14.1217 28.7489 14.4945 28.7631 14.8C28.7702 14.953 28.7748 15.0839 28.7763 15.1876C28.7771 15.2394 28.7771 15.281 28.7765 15.313C28.7758 15.3471 28.7747 15.3604 28.7749 15.359L29.7709 15.448ZM31.6963 20.3184L32.4528 20.9724L33.0622 20.2675L32.3057 19.6135L31.5492 18.9595L30.9398 19.6644L31.6963 20.3184ZM32.3057 19.6135L33.2131 20.0336C33.306 19.833 33.3403 19.6177 33.3254 19.4133L32.328 19.4862L31.3307 19.559C31.3222 19.4434 31.3409 19.3172 31.3982 19.1934L32.3057 19.6135ZM32.328 19.4862L33.3254 19.4133C33.3104 19.2093 33.2447 18.9935 33.1119 18.8001L32.2876 19.3663L31.4633 19.9325C31.3766 19.8062 31.3391 19.6742 31.3307 19.559L32.328 19.4862ZM32.2876 19.3663L33.1119 18.8001C32.9783 18.6057 32.7666 18.4227 32.4783 18.3391L32.1999 19.2996L31.9214 20.26C31.7012 20.1962 31.5509 20.0599 31.4633 19.9325L32.2876 19.3663ZM32.1999 19.2996L32.4783 18.3391C32.1816 18.2531 31.8741 18.2942 31.6185 18.4339L32.0982 19.3114L32.5778 20.1889C32.3863 20.2935 32.15 20.3263 31.9214 20.26L32.1999 19.2996ZM32.0982 19.3114L31.4797 18.5256C31.1493 18.7856 30.8574 19.0981 30.6093 19.4489L31.4257 20.0263L32.2422 20.6038C32.387 20.3989 32.548 20.2299 32.7166 20.0972L32.0982 19.3114ZM31.4257 20.0263L32.1885 19.3797L31.6421 18.7352L30.8794 19.3819L30.1166 20.0285L30.6629 20.673L31.4257 20.0263ZM30.8794 19.3819L31.6443 18.7378C31.4454 18.5015 31.1202 18.3125 30.7233 18.331L30.77 19.3299L30.8167 20.3288C30.5007 20.3436 30.2541 20.1919 30.1144 20.026L30.8794 19.3819ZM30.77 19.3299L30.7233 18.331C30.3301 18.3494 30.0298 18.5637 29.8553 18.8038L30.664 19.392L31.4727 19.9801C31.3532 20.1445 31.1292 20.3142 30.8167 20.3288L30.77 19.3299ZM30.664 19.392L29.8553 18.8038C29.6841 19.0391 29.6166 19.3119 29.6237 19.5603L30.6233 19.5317L31.6229 19.503C31.6271 19.6482 31.5888 19.8204 31.4727 19.9801L30.664 19.392ZM30.6233 19.5317L29.6237 19.5603C29.6308 19.8082 29.7139 20.0821 29.9069 20.3113L30.6719 19.6672L31.4368 19.0231C31.5706 19.182 31.6188 19.3583 31.6229 19.503L30.6233 19.5317ZM30.6719 19.6672L29.8843 20.2835L30.4097 20.9548L31.1972 20.3385L31.9847 19.7222L31.4594 19.0509L30.6719 19.6672ZM31.1972 20.3385L30.3939 19.743C30.1456 20.0778 29.9393 20.3864 29.7983 20.6579C29.7279 20.7932 29.6585 20.9482 29.6129 21.1128C29.5715 21.2626 29.521 21.5198 29.5965 21.8094L30.5642 21.5569L31.5318 21.3045C31.5837 21.5035 31.5414 21.6428 31.5404 21.6467C31.5352 21.6655 31.5383 21.6468 31.573 21.5799C31.6421 21.447 31.776 21.237 32.0005 20.9341L31.1972 20.3385ZM30.5642 21.5569L29.5965 21.8094C29.649 22.0104 29.7716 22.2717 30.0377 22.4617C30.31 22.6562 30.6082 22.6872 30.8346 22.6556C31.0487 22.6258 31.2217 22.5401 31.3454 22.4538C31.4664 22.3695 31.6017 22.2418 31.7015 22.0619L30.8268 21.5771L29.9522 21.0923C30.0296 20.9526 30.1268 20.8653 30.2018 20.813C30.2795 20.7589 30.3985 20.6971 30.5584 20.6748C30.7306 20.6508 30.9744 20.673 31.2 20.8341C31.4194 20.9908 31.503 21.1941 31.5318 21.3045L30.5642 21.5569ZM30.8268 21.5771L31.6703 22.1143C31.8593 21.8175 32.0484 21.5184 32.2488 21.2441L31.4415 20.654L30.6342 20.0639C30.3881 20.4006 30.1621 20.7593 29.9834 21.0399L30.8268 21.5771ZM31.4415 20.654L30.6287 21.2366C30.8879 21.5982 31.1784 21.929 31.4973 22.2224L32.1743 21.4865L32.8514 20.7506C32.6383 20.5545 32.4378 20.3275 32.2543 20.0715L31.4415 20.654ZM32.1743 21.4865L31.8598 22.4357C32.104 22.5166 32.3665 22.5112 32.6057 22.4225L32.2578 21.4849L31.91 20.5474C32.0947 20.4788 32.2995 20.4745 32.4889 20.5372L32.1743 21.4865ZM32.2578 21.4849L32.6057 22.4225C32.8398 22.3356 33.0164 22.1831 33.136 22.0196L32.329 21.4291L31.522 20.8385C31.6029 20.7279 31.7304 20.614 31.91 20.5474L32.2578 21.4849ZM32.329 21.4291L33.136 22.0196C33.2552 21.8568 33.3238 21.6766 33.3535 21.5034L32.3679 21.3346L31.3822 21.1657C31.3997 21.0634 31.4416 20.9485 31.522 20.8385L32.329 21.4291ZM32.3679 21.3346L33.3535 21.5034C33.3833 21.3297 33.3763 21.1495 33.3313 20.9763L32.3635 21.228L31.3956 21.4797C31.3685 21.3752 31.3646 21.2687 31.3822 21.1657L32.3679 21.3346ZM32.3635 21.228L33.2221 20.7155C32.9928 20.3313 32.7312 19.9739 32.44 19.6499L31.6963 20.3184L30.9526 20.9869C31.1531 21.21 31.3386 21.4621 31.5048 21.7405L32.3635 21.228ZM31.8355 5.92869L31.0903 5.26186C30.5831 5.82861 30.1797 6.50545 29.8937 7.24738L30.8268 7.60699L31.7599 7.96659C31.9665 7.43053 32.2487 6.96658 32.5807 6.59553L31.8355 5.92869ZM30.8268 7.60699L31.6639 7.05983C31.4221 6.68992 31.1392 6.35482 30.8194 6.06603L30.1491 6.80812L29.4788 7.55021C29.6632 7.7167 29.8359 7.91869 29.9898 8.15414L30.8268 7.60699ZM30.1491 6.80812L30.8131 6.06038C30.5553 5.83145 30.2008 5.71915 29.8377 5.79058C29.5112 5.8548 29.276 6.04682 29.1339 6.23552C28.8594 6.6001 28.7255 7.28876 29.2508 7.798L29.9469 7.08L30.6429 6.362C31.0159 6.72355 30.9057 7.20746 30.7316 7.43862C30.6397 7.56061 30.474 7.70374 30.2237 7.75297C29.9369 7.80939 29.6655 7.71597 29.4851 7.55585L30.1491 6.80812ZM29.9469 7.08L29.1982 7.74291C29.4658 8.04517 29.7176 8.37365 29.951 8.72623L30.7848 8.17425L31.6187 7.62227C31.3355 7.19457 31.0272 6.79164 30.6956 6.4171L29.9469 7.08ZM30.7848 8.17425L29.9862 8.77607C30.067 8.88327 30.2162 9.04488 30.4568 9.1433C30.7276 9.25411 31.0107 9.24237 31.2489 9.14917C31.6207 9.00374 31.7978 8.69606 31.8364 8.63103L30.9766 8.12054L30.1167 7.61006C30.1237 7.59817 30.1489 7.55678 30.196 7.50554C30.2384 7.45954 30.3436 7.35572 30.5203 7.2866C30.7264 7.20599 30.9767 7.19508 31.2141 7.29226C31.4214 7.37704 31.5368 7.51054 31.5834 7.57242L30.7848 8.17425ZM30.9766 8.12054L31.9045 8.49327C32.1649 7.84492 32.4842 7.24443 32.8531 6.70399L32.0272 6.14016L31.2014 5.57633C30.7467 6.24231 30.3603 6.97185 30.0486 7.74782L30.9766 8.12054ZM32.0272 6.14016L32.8431 6.71839C33.1506 6.28453 33.1629 5.66494 32.7692 5.23265C32.5731 5.01735 32.2626 4.84921 31.8888 4.86869C31.5118 4.88833 31.2332 5.08866 31.0662 5.28981L31.8355 5.92869L32.6048 6.56758C32.506 6.6865 32.3014 6.8499 31.9928 6.86598C31.6875 6.88189 31.4401 6.74353 31.2906 6.57942C30.9901 6.24951 31.03 5.81789 31.2114 5.56193L32.0272 6.14016ZM31.7514 27.8438L32.414 28.5928C32.5675 28.457 32.6631 28.2862 32.6817 28.2544C32.7256 28.1798 32.7694 28.0961 32.8091 28.0174C32.8889 27.8592 32.983 27.6594 33.0725 27.4706C33.2744 27.0443 33.4396 26.7076 33.5324 26.5736L32.7102 26.0044L31.888 25.4352C31.6787 25.7376 31.4328 26.2601 31.265 26.6143C31.1697 26.8157 31.0892 26.9863 31.0236 27.1162C30.9907 27.1815 30.9691 27.2213 30.9572 27.2416C30.9201 27.3047 30.9695 27.2004 31.0888 27.0949L31.7514 27.8438ZM32.7102 26.0044L33.5278 26.5802C33.8981 26.0544 33.7539 25.4315 33.4234 25.0795C33.2505 24.8954 32.9595 24.7118 32.5783 24.719C32.1701 24.7267 31.8664 24.948 31.6907 25.1813L32.4895 25.7829L33.2884 26.3844C33.1797 26.5288 32.9519 26.7123 32.616 26.7187C32.3072 26.7245 32.0851 26.576 31.9655 26.4486C31.7413 26.2098 31.6404 25.7866 31.8926 25.4286L32.7102 26.0044ZM32.4895 25.7829L31.6932 25.178C31.2818 25.7197 30.9333 26.3236 30.6543 26.9718L31.5728 27.3672L32.4913 27.7626C32.71 27.2547 32.9782 26.7929 33.2859 26.3878L32.4895 25.7829ZM31.5728 27.3672L32.3118 26.6935L31.6998 26.0222L30.9608 26.6959L30.2218 27.3696L30.8338 28.0409L31.5728 27.3672ZM30.9608 26.6959L31.6937 26.0156C31.466 25.7702 31.0932 25.5895 30.6636 25.6745C30.2907 25.7483 30.0545 25.9879 29.9322 26.1768C29.6877 26.5546 29.6299 27.1428 30.0116 27.6121L30.7874 26.9812L31.5633 26.3502C31.8057 26.6484 31.7677 27.0218 31.6112 27.2636C31.5329 27.3845 31.3578 27.5759 31.0517 27.6365C30.6888 27.7083 30.3887 27.5494 30.2278 27.3762L30.9608 26.6959ZM30.7874 26.9812L30.0116 27.6121C30.0082 27.608 30.0161 27.6179 30.0498 27.6643C30.0759 27.7004 30.1168 27.7573 30.158 27.8137C30.2419 27.9283 30.3562 28.0806 30.4814 28.225C30.5913 28.3517 30.7731 28.5483 30.9981 28.6878C31.1096 28.7569 31.3178 28.8672 31.5919 28.8834C31.9215 28.9028 32.2527 28.779 32.4912 28.5166L31.7514 27.8438L31.0116 27.171C31.0899 27.0849 31.1975 27.0028 31.3341 26.9482C31.4699 26.894 31.6008 26.8804 31.7099 26.8868C31.9074 26.8985 32.0307 26.9748 32.052 26.988C32.0969 27.0158 32.0779 27.0133 31.9925 26.9147C31.9223 26.8338 31.8467 26.7346 31.772 26.6326C31.734 26.5806 31.7035 26.538 31.6693 26.4908C31.6427 26.4541 31.6015 26.3972 31.5633 26.3502L30.7874 26.9812ZM33.7556 32.147L34.6852 31.7784C34.5854 31.5265 34.4146 31.3801 34.3152 31.3094C34.211 31.2355 34.1125 31.1931 34.0503 31.1697C33.9261 31.1229 33.806 31.1 33.7257 31.0872C33.5556 31.06 33.3575 31.0476 33.1695 31.0413C32.7831 31.0284 32.2962 31.0372 31.833 31.0532C31.3649 31.0693 30.9012 31.0933 30.5539 31.1132C30.3799 31.1232 30.2344 31.1321 30.1315 31.1386C29.9871 31.1477 29.9907 31.147 30.0283 31.147V32.147V33.147C30.0744 33.147 30.1978 33.1384 30.2569 33.1347C30.3575 33.1284 30.4991 33.1196 30.6683 33.1099C31.0075 33.0905 31.4547 33.0673 31.9017 33.052C32.3536 33.0364 32.7858 33.0296 33.1024 33.0402C33.2658 33.0457 33.3651 33.0549 33.4107 33.0622C33.4383 33.0666 33.4056 33.0641 33.3451 33.0413C33.3147 33.0298 33.242 33.0003 33.1573 32.9402C33.0773 32.8834 32.9196 32.7517 32.826 32.5155L33.7556 32.147ZM30.0283 32.147L29.8736 31.159C29.6532 31.1935 29.4691 31.2944 29.3324 31.4192L30.0066 32.1578L30.6807 32.8964C30.5569 33.0094 30.3878 33.1028 30.1831 33.1349L30.0283 32.147ZM30.0066 32.1578L29.3324 31.4192C29.1975 31.5424 29.1094 31.6869 29.0568 31.8251L29.9915 32.1805L30.9263 32.5359C30.8806 32.656 30.8028 32.7849 30.6807 32.8964L30.0066 32.1578ZM29.9915 32.1805L29.0923 31.7431C29.0041 31.9243 28.984 32.1103 28.9803 32.1385C28.9701 32.2156 28.9635 32.2986 28.9588 32.3769C28.9493 32.5361 28.9442 32.7347 28.942 32.9507C28.9375 33.3859 28.9442 33.9382 28.9574 34.4877C28.9705 35.0382 28.9902 35.5947 29.0124 36.0403C29.0234 36.2625 29.0353 36.4622 29.0476 36.6219C29.0575 36.7495 29.0729 36.9334 29.1038 37.0675L30.0782 36.8428L31.0527 36.6181C31.0619 36.6583 31.0545 36.6338 31.0417 36.4676C31.0313 36.3336 31.0205 36.1542 31.0099 35.941C30.9888 35.516 30.9696 34.977 30.9568 34.44C30.944 33.902 30.9377 33.3747 30.9419 32.9712C30.944 32.7679 30.9486 32.6073 30.9552 32.4966C30.9586 32.44 30.9618 32.4104 30.963 32.4009C30.9707 32.3425 30.9639 32.4678 30.8908 32.618L29.9915 32.1805ZM30.0782 36.8428L29.1025 37.0618C29.1808 37.4106 29.4017 37.6236 29.5536 37.7323C29.7034 37.8394 29.8556 37.8975 29.9603 37.9306C30.1719 37.9976 30.4043 38.0277 30.6004 38.0443C31.0078 38.0786 31.5084 38.0723 31.9699 38.0544C32.4402 38.0361 32.9089 38.0038 33.2634 37.978C33.4445 37.9649 33.5886 37.954 33.6972 37.9467C33.7514 37.943 33.7886 37.9408 33.8118 37.9398C33.8711 37.9371 33.807 37.9434 33.7216 37.9335L33.837 36.9402L33.9524 35.9469C33.8454 35.9344 33.7338 35.9413 33.7229 35.9418C33.6761 35.9438 33.6205 35.9473 33.5627 35.9512C33.4473 35.959 33.29 35.9708 33.1186 35.9833C32.768 36.0087 32.3271 36.039 31.8921 36.0559C31.4484 36.0732 31.0483 36.0749 30.7683 36.0513C30.6208 36.0389 30.563 36.0236 30.5638 36.0239C30.5682 36.0253 30.5839 36.0304 30.6074 36.0412C30.6302 36.0516 30.6698 36.0717 30.7172 36.1056C30.8067 36.1696 30.9885 36.3321 31.054 36.6239L30.0782 36.8428ZM33.837 36.9402L33.5657 37.9027C33.749 37.9543 33.9426 37.954 34.1251 37.9024L33.8529 36.9402L33.5807 35.9779C33.7528 35.9292 33.9355 35.9289 34.1084 35.9777L33.837 36.9402ZM33.8529 36.9402L34.1251 37.9024C34.3059 37.8512 34.4542 37.7563 34.5662 37.6468L33.8673 36.9316L33.1684 36.2164C33.2719 36.1153 33.4103 36.0261 33.5807 35.9779L33.8529 36.9402ZM33.8673 36.9316L34.5662 37.6468C34.6772 37.5384 34.7536 37.4154 34.8027 37.2957L33.8775 36.9161L32.9524 36.5365C32.9965 36.4289 33.0659 36.3165 33.1684 36.2164L33.8673 36.9316ZM33.8775 36.9161L34.8027 37.2957C34.8519 37.1758 34.8765 37.0528 34.881 36.9341L33.8817 36.8965L32.8824 36.859C32.8863 36.7539 32.9082 36.6443 32.9524 36.5365L33.8775 36.9161ZM33.8817 36.8965L34.876 37.0033C34.8981 36.7972 34.8946 36.3611 34.887 35.9249C34.8786 35.4508 34.8622 34.8706 34.8437 34.3089C34.8252 33.7466 34.8046 33.1993 34.7878 32.7899C34.7793 32.5854 34.7718 32.4139 34.7659 32.2914C34.763 32.2307 34.7603 32.1793 34.7581 32.1411C34.757 32.1228 34.7557 32.1025 34.7542 32.084C34.7536 32.0757 34.7523 32.0599 34.7503 32.0418C34.7494 32.0335 34.7473 32.0151 34.7437 31.9923C34.7419 31.9811 34.7385 31.9606 34.733 31.9353C34.7296 31.9199 34.7163 31.8578 34.6869 31.7826L33.7556 32.147L32.8244 32.5113C32.795 32.4364 32.7818 32.3747 32.7786 32.3598C32.7732 32.335 32.7699 32.3152 32.7682 32.3047C32.7649 32.2834 32.763 32.2671 32.7624 32.2613C32.7616 32.2538 32.761 32.2482 32.7608 32.2456C32.7605 32.2427 32.7604 32.2408 32.7603 32.2402C32.7603 32.2396 32.7607 32.2449 32.7615 32.2593C32.7632 32.2866 32.7654 32.3294 32.7682 32.3878C32.7738 32.5036 32.7811 32.6699 32.7895 32.8722C32.8061 33.2762 32.8265 33.8179 32.8448 34.3746C32.8631 34.9319 32.8792 35.5007 32.8873 35.9601C32.8913 36.1902 32.8933 36.3885 32.8927 36.5424C32.8924 36.6194 32.8914 36.6814 32.89 36.7285C32.8884 36.7811 32.8867 36.7967 32.8874 36.7897L33.8817 36.8965ZM30.1964 32.392L30.1422 33.3905C31.2202 33.4491 32.5996 33.3648 33.5591 33.3618L33.556 32.3618L33.5528 31.3618C32.3795 31.3655 31.274 31.449 30.2507 31.3935L30.1964 32.392ZM33.556 32.3618L32.5564 32.3899C32.5721 32.9508 32.6667 36.2408 32.6799 36.6845L33.6794 36.6549L34.679 36.6252C34.6659 36.1828 34.5713 32.8939 34.5556 32.3337L33.556 32.3618ZM33.6794 36.6549L33.622 35.6565C32.5047 35.7208 31.5637 35.6989 30.3261 35.6555L30.291 36.6549L30.2559 37.6542C31.5031 37.698 32.5217 37.7232 33.7369 37.6532L33.6794 36.6549ZM30.291 36.6549L31.2907 36.6783C31.3047 36.0821 31.211 32.8503 31.1959 32.3706L30.1964 32.4021L29.1969 32.4336C29.2133 32.9541 29.3036 36.1065 29.2913 36.6314L30.291 36.6549ZM30.1964 32.4021H31.1964V32.392H30.1964H29.1964V32.4021H30.1964Z" fill="var(--stroke-0, #2097F7)" mask="url(#path-2-inside-2_0_1042)"/>
</g>
<g id="Vector_3">
<mask id="path-4-inside-3_0_1042" fill="white">
<path d="M31.4695 34.5674C31.656 34.5674 32.6095 34.6513 32.6857 34.5976C32.7057 34.583 32.7229 34.5627 32.7358 34.5382C32.7487 34.5138 32.757 34.4858 32.7601 34.4565C32.7631 34.4273 32.7609 34.3975 32.7534 34.3696C32.746 34.3417 32.7336 34.3163 32.7172 34.2955C32.578 34.1075 31.698 34.1478 31.5509 34.1847C31.3513 34.2317 31.3145 34.3291 31.3198 34.4029C31.3268 34.4478 31.3453 34.4883 31.3725 34.5181C31.3996 34.5479 31.4338 34.5653 31.4695 34.5674ZM31.8241 24.7158C30.9625 24.736 30.0563 24.7762 29.9066 24.7897C29.8488 24.7897 29.7884 24.8534 29.7805 25.5516C29.7805 26.3874 29.8935 29.0357 30.1561 29.0592C30.6815 29.1096 33.3975 29.123 33.7469 29.0894C33.802 29.0894 33.8467 29.0894 33.7469 27.344C33.6917 26.4445 33.5682 24.8098 33.5682 24.8098C33.5577 24.7427 33.5525 24.6822 31.8241 24.7158ZM33.3712 25.0112C33.4343 26.2632 33.4684 27.5454 33.5735 28.8041H30.2323C30.1299 27.5924 30.0616 26.3438 29.988 25.0615L33.3712 25.0112ZM30.5265 22.8261C31.593 22.8261 33.3765 22.6414 33.3922 22.6314C33.5604 22.5206 33.3922 19.4896 33.3371 18.194C33.3371 17.9624 32.4099 17.959 31.6402 17.9959C31.304 17.9959 29.6334 18.1101 29.6387 18.4155C29.728 22.91 29.707 22.6918 29.7726 22.7388C30.0185 22.8207 30.2732 22.8502 30.5265 22.8261ZM29.9723 22.4904C29.9119 21.1679 29.8908 19.7649 29.8488 18.4625C30.9396 18.3387 32.0348 18.2916 33.1296 18.3215C33.1296 18.7814 33.2005 21.8392 33.2452 22.3494C32.8564 22.383 30.3794 22.4065 29.9802 22.4938L29.9723 22.4904Z"/>
</mask>
<path d="M31.4695 34.5674C31.656 34.5674 32.6095 34.6513 32.6857 34.5976C32.7057 34.583 32.7229 34.5627 32.7358 34.5382C32.7487 34.5138 32.757 34.4858 32.7601 34.4565C32.7631 34.4273 32.7609 34.3975 32.7534 34.3696C32.746 34.3417 32.7336 34.3163 32.7172 34.2955C32.578 34.1075 31.698 34.1478 31.5509 34.1847C31.3513 34.2317 31.3145 34.3291 31.3198 34.4029C31.3268 34.4478 31.3453 34.4883 31.3725 34.5181C31.3996 34.5479 31.4338 34.5653 31.4695 34.5674ZM31.8241 24.7158C30.9625 24.736 30.0563 24.7762 29.9066 24.7897C29.8488 24.7897 29.7884 24.8534 29.7805 25.5516C29.7805 26.3874 29.8935 29.0357 30.1561 29.0592C30.6815 29.1096 33.3975 29.123 33.7469 29.0894C33.802 29.0894 33.8467 29.0894 33.7469 27.344C33.6917 26.4445 33.5682 24.8098 33.5682 24.8098C33.5577 24.7427 33.5525 24.6822 31.8241 24.7158ZM33.3712 25.0112C33.4343 26.2632 33.4684 27.5454 33.5735 28.8041H30.2323C30.1299 27.5924 30.0616 26.3438 29.988 25.0615L33.3712 25.0112ZM30.5265 22.8261C31.593 22.8261 33.3765 22.6414 33.3922 22.6314C33.5604 22.5206 33.3922 19.4896 33.3371 18.194C33.3371 17.9624 32.4099 17.959 31.6402 17.9959C31.304 17.9959 29.6334 18.1101 29.6387 18.4155C29.728 22.91 29.707 22.6918 29.7726 22.7388C30.0185 22.8207 30.2732 22.8502 30.5265 22.8261ZM29.9723 22.4904C29.9119 21.1679 29.8908 19.7649 29.8488 18.4625C30.9396 18.3387 32.0348 18.2916 33.1296 18.3215C33.1296 18.7814 33.2005 21.8392 33.2452 22.3494C32.8564 22.383 30.3794 22.4065 29.9802 22.4938L29.9723 22.4904Z" fill="var(--fill-0, #155DFF)"/>
<path d="M31.4695 34.5674L31.4104 35.5656L31.4399 35.5674H31.4695V34.5674ZM32.6857 34.5976L33.2619 35.415L33.2733 35.4067L32.6857 34.5976ZM32.7172 34.2955L31.9136 34.8907L31.9225 34.9027L31.9317 34.9144L32.7172 34.2955ZM31.5509 34.1847L31.7801 35.1581L31.7872 35.1564L31.7944 35.1546L31.5509 34.1847ZM31.3198 34.4029L30.3223 34.4739L30.3253 34.5157L30.3317 34.5572L31.3198 34.4029ZM31.8241 24.7158L31.8047 23.716L31.8007 23.7161L31.8241 24.7158ZM29.9066 24.7897V25.7897H29.9514L29.9959 25.7857L29.9066 24.7897ZM29.7805 25.5516L28.7805 25.5403V25.5516H29.7805ZM30.1561 29.0592L30.2515 28.0638L30.2452 28.0632L30.1561 29.0592ZM33.7469 29.0894V28.0894H33.6989L33.6512 28.094L33.7469 29.0894ZM33.7469 27.344L34.7452 27.2869L34.745 27.2828L33.7469 27.344ZM33.5682 24.8098L34.5654 24.7345L34.5624 24.6946L34.5562 24.6552L33.5682 24.8098ZM33.3712 25.0112L34.37 24.9609L34.3214 23.9969L33.3564 24.0113L33.3712 25.0112ZM33.5735 28.8041V29.8041H34.6604L34.57 28.7209L33.5735 28.8041ZM30.2323 28.8041L29.2359 28.8884L29.3133 29.8041H30.2323V28.8041ZM29.988 25.0615L29.9732 24.0617L28.9299 24.0772L28.9897 25.1188L29.988 25.0615ZM30.5265 22.8261V21.8261H30.4789L30.4316 21.8306L30.5265 22.8261ZM33.3922 22.6314L33.9307 23.4741L33.9425 23.4664L33.3922 22.6314ZM33.3371 18.194H32.3371V18.2152L32.338 18.2365L33.3371 18.194ZM31.6402 17.9959V18.9959H31.6642L31.6882 18.9948L31.6402 17.9959ZM29.6387 18.4155L28.6388 18.4327L28.6389 18.4354L29.6387 18.4155ZM29.7726 22.7388L29.1907 23.552L29.3133 23.6398L29.4564 23.6875L29.7726 22.7388ZM29.9723 22.4904L28.9733 22.536L29.002 23.164L29.5803 23.4104L29.9723 22.4904ZM29.8488 18.4625L29.736 17.4689L28.8196 17.5729L28.8493 18.4948L29.8488 18.4625ZM33.1296 18.3215H34.1296V17.3484L33.1569 17.3219L33.1296 18.3215ZM33.2452 22.3494L33.3312 23.3457L34.3286 23.2596L34.2413 22.2622L33.2452 22.3494ZM29.9802 22.4938L29.5882 23.4137L29.8819 23.5389L30.1937 23.4707L29.9802 22.4938ZM31.4695 34.5674V35.5674C31.4656 35.5674 31.4789 35.5675 31.5226 35.5697C31.561 35.5716 31.6094 35.5744 31.6674 35.5779C31.7799 35.5846 31.9258 35.5939 32.0664 35.6012C32.2049 35.6085 32.3576 35.6151 32.4867 35.6155C32.5489 35.6157 32.6267 35.6146 32.7032 35.6082C32.7403 35.605 32.7989 35.599 32.8654 35.5851C32.8964 35.5786 33.0786 35.5441 33.2619 35.4149L32.6857 34.5976L32.1094 33.7803C32.2109 33.7088 32.3021 33.6736 32.3455 33.6584C32.395 33.6411 32.435 33.6318 32.4576 33.6271C32.5017 33.6179 32.5318 33.6155 32.5351 33.6153C32.5442 33.6145 32.5336 33.6157 32.4928 33.6155C32.4158 33.6153 32.3042 33.611 32.1715 33.604C32.0409 33.5971 31.9087 33.5888 31.7875 33.5815C31.6853 33.5753 31.5538 33.5674 31.4695 33.5674V34.5674ZM32.6857 34.5976L33.2733 35.4067C33.4308 35.2923 33.5442 35.149 33.6202 35.0049L32.7358 34.5382L31.8514 34.0715C31.9016 33.9764 31.9807 33.8737 32.098 33.7885L32.6857 34.5976ZM32.7358 34.5382L33.6202 35.0049C33.6964 34.8607 33.7392 34.7084 33.7547 34.5603L32.7601 34.4565L31.7655 34.3528C31.7748 34.2632 31.8011 34.1668 31.8514 34.0715L32.7358 34.5382ZM32.7601 34.4565L33.7547 34.5603C33.7702 34.4121 33.759 34.2598 33.7197 34.1121L32.7534 34.3696L31.7871 34.627C31.7627 34.5353 31.7561 34.4425 31.7655 34.3528L32.7601 34.4565ZM32.7534 34.3696L33.7197 34.1121C33.6805 33.9648 33.6107 33.8138 33.5026 33.6766L32.7172 34.2955L31.9317 34.9144C31.8564 34.8188 31.8115 34.7185 31.7871 34.627L32.7534 34.3696ZM32.7172 34.2955L33.5208 33.7003C33.3576 33.48 33.152 33.3718 33.0407 33.3221C32.9162 33.2665 32.7959 33.2348 32.7039 33.2154C32.519 33.1762 32.3266 33.1617 32.1714 33.1564C32.0096 33.1508 31.8507 33.1541 31.7185 33.1617C31.6168 33.1675 31.4469 33.1798 31.3075 33.2148L31.5509 34.1847L31.7944 35.1546C31.7626 35.1626 31.7418 35.1657 31.7413 35.1658C31.7377 35.1664 31.7395 35.166 31.748 35.1651C31.765 35.1632 31.7938 35.1606 31.8328 35.1584C31.9113 35.1539 32.0087 35.152 32.1026 35.1552C32.2032 35.1587 32.2661 35.167 32.2899 35.1721C32.3023 35.1747 32.2747 35.1704 32.2255 35.1484C32.1993 35.1367 32.1556 35.115 32.1042 35.0785C32.0532 35.0423 31.9815 34.9823 31.9136 34.8907L32.7172 34.2955ZM31.5509 34.1847L31.3218 33.2113C31.097 33.2642 30.8146 33.3793 30.5963 33.6365C30.3612 33.9133 30.305 34.2303 30.3223 34.4739L31.3198 34.4029L32.3173 34.332C32.3293 34.5017 32.2889 34.7331 32.1208 34.931C31.9694 35.1093 31.8052 35.1522 31.7801 35.1581L31.5509 34.1847ZM31.3198 34.4029L30.3317 34.5572C30.365 34.7704 30.4578 34.9988 30.633 35.1913L31.3725 34.5181L32.1119 33.845C32.2329 33.9778 32.2885 34.1251 32.3078 34.2487L31.3198 34.4029ZM31.3725 34.5181L30.633 35.1913C30.8118 35.3877 31.0806 35.5461 31.4104 35.5656L31.4695 34.5674L31.5286 33.5691C31.7869 33.5844 31.9874 33.7081 32.1119 33.845L31.3725 34.5181ZM31.8241 24.7158L31.8007 23.7161C30.9437 23.7361 30.0051 23.7768 29.8173 23.7937L29.9066 24.7897L29.9959 25.7857C29.9955 25.7857 30.0001 25.7853 30.012 25.7845C30.0231 25.7837 30.0377 25.7828 30.056 25.7817C30.0926 25.7795 30.1404 25.7769 30.1982 25.774C30.3137 25.7683 30.4646 25.7615 30.6388 25.7544C30.9872 25.7404 31.4234 25.7255 31.8475 25.7155L31.8241 24.7158ZM29.9066 24.7897V23.7897C29.8059 23.7897 29.655 23.8038 29.4886 23.8757C29.3185 23.9491 29.1873 24.0589 29.0918 24.1747C28.9265 24.3753 28.8713 24.5915 28.8494 24.6885C28.8005 24.9053 28.7845 25.1905 28.7806 25.5403L29.7805 25.5516L30.7805 25.5629C30.7844 25.2145 30.8026 25.1188 30.8003 25.1291C30.798 25.1392 30.7897 25.1742 30.7699 25.2228C30.7508 25.2701 30.711 25.3546 30.6354 25.4464C30.5539 25.5453 30.4369 25.6447 30.2813 25.7119C30.1292 25.7775 29.9929 25.7897 29.9066 25.7897V24.7897ZM29.7805 25.5516H28.7805C28.7805 25.9966 28.8099 26.894 28.873 27.6891C28.9042 28.0832 28.946 28.4817 29.0024 28.7955C29.0293 28.9453 29.0675 29.123 29.1267 29.283C29.1547 29.3586 29.2073 29.4865 29.301 29.6149C29.3783 29.7206 29.6216 30.0154 30.067 30.0553L30.1561 29.0592L30.2452 28.0632C30.6579 28.1001 30.8695 28.3714 30.9162 28.4354C30.9514 28.4835 30.9726 28.5235 30.9832 28.545C30.9944 28.5678 31.0005 28.5837 31.0025 28.5891C31.0052 28.5965 30.9915 28.5569 30.9709 28.442C30.9322 28.2266 30.8965 27.9063 30.8667 27.5309C30.8077 26.7871 30.7805 25.9424 30.7805 25.5516H29.7805ZM30.1561 29.0592L30.0607 30.0547C30.3782 30.0851 31.2415 30.1005 32.0106 30.1058C32.7686 30.111 33.6027 30.1079 33.8425 30.0849L33.7469 29.0894L33.6512 28.094C33.6554 28.0936 33.6447 28.0947 33.6106 28.0962C33.5798 28.0975 33.5391 28.0989 33.4886 28.1002C33.3875 28.1027 33.2568 28.1047 33.1037 28.106C32.7982 28.1086 32.4148 28.1085 32.0244 28.1058C31.2168 28.1002 30.4594 28.0837 30.2515 28.0638L30.1561 29.0592ZM33.7469 29.0894V30.0894C33.7471 30.0894 33.7518 30.0894 33.7572 30.0894C33.763 30.0894 33.7722 30.0892 33.7833 30.0889C33.8051 30.0882 33.8406 30.0865 33.8839 30.0809C33.9741 30.0694 34.1035 30.0408 34.2424 29.9657C34.5397 29.805 34.6675 29.5525 34.7187 29.418C34.7986 29.2082 34.8023 28.9868 34.8046 28.8968C34.8115 28.6303 34.7947 28.1524 34.7452 27.2869L33.7469 27.344L32.7485 27.4011C32.7988 28.281 32.8096 28.6759 32.8053 28.8457C32.8043 28.8847 32.8028 28.8928 32.8041 28.8823C32.8048 28.8762 32.807 28.8582 32.8124 28.8322C32.8176 28.8075 32.8283 28.7624 32.8496 28.7063C32.8904 28.5991 33.0065 28.3603 33.2912 28.2064C33.5418 28.0709 33.7927 28.0894 33.7469 28.0894V29.0894ZM33.7469 27.344L34.745 27.2828C34.717 26.827 34.672 26.1886 34.6342 25.6673C34.6153 25.406 34.5981 25.1729 34.5856 25.0051C34.5794 24.9213 34.5743 24.8537 34.5709 24.807C34.5691 24.7837 34.5677 24.7656 34.5668 24.7533C34.5664 24.7472 34.566 24.7425 34.5658 24.7393C34.5656 24.7377 34.5656 24.7365 34.5655 24.7357C34.5655 24.7353 34.5654 24.735 34.5654 24.7348C34.5654 24.7347 34.5654 24.7346 34.5654 24.7346C34.5654 24.7346 34.5654 24.7345 34.5654 24.7345C34.5654 24.7345 34.5654 24.7345 33.5682 24.8098C32.5711 24.8851 32.5711 24.8851 32.5711 24.8851C32.5711 24.8851 32.5711 24.8851 32.5711 24.8852C32.5711 24.8852 32.5711 24.8853 32.5711 24.8854C32.5711 24.8856 32.5711 24.8858 32.5712 24.8862C32.5712 24.887 32.5713 24.8882 32.5714 24.8897C32.5717 24.8928 32.572 24.8974 32.5725 24.9034C32.5734 24.9155 32.5747 24.9334 32.5764 24.9566C32.5799 25.0028 32.5849 25.07 32.5911 25.1534C32.6035 25.3202 32.6207 25.552 32.6395 25.8118C32.6772 26.3328 32.7215 26.9615 32.7487 27.4052L33.7469 27.344ZM33.5682 24.8098L34.5562 24.6552C34.5562 24.6549 34.5562 24.655 34.5561 24.6545C34.556 24.6541 34.556 24.6536 34.5559 24.653C34.5557 24.6518 34.5554 24.65 34.555 24.6478C34.5544 24.6435 34.5532 24.6366 34.5517 24.6282C34.5488 24.6117 34.5437 24.5852 34.5357 24.5532C34.519 24.4869 34.4889 24.3944 34.4319 24.2933C34.3071 24.0724 34.1291 23.9419 33.9838 23.8688C33.7652 23.7588 33.5327 23.7381 33.4283 23.7289C33.1476 23.7041 32.6613 23.6994 31.8047 23.716L31.8241 24.7158L31.8435 25.7156C32.7152 25.6987 33.0958 25.7073 33.2525 25.7212C33.287 25.7242 33.2891 25.7258 33.2718 25.7224C33.2617 25.7203 33.1843 25.7054 33.0849 25.6554C32.9686 25.5969 32.8062 25.4818 32.6905 25.2769C32.5916 25.1019 32.5746 24.9281 32.5803 24.9644L33.5682 24.8098ZM33.3712 25.0112L32.3725 25.0615C32.4339 26.2809 32.4701 27.6073 32.577 28.8873L33.5735 28.8041L34.57 28.7209C34.4667 27.4836 34.4346 26.2455 34.37 24.9609L33.3712 25.0112ZM33.5735 28.8041V27.8041H30.2323V28.8041V29.8041H33.5735V28.8041ZM30.2323 28.8041L31.2288 28.7199C31.1277 27.5248 31.0603 26.2919 30.9864 25.0043L29.988 25.0615L28.9897 25.1188C29.0629 26.3956 29.132 27.66 29.2359 28.8884L30.2323 28.8041ZM29.988 25.0615L30.0029 26.0614L33.3861 26.0111L33.3712 25.0112L33.3564 24.0113L29.9732 24.0617L29.988 25.0615ZM30.5265 22.8261V23.8261C31.1026 23.8261 31.8488 23.777 32.4347 23.7292C32.7317 23.705 32.9957 23.6804 33.1879 23.661C33.2837 23.6514 33.3638 23.6428 33.4224 23.6361C33.4509 23.6328 33.4787 23.6295 33.5023 23.6263C33.5128 23.6249 33.5306 23.6225 33.55 23.6192C33.5583 23.6178 33.579 23.6143 33.6044 23.6088C33.6162 23.6062 33.6424 23.6003 33.675 23.5906C33.6913 23.5858 33.7191 23.5772 33.7529 23.5641C33.7785 23.5542 33.8492 23.5261 33.9307 23.4741L33.3922 22.6314L32.8538 21.7887C32.9352 21.7367 33.0057 21.7087 33.0311 21.6989C33.0646 21.6859 33.0922 21.6774 33.1082 21.6726C33.1401 21.6632 33.1654 21.6575 33.176 21.6552C33.1993 21.6501 33.2169 21.6471 33.2213 21.6464C33.233 21.6445 33.2397 21.6436 33.2361 21.6441C33.2313 21.6448 33.2181 21.6464 33.1943 21.6492C33.1481 21.6545 33.078 21.662 32.9877 21.6711C32.8077 21.6892 32.5563 21.7126 32.2721 21.7358C31.6957 21.7828 31.0169 21.8261 30.5265 21.8261V22.8261ZM33.3922 22.6314L33.9425 23.4664C34.1574 23.3248 34.2598 23.1414 34.2975 23.0676C34.3436 22.9775 34.3691 22.8965 34.3831 22.8466C34.4113 22.7455 34.4253 22.6482 34.4335 22.5798C34.4505 22.4356 34.4583 22.2651 34.4621 22.0954C34.4697 21.7485 34.462 21.2976 34.4479 20.8271C34.4198 19.8856 34.3632 18.7849 34.3362 18.1514L33.3371 18.194L32.338 18.2365C32.3662 18.8987 32.4212 19.9613 32.4488 20.8869C32.4627 21.35 32.469 21.7585 32.4625 22.0516C32.4593 22.2019 32.453 22.2965 32.4474 22.3443C32.4441 22.3719 32.4446 22.3523 32.4568 22.3085C32.4628 22.2872 32.4797 22.2296 32.5166 22.1576C32.5451 22.1018 32.6376 21.9311 32.842 21.7963L33.3922 22.6314ZM33.3371 18.194H34.3371C34.3371 17.7826 34.1156 17.4977 33.9326 17.3465C33.7677 17.2102 33.5943 17.1434 33.4905 17.1095C33.2754 17.0393 33.0394 17.0114 32.8538 16.9972C32.4613 16.9671 31.9863 16.9782 31.5923 16.9971L31.6402 17.9959L31.6882 18.9948C32.0638 18.9768 32.4372 18.9711 32.7007 18.9913C32.8432 19.0023 32.887 19.0164 32.8698 19.0107C32.865 19.0092 32.7701 18.9803 32.6589 18.8884C32.5296 18.7816 32.3371 18.5474 32.3371 18.194H33.3371ZM31.6402 17.9959V16.9959C31.4193 16.9959 30.8693 17.0286 30.3676 17.1016C30.1212 17.1374 29.8324 17.1902 29.586 17.2723C29.4696 17.311 29.2961 17.3775 29.1327 17.4928C28.9954 17.5897 28.6295 17.8924 28.6388 18.4327L29.6387 18.4155L30.6385 18.3983C30.6465 18.8622 30.3317 19.0945 30.2861 19.1267C30.2143 19.1774 30.1731 19.1848 30.2179 19.1699C30.2937 19.1446 30.4426 19.1117 30.6552 19.0808C31.0715 19.0203 31.5249 18.9959 31.6402 18.9959V17.9959ZM29.6387 18.4155L28.6389 18.4354C28.6834 20.675 28.7007 21.7544 28.7149 22.2725C28.7213 22.5039 28.7278 22.6947 28.7482 22.8273C28.7547 22.8699 28.7866 23.1197 28.9727 23.3509C29.0801 23.4843 29.1948 23.5582 29.2476 23.5898C29.325 23.6362 29.2292 23.5796 29.1907 23.552L29.7726 22.7388L30.3546 21.9256C30.3079 21.8921 30.2045 21.8317 30.275 21.8739C30.3209 21.9014 30.4292 21.9708 30.5307 22.0968C30.6256 22.2147 30.6717 22.3283 30.694 22.3966C30.7151 22.4612 30.7229 22.5102 30.725 22.5237C30.728 22.5435 30.7219 22.4991 30.7142 22.2174C30.7002 21.7093 30.6833 20.6505 30.6385 18.3956L29.6387 18.4155ZM29.7726 22.7388L29.4564 23.6875C29.832 23.8127 30.2267 23.8592 30.6215 23.8215L30.5265 22.8261L30.4316 21.8306C30.3196 21.8413 30.2049 21.8288 30.0889 21.7901L29.7726 22.7388ZM29.9723 22.4904L30.9712 22.4448C30.9111 21.128 30.8912 19.7598 30.8483 18.4302L29.8488 18.4625L28.8493 18.4948C28.8905 19.7699 28.9126 21.2078 28.9733 22.536L29.9723 22.4904ZM29.8488 18.4625L29.9616 19.4561C31.0059 19.3376 32.0544 19.2925 33.1023 19.3211L33.1296 18.3215L33.1569 17.3219C32.0152 17.2907 30.8732 17.3398 29.736 17.4689L29.8488 18.4625ZM33.1296 18.3215H32.1296C32.1296 18.7828 32.2002 21.8789 32.249 22.4366L33.2452 22.3494L34.2413 22.2622C34.2008 21.7995 34.1296 18.78 34.1296 18.3215H33.1296ZM33.2452 22.3494L33.1591 21.3531C33.0025 21.3666 32.3456 21.3797 31.5874 21.4019C31.2271 21.4124 30.859 21.4248 30.5532 21.4404C30.2876 21.4539 29.9646 21.4736 29.7666 21.5168L29.9802 22.4938L30.1937 23.4707C30.1733 23.4751 30.1975 23.4693 30.3037 23.4603C30.3945 23.4526 30.5131 23.445 30.655 23.4378C30.938 23.4234 31.2883 23.4115 31.6458 23.401C32.3231 23.3812 33.099 23.3658 33.3312 23.3457L33.2452 22.3494ZM29.9802 22.4938L30.3721 21.5738L30.3642 21.5704L29.9723 22.4904L29.5803 23.4104L29.5882 23.4137L29.9802 22.4938Z" fill="var(--stroke-0, #2097F7)" mask="url(#path-4-inside-3_0_1042)"/>
</g>
<path id="Vector_4" d="M15.3311 15.6719C15.3439 15.6691 15.3568 15.667 15.3691 15.6631C15.3712 15.6475 15.3718 15.6315 15.373 15.6152C15.3788 15.5391 15.3757 15.4571 15.3633 15.3848C15.3276 15.375 15.2892 15.3714 15.249 15.3721V15.6826C15.2772 15.6826 15.3044 15.6775 15.3311 15.6719ZM15.373 15.6152L15.3311 15.6719M15.373 15.6152L15.3311 15.6719M48.71 4.32129C48.71 4.33253 48.7109 4.34424 48.7109 4.35645C48.7123 4.72834 48.7098 5.46838 48.7246 6.94922C48.7468 9.17068 48.8087 13.0637 48.9834 19.918L49.1982 27.8076C49.2988 31.641 49.4077 35.5939 49.4912 39.502C49.3893 39.5441 49.2406 39.5974 49.0371 39.6523C48.5326 39.7885 47.7939 39.931 46.8857 40.0752C45.0742 40.3628 42.6468 40.6466 40.2061 40.8896C37.7671 41.1325 35.3224 41.3339 33.4795 41.459C32.5578 41.5215 31.7901 41.5654 31.25 41.585C31.0662 41.5916 30.9114 41.5917 30.7881 41.5928C30.7521 41.3898 30.7287 41.1832 30.7178 40.9746C36.6615 40.3695 42.2274 39.9336 48.3174 38.75L48.2695 38.2627L48.7129 38.2959C48.7251 38.1298 48.7148 37.5525 48.6934 36.707C48.6714 35.842 48.636 34.6553 48.5898 33.2324C48.4975 30.3857 48.3635 26.5891 48.2188 22.5225C47.9968 16.2895 47.7489 9.42164 47.5811 4.35742C47.783 4.34144 48.042 4.3235 48.2979 4.31641C48.4535 4.3121 48.5949 4.31434 48.71 4.32129ZM15.2051 15.4873L15.1904 15.5908C15.1799 15.518 15.1712 15.4479 15.1611 15.3828C15.1704 15.3808 15.1797 15.3774 15.1895 15.376L15.2051 15.4873ZM15.3643 14.3408C15.3676 14.3618 15.3713 14.4092 15.3525 14.4697C15.3421 14.5032 15.3258 14.5342 15.3066 14.5625L15.2637 14.5469C15.2244 14.5358 15.1844 14.531 15.1445 14.5322C15.1484 14.5113 15.1539 14.4887 15.1631 14.4648C15.1757 14.4321 15.1972 14.3968 15.2256 14.3623L15.3643 14.3408ZM15.3398 14.2666C15.3495 14.2888 15.3578 14.3088 15.3613 14.3271L15.2354 14.3506C15.263 14.3195 15.2971 14.29 15.3398 14.2666Z" fill="var(--fill-0, #155DFF)" stroke="var(--stroke-0, #2097F7)"/>
<g id="Vector_5">
<mask id="path-7-inside-4_0_1042" fill="white">
<path d="M22.7287 26.756C21.0398 24.6279 18.0007 22.1273 15.2689 21.6305C15.3141 21.431 15.3141 21.2191 15.2689 21.0196C15.4768 20.7975 15.6701 20.5539 15.8468 20.2912C16.2224 19.7273 16.2145 19.1768 15.6787 19.4554C16.204 17.9718 16.204 14.7562 16.0149 12.9504C16.8948 13.6519 18.3789 12.9772 18.1977 11.6077C19.3928 12.0676 20.1703 9.03325 18.6521 8.48613C18.8649 6.19022 16.5639 5.85792 15.8599 7.1972C15.4633 5.71694 13.6403 6.49567 13.7717 7.65705C12.9495 6.52924 11.1739 6.92196 10.9269 8.32837C10.1836 7.46572 8.95692 7.83159 9.06461 9.10374C7.88785 8.40557 7.26532 10.2047 8.17941 10.782C7.59366 11.1848 7.61204 12.843 8.51038 12.843C8.51038 13.9506 9.03572 16.4882 10.3359 17.8778C10.4752 19.4319 10.2256 20.2275 9.79221 21.6674C5.50542 22.4999 2.25093 26.7728 0.790484 32.0728C-0.874848 38.1147 -0.0842098 43.8209 4.85137 45.0225C4.8411 45.8289 4.76718 46.6318 4.63073 47.4191C4.62827 47.4489 4.63427 47.4787 4.64764 47.5032C4.661 47.5277 4.68083 47.5453 4.70349 47.5526C4.72616 47.5599 4.75013 47.5566 4.77102 47.5432C4.79191 47.5298 4.80831 47.5072 4.81723 47.4796C4.99305 46.6976 5.08842 45.8897 5.10091 45.0762C6.28996 45.3021 7.50468 45.0652 8.58691 44.3965C9.66913 43.7277 10.5687 42.6582 11.1686 41.3269C11.929 41.6961 12.7051 42.0098 13.4932 42.2668C15.9729 43.163 19.2063 44.0525 22.2691 42.9918C22.2087 44.8681 22.1246 46.3719 21.9933 47.8656C21.9933 48.0133 22.1535 48.0569 22.1719 47.9092C22.2743 47.1238 22.5291 43.6765 22.5134 42.9012C24.4624 42.1359 25.7652 40.4072 26.0857 38.1617C26.6452 34.3553 25.3843 30.0824 22.7287 26.756ZM11.5731 12.2992C11.6414 13.2793 11.5731 13.9775 11.3393 14.4306C11.2527 14.5951 11.1213 14.7663 11.0084 14.7663C10.9217 14.6455 10.3543 13.8936 9.81848 14.3333C9.46912 14.6253 9.45337 15.1926 9.78433 15.931C10.0209 16.3795 10.1901 16.8804 10.2834 17.4079C9.27738 16.0116 8.97005 14.7025 8.7389 12.8262C9.00591 12.7646 9.24962 12.5924 9.43235 12.3361C9.89203 13.2088 11.0163 13.0343 11.5731 12.2992ZM9.94456 14.5548C10.2992 14.2762 10.6275 14.6119 10.9269 14.9475C11.1029 15.1456 11.3919 14.867 11.5285 14.6119C11.8857 13.9809 11.8542 12.9336 11.8069 12.41C12.0618 12.7203 12.4004 12.8933 12.7525 12.8933C13.1046 12.8933 13.4432 12.7203 13.6981 12.41C13.7507 13.3767 15.3372 13.5982 15.7548 12.796C15.9466 14.4743 16.0385 18.1027 15.4029 19.6233C14.8775 19.9187 13.6824 20.5933 13.0887 20.2946C12.5791 20.0361 12.3217 19.0426 11.7281 18.6163C11.3288 18.3343 10.9874 18.6532 11.2658 19.2238C11.9698 20.6537 11.9067 21.1975 11.3498 22.6677C10.8618 22.4977 10.4054 22.2044 10.0076 21.8051C10.5855 20.7477 10.7431 18.8613 10.5986 17.606C10.4699 16.4882 10.3359 16.5554 9.98921 15.7296C9.82898 15.3906 9.68714 14.7629 9.94456 14.5548ZM14.3758 21.3251C14.3549 21.3375 14.3382 21.3593 14.3289 21.3863C14.3197 21.4134 14.3185 21.4438 14.3256 21.4719C14.3327 21.5 14.3476 21.5237 14.3675 21.5387C14.3874 21.5537 14.4109 21.5589 14.4336 21.5533C14.6588 21.5019 14.8724 21.3872 15.0588 21.2176C15.0739 21.5306 15.0094 21.8415 14.8749 22.1038C14.8276 22.1877 14.9117 22.4394 15.0824 22.1273C15.0693 23.0537 14.6989 24.1983 13.9871 24.6481C13.5046 24.5366 13.0455 24.2986 12.6386 23.9491C12.2317 23.5996 11.8859 23.1461 11.623 22.6173C12.411 20.8921 11.7176 19.5964 11.4864 19.0594C11.3577 18.7506 11.4234 18.7036 11.6335 18.8781C12.13 19.2809 12.566 20.4054 13.0467 20.5564C13.9529 20.835 15.0693 20.1368 15.6156 19.8247C15.8993 19.6602 16.0648 19.5494 15.7233 20.0965C15.2663 20.8182 15.0062 20.9693 14.3758 21.3251ZM3.25959 35.651C3.25009 35.6783 3.2486 35.709 3.2554 35.7376C3.26221 35.7662 3.27685 35.7907 3.29664 35.8066C3.31643 35.8225 3.34004 35.8287 3.36315 35.8242C3.38625 35.8197 3.40731 35.8046 3.42244 35.7819C5.72607 31.1431 9.53742 27.9241 11.4996 22.9597C11.8043 23.8257 13.1071 24.9401 13.9109 24.9401C13.9109 25.7759 13.8452 26.7694 13.7769 27.7227C12.9889 27.4911 10.8587 26.6385 10.4752 25.5241C10.4305 25.3865 10.2571 25.4805 10.2992 25.6181C10.659 26.8634 12.8812 27.8637 13.7533 28.0751C13.5691 30.5832 13.2042 33.0641 12.6632 35.4865C12.2666 37.299 11.757 39.4909 11.0215 41.1121C10.4352 42.445 9.53799 43.511 8.45505 44.1614C7.37211 44.8118 6.15735 45.0143 4.98008 44.7406C0.131181 43.6531 -0.599044 38.0643 1.0479 32.1601C2.58715 26.6285 5.95722 22.7348 9.84474 21.9964C10.2673 22.3946 10.7293 22.7196 11.2185 22.9631C9.24848 27.82 5.49229 31.0088 3.25959 35.651ZM12.8891 35.6275C15.4415 34.2529 18.1534 33.424 20.9163 33.1738C21.7043 33.1067 22.4923 33.11 23.2804 33.11C23.3959 33.11 23.3986 32.8683 23.2804 32.8683C22.7445 32.8208 22.207 32.8085 21.6702 32.8314C21.5415 31.4888 19.6476 27.5717 19.0041 26.4875C18.9876 26.4676 18.9661 26.4559 18.9434 26.4546C18.9208 26.4533 18.8985 26.4624 18.8807 26.4803C18.8629 26.4982 18.8507 26.5237 18.8463 26.5521C18.842 26.5805 18.8457 26.61 18.857 26.6352C20.1467 28.9445 21.1895 31.8849 21.397 32.8449C19.0881 32.9556 15.5263 33.6538 12.9626 35.2582C13.2043 34.1271 14.1394 29.4614 14.1604 24.8528C14.8828 24.44 15.3976 22.9463 15.3372 21.9427C18.0607 22.7353 20.5586 24.4782 22.5528 26.9775C24.8932 29.9078 26.3273 33.6907 25.886 37.8025C25.6523 40.1521 24.3468 41.9714 22.3978 42.6327C19.0382 43.8075 15.5815 42.7871 12.2639 41.4713C11.9428 41.3332 11.6157 41.2188 11.2842 41.1289C11.9555 39.3648 12.4929 37.5226 12.8891 35.6275Z"/>
</mask>
<path d="M22.7287 26.756C21.0398 24.6279 18.0007 22.1273 15.2689 21.6305C15.3141 21.431 15.3141 21.2191 15.2689 21.0196C15.4768 20.7975 15.6701 20.5539 15.8468 20.2912C16.2224 19.7273 16.2145 19.1768 15.6787 19.4554C16.204 17.9718 16.204 14.7562 16.0149 12.9504C16.8948 13.6519 18.3789 12.9772 18.1977 11.6077C19.3928 12.0676 20.1703 9.03325 18.6521 8.48613C18.8649 6.19022 16.5639 5.85792 15.8599 7.1972C15.4633 5.71694 13.6403 6.49567 13.7717 7.65705C12.9495 6.52924 11.1739 6.92196 10.9269 8.32837C10.1836 7.46572 8.95692 7.83159 9.06461 9.10374C7.88785 8.40557 7.26532 10.2047 8.17941 10.782C7.59366 11.1848 7.61204 12.843 8.51038 12.843C8.51038 13.9506 9.03572 16.4882 10.3359 17.8778C10.4752 19.4319 10.2256 20.2275 9.79221 21.6674C5.50542 22.4999 2.25093 26.7728 0.790484 32.0728C-0.874848 38.1147 -0.0842098 43.8209 4.85137 45.0225C4.8411 45.8289 4.76718 46.6318 4.63073 47.4191C4.62827 47.4489 4.63427 47.4787 4.64764 47.5032C4.661 47.5277 4.68083 47.5453 4.70349 47.5526C4.72616 47.5599 4.75013 47.5566 4.77102 47.5432C4.79191 47.5298 4.80831 47.5072 4.81723 47.4796C4.99305 46.6976 5.08842 45.8897 5.10091 45.0762C6.28996 45.3021 7.50468 45.0652 8.58691 44.3965C9.66913 43.7277 10.5687 42.6582 11.1686 41.3269C11.929 41.6961 12.7051 42.0098 13.4932 42.2668C15.9729 43.163 19.2063 44.0525 22.2691 42.9918C22.2087 44.8681 22.1246 46.3719 21.9933 47.8656C21.9933 48.0133 22.1535 48.0569 22.1719 47.9092C22.2743 47.1238 22.5291 43.6765 22.5134 42.9012C24.4624 42.1359 25.7652 40.4072 26.0857 38.1617C26.6452 34.3553 25.3843 30.0824 22.7287 26.756ZM11.5731 12.2992C11.6414 13.2793 11.5731 13.9775 11.3393 14.4306C11.2527 14.5951 11.1213 14.7663 11.0084 14.7663C10.9217 14.6455 10.3543 13.8936 9.81848 14.3333C9.46912 14.6253 9.45337 15.1926 9.78433 15.931C10.0209 16.3795 10.1901 16.8804 10.2834 17.4079C9.27738 16.0116 8.97005 14.7025 8.7389 12.8262C9.00591 12.7646 9.24962 12.5924 9.43235 12.3361C9.89203 13.2088 11.0163 13.0343 11.5731 12.2992ZM9.94456 14.5548C10.2992 14.2762 10.6275 14.6119 10.9269 14.9475C11.1029 15.1456 11.3919 14.867 11.5285 14.6119C11.8857 13.9809 11.8542 12.9336 11.8069 12.41C12.0618 12.7203 12.4004 12.8933 12.7525 12.8933C13.1046 12.8933 13.4432 12.7203 13.6981 12.41C13.7507 13.3767 15.3372 13.5982 15.7548 12.796C15.9466 14.4743 16.0385 18.1027 15.4029 19.6233C14.8775 19.9187 13.6824 20.5933 13.0887 20.2946C12.5791 20.0361 12.3217 19.0426 11.7281 18.6163C11.3288 18.3343 10.9874 18.6532 11.2658 19.2238C11.9698 20.6537 11.9067 21.1975 11.3498 22.6677C10.8618 22.4977 10.4054 22.2044 10.0076 21.8051C10.5855 20.7477 10.7431 18.8613 10.5986 17.606C10.4699 16.4882 10.3359 16.5554 9.98921 15.7296C9.82898 15.3906 9.68714 14.7629 9.94456 14.5548ZM14.3758 21.3251C14.3549 21.3375 14.3382 21.3593 14.3289 21.3863C14.3197 21.4134 14.3185 21.4438 14.3256 21.4719C14.3327 21.5 14.3476 21.5237 14.3675 21.5387C14.3874 21.5537 14.4109 21.5589 14.4336 21.5533C14.6588 21.5019 14.8724 21.3872 15.0588 21.2176C15.0739 21.5306 15.0094 21.8415 14.8749 22.1038C14.8276 22.1877 14.9117 22.4394 15.0824 22.1273C15.0693 23.0537 14.6989 24.1983 13.9871 24.6481C13.5046 24.5366 13.0455 24.2986 12.6386 23.9491C12.2317 23.5996 11.8859 23.1461 11.623 22.6173C12.411 20.8921 11.7176 19.5964 11.4864 19.0594C11.3577 18.7506 11.4234 18.7036 11.6335 18.8781C12.13 19.2809 12.566 20.4054 13.0467 20.5564C13.9529 20.835 15.0693 20.1368 15.6156 19.8247C15.8993 19.6602 16.0648 19.5494 15.7233 20.0965C15.2663 20.8182 15.0062 20.9693 14.3758 21.3251ZM3.25959 35.651C3.25009 35.6783 3.2486 35.709 3.2554 35.7376C3.26221 35.7662 3.27685 35.7907 3.29664 35.8066C3.31643 35.8225 3.34004 35.8287 3.36315 35.8242C3.38625 35.8197 3.40731 35.8046 3.42244 35.7819C5.72607 31.1431 9.53742 27.9241 11.4996 22.9597C11.8043 23.8257 13.1071 24.9401 13.9109 24.9401C13.9109 25.7759 13.8452 26.7694 13.7769 27.7227C12.9889 27.4911 10.8587 26.6385 10.4752 25.5241C10.4305 25.3865 10.2571 25.4805 10.2992 25.6181C10.659 26.8634 12.8812 27.8637 13.7533 28.0751C13.5691 30.5832 13.2042 33.0641 12.6632 35.4865C12.2666 37.299 11.757 39.4909 11.0215 41.1121C10.4352 42.445 9.53799 43.511 8.45505 44.1614C7.37211 44.8118 6.15735 45.0143 4.98008 44.7406C0.131181 43.6531 -0.599044 38.0643 1.0479 32.1601C2.58715 26.6285 5.95722 22.7348 9.84474 21.9964C10.2673 22.3946 10.7293 22.7196 11.2185 22.9631C9.24848 27.82 5.49229 31.0088 3.25959 35.651ZM12.8891 35.6275C15.4415 34.2529 18.1534 33.424 20.9163 33.1738C21.7043 33.1067 22.4923 33.11 23.2804 33.11C23.3959 33.11 23.3986 32.8683 23.2804 32.8683C22.7445 32.8208 22.207 32.8085 21.6702 32.8314C21.5415 31.4888 19.6476 27.5717 19.0041 26.4875C18.9876 26.4676 18.9661 26.4559 18.9434 26.4546C18.9208 26.4533 18.8985 26.4624 18.8807 26.4803C18.8629 26.4982 18.8507 26.5237 18.8463 26.5521C18.842 26.5805 18.8457 26.61 18.857 26.6352C20.1467 28.9445 21.1895 31.8849 21.397 32.8449C19.0881 32.9556 15.5263 33.6538 12.9626 35.2582C13.2043 34.1271 14.1394 29.4614 14.1604 24.8528C14.8828 24.44 15.3976 22.9463 15.3372 21.9427C18.0607 22.7353 20.5586 24.4782 22.5528 26.9775C24.8932 29.9078 26.3273 33.6907 25.886 37.8025C25.6523 40.1521 24.3468 41.9714 22.3978 42.6327C19.0382 43.8075 15.5815 42.7871 12.2639 41.4713C11.9428 41.3332 11.6157 41.2188 11.2842 41.1289C11.9555 39.3648 12.4929 37.5226 12.8891 35.6275Z" fill="var(--fill-0, #155DFF)" stroke="var(--stroke-0, #2097F7)" stroke-width="2" mask="url(#path-7-inside-4_0_1042)"/>
</g>
<path id="Vector_6" d="M13.376 15.123L13.416 15.4248C13.3808 15.4238 13.3485 15.4198 13.3193 15.4121C13.3059 15.325 13.3044 15.224 13.3154 15.1367C13.3342 15.1309 13.3546 15.1259 13.376 15.123ZM13.4414 15.1191C13.478 15.1191 13.5125 15.1232 13.5439 15.1309L13.5898 15.1826C13.6012 15.2478 13.603 15.3194 13.5928 15.3926C13.555 15.4081 13.5123 15.4209 13.4639 15.4248C13.4564 15.4254 13.4486 15.4246 13.4414 15.4248V15.1191Z" fill="var(--fill-0, #155DFF)" stroke="var(--stroke-0, #2097F7)"/>
</g>
</svg>
