<svg preserveAspectRatio="none" width="100%" height="100%" overflow="visible" style="display: block;" viewBox="0 0 49.9995 48" fill="none" xmlns="http://www.w3.org/2000/svg">
<g id="Group">
<g id="Vector">
<mask id="path-1-inside-1_0_988" fill="white">
<path fill-rule="evenodd" clip-rule="evenodd" d="M44.1797 17.1533C44.2219 17.2634 44.3824 17.2967 44.4876 17.3201C45.3454 17.5136 49.0635 17.6137 49.4214 17.2233C49.7345 16.8897 49.5608 11.4379 49.2556 11.2177C48.8609 10.9208 44.556 10.8641 44.2561 11.1677C44.0377 11.3979 43.9008 16.3825 44.1797 17.1533ZM44.3218 11.2377C44.5613 10.9842 48.7662 11.1744 49.1451 11.4079C49.3477 12.0952 49.4793 16.4126 49.2819 17.0265C48.9609 17.3067 45.027 17.2967 44.3403 17.0265C44.0719 16.209 44.1719 11.3979 44.3218 11.2377ZM33.7149 10.6539C33.6106 10.8802 33.4697 11.076 33.3014 11.2284C33.1332 11.3808 32.9414 11.4863 32.7387 11.538C32.7325 11.536 32.726 11.5358 32.7197 11.5375C32.7134 11.5391 32.7075 11.5426 32.7024 11.5476C32.6973 11.5526 32.6932 11.559 32.6904 11.5663C32.6876 11.5736 32.6861 11.5816 32.6861 11.5897C32.6861 11.5979 32.6876 11.6059 32.6904 11.6132C32.6932 11.6205 32.6973 11.6269 32.7024 11.6319C32.7075 11.6369 32.7134 11.6404 32.7197 11.642C32.726 11.6437 32.7325 11.6435 32.7387 11.6415C33.2018 11.7949 33.8044 11.2611 33.8044 10.6739C33.8065 10.6588 33.8038 10.6434 33.7969 10.6308C33.7899 10.6183 33.7794 10.6098 33.7675 10.6072C33.7557 10.6045 33.7435 10.6079 33.7336 10.6167C33.7237 10.6255 33.717 10.6388 33.7149 10.6539ZM31.5651 7.66776V8.0014C31.5651 8.04564 31.579 8.08808 31.6036 8.11936C31.6283 8.15065 31.6618 8.16822 31.6967 8.16822C31.7313 8.16737 31.7644 8.14952 31.789 8.11842C31.8135 8.08732 31.8276 8.04538 31.8282 8.0014V7.66776C31.8282 7.62351 31.8144 7.58108 31.7897 7.5498C31.765 7.51851 31.7316 7.50093 31.6967 7.50093C31.6618 7.50093 31.6283 7.51851 31.6036 7.5498C31.579 7.58108 31.5651 7.62351 31.5651 7.66776ZM34.1885 7.98472C34.1885 8.02896 34.2024 8.07139 34.2271 8.10268C34.2518 8.13396 34.2852 8.15154 34.3201 8.15154C34.355 8.15154 34.3885 8.13396 34.4131 8.10268C34.4378 8.07139 34.4517 8.02896 34.4517 7.98472V7.571C34.4517 7.52676 34.4378 7.48433 34.4131 7.45304C34.3885 7.42175 34.355 7.40418 34.3201 7.40418C34.2852 7.40418 34.2518 7.42175 34.2271 7.45304C34.2024 7.48433 34.1885 7.52676 34.1885 7.571C34.178 7.71447 34.1885 7.88129 34.1885 7.98472Z"/>
</mask>
<path fill-rule="evenodd" clip-rule="evenodd" d="M44.1797 17.1533C44.2219 17.2634 44.3824 17.2967 44.4876 17.3201C45.3454 17.5136 49.0635 17.6137 49.4214 17.2233C49.7345 16.8897 49.5608 11.4379 49.2556 11.2177C48.8609 10.9208 44.556 10.8641 44.2561 11.1677C44.0377 11.3979 43.9008 16.3825 44.1797 17.1533ZM44.3218 11.2377C44.5613 10.9842 48.7662 11.1744 49.1451 11.4079C49.3477 12.0952 49.4793 16.4126 49.2819 17.0265C48.9609 17.3067 45.027 17.2967 44.3403 17.0265C44.0719 16.209 44.1719 11.3979 44.3218 11.2377ZM33.7149 10.6539C33.6106 10.8802 33.4697 11.076 33.3014 11.2284C33.1332 11.3808 32.9414 11.4863 32.7387 11.538C32.7325 11.536 32.726 11.5358 32.7197 11.5375C32.7134 11.5391 32.7075 11.5426 32.7024 11.5476C32.6973 11.5526 32.6932 11.559 32.6904 11.5663C32.6876 11.5736 32.6861 11.5816 32.6861 11.5897C32.6861 11.5979 32.6876 11.6059 32.6904 11.6132C32.6932 11.6205 32.6973 11.6269 32.7024 11.6319C32.7075 11.6369 32.7134 11.6404 32.7197 11.642C32.726 11.6437 32.7325 11.6435 32.7387 11.6415C33.2018 11.7949 33.8044 11.2611 33.8044 10.6739C33.8065 10.6588 33.8038 10.6434 33.7969 10.6308C33.7899 10.6183 33.7794 10.6098 33.7675 10.6072C33.7557 10.6045 33.7435 10.6079 33.7336 10.6167C33.7237 10.6255 33.717 10.6388 33.7149 10.6539ZM31.5651 7.66776V8.0014C31.5651 8.04564 31.579 8.08808 31.6036 8.11936C31.6283 8.15065 31.6618 8.16822 31.6967 8.16822C31.7313 8.16737 31.7644 8.14952 31.789 8.11842C31.8135 8.08732 31.8276 8.04538 31.8282 8.0014V7.66776C31.8282 7.62351 31.8144 7.58108 31.7897 7.5498C31.765 7.51851 31.7316 7.50093 31.6967 7.50093C31.6618 7.50093 31.6283 7.51851 31.6036 7.5498C31.579 7.58108 31.5651 7.62351 31.5651 7.66776ZM34.1885 7.98472C34.1885 8.02896 34.2024 8.07139 34.2271 8.10268C34.2518 8.13396 34.2852 8.15154 34.3201 8.15154C34.355 8.15154 34.3885 8.13396 34.4131 8.10268C34.4378 8.07139 34.4517 8.02896 34.4517 7.98472V7.571C34.4517 7.52676 34.4378 7.48433 34.4131 7.45304C34.3885 7.42175 34.355 7.40418 34.3201 7.40418C34.2852 7.40418 34.2518 7.42175 34.2271 7.45304C34.2024 7.48433 34.1885 7.52676 34.1885 7.571C34.178 7.71447 34.1885 7.88129 34.1885 7.98472Z" fill="var(--fill-0, #2349FF)"/>
<path d="M44.1797 17.1533L43.8193 17.2837L43.8218 17.2901L44.1797 17.1533ZM44.4876 17.3201L44.572 16.9462L44.5706 16.9459L44.4876 17.3201ZM49.4214 17.2233L49.1419 16.961L49.1389 16.9643L49.4214 17.2233ZM49.2556 11.2177L49.0251 11.5241L49.0314 11.5286L49.2556 11.2177ZM44.2561 11.1677L43.9834 10.8983L43.978 10.9039L44.2561 11.1677ZM44.3218 11.2377L44.0432 10.9746L44.0421 10.9758L44.3218 11.2377ZM49.1451 11.4079L49.5127 11.2995L49.4712 11.1587L49.3462 11.0816L49.1451 11.4079ZM49.2819 17.0265L49.534 17.3152L49.6142 17.2451L49.6468 17.1438L49.2819 17.0265ZM44.3403 17.0265L43.9761 17.146L44.0323 17.3172L44.1999 17.3831L44.3403 17.0265ZM33.7149 10.6539L34.063 10.8143L34.0867 10.7628L34.0945 10.7067L33.7149 10.6539ZM32.7387 11.538L32.6203 11.9026L32.7259 11.9368L32.8334 11.9094L32.7387 11.538ZM32.7387 11.6415L32.8592 11.2776L32.7399 11.2381L32.6203 11.2769L32.7387 11.6415ZM33.8044 10.6739L33.4248 10.6211L33.4211 10.6473V10.6739H33.8044ZM31.6967 8.16822V8.5516L31.7061 8.55137L31.6967 8.16822ZM31.8282 8.0014L32.2115 8.00727V8.0014H31.8282ZM34.1885 7.571L34.5708 7.59904L34.5718 7.58504V7.571H34.1885ZM44.1797 17.1533L43.8218 17.2901C43.8983 17.4904 44.0665 17.5819 44.1594 17.6216C44.2571 17.6634 44.361 17.6846 44.4046 17.6942L44.4876 17.3201L44.5706 16.9459C44.5417 16.9395 44.5208 16.9349 44.4998 16.9293C44.4792 16.9238 44.467 16.9195 44.4606 16.9168C44.4535 16.9137 44.4621 16.9163 44.4772 16.9289C44.494 16.943 44.5205 16.9714 44.5377 17.0164L44.1797 17.1533ZM44.4876 17.3201L44.4033 17.6939C44.8784 17.8011 46.0613 17.8735 47.1418 17.8739C47.6889 17.8741 48.2286 17.856 48.6594 17.8116C48.8738 17.7895 49.0718 17.7599 49.2344 17.7194C49.3156 17.6992 49.3967 17.6742 49.4704 17.6418C49.5389 17.6118 49.6297 17.5633 49.7039 17.4823L49.4214 17.2233L49.1389 16.9643C49.1683 16.9322 49.1882 16.9286 49.1624 16.9399C49.1419 16.9489 49.1056 16.9615 49.0493 16.9756C48.9366 17.0036 48.7788 17.0287 48.5808 17.0491C48.1871 17.0897 47.6766 17.1076 47.1421 17.1074C46.0597 17.107 44.9547 17.0325 44.572 16.9462L44.4876 17.3201ZM49.4214 17.2233L49.7008 17.4856C49.791 17.3895 49.8276 17.2652 49.8443 17.2039C49.8664 17.1228 49.8831 17.0287 49.8965 16.93C49.9234 16.7313 49.9418 16.4764 49.9534 16.1908C49.9769 15.6174 49.9749 14.8882 49.9535 14.1666C49.9321 13.4451 49.8912 12.7231 49.8357 12.1642C49.8081 11.886 49.7761 11.64 49.7394 11.4519C49.7212 11.3589 49.6999 11.2692 49.6735 11.1929C49.6604 11.1549 49.643 11.111 49.6193 11.0681C49.5989 11.0311 49.5563 10.9621 49.4798 10.9069L49.2556 11.2177L49.0314 11.5286C48.974 11.4871 48.9502 11.4421 48.9483 11.4387C48.9432 11.4294 48.944 11.4286 48.9489 11.4427C48.9585 11.4706 48.9718 11.5209 48.987 11.5988C49.017 11.7522 49.0462 11.9708 49.0729 12.2399C49.1261 12.7756 49.1662 13.4787 49.1873 14.1893C49.2083 14.9 49.2101 15.61 49.1876 16.1595C49.1763 16.4353 49.1592 16.6629 49.1369 16.827C49.1257 16.9098 49.1143 16.9672 49.1046 17.0028C49.0896 17.0581 49.0909 17.0154 49.1419 16.961L49.4214 17.2233ZM49.2556 11.2177L49.486 10.9115C49.4074 10.8523 49.3162 10.8191 49.252 10.7991C49.1793 10.7764 49.0969 10.7574 49.0107 10.7412C48.8377 10.7087 48.6225 10.6819 48.3849 10.6603C47.9081 10.6167 47.313 10.591 46.7247 10.5843C46.1366 10.5775 45.5467 10.5896 45.0806 10.6234C44.8487 10.6402 44.6387 10.6629 44.4718 10.6935C44.389 10.7086 44.3074 10.7274 44.235 10.7517C44.1765 10.7714 44.0688 10.8119 43.9834 10.8983L44.2561 11.1677L44.5287 11.4371C44.4808 11.4855 44.4418 11.4909 44.4796 11.4782C44.5035 11.4701 44.5455 11.4593 44.6098 11.4475C44.7373 11.4242 44.9159 11.4039 45.136 11.3879C45.5738 11.3562 46.1409 11.3441 46.7159 11.3507C47.2907 11.3573 47.8645 11.3825 48.3153 11.4236C48.5414 11.4443 48.7297 11.4683 48.8689 11.4945C48.9387 11.5077 48.9895 11.5201 49.0234 11.5307C49.0658 11.544 49.0544 11.546 49.0252 11.524L49.2556 11.2177ZM44.2561 11.1677L43.978 10.9039C43.9221 10.9629 43.8937 11.0271 43.8813 11.0573C43.8658 11.095 43.8543 11.1333 43.8454 11.1672C43.8275 11.2355 43.8126 11.3164 43.7997 11.4022C43.7735 11.5756 43.7505 11.8028 43.7306 12.0624C43.6907 12.5835 43.6616 13.2599 43.6482 13.9503C43.6348 14.6408 43.637 15.3513 43.6603 15.9404C43.672 16.2347 43.6891 16.5028 43.7129 16.725C43.7355 16.9367 43.7673 17.1398 43.8194 17.2837L44.1797 17.1533L44.5401 17.0228C44.5225 16.9741 44.4975 16.8528 44.4751 16.6434C44.4538 16.4446 44.4376 16.1951 44.4263 15.91C44.4037 15.3406 44.4014 14.646 44.4146 13.9652C44.4278 13.2844 44.4565 12.6233 44.4949 12.1209C44.5142 11.8688 44.5356 11.6628 44.5576 11.5165C44.5688 11.4425 44.5789 11.3919 44.5869 11.3615C44.5909 11.3461 44.5925 11.3433 44.5904 11.3485C44.5892 11.3514 44.5854 11.3602 44.5784 11.3725C44.572 11.3837 44.558 11.4062 44.5341 11.4315L44.2561 11.1677ZM44.3218 11.2377L44.6005 11.5009C44.5373 11.5679 44.4751 11.5756 44.5158 11.5641C44.535 11.5586 44.5725 11.5507 44.6333 11.5425C44.7532 11.5264 44.9239 11.5145 45.1357 11.5076C45.5569 11.4938 46.1068 11.5008 46.6659 11.5231C47.2245 11.5454 47.7847 11.5827 48.2258 11.6284C48.447 11.6513 48.6329 11.6757 48.7716 11.7004C48.8412 11.7129 48.8935 11.7244 48.9298 11.7344C48.9748 11.7467 48.9692 11.7497 48.944 11.7342L49.1451 11.4079L49.3462 11.0816C49.2736 11.0369 49.1907 11.0111 49.1324 10.9951C49.0654 10.9767 48.9883 10.9605 48.9062 10.9458C48.7414 10.9164 48.5348 10.8897 48.3047 10.8659C47.8434 10.8181 47.2664 10.7799 46.6965 10.7572C46.127 10.7345 45.5571 10.7269 45.1107 10.7415C44.8887 10.7487 44.6886 10.7617 44.5313 10.7828C44.4535 10.7933 44.3757 10.807 44.3068 10.8266C44.2595 10.84 44.1364 10.8759 44.0432 10.9746L44.3218 11.2377ZM49.1451 11.4079L48.7775 11.5163C48.8142 11.641 48.8589 11.9955 48.8975 12.5177C48.9347 13.0213 48.9637 13.6385 48.9804 14.2551C48.997 14.8718 49.0012 15.4836 48.9891 15.9769C48.9831 16.2238 48.9731 16.4373 48.9591 16.605C48.9441 16.7842 48.9268 16.8788 48.917 16.9092L49.2819 17.0265L49.6468 17.1438C49.6864 17.0207 49.7081 16.8461 49.7229 16.6689C49.7387 16.4804 49.7492 16.2504 49.7554 15.9956C49.7679 15.4852 49.7635 14.8596 49.7466 14.2344C49.7297 13.609 49.7002 12.9795 49.6619 12.4612C49.625 11.9613 49.5772 11.5184 49.5127 11.2995L49.1451 11.4079ZM49.2819 17.0265L49.0299 16.7377C49.07 16.7027 49.097 16.6999 49.0619 16.7114C49.0373 16.7194 48.9962 16.7299 48.9354 16.7412C48.8144 16.7638 48.6465 16.784 48.4401 16.8007C48.0293 16.8338 47.4971 16.8503 46.9487 16.8496C46.4008 16.849 45.8442 16.8314 45.3851 16.7977C45.1553 16.7808 44.954 16.7601 44.7924 16.7364C44.6227 16.7114 44.5231 16.6865 44.4806 16.6698L44.3403 17.0265L44.1999 17.3831C44.3292 17.434 44.5026 17.4685 44.6808 17.4947C44.8671 17.5221 45.0883 17.5444 45.3289 17.5621C45.8106 17.5975 46.3863 17.6155 46.9478 17.6162C47.5089 17.6168 48.0633 17.6001 48.5017 17.5647C48.72 17.5471 48.9175 17.5243 49.0758 17.4948C49.1545 17.4801 49.2316 17.4623 49.3003 17.4399C49.3584 17.4209 49.4537 17.3853 49.534 17.3152L49.2819 17.0265ZM44.3403 17.0265L44.7044 16.9069C44.6844 16.846 44.6597 16.7161 44.6373 16.5085C44.6158 16.3092 44.5987 16.0621 44.5859 15.7821C44.5603 15.2227 44.5523 14.5469 44.5574 13.8886C44.5625 13.2304 44.5805 12.5945 44.6064 12.1155C44.6194 11.8752 44.6341 11.6793 44.6495 11.5414C44.6573 11.4715 44.6644 11.424 44.6701 11.3958C44.6731 11.3812 44.674 11.3798 44.6718 11.3866C44.6706 11.3902 44.6667 11.4015 44.6592 11.417C44.653 11.4296 44.6356 11.4634 44.6016 11.4997L44.3218 11.2377L44.0421 10.9758C43.9758 11.0466 43.9503 11.127 43.9441 11.1456C43.9327 11.1801 43.9246 11.2149 43.9187 11.2445C43.9065 11.3048 43.8964 11.3779 43.8877 11.4564C43.8699 11.6155 43.8543 11.8282 43.841 12.0742C43.8143 12.5678 43.796 13.2159 43.7909 13.8827C43.7858 14.5493 43.7938 15.2396 43.8202 15.8172C43.8334 16.1057 43.8514 16.3699 43.8752 16.5907C43.8981 16.8033 43.929 17.0026 43.9761 17.146L44.3403 17.0265ZM33.7149 10.6539L33.3668 10.4934C33.282 10.6775 33.1705 10.8299 33.0441 10.9443L33.3014 11.2284L33.5587 11.5125C33.7688 11.3222 33.9392 11.0829 34.063 10.8143L33.7149 10.6539ZM33.3014 11.2284L33.0441 10.9443C32.9181 11.0585 32.7811 11.1317 32.6439 11.1667L32.7387 11.538L32.8334 11.9094C33.1017 11.8409 33.3482 11.7031 33.5587 11.5125L33.3014 11.2284ZM32.7387 11.538L32.857 11.1735C32.7814 11.1489 32.6999 11.1464 32.6221 11.1668L32.7197 11.5375L32.8172 11.9081C32.752 11.9253 32.6836 11.9231 32.6203 11.9026L32.7387 11.538ZM32.7197 11.5375L32.6221 11.1668C32.5452 11.1871 32.4816 11.2271 32.4336 11.2744L32.7024 11.5476L32.9713 11.8207C32.9333 11.8581 32.8816 11.8912 32.8172 11.9081L32.7197 11.5375ZM32.7024 11.5476L32.4336 11.2744C32.3858 11.3214 32.3533 11.3753 32.3329 11.4282L32.6904 11.5663L33.048 11.7043C33.0332 11.7426 33.0089 11.7837 32.9713 11.8207L32.7024 11.5476ZM32.6904 11.5663L32.3329 11.4282C32.3124 11.4812 32.3029 11.5362 32.3029 11.5897H32.6861H33.0694C33.0694 11.627 33.0628 11.666 33.048 11.7043L32.6904 11.5663ZM32.6861 11.5897H32.3029C32.3029 11.6433 32.3124 11.6983 32.3329 11.7513L32.6904 11.6132L33.048 11.4751C33.0628 11.5135 33.0694 11.5524 33.0694 11.5897H32.6861ZM32.6904 11.6132L32.3329 11.7513C32.3533 11.8041 32.3858 11.8581 32.4336 11.9051L32.7024 11.6319L32.9713 11.3588C33.0089 11.3958 33.0332 11.4369 33.048 11.4751L32.6904 11.6132ZM32.7024 11.6319L32.4336 11.9051C32.4816 11.9524 32.5452 11.9924 32.6221 12.0126L32.7197 11.642L32.8172 11.2714C32.8816 11.2883 32.9333 11.3214 32.9713 11.3588L32.7024 11.6319ZM32.7197 11.642L32.6221 12.0126C32.6999 12.0331 32.7814 12.0306 32.857 12.006L32.7387 11.6415L32.6203 11.2769C32.6836 11.2564 32.752 11.2542 32.8172 11.2714L32.7197 11.642ZM32.7387 11.6415L32.6181 12.0053C33.0287 12.1413 33.4351 11.9601 33.7016 11.7203C33.9753 11.474 34.1876 11.0955 34.1876 10.6739H33.8044H33.4211C33.4211 10.8395 33.3322 11.0215 33.1888 11.1505C33.0382 11.2861 32.9118 11.2951 32.8592 11.2776L32.7387 11.6415ZM33.8044 10.6739L34.184 10.7267C34.1967 10.6352 34.1819 10.5354 34.1324 10.4456L33.7969 10.6308L33.4613 10.8161C33.4256 10.7513 33.4162 10.6825 33.4248 10.6211L33.8044 10.6739ZM33.7969 10.6308L34.1324 10.4456C34.0826 10.3555 33.9892 10.264 33.8512 10.2331L33.7675 10.6072L33.6838 10.9812C33.5696 10.9556 33.4972 10.8812 33.4613 10.8161L33.7969 10.6308ZM33.7675 10.6072L33.8512 10.2331C33.7076 10.201 33.572 10.2477 33.4792 10.3301L33.7336 10.6167L33.988 10.9033C33.915 10.9682 33.8037 11.008 33.6838 10.9812L33.7675 10.6072ZM33.7336 10.6167L33.4792 10.3301C33.3909 10.4084 33.348 10.51 33.3353 10.601L33.7149 10.6539L34.0945 10.7067C34.086 10.7676 34.0565 10.8425 33.988 10.9033L33.7336 10.6167ZM31.5651 7.66776H31.1818V8.0014H31.5651H31.9484V7.66776H31.5651ZM31.5651 8.0014H31.1818C31.1818 8.12169 31.2188 8.25029 31.3027 8.3567L31.6036 8.11936L31.9046 7.88202C31.9391 7.92586 31.9484 7.9696 31.9484 8.0014H31.5651ZM31.6036 8.11936L31.3027 8.3567C31.3884 8.46535 31.5268 8.55149 31.6967 8.55149V8.16822V7.78496C31.7968 7.78496 31.8682 7.83594 31.9046 7.88202L31.6036 8.11936ZM31.6967 8.16822L31.7061 8.55137C31.8718 8.54729 32.0059 8.46219 32.0899 8.35576L31.789 8.11842L31.488 7.88108C31.5229 7.83685 31.5909 7.78744 31.6872 7.78507L31.6967 8.16822ZM31.789 8.11842L32.0899 8.35576C32.1723 8.25131 32.2096 8.12555 32.2115 8.00727L31.8282 8.0014L31.445 7.99553C31.4455 7.96521 31.4547 7.92332 31.488 7.88108L31.789 8.11842ZM31.8282 8.0014H32.2115V7.66776H31.8282H31.445V8.0014H31.8282ZM31.8282 7.66776H32.2115C32.2115 7.54747 32.1746 7.41887 32.0906 7.31246L31.7897 7.5498L31.4888 7.78713C31.4542 7.7433 31.445 7.69955 31.445 7.66776H31.8282ZM31.7897 7.5498L32.0906 7.31246C32.0049 7.20381 31.8666 7.11767 31.6967 7.11767V7.50093V7.8842C31.5966 7.8842 31.5251 7.83321 31.4888 7.78713L31.7897 7.5498ZM31.6967 7.50093V7.11767C31.5268 7.11767 31.3884 7.20381 31.3027 7.31246L31.6036 7.5498L31.9046 7.78713C31.8682 7.83321 31.7968 7.8842 31.6967 7.8842V7.50093ZM31.6036 7.5498L31.3027 7.31246C31.2188 7.41887 31.1818 7.54747 31.1818 7.66776H31.5651H31.9484C31.9484 7.69955 31.9391 7.7433 31.9046 7.78713L31.6036 7.5498ZM34.1885 7.98472H33.8053C33.8053 8.10502 33.8422 8.23362 33.9261 8.34002L34.2271 8.10268L34.528 7.86534C34.5626 7.90917 34.5718 7.95291 34.5718 7.98472H34.1885ZM34.2271 8.10268L33.9261 8.34002C34.0118 8.44866 34.1502 8.53481 34.3201 8.53481V8.15154V7.76828C34.4202 7.76828 34.4917 7.81927 34.528 7.86534L34.2271 8.10268ZM34.3201 8.15154V8.53481C34.49 8.53481 34.6284 8.44867 34.7141 8.34002L34.4131 8.10268L34.1122 7.86534C34.1486 7.81926 34.22 7.76828 34.3201 7.76828V8.15154ZM34.4131 8.10268L34.7141 8.34002C34.798 8.2336 34.8349 8.10499 34.8349 7.98472H34.4517H34.0684C34.0684 7.95293 34.0776 7.90919 34.1122 7.86534L34.4131 8.10268ZM34.4517 7.98472H34.8349V7.571H34.4517H34.0684V7.98472H34.4517ZM34.4517 7.571H34.8349C34.8349 7.45072 34.798 7.32212 34.7141 7.2157L34.4131 7.45304L34.1122 7.69038C34.0776 7.64653 34.0684 7.60279 34.0684 7.571H34.4517ZM34.4131 7.45304L34.7141 7.2157C34.6284 7.10705 34.49 7.02091 34.3201 7.02091V7.40418V7.78744C34.22 7.78744 34.1486 7.73646 34.1122 7.69038L34.4131 7.45304ZM34.3201 7.40418V7.02091C34.1502 7.02091 34.0118 7.10706 33.9261 7.2157L34.2271 7.45304L34.528 7.69038C34.4917 7.73644 34.4202 7.78744 34.3201 7.78744V7.40418ZM34.2271 7.45304L33.9261 7.2157C33.8422 7.3221 33.8053 7.4507 33.8053 7.571H34.1885H34.5718C34.5718 7.60281 34.5626 7.64655 34.528 7.69038L34.2271 7.45304ZM34.1885 7.571L33.8063 7.54296C33.7946 7.7028 33.8053 7.92083 33.8053 7.98472H34.1885H34.5718C34.5718 7.84175 34.5615 7.72613 34.5708 7.59904L34.1885 7.571Z" fill="var(--stroke-0, #2097F7)" mask="url(#path-1-inside-1_0_988)"/>
</g>
<g id="Vector_2">
<mask id="path-3-inside-2_0_988" fill="white">
<path fill-rule="evenodd" clip-rule="evenodd" d="M49.4457 32.1209C49.4285 32.0837 49.404 32.0527 49.3747 32.0309C49.1484 31.8907 47.9169 31.9608 47.6617 31.9741C47.7064 23.2227 44.0699 17.7642 38.7914 16.1994C37.8231 15.9125 37.8205 15.8925 37.7941 15.9125L37.6152 15.2886C38.1204 15.2686 38.5335 14.7748 38.9967 14.8749C39.3466 14.9483 39.5229 15.342 39.8676 15.5088C40.4518 15.7891 41.4912 15.3587 41.8096 14.6547C41.9727 14.2877 41.828 13.9073 41.9306 13.6537C42.1148 13.4502 42.6384 13.1233 42.7884 12.8864C43.0963 12.3992 43.1094 11.3082 42.97 10.7177C42.7182 10.0494 42.3753 9.44285 41.9569 8.92601C41.5018 8.37 41.0984 7.74985 40.7544 7.07762C40.3308 6.00663 40.315 4.52525 39.965 3.40754C39.5793 2.39835 38.9821 1.54308 38.2388 0.935238C37.5129 0.285055 36.6376 -0.0422475 35.7496 0.00437168C34.9207 0.0711005 34.5971 0.518183 34.2103 0.671659C33.8234 0.825136 33.7419 0.671659 33.113 1.02199C32.8633 1.2149 32.6409 1.45964 32.4552 1.74599C32.3762 1.85276 32.3815 1.85943 32.2473 1.8661C32.1028 1.85232 31.9576 1.85232 31.8131 1.8661C31.5667 1.93544 31.3311 2.05607 31.1158 2.2231C29.6501 3.33747 30.0448 5.57956 29.4923 7.22776C29.116 8.34881 28.0687 9.42648 27.9792 10.5976C27.9475 11.136 28.0389 11.6747 28.2424 12.149C28.8818 13.5737 29.8001 12.456 30.2764 13.3268C30.4264 13.6004 30.5395 13.8673 30.8185 13.9207C31.1737 13.9807 31.6579 13.6237 31.9473 13.3601C32.0081 13.45 32.077 13.5307 32.1525 13.6004C32.4091 13.8196 32.6845 14.001 32.9735 14.1409L32.3052 15.3253C31.0526 15.1451 29.1291 15.6589 27.8898 16.1427C27.845 15.7424 27.4556 12.4359 27.1609 12.2758C26.753 12.0489 22.4718 12.6795 22.2113 13.0365C22.0193 13.2967 22.364 18.2514 22.7376 18.992C22.7929 19.1055 22.9823 19.1088 23.0876 19.1122C22.4718 19.646 21.8772 20.1865 21.664 20.3833C21.4982 19.656 20.6273 15.8091 20.3062 15.1785C20.2142 14.995 20.1299 14.9983 19.7063 15.1785C19.4648 13.6508 19.1592 12.1406 18.7906 10.6543C18.9288 10.3662 19.0392 10.0582 19.1195 9.73676C19.2176 9.22767 19.2319 8.69841 19.1616 8.18198C19.4826 8.31878 21.4009 8.98607 21.7114 8.79255C21.7948 8.7171 21.8566 8.6094 21.8877 8.4856C22.2271 7.54472 22.8087 4.33173 22.8534 3.31412C22.8718 3.18382 22.8542 3.04944 22.8034 2.93377C22.4955 2.52672 18.3538 1.01531 18.0038 1.2155C17.7907 1.33895 17.2144 3.73785 17.1539 4.02144C16.6513 6.1601 16.9066 5.68966 16.6276 5.81311C16.3066 5.95658 16.0303 6.81404 15.9172 7.21108C15.804 7.60812 15.6856 8.14195 15.8198 8.45557C15.7653 8.58313 15.7434 8.72898 15.7571 8.87301C15.7707 9.01704 15.8193 9.15213 15.8961 9.25965C15.8124 9.37793 15.7579 9.52466 15.7392 9.68177C15.7205 9.83888 15.7385 9.99949 15.7909 10.1438C15.8672 10.4474 16.3435 10.6476 16.5803 10.7344C16.3933 11.3732 16.2377 12.0262 16.1145 12.6895C15.9046 13.7188 15.7369 14.7612 15.6119 15.8124C15.5341 16.3233 15.5085 16.8447 15.5356 17.3639L15.1041 17.6108C15.0875 17.6204 15.0734 17.6359 15.0636 17.6555C15.0538 17.675 15.0487 17.6977 15.0488 17.7209C15.0488 17.7209 15.1304 21.7646 16.1803 25.1244C17.4486 29.1915 19.5353 30.5528 22.7113 29.0314C22.7399 29.3507 22.8019 29.6637 22.8955 29.9623C22.9429 30.069 23.1034 30.089 23.2112 30.1024C24.1454 30.1412 25.0805 30.1044 26.011 29.9923L26.8004 36.3315C26.5873 37.1123 24.1691 46.0072 24.2033 46.8346C24.2033 46.9214 24.2296 46.9881 24.3427 47.0548C25.04 47.4652 31.6473 48.5596 31.8973 47.6454C31.9605 47.4218 32.1131 45.9972 32.142 45.7269L35.8601 45.2064L39.4045 45.5034C39.4427 45.9534 39.506 46.3993 39.594 46.838C39.6256 46.9381 39.6624 46.9914 39.7545 46.9814C40.1045 46.9381 41.9701 46.511 42.4858 46.3876C44.4646 45.9138 44.4199 45.8737 44.362 45.6268C44.2225 45.043 42.9279 40.4887 42.4227 38.3634C43.1617 38.4634 43.9071 38.4634 44.6462 38.3634C44.6541 38.3995 44.6692 38.4325 44.6899 38.4594C44.7106 38.4862 44.7363 38.506 44.7646 38.5169C45.2461 38.7404 49.5483 38.4301 49.9009 37.9831C50.2193 37.6261 49.6852 32.6281 49.4457 32.1209ZM18.0091 1.35897C18.038 1.30225 18.0275 1.27889 18.2591 1.32226C19.2248 1.49576 22.3824 2.78696 22.656 3.09058C22.7087 3.85462 21.9272 8.04853 21.6193 8.55567C21.3956 8.65242 19.9115 8.17198 19.6826 8.09524C17.9407 7.51803 18.0091 7.42795 17.6118 7.31117C17.4065 7.22109 17.3855 7.21775 17.3907 7.18105C17.3914 7.17279 17.3944 7.16514 17.3993 7.15959C17.4042 7.15404 17.4105 7.15098 17.417 7.15102C17.6539 7.15102 18.288 7.12767 18.4433 6.89412C18.4775 6.84663 18.5031 6.79012 18.5182 6.72864C18.5332 6.66717 18.5374 6.60223 18.5303 6.53848C18.5233 6.47473 18.5052 6.41374 18.4774 6.35987C18.4496 6.30599 18.4128 6.26056 18.3696 6.22683C18.0314 6.05504 17.6779 5.93627 17.317 5.87317C17.2092 5.84648 17.0776 5.79977 16.946 5.77975C17.1276 4.73878 17.7275 1.91281 18.0091 1.35897ZM15.7488 17.2538V16.7366C15.7724 16.1027 16.0119 14.4378 16.0829 13.9807C16.1987 13.24 16.225 13.0732 16.5619 11.465C16.5619 11.4217 16.7645 10.7043 16.7645 10.7043C16.7681 10.6919 16.7696 10.6786 16.7689 10.6653C16.7681 10.6521 16.7652 10.6392 16.7602 10.6275C16.7552 10.6158 16.7483 10.6056 16.74 10.5976C16.7316 10.5895 16.722 10.5839 16.7118 10.5809C16.6829 10.5809 15.9987 10.3674 15.9224 10.0904C15.8461 9.8135 15.8303 9.47986 16.0224 9.33306C16.0295 9.32656 16.0352 9.31803 16.0392 9.30817C16.0432 9.29831 16.0452 9.2874 16.0452 9.27634C16.0452 9.26527 16.0432 9.25436 16.0392 9.2445C16.0352 9.23464 16.0295 9.22611 16.0224 9.21962C15.9383 9.13208 15.8818 9.00925 15.8629 8.87337C15.8441 8.7375 15.8643 8.59757 15.9198 8.47893C15.9803 8.32211 15.6567 8.39885 16.0408 7.27447C16.1382 6.99755 16.4671 6.14676 16.6908 6.05334C16.8888 6.02883 17.0887 6.05725 17.2776 6.13675C17.6074 6.20261 17.9316 6.30761 18.2459 6.45037C18.2659 6.46399 18.2831 6.48328 18.2963 6.50674C18.3094 6.5302 18.3181 6.55719 18.3217 6.58561C18.3253 6.61402 18.3236 6.6431 18.3168 6.67057C18.3101 6.69804 18.2984 6.72317 18.2827 6.74398C18.1672 6.82705 18.0405 6.88246 17.9091 6.90746C17.0802 7.11432 17.2276 6.88411 17.1197 7.24111C16.803 7.21756 16.4865 7.2896 16.1961 7.4513C16.0829 7.48133 16.1303 7.57475 16.2119 7.55807C16.5644 7.41158 16.9415 7.38738 17.3039 7.488C17.5142 7.53673 17.7197 7.61391 17.917 7.71822C18.0959 7.81037 18.2547 7.9557 18.3801 8.14195C18.4025 8.21253 18.4108 8.28901 18.4044 8.36465C18.398 8.44029 18.377 8.51276 18.3433 8.57568C18.2801 8.69913 17.9749 8.61572 17.8591 8.57568C17.7012 8.51563 17.5354 8.46558 17.3802 8.40219C17.1618 8.31544 17.1855 8.29209 17.1171 8.29876C16.8757 8.34211 16.6397 8.42395 16.4145 8.54232C16.4081 8.54324 16.402 8.546 16.3966 8.55038C16.3912 8.55476 16.3867 8.56064 16.3833 8.56758C16.38 8.57453 16.378 8.58234 16.3774 8.59044C16.3768 8.59853 16.3776 8.60669 16.3799 8.61429C16.3822 8.62189 16.3858 8.62873 16.3905 8.63429C16.3952 8.63985 16.4008 8.64399 16.4069 8.64638C16.413 8.64877 16.4195 8.64935 16.4258 8.64809C16.4322 8.64682 16.4382 8.64374 16.4434 8.63908C16.645 8.56703 16.8509 8.5168 17.0592 8.48894C17.1776 8.48894 17.1013 8.48894 17.3986 8.63908C17.5328 8.70247 17.6618 8.75252 17.8038 8.81257C17.8953 8.85229 17.9896 8.88023 18.0854 8.89598C18.2538 9.09617 18.3748 9.56327 18.1486 9.64668C18.0596 9.66612 17.9682 9.65221 17.8854 9.60664C17.2828 9.35641 17.6907 9.17624 16.3829 9.51656C16.3722 9.51824 16.3624 9.52505 16.3556 9.5356C16.3487 9.54616 16.3453 9.55964 16.3461 9.57328C16.3461 9.66003 16.3908 9.60664 17.1144 9.57328C17.2019 9.56213 17.2901 9.56213 17.3776 9.57328C17.6039 9.72008 17.9407 9.97032 18.2012 9.87356C18.5196 9.74344 18.509 9.29636 18.3038 8.96938C18.2301 8.85595 18.2222 8.88931 18.2854 8.87596C18.3316 8.86961 18.3762 8.85121 18.4165 8.82193C18.4568 8.79265 18.4919 8.75311 18.5196 8.70581C18.5819 8.59681 18.6167 8.46646 18.6196 8.33189C18.6224 8.19731 18.593 8.06481 18.5354 7.95177L18.9774 8.11859C19.0649 8.63536 19.0577 9.1707 18.9564 9.68338C18.9282 9.80854 18.8912 9.93025 18.8459 10.0471C18.6538 10.5609 18.5827 10.5775 18.6064 10.6743C18.9721 12.1818 19.2733 13.7133 19.509 15.2619C18.5169 15.7023 16.6987 16.7166 15.7488 17.2538ZM36.5706 40.4387C37.6968 40.4987 40.1176 40.6088 41.228 40.5655C41.1517 40.9859 41.1044 41.2528 41.0912 41.3128C40.5623 41.3128 37.1442 40.5621 36.5706 40.4387ZM41.6543 40.2685C40.9491 40.4787 31.7947 40.025 31.0105 39.6012C31.0921 38.8539 31.8605 34.6533 32.0157 33.7958C32.7064 34.0639 33.4248 34.1989 34.1471 34.1962C34.4102 34.3697 34.8444 34.67 35.1049 34.8268C35.076 35.1104 35.0049 35.781 35.1628 35.9812C35.3207 36.1814 38.9546 37.873 42.1411 38.3467C42.0126 39.0003 41.8499 39.6423 41.6543 40.2685ZM31.9315 32.2377C31.8104 32.1911 31.6983 32.1126 31.6026 32.0075C31.5342 31.9141 31.5579 31.6305 31.6026 31.497C31.6271 31.4322 31.6705 31.3819 31.7236 31.3569C31.7879 31.3215 31.8564 31.3 31.9263 31.2935C31.9471 31.2929 31.9674 31.2842 31.9843 31.2686C32.0012 31.253 32.0139 31.2312 32.0208 31.2062C32.0277 31.1811 32.0283 31.154 32.0227 31.1285C32.0171 31.103 32.0055 31.0802 31.9894 31.0633C31.8355 30.8989 31.7283 30.675 31.6842 30.426C31.6842 30.2425 31.7394 30.0523 31.971 29.8855C32.2341 29.9122 33.0235 30.7396 33.3893 30.2625C33.755 29.7854 33.3235 28.6677 33.7313 28.5743C34.1392 28.4809 34.3445 30.0357 34.4155 30.2058C34.6523 30.7897 35.2891 31.2068 35.6522 31.6872C35.4329 32.6817 35.2573 33.6909 35.126 34.71C34.5997 34.353 34.2103 34.0427 34.1708 34.0427C33.6208 34.0194 32.1447 33.8259 31.7605 33.3287C31.6922 33.2618 31.6454 33.1656 31.6289 33.0582C31.6125 32.9507 31.6274 32.8393 31.671 32.7448C31.699 32.6821 31.7368 32.6273 31.782 32.5837C31.8272 32.5401 31.879 32.5087 31.9341 32.4913C31.9567 32.4843 31.9767 32.4678 31.9909 32.4446C32.0051 32.4213 32.0127 32.3926 32.0124 32.3632C32.0121 32.3337 32.0039 32.3053 31.9892 32.2825C31.9745 32.2597 31.9542 32.2439 31.9315 32.2377ZM34.8628 21.1274C34.374 21.0681 33.8829 21.0436 33.3919 21.054C33.3288 21.054 33.2761 21.094 33.2577 21.1707C33.213 21.3843 32.4683 28.3241 32.4315 28.6644C32.2736 25.3279 32.1104 21.8147 31.9894 19.2389C32.9051 21.0907 32.984 21.2742 33.1288 21.1441C33.6167 20.6353 34.0782 20.0869 34.5102 19.5025C34.5892 19.8729 34.7155 20.4768 34.8628 21.1274ZM37.2705 19.9563C37.0916 19.6226 36.9153 19.289 36.8495 19.1655L37.6994 16.453L37.2705 19.9563ZM37.8836 16.126C38.8789 16.3863 39.8492 16.7811 40.7781 17.3038C40.7386 17.4606 40.2308 19.4291 39.6229 21.778C39.344 21.7346 37.7468 21.4877 37.2547 21.421L37.8836 16.126ZM36.8074 19.5359L37.2231 20.33L37.0916 21.3976L36.6837 21.3309C36.7442 20.6069 36.7863 19.9196 36.8074 19.5359ZM44.0725 23.0558C44.0692 23.4902 44.0358 23.9234 43.9725 24.3504C43.07 24.0568 35.197 21.6011 34.3971 22.1783C33.9971 22.472 32.6814 29.3183 32.5551 29.9356L32.4604 29.8755C32.8762 26.1687 33.4287 21.3075 33.4287 21.2942C34.326 21.1641 42.97 22.4052 44.0725 23.0558ZM39.4808 30.0323C38.8914 29.9823 36.5521 29.8355 36.0601 30.2492C35.9838 30.3159 35.9522 30.3293 35.6812 31.5637C35.3312 31.0933 34.7444 30.6496 34.5471 30.1257C34.4576 29.8955 34.3129 28.214 33.6998 28.3441C32.8735 28.5209 33.9287 30.6796 32.7078 30.0123C32.7867 29.5886 34.0813 22.522 34.4418 22.2618C35.2049 21.7112 43.5278 24.3971 44.5804 24.7741C44.5198 25.5882 43.7462 29.9322 43.6041 30.7263C42.2414 30.3943 40.8647 30.1626 39.4808 30.0323ZM35.4286 6.69393C35.5759 6.82072 35.5707 7.12433 35.5443 7.34454C35.3601 8.83593 34.1813 9.7401 33.363 8.31211C33.1761 7.97846 33.0314 6.91747 33.1577 6.68392C33.2419 6.54713 33.9208 6.54046 34.0576 6.54046C34.3102 6.54379 35.297 6.59384 35.418 6.69393H35.4286ZM32.2946 6.93416C32.2946 7.56141 32.1289 8.60238 31.6894 8.90266C30.9816 9.36976 30.2632 8.62907 30.2448 7.66484C30.2178 7.31282 30.2311 6.95771 30.2843 6.61052L30.3106 6.59384C30.2685 6.50042 32.1183 6.47039 32.2841 6.68059C32.2897 6.76496 32.2897 6.84978 32.2841 6.93416H32.2946ZM33.2103 14.1976C33.6656 14.3644 34.3997 14.2843 34.7523 13.8272C34.7597 13.8173 34.7638 13.8042 34.7638 13.7905C34.7638 13.7769 34.7597 13.7638 34.7523 13.7538C34.6918 13.6604 34.7523 13.8406 34.0682 13.9707C33.384 14.1008 32.9709 13.9707 32.2788 13.4002C31.9607 13.0296 31.7225 12.5622 31.5868 12.0422C31.3035 11.1622 31.1261 10.2332 31.0605 9.28635C31.3082 9.33776 31.5623 9.28504 31.7842 9.13621C31.9995 8.97655 32.1663 8.7298 32.2578 8.43555C32.169 8.78813 32.0961 9.14682 32.0394 9.50989C32.0271 9.55637 32.0252 9.60629 32.0341 9.65403C32.0429 9.70178 32.0621 9.74545 32.0894 9.78014C32.2713 9.92114 32.4856 9.97994 32.6972 9.94696C32.7035 9.94898 32.7099 9.94917 32.7162 9.94751C32.7225 9.94586 32.7284 9.94241 32.7335 9.93742C32.7386 9.93243 32.7427 9.92603 32.7455 9.91872C32.7483 9.91141 32.7498 9.90338 32.7498 9.89525C32.7498 9.88711 32.7483 9.87908 32.7455 9.87177C32.7427 9.86446 32.7386 9.85807 32.7335 9.85308C32.7284 9.84809 32.7225 9.84463 32.7162 9.84298C32.7099 9.84132 32.7035 9.84151 32.6972 9.84353C32.5411 9.8215 32.3905 9.75782 32.2552 9.65669C32.1946 9.60331 32.221 9.63667 32.2394 9.52657C32.2578 9.41647 32.5999 7.82499 32.6183 7.72489C32.6999 7.72489 33.0104 7.67151 33.0104 7.57475C33.0104 7.478 32.763 7.4513 32.6709 7.45798C32.6709 7.4146 32.6867 7.3779 32.6946 7.34454C32.6988 7.33127 32.6986 7.31643 32.6942 7.30329C32.6898 7.29015 32.6814 7.27978 32.6709 7.27447C32.6605 7.26916 32.6487 7.26934 32.6384 7.27498C32.628 7.28061 32.6198 7.29123 32.6157 7.3045C32.5236 7.53138 32.5867 7.44797 32.463 7.488C32.5105 7.17951 32.5105 6.86229 32.463 6.5538C32.3131 6.26019 31.4105 6.32692 31.1158 6.35028C31.2658 5.23257 31.8499 4.68206 32.2078 3.78789C32.3081 3.58035 32.4417 3.40188 32.5999 3.26407C32.6788 3.23738 32.8341 3.48761 32.9288 3.54767C33.0235 3.60773 33.113 3.93803 33.1919 4.05147C33.4401 4.40982 33.7261 4.72306 34.0418 4.98234C34.305 5.21923 34.7155 5.25593 34.8944 5.55954C34.97 5.81772 35.0066 6.09162 35.0023 6.36696C34.6628 6.34027 33.2472 6.31358 33.0788 6.62053C32.9262 6.86743 32.9919 7.99514 33.2156 8.42888C33.7787 9.50989 34.6444 9.57662 35.3207 8.60238C35.3934 8.48737 35.4552 8.36196 35.5049 8.22869C36.0101 9.22963 36.4074 9.82685 36.4258 11.0013C36.4469 12.4893 36.1153 14.955 37.3863 15.2652L37.6047 16.0293C36.5521 19.3857 36.6074 19.1756 36.6074 19.2089C36.6074 19.2423 36.5574 20.2098 36.4653 21.3175C35.9601 21.2508 35.4891 21.1941 35.0707 21.1507C35.0391 21.0139 34.6471 19.2456 34.655 19.2089C34.6944 19.0421 34.4971 18.7151 34.3445 18.4249C33.7721 17.3742 33.1472 16.3712 32.4736 15.4221L33.2103 14.1976ZM32.2841 15.5121C32.3288 15.5989 34.2234 18.2413 34.455 19.2123C34.0293 19.8106 33.5693 20.3682 33.0788 20.8805C32.9025 20.5869 32.4262 19.6193 31.9736 18.7151C31.892 16.9702 31.8368 15.7557 31.8236 15.5021C31.971 15.4888 32.1368 15.4988 32.2736 15.5121H32.2841ZM22.8876 18.8486C22.5876 18.1813 22.1719 13.8439 22.2692 13.1766C22.2692 13.1166 22.2692 13.0966 22.4903 13.0198C23.4323 12.7095 26.7372 12.3525 27.0846 12.5027C27.3477 13.1533 27.924 17.4006 27.7872 18.0545C27.5188 18.3281 23.6612 19.0187 22.8771 18.8486H22.8876ZM23.0718 29.8255C22.7692 29.0714 22.5455 24.2369 22.6955 24.0534C22.9192 23.7798 27.1188 23.5463 27.5161 23.7431C27.7793 24.4438 28.1529 28.7478 27.9977 29.3317C27.6398 29.672 23.6928 30.0056 23.0613 29.8255H23.0718ZM29.0791 24.2336C29.2686 24.1702 30.5895 23.7431 30.7474 23.623C30.8606 23.5396 30.9895 23.8099 28.7765 16.1094C29.0397 15.8024 31.3395 15.4087 31.7026 15.5522C31.7026 15.7357 32.0473 23.5229 32.3183 29.7721C32.1894 29.692 32.0026 29.5686 31.8841 29.652C31.3895 29.9856 31.3579 30.5395 31.7236 31.08C31.6553 31.1012 31.5919 31.1424 31.5384 31.2004C31.485 31.2583 31.443 31.3314 31.4158 31.4136C31.3736 31.5388 31.3557 31.675 31.3634 31.8109C31.3712 31.9467 31.4045 32.0781 31.4605 32.1943C31.5219 32.2688 31.592 32.3307 31.6684 32.3778C31.5898 32.4446 31.5277 32.5384 31.4894 32.6481C31.4549 32.7426 31.4344 32.8444 31.4289 32.9484L29.0791 24.2336ZM35.6285 44.9963L32.192 45.48C32.2078 45.3199 32.5946 41.453 32.7183 40.1417C33.434 40.2218 34.2971 40.2919 35.2207 40.3553C35.3733 42.7608 35.6417 44.4224 35.618 44.9963H35.6285ZM35.8101 44.9696C35.8469 44.2089 35.3523 40.3953 35.3496 40.3619L35.6128 40.3786C36.5074 40.5888 38.8125 41.106 39.0624 41.1593C39.1467 42.2337 39.3572 44.736 39.4072 45.2498C35.4838 44.9295 35.9075 44.9562 35.797 44.9696H35.8101ZM49.772 37.8296C49.5089 38.0965 45.6434 38.5436 44.8461 38.3234C44.5383 37.566 44.3199 32.7348 44.4699 32.5513C44.6961 32.2744 48.8958 32.0475 49.2878 32.241C49.5352 32.9384 49.9167 37.2591 49.7615 37.8296H49.772Z"/>
</mask>
<path fill-rule="evenodd" clip-rule="evenodd" d="M49.4457 32.1209C49.4285 32.0837 49.404 32.0527 49.3747 32.0309C49.1484 31.8907 47.9169 31.9608 47.6617 31.9741C47.7064 23.2227 44.0699 17.7642 38.7914 16.1994C37.8231 15.9125 37.8205 15.8925 37.7941 15.9125L37.6152 15.2886C38.1204 15.2686 38.5335 14.7748 38.9967 14.8749C39.3466 14.9483 39.5229 15.342 39.8676 15.5088C40.4518 15.7891 41.4912 15.3587 41.8096 14.6547C41.9727 14.2877 41.828 13.9073 41.9306 13.6537C42.1148 13.4502 42.6384 13.1233 42.7884 12.8864C43.0963 12.3992 43.1094 11.3082 42.97 10.7177C42.7182 10.0494 42.3753 9.44285 41.9569 8.92601C41.5018 8.37 41.0984 7.74985 40.7544 7.07762C40.3308 6.00663 40.315 4.52525 39.965 3.40754C39.5793 2.39835 38.9821 1.54308 38.2388 0.935238C37.5129 0.285055 36.6376 -0.0422475 35.7496 0.00437168C34.9207 0.0711005 34.5971 0.518183 34.2103 0.671659C33.8234 0.825136 33.7419 0.671659 33.113 1.02199C32.8633 1.2149 32.6409 1.45964 32.4552 1.74599C32.3762 1.85276 32.3815 1.85943 32.2473 1.8661C32.1028 1.85232 31.9576 1.85232 31.8131 1.8661C31.5667 1.93544 31.3311 2.05607 31.1158 2.2231C29.6501 3.33747 30.0448 5.57956 29.4923 7.22776C29.116 8.34881 28.0687 9.42648 27.9792 10.5976C27.9475 11.136 28.0389 11.6747 28.2424 12.149C28.8818 13.5737 29.8001 12.456 30.2764 13.3268C30.4264 13.6004 30.5395 13.8673 30.8185 13.9207C31.1737 13.9807 31.6579 13.6237 31.9473 13.3601C32.0081 13.45 32.077 13.5307 32.1525 13.6004C32.4091 13.8196 32.6845 14.001 32.9735 14.1409L32.3052 15.3253C31.0526 15.1451 29.1291 15.6589 27.8898 16.1427C27.845 15.7424 27.4556 12.4359 27.1609 12.2758C26.753 12.0489 22.4718 12.6795 22.2113 13.0365C22.0193 13.2967 22.364 18.2514 22.7376 18.992C22.7929 19.1055 22.9823 19.1088 23.0876 19.1122C22.4718 19.646 21.8772 20.1865 21.664 20.3833C21.4982 19.656 20.6273 15.8091 20.3062 15.1785C20.2142 14.995 20.1299 14.9983 19.7063 15.1785C19.4648 13.6508 19.1592 12.1406 18.7906 10.6543C18.9288 10.3662 19.0392 10.0582 19.1195 9.73676C19.2176 9.22767 19.2319 8.69841 19.1616 8.18198C19.4826 8.31878 21.4009 8.98607 21.7114 8.79255C21.7948 8.7171 21.8566 8.6094 21.8877 8.4856C22.2271 7.54472 22.8087 4.33173 22.8534 3.31412C22.8718 3.18382 22.8542 3.04944 22.8034 2.93377C22.4955 2.52672 18.3538 1.01531 18.0038 1.2155C17.7907 1.33895 17.2144 3.73785 17.1539 4.02144C16.6513 6.1601 16.9066 5.68966 16.6276 5.81311C16.3066 5.95658 16.0303 6.81404 15.9172 7.21108C15.804 7.60812 15.6856 8.14195 15.8198 8.45557C15.7653 8.58313 15.7434 8.72898 15.7571 8.87301C15.7707 9.01704 15.8193 9.15213 15.8961 9.25965C15.8124 9.37793 15.7579 9.52466 15.7392 9.68177C15.7205 9.83888 15.7385 9.99949 15.7909 10.1438C15.8672 10.4474 16.3435 10.6476 16.5803 10.7344C16.3933 11.3732 16.2377 12.0262 16.1145 12.6895C15.9046 13.7188 15.7369 14.7612 15.6119 15.8124C15.5341 16.3233 15.5085 16.8447 15.5356 17.3639L15.1041 17.6108C15.0875 17.6204 15.0734 17.6359 15.0636 17.6555C15.0538 17.675 15.0487 17.6977 15.0488 17.7209C15.0488 17.7209 15.1304 21.7646 16.1803 25.1244C17.4486 29.1915 19.5353 30.5528 22.7113 29.0314C22.7399 29.3507 22.8019 29.6637 22.8955 29.9623C22.9429 30.069 23.1034 30.089 23.2112 30.1024C24.1454 30.1412 25.0805 30.1044 26.011 29.9923L26.8004 36.3315C26.5873 37.1123 24.1691 46.0072 24.2033 46.8346C24.2033 46.9214 24.2296 46.9881 24.3427 47.0548C25.04 47.4652 31.6473 48.5596 31.8973 47.6454C31.9605 47.4218 32.1131 45.9972 32.142 45.7269L35.8601 45.2064L39.4045 45.5034C39.4427 45.9534 39.506 46.3993 39.594 46.838C39.6256 46.9381 39.6624 46.9914 39.7545 46.9814C40.1045 46.9381 41.9701 46.511 42.4858 46.3876C44.4646 45.9138 44.4199 45.8737 44.362 45.6268C44.2225 45.043 42.9279 40.4887 42.4227 38.3634C43.1617 38.4634 43.9071 38.4634 44.6462 38.3634C44.6541 38.3995 44.6692 38.4325 44.6899 38.4594C44.7106 38.4862 44.7363 38.506 44.7646 38.5169C45.2461 38.7404 49.5483 38.4301 49.9009 37.9831C50.2193 37.6261 49.6852 32.6281 49.4457 32.1209ZM18.0091 1.35897C18.038 1.30225 18.0275 1.27889 18.2591 1.32226C19.2248 1.49576 22.3824 2.78696 22.656 3.09058C22.7087 3.85462 21.9272 8.04853 21.6193 8.55567C21.3956 8.65242 19.9115 8.17198 19.6826 8.09524C17.9407 7.51803 18.0091 7.42795 17.6118 7.31117C17.4065 7.22109 17.3855 7.21775 17.3907 7.18105C17.3914 7.17279 17.3944 7.16514 17.3993 7.15959C17.4042 7.15404 17.4105 7.15098 17.417 7.15102C17.6539 7.15102 18.288 7.12767 18.4433 6.89412C18.4775 6.84663 18.5031 6.79012 18.5182 6.72864C18.5332 6.66717 18.5374 6.60223 18.5303 6.53848C18.5233 6.47473 18.5052 6.41374 18.4774 6.35987C18.4496 6.30599 18.4128 6.26056 18.3696 6.22683C18.0314 6.05504 17.6779 5.93627 17.317 5.87317C17.2092 5.84648 17.0776 5.79977 16.946 5.77975C17.1276 4.73878 17.7275 1.91281 18.0091 1.35897ZM15.7488 17.2538V16.7366C15.7724 16.1027 16.0119 14.4378 16.0829 13.9807C16.1987 13.24 16.225 13.0732 16.5619 11.465C16.5619 11.4217 16.7645 10.7043 16.7645 10.7043C16.7681 10.6919 16.7696 10.6786 16.7689 10.6653C16.7681 10.6521 16.7652 10.6392 16.7602 10.6275C16.7552 10.6158 16.7483 10.6056 16.74 10.5976C16.7316 10.5895 16.722 10.5839 16.7118 10.5809C16.6829 10.5809 15.9987 10.3674 15.9224 10.0904C15.8461 9.8135 15.8303 9.47986 16.0224 9.33306C16.0295 9.32656 16.0352 9.31803 16.0392 9.30817C16.0432 9.29831 16.0452 9.2874 16.0452 9.27634C16.0452 9.26527 16.0432 9.25436 16.0392 9.2445C16.0352 9.23464 16.0295 9.22611 16.0224 9.21962C15.9383 9.13208 15.8818 9.00925 15.8629 8.87337C15.8441 8.7375 15.8643 8.59757 15.9198 8.47893C15.9803 8.32211 15.6567 8.39885 16.0408 7.27447C16.1382 6.99755 16.4671 6.14676 16.6908 6.05334C16.8888 6.02883 17.0887 6.05725 17.2776 6.13675C17.6074 6.20261 17.9316 6.30761 18.2459 6.45037C18.2659 6.46399 18.2831 6.48328 18.2963 6.50674C18.3094 6.5302 18.3181 6.55719 18.3217 6.58561C18.3253 6.61402 18.3236 6.6431 18.3168 6.67057C18.3101 6.69804 18.2984 6.72317 18.2827 6.74398C18.1672 6.82705 18.0405 6.88246 17.9091 6.90746C17.0802 7.11432 17.2276 6.88411 17.1197 7.24111C16.803 7.21756 16.4865 7.2896 16.1961 7.4513C16.0829 7.48133 16.1303 7.57475 16.2119 7.55807C16.5644 7.41158 16.9415 7.38738 17.3039 7.488C17.5142 7.53673 17.7197 7.61391 17.917 7.71822C18.0959 7.81037 18.2547 7.9557 18.3801 8.14195C18.4025 8.21253 18.4108 8.28901 18.4044 8.36465C18.398 8.44029 18.377 8.51276 18.3433 8.57568C18.2801 8.69913 17.9749 8.61572 17.8591 8.57568C17.7012 8.51563 17.5354 8.46558 17.3802 8.40219C17.1618 8.31544 17.1855 8.29209 17.1171 8.29876C16.8757 8.34211 16.6397 8.42395 16.4145 8.54232C16.4081 8.54324 16.402 8.546 16.3966 8.55038C16.3912 8.55476 16.3867 8.56064 16.3833 8.56758C16.38 8.57453 16.378 8.58234 16.3774 8.59044C16.3768 8.59853 16.3776 8.60669 16.3799 8.61429C16.3822 8.62189 16.3858 8.62873 16.3905 8.63429C16.3952 8.63985 16.4008 8.64399 16.4069 8.64638C16.413 8.64877 16.4195 8.64935 16.4258 8.64809C16.4322 8.64682 16.4382 8.64374 16.4434 8.63908C16.645 8.56703 16.8509 8.5168 17.0592 8.48894C17.1776 8.48894 17.1013 8.48894 17.3986 8.63908C17.5328 8.70247 17.6618 8.75252 17.8038 8.81257C17.8953 8.85229 17.9896 8.88023 18.0854 8.89598C18.2538 9.09617 18.3748 9.56327 18.1486 9.64668C18.0596 9.66612 17.9682 9.65221 17.8854 9.60664C17.2828 9.35641 17.6907 9.17624 16.3829 9.51656C16.3722 9.51824 16.3624 9.52505 16.3556 9.5356C16.3487 9.54616 16.3453 9.55964 16.3461 9.57328C16.3461 9.66003 16.3908 9.60664 17.1144 9.57328C17.2019 9.56213 17.2901 9.56213 17.3776 9.57328C17.6039 9.72008 17.9407 9.97032 18.2012 9.87356C18.5196 9.74344 18.509 9.29636 18.3038 8.96938C18.2301 8.85595 18.2222 8.88931 18.2854 8.87596C18.3316 8.86961 18.3762 8.85121 18.4165 8.82193C18.4568 8.79265 18.4919 8.75311 18.5196 8.70581C18.5819 8.59681 18.6167 8.46646 18.6196 8.33189C18.6224 8.19731 18.593 8.06481 18.5354 7.95177L18.9774 8.11859C19.0649 8.63536 19.0577 9.1707 18.9564 9.68338C18.9282 9.80854 18.8912 9.93025 18.8459 10.0471C18.6538 10.5609 18.5827 10.5775 18.6064 10.6743C18.9721 12.1818 19.2733 13.7133 19.509 15.2619C18.5169 15.7023 16.6987 16.7166 15.7488 17.2538ZM36.5706 40.4387C37.6968 40.4987 40.1176 40.6088 41.228 40.5655C41.1517 40.9859 41.1044 41.2528 41.0912 41.3128C40.5623 41.3128 37.1442 40.5621 36.5706 40.4387ZM41.6543 40.2685C40.9491 40.4787 31.7947 40.025 31.0105 39.6012C31.0921 38.8539 31.8605 34.6533 32.0157 33.7958C32.7064 34.0639 33.4248 34.1989 34.1471 34.1962C34.4102 34.3697 34.8444 34.67 35.1049 34.8268C35.076 35.1104 35.0049 35.781 35.1628 35.9812C35.3207 36.1814 38.9546 37.873 42.1411 38.3467C42.0126 39.0003 41.8499 39.6423 41.6543 40.2685ZM31.9315 32.2377C31.8104 32.1911 31.6983 32.1126 31.6026 32.0075C31.5342 31.9141 31.5579 31.6305 31.6026 31.497C31.6271 31.4322 31.6705 31.3819 31.7236 31.3569C31.7879 31.3215 31.8564 31.3 31.9263 31.2935C31.9471 31.2929 31.9674 31.2842 31.9843 31.2686C32.0012 31.253 32.0139 31.2312 32.0208 31.2062C32.0277 31.1811 32.0283 31.154 32.0227 31.1285C32.0171 31.103 32.0055 31.0802 31.9894 31.0633C31.8355 30.8989 31.7283 30.675 31.6842 30.426C31.6842 30.2425 31.7394 30.0523 31.971 29.8855C32.2341 29.9122 33.0235 30.7396 33.3893 30.2625C33.755 29.7854 33.3235 28.6677 33.7313 28.5743C34.1392 28.4809 34.3445 30.0357 34.4155 30.2058C34.6523 30.7897 35.2891 31.2068 35.6522 31.6872C35.4329 32.6817 35.2573 33.6909 35.126 34.71C34.5997 34.353 34.2103 34.0427 34.1708 34.0427C33.6208 34.0194 32.1447 33.8259 31.7605 33.3287C31.6922 33.2618 31.6454 33.1656 31.6289 33.0582C31.6125 32.9507 31.6274 32.8393 31.671 32.7448C31.699 32.6821 31.7368 32.6273 31.782 32.5837C31.8272 32.5401 31.879 32.5087 31.9341 32.4913C31.9567 32.4843 31.9767 32.4678 31.9909 32.4446C32.0051 32.4213 32.0127 32.3926 32.0124 32.3632C32.0121 32.3337 32.0039 32.3053 31.9892 32.2825C31.9745 32.2597 31.9542 32.2439 31.9315 32.2377ZM34.8628 21.1274C34.374 21.0681 33.8829 21.0436 33.3919 21.054C33.3288 21.054 33.2761 21.094 33.2577 21.1707C33.213 21.3843 32.4683 28.3241 32.4315 28.6644C32.2736 25.3279 32.1104 21.8147 31.9894 19.2389C32.9051 21.0907 32.984 21.2742 33.1288 21.1441C33.6167 20.6353 34.0782 20.0869 34.5102 19.5025C34.5892 19.8729 34.7155 20.4768 34.8628 21.1274ZM37.2705 19.9563C37.0916 19.6226 36.9153 19.289 36.8495 19.1655L37.6994 16.453L37.2705 19.9563ZM37.8836 16.126C38.8789 16.3863 39.8492 16.7811 40.7781 17.3038C40.7386 17.4606 40.2308 19.4291 39.6229 21.778C39.344 21.7346 37.7468 21.4877 37.2547 21.421L37.8836 16.126ZM36.8074 19.5359L37.2231 20.33L37.0916 21.3976L36.6837 21.3309C36.7442 20.6069 36.7863 19.9196 36.8074 19.5359ZM44.0725 23.0558C44.0692 23.4902 44.0358 23.9234 43.9725 24.3504C43.07 24.0568 35.197 21.6011 34.3971 22.1783C33.9971 22.472 32.6814 29.3183 32.5551 29.9356L32.4604 29.8755C32.8762 26.1687 33.4287 21.3075 33.4287 21.2942C34.326 21.1641 42.97 22.4052 44.0725 23.0558ZM39.4808 30.0323C38.8914 29.9823 36.5521 29.8355 36.0601 30.2492C35.9838 30.3159 35.9522 30.3293 35.6812 31.5637C35.3312 31.0933 34.7444 30.6496 34.5471 30.1257C34.4576 29.8955 34.3129 28.214 33.6998 28.3441C32.8735 28.5209 33.9287 30.6796 32.7078 30.0123C32.7867 29.5886 34.0813 22.522 34.4418 22.2618C35.2049 21.7112 43.5278 24.3971 44.5804 24.7741C44.5198 25.5882 43.7462 29.9322 43.6041 30.7263C42.2414 30.3943 40.8647 30.1626 39.4808 30.0323ZM35.4286 6.69393C35.5759 6.82072 35.5707 7.12433 35.5443 7.34454C35.3601 8.83593 34.1813 9.7401 33.363 8.31211C33.1761 7.97846 33.0314 6.91747 33.1577 6.68392C33.2419 6.54713 33.9208 6.54046 34.0576 6.54046C34.3102 6.54379 35.297 6.59384 35.418 6.69393H35.4286ZM32.2946 6.93416C32.2946 7.56141 32.1289 8.60238 31.6894 8.90266C30.9816 9.36976 30.2632 8.62907 30.2448 7.66484C30.2178 7.31282 30.2311 6.95771 30.2843 6.61052L30.3106 6.59384C30.2685 6.50042 32.1183 6.47039 32.2841 6.68059C32.2897 6.76496 32.2897 6.84978 32.2841 6.93416H32.2946ZM33.2103 14.1976C33.6656 14.3644 34.3997 14.2843 34.7523 13.8272C34.7597 13.8173 34.7638 13.8042 34.7638 13.7905C34.7638 13.7769 34.7597 13.7638 34.7523 13.7538C34.6918 13.6604 34.7523 13.8406 34.0682 13.9707C33.384 14.1008 32.9709 13.9707 32.2788 13.4002C31.9607 13.0296 31.7225 12.5622 31.5868 12.0422C31.3035 11.1622 31.1261 10.2332 31.0605 9.28635C31.3082 9.33776 31.5623 9.28504 31.7842 9.13621C31.9995 8.97655 32.1663 8.7298 32.2578 8.43555C32.169 8.78813 32.0961 9.14682 32.0394 9.50989C32.0271 9.55637 32.0252 9.60629 32.0341 9.65403C32.0429 9.70178 32.0621 9.74545 32.0894 9.78014C32.2713 9.92114 32.4856 9.97994 32.6972 9.94696C32.7035 9.94898 32.7099 9.94917 32.7162 9.94751C32.7225 9.94586 32.7284 9.94241 32.7335 9.93742C32.7386 9.93243 32.7427 9.92603 32.7455 9.91872C32.7483 9.91141 32.7498 9.90338 32.7498 9.89525C32.7498 9.88711 32.7483 9.87908 32.7455 9.87177C32.7427 9.86446 32.7386 9.85807 32.7335 9.85308C32.7284 9.84809 32.7225 9.84463 32.7162 9.84298C32.7099 9.84132 32.7035 9.84151 32.6972 9.84353C32.5411 9.8215 32.3905 9.75782 32.2552 9.65669C32.1946 9.60331 32.221 9.63667 32.2394 9.52657C32.2578 9.41647 32.5999 7.82499 32.6183 7.72489C32.6999 7.72489 33.0104 7.67151 33.0104 7.57475C33.0104 7.478 32.763 7.4513 32.6709 7.45798C32.6709 7.4146 32.6867 7.3779 32.6946 7.34454C32.6988 7.33127 32.6986 7.31643 32.6942 7.30329C32.6898 7.29015 32.6814 7.27978 32.6709 7.27447C32.6605 7.26916 32.6487 7.26934 32.6384 7.27498C32.628 7.28061 32.6198 7.29123 32.6157 7.3045C32.5236 7.53138 32.5867 7.44797 32.463 7.488C32.5105 7.17951 32.5105 6.86229 32.463 6.5538C32.3131 6.26019 31.4105 6.32692 31.1158 6.35028C31.2658 5.23257 31.8499 4.68206 32.2078 3.78789C32.3081 3.58035 32.4417 3.40188 32.5999 3.26407C32.6788 3.23738 32.8341 3.48761 32.9288 3.54767C33.0235 3.60773 33.113 3.93803 33.1919 4.05147C33.4401 4.40982 33.7261 4.72306 34.0418 4.98234C34.305 5.21923 34.7155 5.25593 34.8944 5.55954C34.97 5.81772 35.0066 6.09162 35.0023 6.36696C34.6628 6.34027 33.2472 6.31358 33.0788 6.62053C32.9262 6.86743 32.9919 7.99514 33.2156 8.42888C33.7787 9.50989 34.6444 9.57662 35.3207 8.60238C35.3934 8.48737 35.4552 8.36196 35.5049 8.22869C36.0101 9.22963 36.4074 9.82685 36.4258 11.0013C36.4469 12.4893 36.1153 14.955 37.3863 15.2652L37.6047 16.0293C36.5521 19.3857 36.6074 19.1756 36.6074 19.2089C36.6074 19.2423 36.5574 20.2098 36.4653 21.3175C35.9601 21.2508 35.4891 21.1941 35.0707 21.1507C35.0391 21.0139 34.6471 19.2456 34.655 19.2089C34.6944 19.0421 34.4971 18.7151 34.3445 18.4249C33.7721 17.3742 33.1472 16.3712 32.4736 15.4221L33.2103 14.1976ZM32.2841 15.5121C32.3288 15.5989 34.2234 18.2413 34.455 19.2123C34.0293 19.8106 33.5693 20.3682 33.0788 20.8805C32.9025 20.5869 32.4262 19.6193 31.9736 18.7151C31.892 16.9702 31.8368 15.7557 31.8236 15.5021C31.971 15.4888 32.1368 15.4988 32.2736 15.5121H32.2841ZM22.8876 18.8486C22.5876 18.1813 22.1719 13.8439 22.2692 13.1766C22.2692 13.1166 22.2692 13.0966 22.4903 13.0198C23.4323 12.7095 26.7372 12.3525 27.0846 12.5027C27.3477 13.1533 27.924 17.4006 27.7872 18.0545C27.5188 18.3281 23.6612 19.0187 22.8771 18.8486H22.8876ZM23.0718 29.8255C22.7692 29.0714 22.5455 24.2369 22.6955 24.0534C22.9192 23.7798 27.1188 23.5463 27.5161 23.7431C27.7793 24.4438 28.1529 28.7478 27.9977 29.3317C27.6398 29.672 23.6928 30.0056 23.0613 29.8255H23.0718ZM29.0791 24.2336C29.2686 24.1702 30.5895 23.7431 30.7474 23.623C30.8606 23.5396 30.9895 23.8099 28.7765 16.1094C29.0397 15.8024 31.3395 15.4087 31.7026 15.5522C31.7026 15.7357 32.0473 23.5229 32.3183 29.7721C32.1894 29.692 32.0026 29.5686 31.8841 29.652C31.3895 29.9856 31.3579 30.5395 31.7236 31.08C31.6553 31.1012 31.5919 31.1424 31.5384 31.2004C31.485 31.2583 31.443 31.3314 31.4158 31.4136C31.3736 31.5388 31.3557 31.675 31.3634 31.8109C31.3712 31.9467 31.4045 32.0781 31.4605 32.1943C31.5219 32.2688 31.592 32.3307 31.6684 32.3778C31.5898 32.4446 31.5277 32.5384 31.4894 32.6481C31.4549 32.7426 31.4344 32.8444 31.4289 32.9484L29.0791 24.2336ZM35.6285 44.9963L32.192 45.48C32.2078 45.3199 32.5946 41.453 32.7183 40.1417C33.434 40.2218 34.2971 40.2919 35.2207 40.3553C35.3733 42.7608 35.6417 44.4224 35.618 44.9963H35.6285ZM35.8101 44.9696C35.8469 44.2089 35.3523 40.3953 35.3496 40.3619L35.6128 40.3786C36.5074 40.5888 38.8125 41.106 39.0624 41.1593C39.1467 42.2337 39.3572 44.736 39.4072 45.2498C35.4838 44.9295 35.9075 44.9562 35.797 44.9696H35.8101ZM49.772 37.8296C49.5089 38.0965 45.6434 38.5436 44.8461 38.3234C44.5383 37.566 44.3199 32.7348 44.4699 32.5513C44.6961 32.2744 48.8958 32.0475 49.2878 32.241C49.5352 32.9384 49.9167 37.2591 49.7615 37.8296H49.772Z" fill="var(--fill-0, #2097F7)" stroke="var(--stroke-0, #2097F7)" stroke-width="0.766531" mask="url(#path-3-inside-2_0_988)"/>
</g>
<g id="Vector_3">
<mask id="path-4-inside-3_0_988" fill="white">
<path fill-rule="evenodd" clip-rule="evenodd" d="M23.0767 35.3772C23.0557 35.2571 23.0267 35.0836 22.9504 35.0436C22.6873 34.8434 20.9532 34.8034 20.6454 34.7967C20.577 33.2052 20.4559 31.3668 20.2586 30.873C20.1296 30.5394 11.6251 30.506 11.3331 30.5027C11.3541 28.7077 11.3567 25.9718 11.3331 24.1635C11.7041 24.1635 13.5566 24.1635 13.8118 23.8965C14.1381 23.5629 13.9197 19.1087 13.7723 18.2246C13.7513 18.1045 13.7197 17.931 13.646 17.8909C13.2618 17.6007 8.9517 17.5306 8.64647 17.8409C8.48596 18.0111 8.42544 20.0963 8.41754 20.3599C7.81496 20.3599 4.08899 20.2632 2.75753 20.3032V17.5773C3.10223 17.5773 5.12573 17.6474 5.38887 17.3671C5.70726 17.0335 5.60201 11.5817 5.2994 11.3615C4.9968 11.1413 3.1075 11.0713 2.78121 11.0613C2.78121 10.5875 2.75226 9.39304 2.74963 9.36301C3.96794 9.30629 7.17818 9.43641 8.50174 9.43641C8.50174 9.96023 8.47806 11.8253 8.65173 12.3024C8.69383 12.4159 8.85434 12.4492 8.9596 12.4726C9.79636 12.6594 13.5276 12.7695 13.8934 12.3758C14.2591 11.9821 14.0039 6.99414 13.7907 6.45697C13.7766 6.41836 13.7549 6.38503 13.7276 6.36021C13.3303 6.06327 9.02538 6.02657 8.72804 6.31017C8.557 6.49367 8.49911 8.88256 8.49385 9.1695C7.14924 9.1695 3.98636 9.03938 2.73384 9.0961C2.73384 8.45216 2.70753 7.80156 2.70753 7.16096C3.08118 7.16096 5.33887 7.11759 5.62043 6.80396C5.90198 6.49034 5.62043 1.43563 5.39413 0.888454C5.38006 0.849677 5.35715 0.817137 5.32835 0.795034C4.92838 0.511437 0.623509 0.598184 0.328799 0.911809C0.105135 1.15871 0.0656651 6.14668 0.365638 6.9174C0.386304 6.96043 0.417831 6.99335 0.455104 7.01082C0.755076 7.17097 2.15495 7.17431 2.48387 7.17431C2.48387 8.66569 2.53649 9.87682 2.54702 11.0679C2.28389 11.0679 0.489311 11.0179 0.289329 11.2214C0.0893472 11.4249 -0.152736 16.4096 0.126186 17.227C0.165656 17.3371 0.326168 17.3771 0.431422 17.4005C1.12879 17.5282 1.83196 17.5984 2.53649 17.6107V22.5353C2.28652 22.5353 0.573514 22.4952 0.381426 22.6921C0.189338 22.8889 -0.0632705 27.8802 0.215652 28.6977C0.255122 28.8111 0.415634 28.8478 0.520887 28.8745C1.37344 29.0814 5.0889 29.2615 5.45465 28.8745C5.82041 28.4875 5.63095 23.4862 5.43097 22.9557C5.41674 22.9162 5.39504 22.8818 5.36782 22.8556C5.081 22.6354 3.08644 22.562 2.73648 22.552V20.6235C4.09951 20.5801 7.67287 20.6769 8.39386 20.6802C8.39386 21.2441 8.35176 23.3694 8.54121 23.8865C8.55841 23.9313 8.58857 23.966 8.62542 23.9833C8.96486 24.1801 10.7305 24.2202 11.091 24.2235C11.1252 26.0385 11.1226 28.7811 11.091 30.5627C7.55446 30.5394 3.88637 30.5861 3.14697 30.7763C3.06803 30.7963 2.93909 30.8297 2.93383 30.9698C2.93383 30.9698 2.79173 33.8525 2.72595 34.8434C2.49176 34.8434 0.952427 34.8434 0.773496 35.0436C0.594565 35.2438 0.397214 40.2418 0.686662 41.0492C0.726132 41.1593 0.886643 41.196 0.991897 41.2193C1.83129 41.4062 5.55991 41.5163 5.92566 41.1226C6.29142 40.7289 6.03355 35.7309 5.82304 35.2037C5.8336 35.1719 5.83698 35.1369 5.8328 35.1027C5.82861 35.0686 5.81704 35.0365 5.79936 35.0102C5.49675 34.78 3.33642 34.76 2.97856 34.7567C3.04171 33.7557 3.17854 30.9698 3.17854 30.9698C4.07846 30.6361 19.0482 30.6762 20.0954 31.0132C20.2559 31.5003 20.3586 33.1718 20.4428 34.77C20.1796 34.77 18.1798 34.75 17.9719 34.9702C17.7641 35.1904 17.6062 40.1984 17.8851 40.9758C17.9036 41.0206 17.9345 41.0551 17.9719 41.0725C18.4377 41.3394 22.7452 41.4596 23.1241 41.0492C23.1892 40.9492 23.2271 40.8251 23.232 40.6955C23.3557 39.6812 23.2478 36.3782 23.0767 35.3772ZM8.7833 6.3502C9.01749 6.10331 13.2171 6.28014 13.6065 6.52036C13.7043 7.04696 13.7607 7.58452 13.775 8.12519C12.0883 7.90832 9.80952 8.07514 8.64647 8.12519C8.65173 7.925 8.69383 6.43028 8.7833 6.3402V6.3502ZM8.64384 8.3087C10.5595 8.38543 12.8329 8.25865 13.7828 8.27199C13.8118 8.86254 13.9144 11.6285 13.7434 12.1389C13.5487 12.3091 12.0146 12.3391 11.7804 12.3424C11.2147 12.3424 9.34904 12.3424 8.80172 12.1423C8.61226 11.5584 8.63068 8.96597 8.64384 8.29869V8.3087ZM0.397214 0.9385C0.631403 0.678258 4.83892 0.728305 5.22309 0.9385C5.30943 1.31038 5.36413 1.69292 5.38624 2.07956C3.68645 2.01601 1.9854 2.12759 0.299854 2.41321C0.302486 2.29309 0.320905 1.02525 0.397214 0.9385ZM0.536675 6.72722C0.323537 6.12333 0.294592 3.31405 0.299854 2.52665C0.520887 2.49328 5.2994 2.193 5.39676 2.193C5.45465 2.86029 5.6599 5.97319 5.4757 6.55706C5.1231 6.8807 1.16293 6.94409 0.536675 6.72722ZM0.355113 11.2414C0.594565 10.9979 4.79155 11.2614 5.17836 11.5083C5.26442 12.0062 5.31201 12.5135 5.32045 13.0231C5.34677 13.0231 1.59974 12.8362 0.202495 12.893C0.210389 12.6961 0.273541 11.3215 0.355113 11.2414ZM5.31519 28.5909C5.02574 28.8311 1.14451 28.8011 0.376163 28.4908C0.186707 27.8936 0.244596 25.1544 0.27091 24.4571C0.297223 24.4571 3.89427 24.8107 5.39939 24.5872C5.42571 25.1978 5.49675 28.0704 5.31519 28.5876V28.5909ZM5.25204 22.9657C5.33771 23.4648 5.38616 23.9731 5.39676 24.4838C5.42308 24.4838 1.68394 24.2969 0.276172 24.3503C0.2879 23.8139 0.33277 23.2796 0.410371 22.7521C0.42879 22.6854 0.410371 22.6721 0.647191 22.6387C1.58921 22.5052 4.91523 22.7488 5.25204 22.9623V22.9657ZM0.299854 17.0301C0.113029 16.4329 0.170919 13.7137 0.197232 12.9997C0.228808 12.9997 3.81533 13.3534 5.32572 13.1298C5.35203 13.7438 5.42571 16.5997 5.24151 17.1336C4.88628 17.4272 0.934008 17.2871 0.299854 17.0301ZM5.85725 36.932C5.88882 37.5526 5.98881 40.3118 5.81778 40.8356C5.53885 41.0825 1.64184 41.1326 0.876118 40.8356C0.686662 40.2551 0.705081 37.6427 0.718238 36.9454C2.41545 37.0288 3.95742 36.932 5.85725 36.932ZM5.68095 35.2171C5.77829 35.7427 5.83556 36.279 5.85198 36.8186C4.17845 36.605 1.82077 36.7752 0.720869 36.8386C0.720869 36.6284 0.770865 35.137 0.857699 35.0469C1.09452 34.8 5.29151 34.9769 5.68095 35.2171ZM8.69383 17.8843C8.93592 17.6274 13.1355 17.8209 13.5171 18.0544C13.6172 18.6021 13.6753 19.1608 13.6907 19.7227C12.5487 19.6459 9.7069 19.4157 8.55963 19.5959C8.57279 19.4057 8.61752 17.9744 8.69383 17.8843ZM8.72015 23.6663C8.52806 23.0824 8.54911 20.4133 8.5649 19.716C8.93592 19.6693 11.6199 19.8828 12.8671 19.8695C13.1855 19.8695 13.4723 19.8528 13.7039 19.8428C13.7329 20.4367 13.8302 23.1492 13.6618 23.663C13.3171 23.9733 9.35956 23.9232 8.72015 23.6663ZM18.0167 35.0469C18.2535 34.8 22.4505 34.9769 22.8426 35.2171C22.939 35.744 22.9954 36.2814 23.011 36.8219C21.3532 36.6084 18.9534 36.7785 17.8825 36.8219C17.8851 36.6451 17.9298 35.147 18.0167 35.0569V35.0469ZM22.9794 40.8356C22.6926 41.0825 18.7956 41.1326 18.0377 40.8356C17.8456 40.2584 17.8641 37.636 17.8798 36.942C19.6507 37.0288 20.9796 36.942 23.0162 36.942C23.0478 37.5559 23.1478 40.3252 22.9794 40.8457V40.8356Z"/>
</mask>
<path fill-rule="evenodd" clip-rule="evenodd" d="M23.0767 35.3772C23.0557 35.2571 23.0267 35.0836 22.9504 35.0436C22.6873 34.8434 20.9532 34.8034 20.6454 34.7967C20.577 33.2052 20.4559 31.3668 20.2586 30.873C20.1296 30.5394 11.6251 30.506 11.3331 30.5027C11.3541 28.7077 11.3567 25.9718 11.3331 24.1635C11.7041 24.1635 13.5566 24.1635 13.8118 23.8965C14.1381 23.5629 13.9197 19.1087 13.7723 18.2246C13.7513 18.1045 13.7197 17.931 13.646 17.8909C13.2618 17.6007 8.9517 17.5306 8.64647 17.8409C8.48596 18.0111 8.42544 20.0963 8.41754 20.3599C7.81496 20.3599 4.08899 20.2632 2.75753 20.3032V17.5773C3.10223 17.5773 5.12573 17.6474 5.38887 17.3671C5.70726 17.0335 5.60201 11.5817 5.2994 11.3615C4.9968 11.1413 3.1075 11.0713 2.78121 11.0613C2.78121 10.5875 2.75226 9.39304 2.74963 9.36301C3.96794 9.30629 7.17818 9.43641 8.50174 9.43641C8.50174 9.96023 8.47806 11.8253 8.65173 12.3024C8.69383 12.4159 8.85434 12.4492 8.9596 12.4726C9.79636 12.6594 13.5276 12.7695 13.8934 12.3758C14.2591 11.9821 14.0039 6.99414 13.7907 6.45697C13.7766 6.41836 13.7549 6.38503 13.7276 6.36021C13.3303 6.06327 9.02538 6.02657 8.72804 6.31017C8.557 6.49367 8.49911 8.88256 8.49385 9.1695C7.14924 9.1695 3.98636 9.03938 2.73384 9.0961C2.73384 8.45216 2.70753 7.80156 2.70753 7.16096C3.08118 7.16096 5.33887 7.11759 5.62043 6.80396C5.90198 6.49034 5.62043 1.43563 5.39413 0.888454C5.38006 0.849677 5.35715 0.817137 5.32835 0.795034C4.92838 0.511437 0.623509 0.598184 0.328799 0.911809C0.105135 1.15871 0.0656651 6.14668 0.365638 6.9174C0.386304 6.96043 0.417831 6.99335 0.455104 7.01082C0.755076 7.17097 2.15495 7.17431 2.48387 7.17431C2.48387 8.66569 2.53649 9.87682 2.54702 11.0679C2.28389 11.0679 0.489311 11.0179 0.289329 11.2214C0.0893472 11.4249 -0.152736 16.4096 0.126186 17.227C0.165656 17.3371 0.326168 17.3771 0.431422 17.4005C1.12879 17.5282 1.83196 17.5984 2.53649 17.6107V22.5353C2.28652 22.5353 0.573514 22.4952 0.381426 22.6921C0.189338 22.8889 -0.0632705 27.8802 0.215652 28.6977C0.255122 28.8111 0.415634 28.8478 0.520887 28.8745C1.37344 29.0814 5.0889 29.2615 5.45465 28.8745C5.82041 28.4875 5.63095 23.4862 5.43097 22.9557C5.41674 22.9162 5.39504 22.8818 5.36782 22.8556C5.081 22.6354 3.08644 22.562 2.73648 22.552V20.6235C4.09951 20.5801 7.67287 20.6769 8.39386 20.6802C8.39386 21.2441 8.35176 23.3694 8.54121 23.8865C8.55841 23.9313 8.58857 23.966 8.62542 23.9833C8.96486 24.1801 10.7305 24.2202 11.091 24.2235C11.1252 26.0385 11.1226 28.7811 11.091 30.5627C7.55446 30.5394 3.88637 30.5861 3.14697 30.7763C3.06803 30.7963 2.93909 30.8297 2.93383 30.9698C2.93383 30.9698 2.79173 33.8525 2.72595 34.8434C2.49176 34.8434 0.952427 34.8434 0.773496 35.0436C0.594565 35.2438 0.397214 40.2418 0.686662 41.0492C0.726132 41.1593 0.886643 41.196 0.991897 41.2193C1.83129 41.4062 5.55991 41.5163 5.92566 41.1226C6.29142 40.7289 6.03355 35.7309 5.82304 35.2037C5.8336 35.1719 5.83698 35.1369 5.8328 35.1027C5.82861 35.0686 5.81704 35.0365 5.79936 35.0102C5.49675 34.78 3.33642 34.76 2.97856 34.7567C3.04171 33.7557 3.17854 30.9698 3.17854 30.9698C4.07846 30.6361 19.0482 30.6762 20.0954 31.0132C20.2559 31.5003 20.3586 33.1718 20.4428 34.77C20.1796 34.77 18.1798 34.75 17.9719 34.9702C17.7641 35.1904 17.6062 40.1984 17.8851 40.9758C17.9036 41.0206 17.9345 41.0551 17.9719 41.0725C18.4377 41.3394 22.7452 41.4596 23.1241 41.0492C23.1892 40.9492 23.2271 40.8251 23.232 40.6955C23.3557 39.6812 23.2478 36.3782 23.0767 35.3772ZM8.7833 6.3502C9.01749 6.10331 13.2171 6.28014 13.6065 6.52036C13.7043 7.04696 13.7607 7.58452 13.775 8.12519C12.0883 7.90832 9.80952 8.07514 8.64647 8.12519C8.65173 7.925 8.69383 6.43028 8.7833 6.3402V6.3502ZM8.64384 8.3087C10.5595 8.38543 12.8329 8.25865 13.7828 8.27199C13.8118 8.86254 13.9144 11.6285 13.7434 12.1389C13.5487 12.3091 12.0146 12.3391 11.7804 12.3424C11.2147 12.3424 9.34904 12.3424 8.80172 12.1423C8.61226 11.5584 8.63068 8.96597 8.64384 8.29869V8.3087ZM0.397214 0.9385C0.631403 0.678258 4.83892 0.728305 5.22309 0.9385C5.30943 1.31038 5.36413 1.69292 5.38624 2.07956C3.68645 2.01601 1.9854 2.12759 0.299854 2.41321C0.302486 2.29309 0.320905 1.02525 0.397214 0.9385ZM0.536675 6.72722C0.323537 6.12333 0.294592 3.31405 0.299854 2.52665C0.520887 2.49328 5.2994 2.193 5.39676 2.193C5.45465 2.86029 5.6599 5.97319 5.4757 6.55706C5.1231 6.8807 1.16293 6.94409 0.536675 6.72722ZM0.355113 11.2414C0.594565 10.9979 4.79155 11.2614 5.17836 11.5083C5.26442 12.0062 5.31201 12.5135 5.32045 13.0231C5.34677 13.0231 1.59974 12.8362 0.202495 12.893C0.210389 12.6961 0.273541 11.3215 0.355113 11.2414ZM5.31519 28.5909C5.02574 28.8311 1.14451 28.8011 0.376163 28.4908C0.186707 27.8936 0.244596 25.1544 0.27091 24.4571C0.297223 24.4571 3.89427 24.8107 5.39939 24.5872C5.42571 25.1978 5.49675 28.0704 5.31519 28.5876V28.5909ZM5.25204 22.9657C5.33771 23.4648 5.38616 23.9731 5.39676 24.4838C5.42308 24.4838 1.68394 24.2969 0.276172 24.3503C0.2879 23.8139 0.33277 23.2796 0.410371 22.7521C0.42879 22.6854 0.410371 22.6721 0.647191 22.6387C1.58921 22.5052 4.91523 22.7488 5.25204 22.9623V22.9657ZM0.299854 17.0301C0.113029 16.4329 0.170919 13.7137 0.197232 12.9997C0.228808 12.9997 3.81533 13.3534 5.32572 13.1298C5.35203 13.7438 5.42571 16.5997 5.24151 17.1336C4.88628 17.4272 0.934008 17.2871 0.299854 17.0301ZM5.85725 36.932C5.88882 37.5526 5.98881 40.3118 5.81778 40.8356C5.53885 41.0825 1.64184 41.1326 0.876118 40.8356C0.686662 40.2551 0.705081 37.6427 0.718238 36.9454C2.41545 37.0288 3.95742 36.932 5.85725 36.932ZM5.68095 35.2171C5.77829 35.7427 5.83556 36.279 5.85198 36.8186C4.17845 36.605 1.82077 36.7752 0.720869 36.8386C0.720869 36.6284 0.770865 35.137 0.857699 35.0469C1.09452 34.8 5.29151 34.9769 5.68095 35.2171ZM8.69383 17.8843C8.93592 17.6274 13.1355 17.8209 13.5171 18.0544C13.6172 18.6021 13.6753 19.1608 13.6907 19.7227C12.5487 19.6459 9.7069 19.4157 8.55963 19.5959C8.57279 19.4057 8.61752 17.9744 8.69383 17.8843ZM8.72015 23.6663C8.52806 23.0824 8.54911 20.4133 8.5649 19.716C8.93592 19.6693 11.6199 19.8828 12.8671 19.8695C13.1855 19.8695 13.4723 19.8528 13.7039 19.8428C13.7329 20.4367 13.8302 23.1492 13.6618 23.663C13.3171 23.9733 9.35956 23.9232 8.72015 23.6663ZM18.0167 35.0469C18.2535 34.8 22.4505 34.9769 22.8426 35.2171C22.939 35.744 22.9954 36.2814 23.011 36.8219C21.3532 36.6084 18.9534 36.7785 17.8825 36.8219C17.8851 36.6451 17.9298 35.147 18.0167 35.0569V35.0469ZM22.9794 40.8356C22.6926 41.0825 18.7956 41.1326 18.0377 40.8356C17.8456 40.2584 17.8641 37.636 17.8798 36.942C19.6507 37.0288 20.9796 36.942 23.0162 36.942C23.0478 37.5559 23.1478 40.3252 22.9794 40.8457V40.8356Z" fill="var(--fill-0, #2349FF)" stroke="var(--stroke-0, #2097F7)" stroke-width="0.766531" mask="url(#path-4-inside-3_0_988)"/>
</g>
</g>
</svg>
