<svg preserveAspectRatio="none" width="100%" height="100%" overflow="visible" style="display: block;" viewBox="0 0 50 48" fill="none" xmlns="http://www.w3.org/2000/svg">
<g id="Group">
<g id="Vector">
<mask id="path-1-inside-1_0_1075" fill="white">
<path d="M47.1567 14.4909C47.1926 14.5288 46.9854 14.4909 50 14.9785V14.8194L47.2976 14.3267C43.6807 10.5549 38.6739 9.17811 33.1476 9.32463C32.7331 8.06147 30.7851 2.15242 30.4369 1.33389C30.0501 0.424421 29.3897 0 28.359 0C27.3892 0 13.1617 3.48632 12.3328 3.696C10.7605 4.08253 5.90015 5.184 2.66174 5.94695C-0.421931 6.67705 -0.082064 8.47579 0.130698 9.54947C1.31885 15.6632 4.13726 24.6846 8.67435 34.2442C8.2443 35.4535 8.07355 36.7273 8.17146 37.9958C8.55277 42.7402 12.5621 46.1608 16.6875 47.2067L16.9859 48H17.2816C16.9196 47.0931 16.9445 47.0198 16.8284 46.9895C12.5649 45.8703 8.90093 42.3789 8.50856 37.9705C8.23225 34.7949 9.89014 31.4905 12.2471 29.5326C12.9517 28.9516 14.4576 28.0168 14.9578 28.7444C12.7804 31.92 11.2413 35.5427 10.8793 38.0792C11.0694 38.0501 11.2645 38.0702 11.4427 38.1371C11.6209 38.2041 11.7751 38.3153 11.8879 38.4581C11.9487 38.5339 11.9238 38.6829 11.7857 38.5566C11.6821 38.4689 11.5601 38.4013 11.4271 38.3578C11.2941 38.3144 11.1529 38.2961 11.012 38.304C10.986 38.3067 10.9609 38.3142 10.9381 38.3259C10.9154 38.3376 10.8954 38.3533 10.8793 38.3722C10.7937 38.4808 10.8793 38.6425 10.9926 38.7309C11.228 38.8931 11.5086 38.9912 11.8022 39.0139C11.8491 39.0173 11.8961 39.0104 11.9394 38.9937C11.9827 38.9769 12.0209 38.951 12.0509 38.9179C12.949 37.9025 13.7592 36.8247 14.4742 35.6943C14.7879 36.6808 15.264 37.6178 15.8862 38.4733L15.328 39.4105C15.3249 39.4152 15.3229 39.4203 15.322 39.4257C15.3211 39.4311 15.3213 39.4365 15.3227 39.4418C15.3241 39.4471 15.3267 39.4521 15.3302 39.4565C15.3337 39.4608 15.3381 39.4645 15.3432 39.4674C15.3483 39.4702 15.3539 39.4721 15.3598 39.4729C15.3657 39.4737 15.3717 39.4735 15.3774 39.4722C15.3832 39.4709 15.3887 39.4686 15.3935 39.4654C15.3982 39.4622 15.4023 39.4581 15.4054 39.4535L16.157 38.5263C16.1671 38.512 16.1724 38.4953 16.1724 38.4783C16.1724 38.4613 16.1671 38.4446 16.157 38.4303C15.7226 37.8425 15.3525 37.2172 15.0517 36.5634C14.7611 35.9171 14.5453 35.2448 14.4079 34.5575C13.4878 29.5756 19.5363 32.4758 20.9952 39.4686C21.6971 42.8034 20.6581 44.7739 20.6581 44.9356C20.6593 44.9478 20.6649 44.9594 20.6741 44.9684C20.6832 44.9774 20.6954 44.9834 20.7087 44.9854C20.7219 44.9874 20.7356 44.9854 20.7474 44.9796C20.7593 44.9737 20.7687 44.9645 20.7742 44.9533C21.3695 43.4093 21.5588 41.7589 21.3268 40.1356C21.7744 40.1536 22.2224 40.1102 22.6559 40.0067C23.0786 41.0173 23.1754 41.9293 22.7526 42.9726C22.7434 42.9881 22.7386 43.0055 22.7386 43.0232C22.7386 43.0408 22.7434 43.0582 22.7526 43.0737L26.5188 48H26.8642L22.9764 42.9979C23.0294 42.8764 23.0756 42.7524 23.1146 42.6265C23.1146 42.6265 30.2988 40.7798 32.1915 40.1937C33.4101 39.8147 38.4224 38.3419 40.1273 37.8467C41.9123 37.3288 42.6611 36.864 42.9816 36.0783C43.3021 35.2926 42.8241 34.1937 41.7327 31.7406C41.1552 30.4396 38.1406 23.0779 37.9527 22.6459C39.6106 22.6181 41.8432 21.8627 43.2027 21.0745L49.9889 24.1895V23.9368L43.1999 20.7006C42.1609 21.2514 40.539 22.2442 37.9057 22.5196C36.2312 18.4446 36.4716 19.1798 35.5598 16.5272C35.9411 16.4867 36.3252 16.4362 36.7037 16.3806L38.9889 17.9874C39.0013 17.9967 39.0173 18.0012 39.0334 17.9998C39.0495 17.9984 39.0643 17.9912 39.0745 17.9798C39.0848 17.9684 39.0897 17.9537 39.0881 17.9391C39.0865 17.9244 39.0787 17.9109 39.0662 17.9015L36.8225 16.1684C36.7369 16.1053 36.7093 16.1684 35.4852 16.2644C34.1533 16.3882 31.1387 16.5373 30.0722 15.8072C29.5195 15.4131 29.6384 14.9154 30.1109 14.4303C32.0451 12.5255 37.6515 11.8333 40.6661 11.7373C40.6734 11.7389 40.681 11.7389 40.6884 11.7375C40.6957 11.736 40.7026 11.733 40.7085 11.7288C40.7144 11.7245 40.7192 11.7191 40.7225 11.7129C40.7258 11.7067 40.7275 11.6999 40.7275 11.6931C40.7275 11.6862 40.7258 11.6794 40.7225 11.6732C40.7192 11.667 40.7144 11.6616 40.7085 11.6573C40.7026 11.6531 40.6957 11.6501 40.6884 11.6486C40.681 11.6472 40.6734 11.6472 40.6661 11.6488C38.4745 11.6512 36.2919 11.9059 34.1699 12.4067C33.8494 11.4467 33.5206 10.4589 33.2001 9.48884C43.4265 9.54442 46.5184 14.1171 47.1567 14.4909ZM2.87727 6.672C6.2787 5.86863 25.3444 1.30105 27.928 0.813474C28.2756 0.721444 28.6462 0.732946 28.9863 0.846316C29.4145 1.01305 29.5969 1.38695 29.8152 1.94779C23.9518 3.11495 4.82805 7.72042 0.843591 8.89768C0.722012 7.99832 0.890564 7.14189 2.87727 6.672ZM0.85188 8.94568C3.51832 8.18779 12.6063 6 15.3197 5.35074C26.3474 2.69305 29.818 1.99326 29.8235 1.99074C29.981 2.42274 30.2186 3.10989 30.506 3.96379C25.0543 4.94905 6.19028 9.62526 1.28846 11.0375C1.14754 10.4514 0.926485 9.46611 0.85188 8.95074V8.94568ZM1.30227 11.0829C4.91923 10.0724 25.4273 4.96168 30.5226 4.00926C30.7989 4.84042 31.1332 5.82821 31.4841 6.88674C27.2703 7.71032 6.66002 12.6619 2.04832 13.9604C1.74161 12.8413 1.4874 11.8509 1.30227 11.088V11.0829ZM15.0517 28.6181C14.4355 27.84 12.9103 28.7444 12.1062 29.376C11.3139 30.0187 10.6246 30.7603 10.0587 31.5789C9.59724 31.4274 9.2104 30.5684 8.79593 29.6286C8.1986 28.3128 7.69647 26.9625 7.29278 25.5865C7.18225 25.1444 7.16567 24.8034 7.55251 24.5078C8.02501 24.1389 10.0393 23.5478 10.6334 23.3735C11.7663 23.04 13.0429 22.7672 14.2006 22.5322C14.6593 22.4413 15.1484 22.4514 15.422 22.7192C15.8281 23.1082 16.5659 25.0838 16.9831 26.1954C16.5245 26.7006 16.0796 27.2286 15.6541 27.7895C14.672 27.2152 13.6252 26.7392 12.5317 26.3697C12.808 25.9251 13.9741 24.0126 14.3388 23.3912C14.3472 23.3778 14.3495 23.3618 14.3451 23.3469C14.3407 23.332 14.33 23.3193 14.3153 23.3116C14.3007 23.3039 14.2833 23.3018 14.2669 23.3058C14.2506 23.3099 14.2367 23.3197 14.2283 23.3331C13.4629 24.3865 12.8329 25.3213 12.2526 26.2712C10.8849 25.8088 9.7658 25.5133 8.48093 25.1949C8.46481 25.1899 8.44716 25.191 8.43188 25.1978C8.41659 25.2047 8.40492 25.2168 8.39942 25.2316C8.39392 25.2463 8.39506 25.2625 8.40257 25.2764C8.41008 25.2904 8.42336 25.3011 8.43949 25.3061C9.32093 25.6244 10.8821 26.0918 12.1034 26.5137C11.3786 27.702 10.772 28.9474 10.2908 30.2349C10.2877 30.2483 10.2898 30.2623 10.2968 30.2743C10.3038 30.2864 10.3152 30.2959 10.3291 30.301C10.343 30.3061 10.3583 30.3066 10.3726 30.3024C10.3868 30.2982 10.3989 30.2895 10.4068 30.2779C11.4154 28.2771 12.2582 26.8345 12.388 26.6122C13.4731 26.9822 14.5237 27.4317 15.5297 27.9562C15.3639 28.1634 15.2037 28.3882 15.0517 28.6181ZM16.4333 32.0968C16.5549 31.8316 16.6737 31.5663 16.787 31.3011C17.5441 31.3288 19.0417 31.44 19.4506 32.0261C19.8596 32.6122 19.0058 33.216 18.2348 33.4459C17.7432 32.8868 17.1296 32.4274 16.4333 32.0968ZM18.4338 33.6682C19.4755 33.8451 21.9154 34.2543 22.095 35.2118C22.2386 35.9343 21.0505 36.3461 20.1939 36.432C19.7414 35.4462 19.1526 34.5173 18.4421 33.6682H18.4338ZM21.2798 39.9992C21.1399 39.0216 20.8804 38.0615 20.5062 37.1368C21.5009 37.4627 23.8026 38.4 23.4682 39.2918C23.2527 39.8754 22.0231 40.0093 21.2881 39.9992H21.2798ZM42.2052 35.8105C42.0228 36.2602 41.5669 36.6392 39.8703 37.1318C31.288 39.6227 31.7881 39.6278 23.2417 41.8131C23.2626 41.1701 23.0936 40.5339 22.7526 39.9714C22.9405 39.9307 23.1162 39.8522 23.2667 39.7417C23.4173 39.6311 23.539 39.4912 23.623 39.3322C24.0209 38.2863 21.5285 37.3112 20.4094 36.9145C20.2962 36.6417 20.2741 36.6038 20.2547 36.5608C21.2025 36.4371 22.3879 35.9773 22.2386 35.1916C22.2186 35.0854 22.1774 34.9835 22.1171 34.8909C22.1171 34.8909 39.4061 30.2147 40.1245 30.048C41.4287 33.1402 42.487 35.1335 42.2134 35.8105H42.2052ZM29.992 14.3368C29.2709 15.0771 29.6411 15.5444 29.6384 15.5773C29.7243 15.7092 29.8379 15.8242 29.9727 15.9158C30.1646 16.0553 30.3778 16.1685 30.6055 16.2518C26.3806 17.4316 7.94488 22.2821 7.86751 22.3048C6.85067 22.5575 6.17923 22.7394 5.65699 21.3853C6.76225 20.2105 10.44 16.2973 11.1833 15.8122C11.4451 15.6333 11.7628 15.5359 12.0896 15.5343C13.2308 15.504 19.0279 18 20.0419 17.5554C20.7383 17.2472 23.1505 13.7811 23.1754 13.7482C24.9023 11.3154 24.6785 11.4543 28.6105 12.0404C29.4864 12.1718 30.6828 12.3486 32.2385 12.5735L32.3573 12.9651C31.4648 13.2909 30.5668 13.7482 30.0003 14.3343L29.992 14.3368ZM5.57686 21.2211C5.10436 19.9579 3.82779 16.2215 3.9024 15.6632C3.9357 15.4632 4.03174 15.2763 4.17887 15.1252C4.326 14.974 4.51791 14.8652 4.73134 14.8118C5.64594 14.5768 29.5334 8.60716 30.1882 8.60716C30.7105 8.60716 30.9122 8.85979 31.1111 9.32211C31.525 10.3392 31.8828 11.3746 32.1832 12.4244C26.3806 11.5503 25.9302 11.376 25.1123 11.5503C24.4243 11.6968 24.1176 12.0556 22.9847 13.6295C22.1364 14.8269 20.4067 17.1512 19.9452 17.3608C19.5473 17.5377 19.3346 17.4771 18.1602 17.1411C16.6571 16.7091 15.8364 16.4665 14.0846 15.8324C13.0291 15.4484 12.0012 15.0316 11.0451 15.6505C10.1747 16.2291 6.26489 20.4632 5.57686 21.2211ZM33.3797 12.6088C33.1033 12.6897 32.8077 12.7832 32.512 12.8918C32.1645 11.6666 31.7438 10.4598 31.252 9.27663C31.0282 8.77137 30.7795 8.48084 30.1772 8.47326C29.8428 8.47326 15.4496 11.8737 4.67884 14.6779C4.43712 14.7404 4.22012 14.8651 4.05359 15.0371C3.88706 15.209 3.778 15.4211 3.73937 15.648C3.64542 16.2973 4.88884 19.9427 5.46081 21.3549C6.13226 23.0122 6.87278 22.6838 8.17975 22.3655C13.5872 21.0771 25.3113 17.9343 30.8569 16.3427C32.0506 16.7065 33.4791 16.6787 34.7253 16.5954C35.1868 17.9469 35.5543 18.9827 35.7532 19.4425C36.1207 20.2989 39.4365 28.3806 40.1135 29.9975C38.801 30.2956 38.1489 30.4876 22.095 34.8455C21.5009 34.0067 19.6413 33.6051 18.5388 33.4838C19.1494 33.2312 19.7408 32.8269 19.6993 32.2206C19.6579 31.6143 18.6244 31.3693 18.2873 31.2935C17.8211 31.1943 17.3455 31.1367 16.8671 31.1217C17.529 29.5832 18.0125 27.9854 18.3095 26.3545C18.3896 25.8922 17.5358 25.5966 17.2622 25.8745L17.0246 26.1272C16.3808 24.384 15.8171 22.9667 15.4524 22.6105C15.176 22.3251 14.6013 22.3806 14.1813 22.4387C12.7334 22.6459 8.35106 23.7499 7.48896 24.4168C7.19054 24.6872 7.02199 24.8893 7.19607 25.584C7.59341 26.973 8.09472 28.3354 8.69646 29.6615C9.02527 30.3966 9.48672 31.4703 10.0062 31.6421C9.65445 32.1502 9.34591 32.6823 9.0833 33.2337C6.45555 27.7566 4.66226 23.6337 2.05938 14.0337C6.34502 12.8438 28.1048 7.63453 31.498 6.96C31.7356 7.64968 33.0122 11.4644 33.3797 12.6088Z"/>
</mask>
<path d="M47.1567 14.4909C47.1926 14.5288 46.9854 14.4909 50 14.9785V14.8194L47.2976 14.3267C43.6807 10.5549 38.6739 9.17811 33.1476 9.32463C32.7331 8.06147 30.7851 2.15242 30.4369 1.33389C30.0501 0.424421 29.3897 0 28.359 0C27.3892 0 13.1617 3.48632 12.3328 3.696C10.7605 4.08253 5.90015 5.184 2.66174 5.94695C-0.421931 6.67705 -0.082064 8.47579 0.130698 9.54947C1.31885 15.6632 4.13726 24.6846 8.67435 34.2442C8.2443 35.4535 8.07355 36.7273 8.17146 37.9958C8.55277 42.7402 12.5621 46.1608 16.6875 47.2067L16.9859 48H17.2816C16.9196 47.0931 16.9445 47.0198 16.8284 46.9895C12.5649 45.8703 8.90093 42.3789 8.50856 37.9705C8.23225 34.7949 9.89014 31.4905 12.2471 29.5326C12.9517 28.9516 14.4576 28.0168 14.9578 28.7444C12.7804 31.92 11.2413 35.5427 10.8793 38.0792C11.0694 38.0501 11.2645 38.0702 11.4427 38.1371C11.6209 38.2041 11.7751 38.3153 11.8879 38.4581C11.9487 38.5339 11.9238 38.6829 11.7857 38.5566C11.6821 38.4689 11.5601 38.4013 11.4271 38.3578C11.2941 38.3144 11.1529 38.2961 11.012 38.304C10.986 38.3067 10.9609 38.3142 10.9381 38.3259C10.9154 38.3376 10.8954 38.3533 10.8793 38.3722C10.7937 38.4808 10.8793 38.6425 10.9926 38.7309C11.228 38.8931 11.5086 38.9912 11.8022 39.0139C11.8491 39.0173 11.8961 39.0104 11.9394 38.9937C11.9827 38.9769 12.0209 38.951 12.0509 38.9179C12.949 37.9025 13.7592 36.8247 14.4742 35.6943C14.7879 36.6808 15.264 37.6178 15.8862 38.4733L15.328 39.4105C15.3249 39.4152 15.3229 39.4203 15.322 39.4257C15.3211 39.4311 15.3213 39.4365 15.3227 39.4418C15.3241 39.4471 15.3267 39.4521 15.3302 39.4565C15.3337 39.4608 15.3381 39.4645 15.3432 39.4674C15.3483 39.4702 15.3539 39.4721 15.3598 39.4729C15.3657 39.4737 15.3717 39.4735 15.3774 39.4722C15.3832 39.4709 15.3887 39.4686 15.3935 39.4654C15.3982 39.4622 15.4023 39.4581 15.4054 39.4535L16.157 38.5263C16.1671 38.512 16.1724 38.4953 16.1724 38.4783C16.1724 38.4613 16.1671 38.4446 16.157 38.4303C15.7226 37.8425 15.3525 37.2172 15.0517 36.5634C14.7611 35.9171 14.5453 35.2448 14.4079 34.5575C13.4878 29.5756 19.5363 32.4758 20.9952 39.4686C21.6971 42.8034 20.6581 44.7739 20.6581 44.9356C20.6593 44.9478 20.6649 44.9594 20.6741 44.9684C20.6832 44.9774 20.6954 44.9834 20.7087 44.9854C20.7219 44.9874 20.7356 44.9854 20.7474 44.9796C20.7593 44.9737 20.7687 44.9645 20.7742 44.9533C21.3695 43.4093 21.5588 41.7589 21.3268 40.1356C21.7744 40.1536 22.2224 40.1102 22.6559 40.0067C23.0786 41.0173 23.1754 41.9293 22.7526 42.9726C22.7434 42.9881 22.7386 43.0055 22.7386 43.0232C22.7386 43.0408 22.7434 43.0582 22.7526 43.0737L26.5188 48H26.8642L22.9764 42.9979C23.0294 42.8764 23.0756 42.7524 23.1146 42.6265C23.1146 42.6265 30.2988 40.7798 32.1915 40.1937C33.4101 39.8147 38.4224 38.3419 40.1273 37.8467C41.9123 37.3288 42.6611 36.864 42.9816 36.0783C43.3021 35.2926 42.8241 34.1937 41.7327 31.7406C41.1552 30.4396 38.1406 23.0779 37.9527 22.6459C39.6106 22.6181 41.8432 21.8627 43.2027 21.0745L49.9889 24.1895V23.9368L43.1999 20.7006C42.1609 21.2514 40.539 22.2442 37.9057 22.5196C36.2312 18.4446 36.4716 19.1798 35.5598 16.5272C35.9411 16.4867 36.3252 16.4362 36.7037 16.3806L38.9889 17.9874C39.0013 17.9967 39.0173 18.0012 39.0334 17.9998C39.0495 17.9984 39.0643 17.9912 39.0745 17.9798C39.0848 17.9684 39.0897 17.9537 39.0881 17.9391C39.0865 17.9244 39.0787 17.9109 39.0662 17.9015L36.8225 16.1684C36.7369 16.1053 36.7093 16.1684 35.4852 16.2644C34.1533 16.3882 31.1387 16.5373 30.0722 15.8072C29.5195 15.4131 29.6384 14.9154 30.1109 14.4303C32.0451 12.5255 37.6515 11.8333 40.6661 11.7373C40.6734 11.7389 40.681 11.7389 40.6884 11.7375C40.6957 11.736 40.7026 11.733 40.7085 11.7288C40.7144 11.7245 40.7192 11.7191 40.7225 11.7129C40.7258 11.7067 40.7275 11.6999 40.7275 11.6931C40.7275 11.6862 40.7258 11.6794 40.7225 11.6732C40.7192 11.667 40.7144 11.6616 40.7085 11.6573C40.7026 11.6531 40.6957 11.6501 40.6884 11.6486C40.681 11.6472 40.6734 11.6472 40.6661 11.6488C38.4745 11.6512 36.2919 11.9059 34.1699 12.4067C33.8494 11.4467 33.5206 10.4589 33.2001 9.48884C43.4265 9.54442 46.5184 14.1171 47.1567 14.4909ZM2.87727 6.672C6.2787 5.86863 25.3444 1.30105 27.928 0.813474C28.2756 0.721444 28.6462 0.732946 28.9863 0.846316C29.4145 1.01305 29.5969 1.38695 29.8152 1.94779C23.9518 3.11495 4.82805 7.72042 0.843591 8.89768C0.722012 7.99832 0.890564 7.14189 2.87727 6.672ZM0.85188 8.94568C3.51832 8.18779 12.6063 6 15.3197 5.35074C26.3474 2.69305 29.818 1.99326 29.8235 1.99074C29.981 2.42274 30.2186 3.10989 30.506 3.96379C25.0543 4.94905 6.19028 9.62526 1.28846 11.0375C1.14754 10.4514 0.926485 9.46611 0.85188 8.95074V8.94568ZM1.30227 11.0829C4.91923 10.0724 25.4273 4.96168 30.5226 4.00926C30.7989 4.84042 31.1332 5.82821 31.4841 6.88674C27.2703 7.71032 6.66002 12.6619 2.04832 13.9604C1.74161 12.8413 1.4874 11.8509 1.30227 11.088V11.0829ZM15.0517 28.6181C14.4355 27.84 12.9103 28.7444 12.1062 29.376C11.3139 30.0187 10.6246 30.7603 10.0587 31.5789C9.59724 31.4274 9.2104 30.5684 8.79593 29.6286C8.1986 28.3128 7.69647 26.9625 7.29278 25.5865C7.18225 25.1444 7.16567 24.8034 7.55251 24.5078C8.02501 24.1389 10.0393 23.5478 10.6334 23.3735C11.7663 23.04 13.0429 22.7672 14.2006 22.5322C14.6593 22.4413 15.1484 22.4514 15.422 22.7192C15.8281 23.1082 16.5659 25.0838 16.9831 26.1954C16.5245 26.7006 16.0796 27.2286 15.6541 27.7895C14.672 27.2152 13.6252 26.7392 12.5317 26.3697C12.808 25.9251 13.9741 24.0126 14.3388 23.3912C14.3472 23.3778 14.3495 23.3618 14.3451 23.3469C14.3407 23.332 14.33 23.3193 14.3153 23.3116C14.3007 23.3039 14.2833 23.3018 14.2669 23.3058C14.2506 23.3099 14.2367 23.3197 14.2283 23.3331C13.4629 24.3865 12.8329 25.3213 12.2526 26.2712C10.8849 25.8088 9.7658 25.5133 8.48093 25.1949C8.46481 25.1899 8.44716 25.191 8.43188 25.1978C8.41659 25.2047 8.40492 25.2168 8.39942 25.2316C8.39392 25.2463 8.39506 25.2625 8.40257 25.2764C8.41008 25.2904 8.42336 25.3011 8.43949 25.3061C9.32093 25.6244 10.8821 26.0918 12.1034 26.5137C11.3786 27.702 10.772 28.9474 10.2908 30.2349C10.2877 30.2483 10.2898 30.2623 10.2968 30.2743C10.3038 30.2864 10.3152 30.2959 10.3291 30.301C10.343 30.3061 10.3583 30.3066 10.3726 30.3024C10.3868 30.2982 10.3989 30.2895 10.4068 30.2779C11.4154 28.2771 12.2582 26.8345 12.388 26.6122C13.4731 26.9822 14.5237 27.4317 15.5297 27.9562C15.3639 28.1634 15.2037 28.3882 15.0517 28.6181ZM16.4333 32.0968C16.5549 31.8316 16.6737 31.5663 16.787 31.3011C17.5441 31.3288 19.0417 31.44 19.4506 32.0261C19.8596 32.6122 19.0058 33.216 18.2348 33.4459C17.7432 32.8868 17.1296 32.4274 16.4333 32.0968ZM18.4338 33.6682C19.4755 33.8451 21.9154 34.2543 22.095 35.2118C22.2386 35.9343 21.0505 36.3461 20.1939 36.432C19.7414 35.4462 19.1526 34.5173 18.4421 33.6682H18.4338ZM21.2798 39.9992C21.1399 39.0216 20.8804 38.0615 20.5062 37.1368C21.5009 37.4627 23.8026 38.4 23.4682 39.2918C23.2527 39.8754 22.0231 40.0093 21.2881 39.9992H21.2798ZM42.2052 35.8105C42.0228 36.2602 41.5669 36.6392 39.8703 37.1318C31.288 39.6227 31.7881 39.6278 23.2417 41.8131C23.2626 41.1701 23.0936 40.5339 22.7526 39.9714C22.9405 39.9307 23.1162 39.8522 23.2667 39.7417C23.4173 39.6311 23.539 39.4912 23.623 39.3322C24.0209 38.2863 21.5285 37.3112 20.4094 36.9145C20.2962 36.6417 20.2741 36.6038 20.2547 36.5608C21.2025 36.4371 22.3879 35.9773 22.2386 35.1916C22.2186 35.0854 22.1774 34.9835 22.1171 34.8909C22.1171 34.8909 39.4061 30.2147 40.1245 30.048C41.4287 33.1402 42.487 35.1335 42.2134 35.8105H42.2052ZM29.992 14.3368C29.2709 15.0771 29.6411 15.5444 29.6384 15.5773C29.7243 15.7092 29.8379 15.8242 29.9727 15.9158C30.1646 16.0553 30.3778 16.1685 30.6055 16.2518C26.3806 17.4316 7.94488 22.2821 7.86751 22.3048C6.85067 22.5575 6.17923 22.7394 5.65699 21.3853C6.76225 20.2105 10.44 16.2973 11.1833 15.8122C11.4451 15.6333 11.7628 15.5359 12.0896 15.5343C13.2308 15.504 19.0279 18 20.0419 17.5554C20.7383 17.2472 23.1505 13.7811 23.1754 13.7482C24.9023 11.3154 24.6785 11.4543 28.6105 12.0404C29.4864 12.1718 30.6828 12.3486 32.2385 12.5735L32.3573 12.9651C31.4648 13.2909 30.5668 13.7482 30.0003 14.3343L29.992 14.3368ZM5.57686 21.2211C5.10436 19.9579 3.82779 16.2215 3.9024 15.6632C3.9357 15.4632 4.03174 15.2763 4.17887 15.1252C4.326 14.974 4.51791 14.8652 4.73134 14.8118C5.64594 14.5768 29.5334 8.60716 30.1882 8.60716C30.7105 8.60716 30.9122 8.85979 31.1111 9.32211C31.525 10.3392 31.8828 11.3746 32.1832 12.4244C26.3806 11.5503 25.9302 11.376 25.1123 11.5503C24.4243 11.6968 24.1176 12.0556 22.9847 13.6295C22.1364 14.8269 20.4067 17.1512 19.9452 17.3608C19.5473 17.5377 19.3346 17.4771 18.1602 17.1411C16.6571 16.7091 15.8364 16.4665 14.0846 15.8324C13.0291 15.4484 12.0012 15.0316 11.0451 15.6505C10.1747 16.2291 6.26489 20.4632 5.57686 21.2211ZM33.3797 12.6088C33.1033 12.6897 32.8077 12.7832 32.512 12.8918C32.1645 11.6666 31.7438 10.4598 31.252 9.27663C31.0282 8.77137 30.7795 8.48084 30.1772 8.47326C29.8428 8.47326 15.4496 11.8737 4.67884 14.6779C4.43712 14.7404 4.22012 14.8651 4.05359 15.0371C3.88706 15.209 3.778 15.4211 3.73937 15.648C3.64542 16.2973 4.88884 19.9427 5.46081 21.3549C6.13226 23.0122 6.87278 22.6838 8.17975 22.3655C13.5872 21.0771 25.3113 17.9343 30.8569 16.3427C32.0506 16.7065 33.4791 16.6787 34.7253 16.5954C35.1868 17.9469 35.5543 18.9827 35.7532 19.4425C36.1207 20.2989 39.4365 28.3806 40.1135 29.9975C38.801 30.2956 38.1489 30.4876 22.095 34.8455C21.5009 34.0067 19.6413 33.6051 18.5388 33.4838C19.1494 33.2312 19.7408 32.8269 19.6993 32.2206C19.6579 31.6143 18.6244 31.3693 18.2873 31.2935C17.8211 31.1943 17.3455 31.1367 16.8671 31.1217C17.529 29.5832 18.0125 27.9854 18.3095 26.3545C18.3896 25.8922 17.5358 25.5966 17.2622 25.8745L17.0246 26.1272C16.3808 24.384 15.8171 22.9667 15.4524 22.6105C15.176 22.3251 14.6013 22.3806 14.1813 22.4387C12.7334 22.6459 8.35106 23.7499 7.48896 24.4168C7.19054 24.6872 7.02199 24.8893 7.19607 25.584C7.59341 26.973 8.09472 28.3354 8.69646 29.6615C9.02527 30.3966 9.48672 31.4703 10.0062 31.6421C9.65445 32.1502 9.34591 32.6823 9.0833 33.2337C6.45555 27.7566 4.66226 23.6337 2.05938 14.0337C6.34502 12.8438 28.1048 7.63453 31.498 6.96C31.7356 7.64968 33.0122 11.4644 33.3797 12.6088Z" fill="var(--fill-0, #155DFF)" stroke="var(--stroke-0, #2097F7)" stroke-width="2" mask="url(#path-1-inside-1_0_1075)"/>
</g>
<g id="Vector_2">
<mask id="path-2-inside-2_0_1075" fill="white">
<path d="M18.4842 24.9343C18.2797 24.8661 17.8708 25.4396 17.7685 25.5988C17.7657 25.6028 17.764 25.6073 17.7635 25.6121C17.763 25.6168 17.7637 25.6215 17.7656 25.626C17.7675 25.6304 17.7705 25.6343 17.7744 25.6375C17.7782 25.6407 17.7828 25.643 17.7879 25.6442C17.944 25.6767 18.0904 25.7405 18.2161 25.8312C18.2193 25.8344 18.2231 25.837 18.2274 25.8388C18.2317 25.8405 18.2363 25.8415 18.241 25.8415C18.2457 25.8415 18.2504 25.8405 18.2547 25.8388C18.2589 25.837 18.2628 25.8344 18.2659 25.8312C18.3515 25.6645 18.6886 25.0101 18.4842 24.9343ZM3.55765 9.16255C3.02526 9.25779 2.50941 9.4184 2.0241 9.64003C2.18486 9.41458 2.32976 9.18 2.45791 8.93771C2.46025 8.93213 2.46034 8.92598 2.45818 8.92034C2.45602 8.9147 2.45174 8.90994 2.44611 8.90692C2.44048 8.90389 2.43386 8.90278 2.42742 8.90379C2.42098 8.90481 2.41514 8.90787 2.41094 8.91245C2.22922 9.16161 2.06584 9.42156 1.92186 9.69055C1.87489 9.7815 2.69554 9.98866 2.80331 10.0038C2.80911 10.0038 2.81476 10.0021 2.81946 9.99905C2.82417 9.99595 2.82769 9.99157 2.82952 9.98654C2.83135 9.98151 2.83141 9.97608 2.82968 9.97102C2.82795 9.96596 2.82452 9.96152 2.81988 9.95834C2.57095 9.84643 2.30849 9.76164 2.03791 9.70571C2.53603 9.51362 3.04739 9.35159 3.5687 9.22066C3.61844 9.19287 3.60462 9.15498 3.55765 9.16255ZM6.45343 8.48045C6.14548 8.33008 5.82485 8.20251 5.49461 8.09898C5.48831 8.09754 5.48165 8.09818 5.47581 8.10079C5.46997 8.10339 5.46532 8.1078 5.46268 8.11323C5.46004 8.11866 5.45958 8.12476 5.46138 8.13047C5.46318 8.13618 5.46712 8.14113 5.47251 8.14445C5.73922 8.27743 6.01629 8.39226 6.30145 8.48803C5.77371 8.53467 5.2567 8.65391 4.7679 8.84171C4.76251 8.84503 4.75857 8.84998 4.75678 8.85569C4.75498 8.8614 4.75544 8.8675 4.75808 8.87293C4.76072 8.87836 4.76537 8.88277 4.77121 8.88537C4.77705 8.88798 4.7837 8.88862 4.79001 8.88719C5.15475 8.78108 5.68251 8.68761 6.36777 8.55876C6.18986 8.7559 6.03172 8.96728 5.89527 9.19034C5.89349 9.1959 5.89366 9.20183 5.89575 9.2073C5.89784 9.21276 5.90174 9.2175 5.90692 9.22083C5.91209 9.22417 5.91828 9.22595 5.92461 9.22592C5.93094 9.22589 5.93711 9.22405 5.94224 9.22066C6.14006 9.00658 6.31494 8.77562 6.46448 8.53098C6.4686 8.52745 6.47166 8.52302 6.47339 8.51811C6.47511 8.51319 6.47544 8.50796 6.47433 8.5029C6.47322 8.49784 6.47072 8.49312 6.46706 8.48919C6.46341 8.48527 6.45871 8.48226 6.45343 8.48045ZM8.92092 8.14698C8.91225 8.2951 8.84545 8.4354 8.73277 8.54213C8.6201 8.64886 8.4691 8.71486 8.3075 8.72803C8.15224 8.7392 7.99737 8.70247 7.86764 8.6237C7.73791 8.54493 7.6408 8.42867 7.59184 8.2935C7.55103 8.15429 7.56531 8.00637 7.63219 7.87585C7.69906 7.74534 7.81422 7.64062 7.95733 7.58018C8.10044 7.51974 8.2623 7.50748 8.41434 7.54555C8.56638 7.58361 8.69882 7.66957 8.78829 7.78824C8.65458 7.78235 8.52057 7.78657 8.38763 7.80087C8.3803 7.80087 8.37327 7.80353 8.36809 7.80827C8.36291 7.81301 8.36 7.81943 8.36 7.82613C8.36 7.83283 8.36291 7.83926 8.36809 7.844C8.37327 7.84873 8.3803 7.8514 8.38763 7.8514C8.541 7.86648 8.6957 7.86648 8.84907 7.8514C8.85513 7.85012 8.86068 7.84731 8.86508 7.84329C8.86947 7.83927 8.87255 7.8342 8.87394 7.82866C8.90841 7.68265 8.91681 7.53249 8.89881 7.38403C8.89881 7.37733 8.8959 7.3709 8.89072 7.36616C8.88554 7.36143 8.87851 7.35876 8.87118 7.35876C8.86385 7.35876 8.85682 7.36143 8.85164 7.36616C8.84646 7.3709 8.84355 7.37733 8.84355 7.38403C8.81572 7.50094 8.80549 7.62079 8.81315 7.74024C8.3075 7.07329 7.25474 7.62403 7.48684 8.3415C7.73829 9.1474 9.07842 8.94024 8.97894 8.16466C8.98151 8.15762 8.98091 8.14995 8.97728 8.14331C8.97366 8.13668 8.9673 8.13164 8.9596 8.12929C8.95191 8.12695 8.94351 8.12749 8.93625 8.13081C8.929 8.13412 8.92348 8.13994 8.92092 8.14698ZM2.53804 7.32592C2.467 7.32592 2.39755 7.34518 2.33848 7.38127C2.27941 7.41736 2.23337 7.46865 2.20618 7.52866C2.17899 7.58867 2.17188 7.65471 2.18574 7.71841C2.1996 7.78212 2.23381 7.84064 2.28404 7.88657C2.33428 7.9325 2.39829 7.96378 2.46797 7.97645C2.53765 7.98913 2.60987 7.98262 2.67551 7.95777C2.74114 7.93291 2.79725 7.89081 2.83672 7.8368C2.87619 7.7828 2.89725 7.7193 2.89725 7.65434C2.89725 7.56724 2.85941 7.48371 2.79204 7.42211C2.72468 7.36052 2.63331 7.32592 2.53804 7.32592ZM3.80633 6.97729C3.73528 6.97729 3.66583 6.99655 3.60676 7.03264C3.54769 7.06873 3.50165 7.12002 3.47446 7.18003C3.44728 7.24004 3.44016 7.30608 3.45402 7.36978C3.46788 7.43349 3.50209 7.49201 3.55233 7.53794C3.60257 7.58387 3.66657 7.61515 3.73625 7.62782C3.80593 7.6405 3.87816 7.63399 3.94379 7.60913C4.00943 7.58428 4.06553 7.54218 4.105 7.48817C4.14447 7.43416 4.16554 7.37067 4.16554 7.30571C4.16554 7.21861 4.12769 7.13507 4.06033 7.07348C3.99296 7.01189 3.9016 6.97729 3.80633 6.97729ZM5.07738 6.63624C5.00633 6.63624 4.93688 6.6555 4.87781 6.69159C4.81874 6.72767 4.7727 6.77897 4.74551 6.83898C4.71832 6.89899 4.71121 6.96502 4.72507 7.02873C4.73893 7.09244 4.77314 7.15096 4.82338 7.19689C4.87361 7.24282 4.93762 7.2741 5.0073 7.28677C5.07698 7.29944 5.1492 7.29294 5.21484 7.26808C5.28048 7.24322 5.33658 7.20113 5.37605 7.14712C5.41552 7.09311 5.43659 7.02961 5.43659 6.96466C5.43659 6.87756 5.39874 6.79402 5.33138 6.73243C5.26401 6.67084 5.17265 6.63624 5.07738 6.63624ZM28.9427 2.66992C28.7272 2.66992 12.6595 6.40382 11.3193 6.73224C10.4904 6.93687 10.2997 6.95203 10.1339 7.20466C10.0736 7.29393 10.0405 7.39638 10.0382 7.50132C10.036 7.60626 10.0646 7.70983 10.121 7.80121C10.1775 7.89259 10.2598 7.96843 10.3593 8.02081C10.4587 8.07319 10.5718 8.10019 10.6866 8.09898C10.9038 8.07353 11.117 8.02521 11.3221 7.95498C14.8506 7.07329 28.7631 3.91287 28.9344 3.88255C29.0453 3.87055 29.1521 3.83681 29.2475 3.78361C29.3429 3.73042 29.4246 3.65904 29.487 3.57434C29.5462 3.48482 29.5786 3.38264 29.5809 3.27807C29.5832 3.17349 29.5554 3.0702 29.5002 2.97856C29.4451 2.88692 29.3645 2.81016 29.2667 2.75599C29.1688 2.70182 29.0571 2.67213 28.9427 2.66992ZM29.4373 3.53645C29.3779 3.61382 29.301 3.67866 29.2119 3.72659C29.1227 3.77453 29.0234 3.80445 28.9206 3.81434C8.80486 8.41982 10.8772 8.04592 10.6838 8.04592C10.5812 8.04441 10.4809 8.01831 10.3928 7.97021C10.3048 7.92212 10.2321 7.85373 10.182 7.77188C10.1319 7.69003 10.1062 7.59759 10.1075 7.50381C10.1088 7.41003 10.1369 7.3182 10.1892 7.2375C10.3356 7.02024 10.4655 7.01013 11.3304 6.79792C12.8777 6.41645 28.7382 2.73813 28.9344 2.73813C29.0367 2.73781 29.1373 2.76223 29.2259 2.80889C29.3146 2.85556 29.3881 2.92283 29.4392 3.00388C29.4903 3.08492 29.517 3.17687 29.5166 3.2704C29.5163 3.36393 29.4889 3.45571 29.4373 3.53645Z"/>
</mask>
<path d="M18.4842 24.9343C18.2797 24.8661 17.8708 25.4396 17.7685 25.5988C17.7657 25.6028 17.764 25.6073 17.7635 25.6121C17.763 25.6168 17.7637 25.6215 17.7656 25.626C17.7675 25.6304 17.7705 25.6343 17.7744 25.6375C17.7782 25.6407 17.7828 25.643 17.7879 25.6442C17.944 25.6767 18.0904 25.7405 18.2161 25.8312C18.2193 25.8344 18.2231 25.837 18.2274 25.8388C18.2317 25.8405 18.2363 25.8415 18.241 25.8415C18.2457 25.8415 18.2504 25.8405 18.2547 25.8388C18.2589 25.837 18.2628 25.8344 18.2659 25.8312C18.3515 25.6645 18.6886 25.0101 18.4842 24.9343ZM3.55765 9.16255C3.02526 9.25779 2.50941 9.4184 2.0241 9.64003C2.18486 9.41458 2.32976 9.18 2.45791 8.93771C2.46025 8.93213 2.46034 8.92598 2.45818 8.92034C2.45602 8.9147 2.45174 8.90994 2.44611 8.90692C2.44048 8.90389 2.43386 8.90278 2.42742 8.90379C2.42098 8.90481 2.41514 8.90787 2.41094 8.91245C2.22922 9.16161 2.06584 9.42156 1.92186 9.69055C1.87489 9.7815 2.69554 9.98866 2.80331 10.0038C2.80911 10.0038 2.81476 10.0021 2.81946 9.99905C2.82417 9.99595 2.82769 9.99157 2.82952 9.98654C2.83135 9.98151 2.83141 9.97608 2.82968 9.97102C2.82795 9.96596 2.82452 9.96152 2.81988 9.95834C2.57095 9.84643 2.30849 9.76164 2.03791 9.70571C2.53603 9.51362 3.04739 9.35159 3.5687 9.22066C3.61844 9.19287 3.60462 9.15498 3.55765 9.16255ZM6.45343 8.48045C6.14548 8.33008 5.82485 8.20251 5.49461 8.09898C5.48831 8.09754 5.48165 8.09818 5.47581 8.10079C5.46997 8.10339 5.46532 8.1078 5.46268 8.11323C5.46004 8.11866 5.45958 8.12476 5.46138 8.13047C5.46318 8.13618 5.46712 8.14113 5.47251 8.14445C5.73922 8.27743 6.01629 8.39226 6.30145 8.48803C5.77371 8.53467 5.2567 8.65391 4.7679 8.84171C4.76251 8.84503 4.75857 8.84998 4.75678 8.85569C4.75498 8.8614 4.75544 8.8675 4.75808 8.87293C4.76072 8.87836 4.76537 8.88277 4.77121 8.88537C4.77705 8.88798 4.7837 8.88862 4.79001 8.88719C5.15475 8.78108 5.68251 8.68761 6.36777 8.55876C6.18986 8.7559 6.03172 8.96728 5.89527 9.19034C5.89349 9.1959 5.89366 9.20183 5.89575 9.2073C5.89784 9.21276 5.90174 9.2175 5.90692 9.22083C5.91209 9.22417 5.91828 9.22595 5.92461 9.22592C5.93094 9.22589 5.93711 9.22405 5.94224 9.22066C6.14006 9.00658 6.31494 8.77562 6.46448 8.53098C6.4686 8.52745 6.47166 8.52302 6.47339 8.51811C6.47511 8.51319 6.47544 8.50796 6.47433 8.5029C6.47322 8.49784 6.47072 8.49312 6.46706 8.48919C6.46341 8.48527 6.45871 8.48226 6.45343 8.48045ZM8.92092 8.14698C8.91225 8.2951 8.84545 8.4354 8.73277 8.54213C8.6201 8.64886 8.4691 8.71486 8.3075 8.72803C8.15224 8.7392 7.99737 8.70247 7.86764 8.6237C7.73791 8.54493 7.6408 8.42867 7.59184 8.2935C7.55103 8.15429 7.56531 8.00637 7.63219 7.87585C7.69906 7.74534 7.81422 7.64062 7.95733 7.58018C8.10044 7.51974 8.2623 7.50748 8.41434 7.54555C8.56638 7.58361 8.69882 7.66957 8.78829 7.78824C8.65458 7.78235 8.52057 7.78657 8.38763 7.80087C8.3803 7.80087 8.37327 7.80353 8.36809 7.80827C8.36291 7.81301 8.36 7.81943 8.36 7.82613C8.36 7.83283 8.36291 7.83926 8.36809 7.844C8.37327 7.84873 8.3803 7.8514 8.38763 7.8514C8.541 7.86648 8.6957 7.86648 8.84907 7.8514C8.85513 7.85012 8.86068 7.84731 8.86508 7.84329C8.86947 7.83927 8.87255 7.8342 8.87394 7.82866C8.90841 7.68265 8.91681 7.53249 8.89881 7.38403C8.89881 7.37733 8.8959 7.3709 8.89072 7.36616C8.88554 7.36143 8.87851 7.35876 8.87118 7.35876C8.86385 7.35876 8.85682 7.36143 8.85164 7.36616C8.84646 7.3709 8.84355 7.37733 8.84355 7.38403C8.81572 7.50094 8.80549 7.62079 8.81315 7.74024C8.3075 7.07329 7.25474 7.62403 7.48684 8.3415C7.73829 9.1474 9.07842 8.94024 8.97894 8.16466C8.98151 8.15762 8.98091 8.14995 8.97728 8.14331C8.97366 8.13668 8.9673 8.13164 8.9596 8.12929C8.95191 8.12695 8.94351 8.12749 8.93625 8.13081C8.929 8.13412 8.92348 8.13994 8.92092 8.14698ZM2.53804 7.32592C2.467 7.32592 2.39755 7.34518 2.33848 7.38127C2.27941 7.41736 2.23337 7.46865 2.20618 7.52866C2.17899 7.58867 2.17188 7.65471 2.18574 7.71841C2.1996 7.78212 2.23381 7.84064 2.28404 7.88657C2.33428 7.9325 2.39829 7.96378 2.46797 7.97645C2.53765 7.98913 2.60987 7.98262 2.67551 7.95777C2.74114 7.93291 2.79725 7.89081 2.83672 7.8368C2.87619 7.7828 2.89725 7.7193 2.89725 7.65434C2.89725 7.56724 2.85941 7.48371 2.79204 7.42211C2.72468 7.36052 2.63331 7.32592 2.53804 7.32592ZM3.80633 6.97729C3.73528 6.97729 3.66583 6.99655 3.60676 7.03264C3.54769 7.06873 3.50165 7.12002 3.47446 7.18003C3.44728 7.24004 3.44016 7.30608 3.45402 7.36978C3.46788 7.43349 3.50209 7.49201 3.55233 7.53794C3.60257 7.58387 3.66657 7.61515 3.73625 7.62782C3.80593 7.6405 3.87816 7.63399 3.94379 7.60913C4.00943 7.58428 4.06553 7.54218 4.105 7.48817C4.14447 7.43416 4.16554 7.37067 4.16554 7.30571C4.16554 7.21861 4.12769 7.13507 4.06033 7.07348C3.99296 7.01189 3.9016 6.97729 3.80633 6.97729ZM5.07738 6.63624C5.00633 6.63624 4.93688 6.6555 4.87781 6.69159C4.81874 6.72767 4.7727 6.77897 4.74551 6.83898C4.71832 6.89899 4.71121 6.96502 4.72507 7.02873C4.73893 7.09244 4.77314 7.15096 4.82338 7.19689C4.87361 7.24282 4.93762 7.2741 5.0073 7.28677C5.07698 7.29944 5.1492 7.29294 5.21484 7.26808C5.28048 7.24322 5.33658 7.20113 5.37605 7.14712C5.41552 7.09311 5.43659 7.02961 5.43659 6.96466C5.43659 6.87756 5.39874 6.79402 5.33138 6.73243C5.26401 6.67084 5.17265 6.63624 5.07738 6.63624ZM28.9427 2.66992C28.7272 2.66992 12.6595 6.40382 11.3193 6.73224C10.4904 6.93687 10.2997 6.95203 10.1339 7.20466C10.0736 7.29393 10.0405 7.39638 10.0382 7.50132C10.036 7.60626 10.0646 7.70983 10.121 7.80121C10.1775 7.89259 10.2598 7.96843 10.3593 8.02081C10.4587 8.07319 10.5718 8.10019 10.6866 8.09898C10.9038 8.07353 11.117 8.02521 11.3221 7.95498C14.8506 7.07329 28.7631 3.91287 28.9344 3.88255C29.0453 3.87055 29.1521 3.83681 29.2475 3.78361C29.3429 3.73042 29.4246 3.65904 29.487 3.57434C29.5462 3.48482 29.5786 3.38264 29.5809 3.27807C29.5832 3.17349 29.5554 3.0702 29.5002 2.97856C29.4451 2.88692 29.3645 2.81016 29.2667 2.75599C29.1688 2.70182 29.0571 2.67213 28.9427 2.66992ZM29.4373 3.53645C29.3779 3.61382 29.301 3.67866 29.2119 3.72659C29.1227 3.77453 29.0234 3.80445 28.9206 3.81434C8.80486 8.41982 10.8772 8.04592 10.6838 8.04592C10.5812 8.04441 10.4809 8.01831 10.3928 7.97021C10.3048 7.92212 10.2321 7.85373 10.182 7.77188C10.1319 7.69003 10.1062 7.59759 10.1075 7.50381C10.1088 7.41003 10.1369 7.3182 10.1892 7.2375C10.3356 7.02024 10.4655 7.01013 11.3304 6.79792C12.8777 6.41645 28.7382 2.73813 28.9344 2.73813C29.0367 2.73781 29.1373 2.76223 29.2259 2.80889C29.3146 2.85556 29.3881 2.92283 29.4392 3.00388C29.4903 3.08492 29.517 3.17687 29.5166 3.2704C29.5163 3.36393 29.4889 3.45571 29.4373 3.53645Z" fill="var(--fill-0, #155DFF)" stroke="var(--stroke-0, #2097F7)" stroke-width="2" mask="url(#path-2-inside-2_0_1075)"/>
</g>
<g id="Vector_3">
<mask id="path-3-inside-3_0_1075" fill="white">
<path d="M11.6415 7.57872C11.5681 7.52675 11.4872 7.48425 11.4011 7.4524C11.4376 7.38207 11.4431 7.30159 11.4165 7.22765C11.3899 7.1537 11.3332 7.09195 11.2581 7.05519C11.1831 7.01844 11.0954 7.00949 11.0133 7.0302C10.9313 7.05091 10.861 7.0997 10.8172 7.16646C10.7734 7.23321 10.7594 7.31282 10.778 7.38878C10.7967 7.46474 10.8465 7.53124 10.9173 7.57449C10.9881 7.61774 11.0744 7.63444 11.1583 7.62112C11.2422 7.60779 11.3173 7.56548 11.368 7.50293C11.4458 7.55081 11.5292 7.59064 11.6166 7.62167C11.6225 7.62281 11.6286 7.62217 11.6341 7.61984C11.6395 7.61752 11.644 7.61363 11.6468 7.60878C11.6496 7.60392 11.6506 7.59836 11.6497 7.59294C11.6487 7.58751 11.6458 7.58252 11.6415 7.57872ZM11.0889 7.57872C11.0336 7.58175 10.9787 7.56956 10.9311 7.54371C10.8835 7.51786 10.8456 7.47954 10.8221 7.43373C10.7986 7.38792 10.7907 7.33671 10.7994 7.28675C10.8081 7.23679 10.8331 7.19037 10.871 7.15351C10.9089 7.11665 10.958 7.09104 11.012 7.08C11.066 7.06896 11.1224 7.073 11.1739 7.09159C11.2253 7.11018 11.2695 7.14248 11.3006 7.18429C11.3318 7.2261 11.3485 7.27549 11.3486 7.32609C11.3489 7.38933 11.3232 7.45037 11.2767 7.49714C11.2301 7.54392 11.1661 7.57303 11.0972 7.57872H11.0889ZM28.5299 3.25367C28.4718 2.90251 28.3364 2.9303 28.2839 3.1223C28.2711 3.16538 28.2618 3.20929 28.2563 3.25367C28.1651 3.25367 27.9607 3.23093 27.9164 3.30672C27.8722 3.38251 27.9634 3.42293 28.0325 3.45072C28.0795 3.46913 28.1286 3.48268 28.1789 3.49114C28.1154 3.56946 28.0353 3.71851 28.1182 3.76651C28.2011 3.81451 28.3558 3.66546 28.4249 3.59724C28.4967 3.65282 28.6376 3.7463 28.7178 3.70082C28.7979 3.65535 28.6708 3.51893 28.5989 3.44819C28.6929 3.43051 28.8338 3.39009 28.8117 3.30672C28.7896 3.22335 28.6155 3.24609 28.5299 3.25367ZM28.5603 3.43051C28.5437 3.43051 28.5382 3.44314 28.5603 3.4583C28.5824 3.47346 28.7399 3.63261 28.6984 3.66798C28.657 3.70335 28.5022 3.59472 28.4442 3.55682C28.4401 3.55433 28.4353 3.55299 28.4304 3.55299C28.4255 3.55299 28.4207 3.55433 28.4166 3.55682C28.3254 3.63767 28.1845 3.74882 28.1403 3.71851C28.0961 3.68819 28.2176 3.50882 28.2287 3.48103C28.2312 3.47867 28.2326 3.4755 28.2326 3.47219C28.2326 3.46889 28.2312 3.46571 28.2287 3.46335C28.1789 3.44567 27.969 3.38756 27.9828 3.3244C27.9966 3.26124 28.2591 3.28398 28.2895 3.28651C28.3199 3.28903 28.3116 3.27388 28.3143 3.25367C28.3668 3.00103 28.4138 3.01872 28.4359 3.05409C28.4698 3.12381 28.4984 3.19555 28.5216 3.26882V3.28146C28.5216 3.28146 28.7592 3.28146 28.7758 3.3244C28.7924 3.36735 28.6266 3.41788 28.5603 3.43051ZM17.8917 24.9118C17.3723 23.305 16.9854 22.6229 17.1706 22.0747C17.5408 21.092 21.3153 20.2532 22.5725 19.988C23.0008 19.897 23.9707 19.6899 24.3824 19.7707C24.7941 19.8516 25.0428 20.0713 25.9905 22.676C26.3902 23.7446 26.7178 24.8347 26.9715 25.94C27.0158 26.0701 27.0281 26.2075 27.0076 26.3425C26.987 26.4774 26.9341 26.6065 26.8526 26.7206C26.4161 27.2511 23.2854 28.0343 22.5836 28.2111C19.1711 29.0676 19.5828 28.9387 18.5632 26.6019C18.5632 26.5972 18.5612 26.5927 18.5575 26.5894C18.5539 26.5861 18.549 26.5842 18.5439 26.5842C18.5387 26.5842 18.5338 26.5861 18.5302 26.5894C18.5265 26.5927 18.5245 26.5972 18.5245 26.6019C18.9721 27.865 19.1352 28.5901 19.8702 28.7619C20.4228 28.8958 22.0227 28.4309 22.6084 28.2793C26.2917 27.3118 26.6924 27.0415 26.9272 26.7636C27.0157 26.6404 27.0737 26.5011 27.0971 26.3554C27.1205 26.2096 27.1087 26.0609 27.0626 25.9198C26.8101 24.8076 26.4825 23.7108 26.0817 22.6356C25.1284 20.0335 24.8853 19.7732 24.4017 19.6772C23.9817 19.5939 23.1362 19.7732 22.5532 19.897C21.2959 20.1673 17.4966 21.0036 17.0932 22.0393C16.8694 22.6532 17.5602 24.2499 17.8503 24.9118C17.8614 24.9471 17.9 24.9345 17.8917 24.9118ZM29.4638 26.1522C30.2568 26.1092 33.7909 25.1947 35.5427 24.4949C36.1341 24.2575 36.4297 24.0175 36.2888 23.444C35.7109 21.5828 35.0001 19.7583 34.1612 17.9821C34.056 17.6888 33.8394 17.4396 33.5505 17.2798C32.915 17.0019 29.8341 17.9189 28.8089 18.2221C28.1596 18.4141 27.0488 18.74 26.5984 19.1492C26.2005 19.4979 26.2558 19.9425 26.405 20.4276C28.1375 26.0208 28.4939 26.2027 29.4638 26.1522ZM26.6343 19.1998C27.0847 18.8031 28.1928 18.4823 28.8255 18.2953C29.7042 18.0427 32.9205 17.1004 33.5229 17.3556C33.7926 17.5097 33.9941 17.7459 34.0921 18.0225C34.9277 19.7925 35.6312 21.6123 36.1976 23.4692C36.3109 24.02 36.0733 24.1892 35.5123 24.4141C34.0285 25.0078 30.3093 26.0233 29.4721 26.0739C28.5105 26.1295 28.1817 25.8212 26.4658 20.42C26.3111 19.9577 26.2558 19.5231 26.6343 19.1998ZM7.78415 10.4031C7.78028 10.3872 7.77293 10.3722 7.76256 10.3589C7.75218 10.3457 7.73899 10.3345 7.72378 10.326C7.70856 10.3175 7.69163 10.3119 7.67399 10.3095C7.65635 10.3072 7.63837 10.3081 7.62113 10.3122L2.72206 11.497C2.68542 11.5057 2.65407 11.5274 2.63489 11.5573C2.61572 11.5871 2.6103 11.6227 2.61983 11.6562C2.62936 11.6897 2.65305 11.7184 2.68569 11.7359C2.71834 11.7534 2.75726 11.7584 2.79391 11.7497L7.69021 10.5648C7.70847 10.5606 7.72556 10.5529 7.74037 10.5422C7.75519 10.5315 7.76741 10.5182 7.77626 10.503C7.7851 10.4877 7.79037 10.471 7.79173 10.4538C7.79309 10.4366 7.79051 10.4194 7.78415 10.4031ZM6.72034 11.6663C6.71615 11.6506 6.70859 11.6359 6.69808 11.6229C6.68758 11.6099 6.67434 11.599 6.65916 11.5908C6.64397 11.5825 6.62714 11.5771 6.60966 11.5749C6.59217 11.5727 6.57437 11.5737 6.55731 11.5779L2.99285 12.4394C2.97523 12.4437 2.95875 12.4512 2.9444 12.4616C2.93005 12.4719 2.91814 12.4847 2.90936 12.4994C2.90058 12.514 2.89514 12.5301 2.89334 12.5467C2.89154 12.5633 2.89344 12.5801 2.89891 12.596C2.90305 12.6116 2.91063 12.6263 2.92118 12.6392C2.93173 12.6521 2.94503 12.6629 2.96028 12.6709C2.97552 12.6789 2.9924 12.684 3.00987 12.6859C3.02734 12.6878 3.04506 12.6864 3.06193 12.6819L6.62639 11.8204C6.6437 11.816 6.65989 11.8086 6.67402 11.7984C6.68814 11.7883 6.69992 11.7757 6.70866 11.7613C6.7174 11.747 6.72294 11.7312 6.72494 11.7149C6.72695 11.6986 6.72538 11.6821 6.72034 11.6663ZM9.82888 9.8524C9.83856 9.88381 9.8614 9.91045 9.89245 9.92653C9.9235 9.94262 9.96023 9.94684 9.99467 9.9383L14.891 8.75346C14.9082 8.74931 14.9244 8.7421 14.9386 8.73224C14.9528 8.72237 14.9647 8.71005 14.9737 8.69598C14.9826 8.6819 14.9885 8.66635 14.9909 8.6502C14.9933 8.63406 14.9922 8.61763 14.9877 8.60188C14.9831 8.58612 14.9753 8.57133 14.9645 8.55836C14.9537 8.54539 14.9402 8.53448 14.9248 8.52627C14.9094 8.51806 14.8924 8.5127 14.8747 8.5105C14.8571 8.50831 14.8391 8.50931 14.8219 8.51346L9.92559 9.7084C9.89252 9.71674 9.86414 9.73624 9.84618 9.76297C9.82823 9.7897 9.82205 9.82166 9.82888 9.8524ZM13.9239 9.87514C13.9142 9.84363 13.8914 9.8168 13.8605 9.80031C13.8296 9.78382 13.7929 9.77894 13.7581 9.78672L10.1936 10.6507C10.1761 10.6548 10.1597 10.662 10.1453 10.6721C10.131 10.6822 10.1191 10.6948 10.1103 10.7092C10.1015 10.7237 10.096 10.7396 10.0942 10.756C10.0924 10.7725 10.0942 10.7891 10.0997 10.8048C10.1088 10.8361 10.131 10.8629 10.1614 10.8795C10.1919 10.896 10.2283 10.9009 10.2627 10.8932L13.8299 10.0292C13.8645 10.0198 13.8936 9.99847 13.9112 9.96967C13.9287 9.94088 13.9333 9.90696 13.9239 9.87514ZM17.0324 8.08398C17.0366 8.09966 17.0442 8.11442 17.0547 8.12739C17.0652 8.14037 17.0784 8.15129 17.0936 8.15953C17.1088 8.16776 17.1256 8.17314 17.1431 8.17535C17.1606 8.17757 17.1784 8.17656 17.1954 8.1724L22.0917 6.98756C22.1094 6.98318 22.1259 6.97564 22.1404 6.96537C22.1548 6.9551 22.1669 6.94231 22.1759 6.92774C22.1849 6.91316 22.1907 6.8971 22.1928 6.88048C22.195 6.86386 22.1935 6.84702 22.1884 6.83093C22.1782 6.79989 22.1552 6.77366 22.1243 6.75767C22.0935 6.74168 22.0571 6.73715 22.0227 6.74503L17.1264 7.91724C17.1072 7.921 17.0891 7.92861 17.0735 7.93951C17.058 7.95041 17.0452 7.96434 17.0362 7.98029C17.0272 7.99624 17.0222 8.01381 17.0216 8.03174C17.0209 8.04967 17.0246 8.06752 17.0324 8.08398ZM21.1302 8.08398C21.1205 8.05258 21.0976 8.02594 21.0666 8.00985C21.0355 7.99377 20.9988 7.98954 20.9644 7.99809L17.3999 8.85956C17.3633 8.86827 17.3319 8.88993 17.3127 8.91978C17.2936 8.94963 17.2881 8.98522 17.2977 9.01872C17.3072 9.05222 17.3309 9.08089 17.3635 9.09842C17.3962 9.11595 17.4351 9.1209 17.4718 9.11219L21.0362 8.24819C21.0551 8.24436 21.0727 8.23681 21.0881 8.22607C21.1034 8.21533 21.1159 8.20167 21.1249 8.18603C21.1338 8.1704 21.1389 8.15317 21.1399 8.13554C21.1408 8.11791 21.1375 8.10032 21.1302 8.08398ZM24.2332 6.28272C24.2377 6.29817 24.2454 6.31266 24.2561 6.32535C24.2667 6.33805 24.28 6.34869 24.2951 6.35667C24.3103 6.36466 24.327 6.36982 24.3444 6.37187C24.3617 6.37392 24.3793 6.37281 24.3962 6.36861L29.2953 5.18377C29.3126 5.17941 29.3288 5.17194 29.3429 5.1618C29.357 5.15165 29.3688 5.13905 29.3775 5.1247C29.3863 5.11036 29.3918 5.09457 29.3938 5.07826C29.3958 5.06194 29.3943 5.04542 29.3892 5.02967C29.3847 5.01389 29.3768 4.99908 29.3661 4.98608C29.3553 4.97309 29.3418 4.96217 29.3264 4.95396C29.311 4.94574 29.294 4.94039 29.2763 4.93821C29.2586 4.93602 29.2407 4.93706 29.2234 4.94124L24.3271 6.12609C24.2919 6.13547 24.2623 6.15724 24.2447 6.18661C24.227 6.21599 24.2229 6.25056 24.2332 6.28272ZM28.3143 6.29535C28.3102 6.27967 28.3026 6.26491 28.2921 6.25194C28.2816 6.23896 28.2683 6.22804 28.2532 6.2198C28.238 6.21157 28.2211 6.20619 28.2037 6.20398C28.1862 6.20177 28.1684 6.20277 28.1513 6.20693L24.5979 7.07346C24.5807 7.0776 24.5645 7.08481 24.5503 7.09467C24.5361 7.10454 24.5242 7.11686 24.5152 7.13093C24.5062 7.14501 24.5004 7.16056 24.498 7.17671C24.4956 7.19285 24.4967 7.20928 24.5012 7.22503C24.5057 7.24079 24.5136 7.25558 24.5244 7.26855C24.5352 7.28152 24.5487 7.29243 24.5641 7.30064C24.5795 7.30885 24.5965 7.31421 24.6141 7.31641C24.6318 7.3186 24.6498 7.3176 24.667 7.31346L28.2314 6.45198C28.2483 6.44688 28.2638 6.43874 28.2772 6.42804C28.2905 6.41734 28.3014 6.4043 28.3091 6.38969C28.3168 6.37509 28.3213 6.35921 28.3222 6.343C28.3231 6.3268 28.3204 6.3106 28.3143 6.29535ZM27.245 28.0419C27.2397 28.0262 27.231 28.0117 27.2195 27.9991C27.2079 27.9866 27.1938 27.9762 27.1778 27.9687C27.1619 27.9612 27.1445 27.9566 27.1266 27.9553C27.1087 27.954 27.0907 27.9559 27.0737 27.961L20.7378 29.7648C20.7207 29.7696 20.7049 29.7775 20.6911 29.7879C20.6774 29.7983 20.666 29.8111 20.6577 29.8255C20.6494 29.8399 20.6442 29.8557 20.6425 29.872C20.6409 29.8882 20.6427 29.9046 20.648 29.9202C20.6532 29.9358 20.6618 29.9503 20.6732 29.9628C20.6846 29.9754 20.6986 29.9858 20.7144 29.9934C20.7301 30.001 20.7474 30.0058 20.7652 30.0073C20.7829 30.0088 20.8009 30.0071 20.8179 30.0023L27.1538 28.1985C27.1885 28.1886 27.2175 28.1666 27.2346 28.1373C27.2516 28.108 27.2554 28.0737 27.245 28.0419ZM25.8275 29.7648C25.8222 29.7492 25.8135 29.7346 25.802 29.7221C25.7904 29.7095 25.7763 29.6992 25.7603 29.6916C25.7444 29.6841 25.727 29.6796 25.7091 29.6783C25.6912 29.6769 25.6732 29.6789 25.6562 29.684L21.0998 30.98C21.0826 30.9849 21.0667 30.9928 21.053 31.0033C21.0393 31.0139 21.028 31.0268 21.0197 31.0414C21.0115 31.056 21.0065 31.0719 21.0051 31.0882C21.0036 31.1046 21.0058 31.121 21.0113 31.1366C21.0222 31.1683 21.0462 31.1948 21.0783 31.2104C21.1104 31.226 21.1478 31.2295 21.1827 31.22L25.7363 29.9215C25.771 29.9115 25.8 29.8896 25.8171 29.8602C25.8341 29.8309 25.8379 29.7966 25.8275 29.7648ZM27.7755 30.3863L21.4396 32.1926C21.4226 32.1976 21.4068 32.2056 21.3931 32.2162C21.3794 32.2267 21.3682 32.2396 21.3599 32.2542C21.3517 32.2687 21.3467 32.2846 21.3452 32.3009C21.3437 32.3172 21.3458 32.3337 21.3512 32.3492C21.3567 32.3648 21.3654 32.3793 21.377 32.3918C21.3885 32.4043 21.4026 32.4146 21.4186 32.4221C21.4345 32.4296 21.4518 32.4342 21.4697 32.4356C21.4875 32.4369 21.5055 32.4351 21.5225 32.4301L27.8584 30.6263C27.8755 30.6214 27.8914 30.6135 27.9052 30.6029C27.9189 30.5924 27.9302 30.5795 27.9385 30.5649C27.9467 30.5503 27.9517 30.5344 27.9531 30.518C27.9545 30.5017 27.9524 30.4853 27.9468 30.4697C27.936 30.438 27.912 30.4115 27.8799 30.3958C27.8478 30.3802 27.8103 30.3768 27.7755 30.3863ZM36.2391 25.4676L29.9032 27.284C29.8861 27.2888 29.8702 27.2966 29.8565 27.307C29.8428 27.3174 29.8314 27.3302 29.8231 27.3447C29.8147 27.3591 29.8096 27.3749 29.8079 27.3911C29.8062 27.4074 29.8081 27.4238 29.8134 27.4393C29.8186 27.4549 29.8272 27.4694 29.8386 27.482C29.85 27.4946 29.8639 27.505 29.8797 27.5126C29.8955 27.5202 29.9128 27.5249 29.9305 27.5264C29.9483 27.528 29.9662 27.5263 29.9833 27.5215L36.3275 25.7076C36.3641 25.6978 36.395 25.6752 36.4134 25.6447C36.4318 25.6141 36.4362 25.5781 36.4256 25.5446C36.4149 25.5111 36.3902 25.4828 36.3568 25.466C36.3233 25.4492 36.284 25.4452 36.2473 25.4549L36.2391 25.4676ZM34.9791 27.2688C34.974 27.2533 34.9656 27.2388 34.9544 27.2262C34.9431 27.2137 34.9292 27.2034 34.9135 27.1958C34.8978 27.1883 34.8805 27.1837 34.8629 27.1824C34.8452 27.181 34.8274 27.1829 34.8105 27.188L30.2485 28.484C30.2139 28.4939 30.1849 28.5159 30.1678 28.5452C30.1507 28.5745 30.147 28.6088 30.1574 28.6406C30.1627 28.6563 30.1714 28.6708 30.1829 28.6834C30.1944 28.6959 30.2086 28.7063 30.2245 28.7138C30.2405 28.7213 30.2579 28.7259 30.2758 28.7272C30.2936 28.7285 30.3116 28.7265 30.3287 28.7215L34.8851 27.4255C34.9027 27.4211 34.9192 27.4136 34.9336 27.4032C34.9479 27.3929 34.9598 27.3801 34.9686 27.3654C34.9774 27.3508 34.9828 27.3347 34.9846 27.3181C34.9864 27.3015 34.9845 27.2847 34.9791 27.2688ZM30.5249 29.8507C30.5299 29.8663 30.5383 29.8809 30.5495 29.8935C30.5607 29.9061 30.5746 29.9166 30.5902 29.9244C30.6059 29.9321 30.6231 29.9369 30.6408 29.9386C30.6585 29.9403 30.6764 29.9387 30.6934 29.9341L37.0293 28.1303C37.0485 28.1271 37.0667 28.1202 37.0828 28.1101C37.0988 28.1 37.1124 28.087 37.1225 28.0717C37.1327 28.0565 37.1392 28.0395 37.1416 28.0218C37.1441 28.0041 37.1424 27.9862 37.1367 27.9691C37.131 27.9521 37.1214 27.9364 37.1086 27.9229C37.0958 27.9095 37.08 27.8987 37.0623 27.8913C37.0446 27.8838 37.0253 27.8799 37.0058 27.8797C36.9864 27.8795 36.967 27.8832 36.9492 27.8903L30.6133 29.6941C30.5962 29.699 30.5803 29.7069 30.5665 29.7174C30.5528 29.728 30.5415 29.7409 30.5332 29.7555C30.525 29.7701 30.52 29.786 30.5186 29.8023C30.5172 29.8187 30.5193 29.8351 30.5249 29.8507ZM22.788 36.2297L25.8828 35.3707C25.9138 35.3583 25.9388 35.3359 25.9529 35.3078C25.9671 35.2796 25.9694 35.2477 25.9595 35.2181C25.9497 35.1885 25.9282 35.1632 25.8993 35.1471C25.8704 35.131 25.836 35.1252 25.8026 35.1307L22.7079 35.9897C22.6887 35.9929 22.6705 35.9997 22.6545 36.0098C22.6384 36.0199 22.6248 36.033 22.6147 36.0482C22.6046 36.0634 22.5981 36.0805 22.5956 36.0981C22.5932 36.1158 22.5949 36.1338 22.6005 36.1508C22.6062 36.1679 22.6158 36.1836 22.6286 36.197C22.6415 36.2105 22.6572 36.2212 22.675 36.2287C22.6927 36.2361 22.7119 36.2401 22.7314 36.2402C22.7509 36.2404 22.7702 36.2368 22.788 36.2297ZM22.8654 37.1088C22.8763 37.1405 22.9003 37.167 22.9324 37.1826C22.9644 37.1982 23.0019 37.2017 23.0367 37.1922L27.2091 36.0326C27.2394 36.02 27.2638 35.9979 27.2777 35.9701C27.2916 35.9424 27.294 35.9111 27.2846 35.8818C27.2752 35.8526 27.2545 35.8275 27.2264 35.8111C27.1983 35.7947 27.1647 35.7881 27.1317 35.7926L22.9483 36.9522C22.9152 36.9636 22.8881 36.9862 22.8727 37.0154C22.8572 37.0445 22.8546 37.078 22.8654 37.1088ZM23.8933 37.988L26.3636 37.3008C26.3808 37.2965 26.397 37.289 26.411 37.2788C26.425 37.2686 26.4366 37.256 26.4451 37.2416C26.4537 37.2272 26.4589 37.2113 26.4606 37.195C26.4622 37.1787 26.4602 37.1623 26.4547 37.1467C26.4497 37.1311 26.4413 37.1166 26.4301 37.1039C26.4189 37.0913 26.405 37.0808 26.3894 37.0731C26.3737 37.0653 26.3565 37.0605 26.3388 37.0588C26.3211 37.0572 26.3032 37.0587 26.2862 37.0634L23.7994 37.748C23.7812 37.7528 23.7643 37.7608 23.7495 37.7716C23.7348 37.7824 23.7225 37.7958 23.7134 37.8109C23.7043 37.826 23.6985 37.8426 23.6965 37.8598C23.6944 37.877 23.696 37.8943 23.7013 37.9109C23.7065 37.9275 23.7153 37.943 23.7271 37.9565C23.7389 37.97 23.7535 37.9812 23.7701 37.9895C23.7866 37.9978 23.8048 38.0031 23.8236 38.005C23.8423 38.0069 23.8613 38.0054 23.8795 38.0006L23.8933 37.988ZM24.1917 38.857C24.2026 38.8887 24.2266 38.9152 24.2587 38.9309C24.2907 38.9465 24.3282 38.9499 24.363 38.9404L27.8999 37.9602C27.9309 37.9478 27.9559 37.9254 27.97 37.8972C27.9842 37.8691 27.9865 37.8372 27.9766 37.8076C27.9668 37.778 27.9453 37.7527 27.9164 37.7366C27.8875 37.7205 27.8531 37.7146 27.8197 37.7202L24.2829 38.7004C24.2482 38.7103 24.2192 38.7323 24.2022 38.7616C24.1851 38.7909 24.1814 38.8252 24.1917 38.857ZM26.872 39.188L23.9237 40.004C23.9056 40.0088 23.8886 40.0168 23.8739 40.0276C23.8591 40.0384 23.8469 40.0518 23.8377 40.0669C23.8286 40.082 23.8229 40.0986 23.8208 40.1158C23.8187 40.133 23.8203 40.1503 23.8256 40.1669C23.8309 40.1835 23.8397 40.199 23.8515 40.2125C23.8633 40.226 23.8779 40.2372 23.8944 40.2455C23.911 40.2538 23.9291 40.2591 23.9479 40.261C23.9667 40.2629 23.9857 40.2614 24.0038 40.2566L26.9521 39.4381C26.9866 39.4284 27.0154 39.4065 27.0322 39.3774C27.049 39.3483 27.0525 39.3142 27.0419 39.2827C27.0313 39.2512 27.0074 39.2249 26.9755 39.2095C26.9437 39.1941 26.9064 39.1909 26.872 39.2006V39.188ZM28.3889 34.7391L30.9393 34.0772C30.976 34.0682 31.0072 34.0462 31.0261 34.0161C31.045 33.986 31.0501 33.9503 31.0402 33.9168C31.0303 33.8833 31.0063 33.8548 30.9733 33.8375C30.9404 33.8202 30.9014 33.8156 30.8647 33.8246L28.3143 34.4991C28.2968 34.5032 28.2803 34.5105 28.2659 34.5205C28.2514 34.5305 28.2394 34.5431 28.2303 34.5575C28.2213 34.5719 28.2155 34.5877 28.2134 34.6042C28.2112 34.6206 28.2126 34.6373 28.2176 34.6532C28.2285 34.685 28.2524 34.7117 28.2844 34.7277C28.3163 34.7438 28.3538 34.7478 28.3889 34.7391ZM28.5492 35.6208C28.554 35.6367 28.5622 35.6515 28.5732 35.6644C28.5843 35.6773 28.5981 35.688 28.6138 35.696C28.6295 35.704 28.6468 35.7091 28.6646 35.7109C28.6825 35.7128 28.7005 35.7113 28.7178 35.7067L31.6716 34.9488C31.7082 34.9398 31.7394 34.9178 31.7583 34.8877C31.7772 34.8576 31.7823 34.8219 31.7724 34.7884C31.7625 34.7549 31.7385 34.7264 31.7056 34.7091C31.6727 34.6918 31.6336 34.6871 31.597 34.6962L28.6432 35.4541C28.624 35.4578 28.6059 35.4654 28.5903 35.4763C28.5748 35.4873 28.562 35.5012 28.553 35.5171C28.544 35.5331 28.539 35.5507 28.5384 35.5686C28.5377 35.5865 28.5414 35.6044 28.5492 35.6208ZM31.5859 35.8735C31.575 35.8417 31.5511 35.815 31.5192 35.799C31.4872 35.7829 31.4498 35.7789 31.4146 35.7876L28.972 36.4217C28.9538 36.4261 28.9368 36.4338 28.9219 36.4443C28.9071 36.4548 28.8946 36.4679 28.8852 36.4828C28.8663 36.5129 28.8612 36.5486 28.8711 36.5821C28.881 36.6156 28.9051 36.6441 28.938 36.6614C28.9709 36.6787 29.0099 36.6833 29.0466 36.6743L31.492 36.0402C31.5104 36.0353 31.5276 36.0271 31.5425 36.0159C31.5573 36.0048 31.5695 35.991 31.5783 35.9754C31.5871 35.9598 31.5923 35.9427 31.5936 35.9251C31.5949 35.9076 31.5923 35.89 31.5859 35.8735ZM29.2068 37.5434C29.2116 37.5592 29.2198 37.574 29.2309 37.5869C29.242 37.5998 29.2558 37.6106 29.2714 37.6186C29.2871 37.6266 29.3044 37.6316 29.3222 37.6335C29.3401 37.6353 29.3582 37.6339 29.3754 37.6292L32.2629 36.8714C32.2804 36.8673 32.2968 36.86 32.3112 36.85C32.3255 36.8399 32.3374 36.8273 32.3462 36.8128C32.355 36.7984 32.3605 36.7825 32.3623 36.766C32.3641 36.7496 32.3623 36.733 32.3568 36.7172C32.3521 36.7008 32.3438 36.6855 32.3323 36.6722C32.3208 36.6588 32.3065 36.6478 32.2902 36.6398C32.2739 36.6317 32.2559 36.6268 32.2374 36.6254C32.2189 36.6239 32.2003 36.6259 32.1828 36.6314L29.2953 37.3892C29.2617 37.3997 29.2338 37.4215 29.2174 37.4502C29.2009 37.4788 29.1972 37.5122 29.2068 37.5434ZM31.6301 37.8339L29.6351 38.3518C29.5985 38.3608 29.5673 38.3828 29.5484 38.4129C29.5294 38.443 29.5244 38.4787 29.5343 38.5122C29.5442 38.5457 29.5682 38.5742 29.6011 38.5915C29.634 38.6088 29.6731 38.6134 29.7097 38.6044L31.7047 38.0865C31.7414 38.0775 31.7726 38.0555 31.7915 38.0254C31.8104 37.9953 31.8155 37.9596 31.8056 37.9261C31.7957 37.8926 31.7716 37.8641 31.7387 37.8468C31.7058 37.8295 31.6668 37.8248 31.6301 37.8339ZM18.4029 14.9227C18.5447 15.0516 18.7191 15.1466 18.9106 15.1991C19.102 15.2517 19.3048 15.2603 19.5007 15.2241C19.6967 15.1879 19.8799 15.1081 20.0341 14.9918C20.1883 14.8754 20.3088 14.7261 20.3847 14.557C20.4607 14.3879 20.4899 14.2043 20.4698 14.0224C20.4496 13.8405 20.3807 13.666 20.2692 13.5143C20.1576 13.3626 20.0069 13.2384 19.8303 13.1527C19.6537 13.067 19.4567 13.0224 19.2567 13.0229C19.0151 13.0211 18.7784 13.0854 18.577 13.2077C18.3757 13.3299 18.2191 13.5045 18.1272 13.7089C18.0354 13.9132 18.0125 14.1381 18.0617 14.3544C18.1108 14.5707 18.2297 14.7687 18.4029 14.9227ZM18.5217 13.4575C18.6447 13.3464 18.7956 13.2647 18.9613 13.2196C19.127 13.1745 19.3022 13.1674 19.4716 13.1989C19.6409 13.2304 19.7992 13.2995 19.9325 13.4002C20.0657 13.5009 20.1697 13.63 20.2354 13.7762C20.3012 13.9223 20.3265 14.081 20.3092 14.2383C20.292 14.3955 20.2326 14.5464 20.1364 14.6777C20.0402 14.809 19.9102 14.9166 19.7577 14.9911C19.6053 15.0655 19.4351 15.1045 19.2623 15.1046C19.0535 15.1047 18.8494 15.048 18.6759 14.9418C18.5024 14.8356 18.3674 14.6846 18.288 14.508C18.2086 14.3315 18.1885 14.1373 18.2301 13.9502C18.2717 13.7632 18.3732 13.5916 18.5217 13.4575Z"/>
</mask>
<path d="M11.6415 7.57872C11.5681 7.52675 11.4872 7.48425 11.4011 7.4524C11.4376 7.38207 11.4431 7.30159 11.4165 7.22765C11.3899 7.1537 11.3332 7.09195 11.2581 7.05519C11.1831 7.01844 11.0954 7.00949 11.0133 7.0302C10.9313 7.05091 10.861 7.0997 10.8172 7.16646C10.7734 7.23321 10.7594 7.31282 10.778 7.38878C10.7967 7.46474 10.8465 7.53124 10.9173 7.57449C10.9881 7.61774 11.0744 7.63444 11.1583 7.62112C11.2422 7.60779 11.3173 7.56548 11.368 7.50293C11.4458 7.55081 11.5292 7.59064 11.6166 7.62167C11.6225 7.62281 11.6286 7.62217 11.6341 7.61984C11.6395 7.61752 11.644 7.61363 11.6468 7.60878C11.6496 7.60392 11.6506 7.59836 11.6497 7.59294C11.6487 7.58751 11.6458 7.58252 11.6415 7.57872ZM11.0889 7.57872C11.0336 7.58175 10.9787 7.56956 10.9311 7.54371C10.8835 7.51786 10.8456 7.47954 10.8221 7.43373C10.7986 7.38792 10.7907 7.33671 10.7994 7.28675C10.8081 7.23679 10.8331 7.19037 10.871 7.15351C10.9089 7.11665 10.958 7.09104 11.012 7.08C11.066 7.06896 11.1224 7.073 11.1739 7.09159C11.2253 7.11018 11.2695 7.14248 11.3006 7.18429C11.3318 7.2261 11.3485 7.27549 11.3486 7.32609C11.3489 7.38933 11.3232 7.45037 11.2767 7.49714C11.2301 7.54392 11.1661 7.57303 11.0972 7.57872H11.0889ZM28.5299 3.25367C28.4718 2.90251 28.3364 2.9303 28.2839 3.1223C28.2711 3.16538 28.2618 3.20929 28.2563 3.25367C28.1651 3.25367 27.9607 3.23093 27.9164 3.30672C27.8722 3.38251 27.9634 3.42293 28.0325 3.45072C28.0795 3.46913 28.1286 3.48268 28.1789 3.49114C28.1154 3.56946 28.0353 3.71851 28.1182 3.76651C28.2011 3.81451 28.3558 3.66546 28.4249 3.59724C28.4967 3.65282 28.6376 3.7463 28.7178 3.70082C28.7979 3.65535 28.6708 3.51893 28.5989 3.44819C28.6929 3.43051 28.8338 3.39009 28.8117 3.30672C28.7896 3.22335 28.6155 3.24609 28.5299 3.25367ZM28.5603 3.43051C28.5437 3.43051 28.5382 3.44314 28.5603 3.4583C28.5824 3.47346 28.7399 3.63261 28.6984 3.66798C28.657 3.70335 28.5022 3.59472 28.4442 3.55682C28.4401 3.55433 28.4353 3.55299 28.4304 3.55299C28.4255 3.55299 28.4207 3.55433 28.4166 3.55682C28.3254 3.63767 28.1845 3.74882 28.1403 3.71851C28.0961 3.68819 28.2176 3.50882 28.2287 3.48103C28.2312 3.47867 28.2326 3.4755 28.2326 3.47219C28.2326 3.46889 28.2312 3.46571 28.2287 3.46335C28.1789 3.44567 27.969 3.38756 27.9828 3.3244C27.9966 3.26124 28.2591 3.28398 28.2895 3.28651C28.3199 3.28903 28.3116 3.27388 28.3143 3.25367C28.3668 3.00103 28.4138 3.01872 28.4359 3.05409C28.4698 3.12381 28.4984 3.19555 28.5216 3.26882V3.28146C28.5216 3.28146 28.7592 3.28146 28.7758 3.3244C28.7924 3.36735 28.6266 3.41788 28.5603 3.43051ZM17.8917 24.9118C17.3723 23.305 16.9854 22.6229 17.1706 22.0747C17.5408 21.092 21.3153 20.2532 22.5725 19.988C23.0008 19.897 23.9707 19.6899 24.3824 19.7707C24.7941 19.8516 25.0428 20.0713 25.9905 22.676C26.3902 23.7446 26.7178 24.8347 26.9715 25.94C27.0158 26.0701 27.0281 26.2075 27.0076 26.3425C26.987 26.4774 26.9341 26.6065 26.8526 26.7206C26.4161 27.2511 23.2854 28.0343 22.5836 28.2111C19.1711 29.0676 19.5828 28.9387 18.5632 26.6019C18.5632 26.5972 18.5612 26.5927 18.5575 26.5894C18.5539 26.5861 18.549 26.5842 18.5439 26.5842C18.5387 26.5842 18.5338 26.5861 18.5302 26.5894C18.5265 26.5927 18.5245 26.5972 18.5245 26.6019C18.9721 27.865 19.1352 28.5901 19.8702 28.7619C20.4228 28.8958 22.0227 28.4309 22.6084 28.2793C26.2917 27.3118 26.6924 27.0415 26.9272 26.7636C27.0157 26.6404 27.0737 26.5011 27.0971 26.3554C27.1205 26.2096 27.1087 26.0609 27.0626 25.9198C26.8101 24.8076 26.4825 23.7108 26.0817 22.6356C25.1284 20.0335 24.8853 19.7732 24.4017 19.6772C23.9817 19.5939 23.1362 19.7732 22.5532 19.897C21.2959 20.1673 17.4966 21.0036 17.0932 22.0393C16.8694 22.6532 17.5602 24.2499 17.8503 24.9118C17.8614 24.9471 17.9 24.9345 17.8917 24.9118ZM29.4638 26.1522C30.2568 26.1092 33.7909 25.1947 35.5427 24.4949C36.1341 24.2575 36.4297 24.0175 36.2888 23.444C35.7109 21.5828 35.0001 19.7583 34.1612 17.9821C34.056 17.6888 33.8394 17.4396 33.5505 17.2798C32.915 17.0019 29.8341 17.9189 28.8089 18.2221C28.1596 18.4141 27.0488 18.74 26.5984 19.1492C26.2005 19.4979 26.2558 19.9425 26.405 20.4276C28.1375 26.0208 28.4939 26.2027 29.4638 26.1522ZM26.6343 19.1998C27.0847 18.8031 28.1928 18.4823 28.8255 18.2953C29.7042 18.0427 32.9205 17.1004 33.5229 17.3556C33.7926 17.5097 33.9941 17.7459 34.0921 18.0225C34.9277 19.7925 35.6312 21.6123 36.1976 23.4692C36.3109 24.02 36.0733 24.1892 35.5123 24.4141C34.0285 25.0078 30.3093 26.0233 29.4721 26.0739C28.5105 26.1295 28.1817 25.8212 26.4658 20.42C26.3111 19.9577 26.2558 19.5231 26.6343 19.1998ZM7.78415 10.4031C7.78028 10.3872 7.77293 10.3722 7.76256 10.3589C7.75218 10.3457 7.73899 10.3345 7.72378 10.326C7.70856 10.3175 7.69163 10.3119 7.67399 10.3095C7.65635 10.3072 7.63837 10.3081 7.62113 10.3122L2.72206 11.497C2.68542 11.5057 2.65407 11.5274 2.63489 11.5573C2.61572 11.5871 2.6103 11.6227 2.61983 11.6562C2.62936 11.6897 2.65305 11.7184 2.68569 11.7359C2.71834 11.7534 2.75726 11.7584 2.79391 11.7497L7.69021 10.5648C7.70847 10.5606 7.72556 10.5529 7.74037 10.5422C7.75519 10.5315 7.76741 10.5182 7.77626 10.503C7.7851 10.4877 7.79037 10.471 7.79173 10.4538C7.79309 10.4366 7.79051 10.4194 7.78415 10.4031ZM6.72034 11.6663C6.71615 11.6506 6.70859 11.6359 6.69808 11.6229C6.68758 11.6099 6.67434 11.599 6.65916 11.5908C6.64397 11.5825 6.62714 11.5771 6.60966 11.5749C6.59217 11.5727 6.57437 11.5737 6.55731 11.5779L2.99285 12.4394C2.97523 12.4437 2.95875 12.4512 2.9444 12.4616C2.93005 12.4719 2.91814 12.4847 2.90936 12.4994C2.90058 12.514 2.89514 12.5301 2.89334 12.5467C2.89154 12.5633 2.89344 12.5801 2.89891 12.596C2.90305 12.6116 2.91063 12.6263 2.92118 12.6392C2.93173 12.6521 2.94503 12.6629 2.96028 12.6709C2.97552 12.6789 2.9924 12.684 3.00987 12.6859C3.02734 12.6878 3.04506 12.6864 3.06193 12.6819L6.62639 11.8204C6.6437 11.816 6.65989 11.8086 6.67402 11.7984C6.68814 11.7883 6.69992 11.7757 6.70866 11.7613C6.7174 11.747 6.72294 11.7312 6.72494 11.7149C6.72695 11.6986 6.72538 11.6821 6.72034 11.6663ZM9.82888 9.8524C9.83856 9.88381 9.8614 9.91045 9.89245 9.92653C9.9235 9.94262 9.96023 9.94684 9.99467 9.9383L14.891 8.75346C14.9082 8.74931 14.9244 8.7421 14.9386 8.73224C14.9528 8.72237 14.9647 8.71005 14.9737 8.69598C14.9826 8.6819 14.9885 8.66635 14.9909 8.6502C14.9933 8.63406 14.9922 8.61763 14.9877 8.60188C14.9831 8.58612 14.9753 8.57133 14.9645 8.55836C14.9537 8.54539 14.9402 8.53448 14.9248 8.52627C14.9094 8.51806 14.8924 8.5127 14.8747 8.5105C14.8571 8.50831 14.8391 8.50931 14.8219 8.51346L9.92559 9.7084C9.89252 9.71674 9.86414 9.73624 9.84618 9.76297C9.82823 9.7897 9.82205 9.82166 9.82888 9.8524ZM13.9239 9.87514C13.9142 9.84363 13.8914 9.8168 13.8605 9.80031C13.8296 9.78382 13.7929 9.77894 13.7581 9.78672L10.1936 10.6507C10.1761 10.6548 10.1597 10.662 10.1453 10.6721C10.131 10.6822 10.1191 10.6948 10.1103 10.7092C10.1015 10.7237 10.096 10.7396 10.0942 10.756C10.0924 10.7725 10.0942 10.7891 10.0997 10.8048C10.1088 10.8361 10.131 10.8629 10.1614 10.8795C10.1919 10.896 10.2283 10.9009 10.2627 10.8932L13.8299 10.0292C13.8645 10.0198 13.8936 9.99847 13.9112 9.96967C13.9287 9.94088 13.9333 9.90696 13.9239 9.87514ZM17.0324 8.08398C17.0366 8.09966 17.0442 8.11442 17.0547 8.12739C17.0652 8.14037 17.0784 8.15129 17.0936 8.15953C17.1088 8.16776 17.1256 8.17314 17.1431 8.17535C17.1606 8.17757 17.1784 8.17656 17.1954 8.1724L22.0917 6.98756C22.1094 6.98318 22.1259 6.97564 22.1404 6.96537C22.1548 6.9551 22.1669 6.94231 22.1759 6.92774C22.1849 6.91316 22.1907 6.8971 22.1928 6.88048C22.195 6.86386 22.1935 6.84702 22.1884 6.83093C22.1782 6.79989 22.1552 6.77366 22.1243 6.75767C22.0935 6.74168 22.0571 6.73715 22.0227 6.74503L17.1264 7.91724C17.1072 7.921 17.0891 7.92861 17.0735 7.93951C17.058 7.95041 17.0452 7.96434 17.0362 7.98029C17.0272 7.99624 17.0222 8.01381 17.0216 8.03174C17.0209 8.04967 17.0246 8.06752 17.0324 8.08398ZM21.1302 8.08398C21.1205 8.05258 21.0976 8.02594 21.0666 8.00985C21.0355 7.99377 20.9988 7.98954 20.9644 7.99809L17.3999 8.85956C17.3633 8.86827 17.3319 8.88993 17.3127 8.91978C17.2936 8.94963 17.2881 8.98522 17.2977 9.01872C17.3072 9.05222 17.3309 9.08089 17.3635 9.09842C17.3962 9.11595 17.4351 9.1209 17.4718 9.11219L21.0362 8.24819C21.0551 8.24436 21.0727 8.23681 21.0881 8.22607C21.1034 8.21533 21.1159 8.20167 21.1249 8.18603C21.1338 8.1704 21.1389 8.15317 21.1399 8.13554C21.1408 8.11791 21.1375 8.10032 21.1302 8.08398ZM24.2332 6.28272C24.2377 6.29817 24.2454 6.31266 24.2561 6.32535C24.2667 6.33805 24.28 6.34869 24.2951 6.35667C24.3103 6.36466 24.327 6.36982 24.3444 6.37187C24.3617 6.37392 24.3793 6.37281 24.3962 6.36861L29.2953 5.18377C29.3126 5.17941 29.3288 5.17194 29.3429 5.1618C29.357 5.15165 29.3688 5.13905 29.3775 5.1247C29.3863 5.11036 29.3918 5.09457 29.3938 5.07826C29.3958 5.06194 29.3943 5.04542 29.3892 5.02967C29.3847 5.01389 29.3768 4.99908 29.3661 4.98608C29.3553 4.97309 29.3418 4.96217 29.3264 4.95396C29.311 4.94574 29.294 4.94039 29.2763 4.93821C29.2586 4.93602 29.2407 4.93706 29.2234 4.94124L24.3271 6.12609C24.2919 6.13547 24.2623 6.15724 24.2447 6.18661C24.227 6.21599 24.2229 6.25056 24.2332 6.28272ZM28.3143 6.29535C28.3102 6.27967 28.3026 6.26491 28.2921 6.25194C28.2816 6.23896 28.2683 6.22804 28.2532 6.2198C28.238 6.21157 28.2211 6.20619 28.2037 6.20398C28.1862 6.20177 28.1684 6.20277 28.1513 6.20693L24.5979 7.07346C24.5807 7.0776 24.5645 7.08481 24.5503 7.09467C24.5361 7.10454 24.5242 7.11686 24.5152 7.13093C24.5062 7.14501 24.5004 7.16056 24.498 7.17671C24.4956 7.19285 24.4967 7.20928 24.5012 7.22503C24.5057 7.24079 24.5136 7.25558 24.5244 7.26855C24.5352 7.28152 24.5487 7.29243 24.5641 7.30064C24.5795 7.30885 24.5965 7.31421 24.6141 7.31641C24.6318 7.3186 24.6498 7.3176 24.667 7.31346L28.2314 6.45198C28.2483 6.44688 28.2638 6.43874 28.2772 6.42804C28.2905 6.41734 28.3014 6.4043 28.3091 6.38969C28.3168 6.37509 28.3213 6.35921 28.3222 6.343C28.3231 6.3268 28.3204 6.3106 28.3143 6.29535ZM27.245 28.0419C27.2397 28.0262 27.231 28.0117 27.2195 27.9991C27.2079 27.9866 27.1938 27.9762 27.1778 27.9687C27.1619 27.9612 27.1445 27.9566 27.1266 27.9553C27.1087 27.954 27.0907 27.9559 27.0737 27.961L20.7378 29.7648C20.7207 29.7696 20.7049 29.7775 20.6911 29.7879C20.6774 29.7983 20.666 29.8111 20.6577 29.8255C20.6494 29.8399 20.6442 29.8557 20.6425 29.872C20.6409 29.8882 20.6427 29.9046 20.648 29.9202C20.6532 29.9358 20.6618 29.9503 20.6732 29.9628C20.6846 29.9754 20.6986 29.9858 20.7144 29.9934C20.7301 30.001 20.7474 30.0058 20.7652 30.0073C20.7829 30.0088 20.8009 30.0071 20.8179 30.0023L27.1538 28.1985C27.1885 28.1886 27.2175 28.1666 27.2346 28.1373C27.2516 28.108 27.2554 28.0737 27.245 28.0419ZM25.8275 29.7648C25.8222 29.7492 25.8135 29.7346 25.802 29.7221C25.7904 29.7095 25.7763 29.6992 25.7603 29.6916C25.7444 29.6841 25.727 29.6796 25.7091 29.6783C25.6912 29.6769 25.6732 29.6789 25.6562 29.684L21.0998 30.98C21.0826 30.9849 21.0667 30.9928 21.053 31.0033C21.0393 31.0139 21.028 31.0268 21.0197 31.0414C21.0115 31.056 21.0065 31.0719 21.0051 31.0882C21.0036 31.1046 21.0058 31.121 21.0113 31.1366C21.0222 31.1683 21.0462 31.1948 21.0783 31.2104C21.1104 31.226 21.1478 31.2295 21.1827 31.22L25.7363 29.9215C25.771 29.9115 25.8 29.8896 25.8171 29.8602C25.8341 29.8309 25.8379 29.7966 25.8275 29.7648ZM27.7755 30.3863L21.4396 32.1926C21.4226 32.1976 21.4068 32.2056 21.3931 32.2162C21.3794 32.2267 21.3682 32.2396 21.3599 32.2542C21.3517 32.2687 21.3467 32.2846 21.3452 32.3009C21.3437 32.3172 21.3458 32.3337 21.3512 32.3492C21.3567 32.3648 21.3654 32.3793 21.377 32.3918C21.3885 32.4043 21.4026 32.4146 21.4186 32.4221C21.4345 32.4296 21.4518 32.4342 21.4697 32.4356C21.4875 32.4369 21.5055 32.4351 21.5225 32.4301L27.8584 30.6263C27.8755 30.6214 27.8914 30.6135 27.9052 30.6029C27.9189 30.5924 27.9302 30.5795 27.9385 30.5649C27.9467 30.5503 27.9517 30.5344 27.9531 30.518C27.9545 30.5017 27.9524 30.4853 27.9468 30.4697C27.936 30.438 27.912 30.4115 27.8799 30.3958C27.8478 30.3802 27.8103 30.3768 27.7755 30.3863ZM36.2391 25.4676L29.9032 27.284C29.8861 27.2888 29.8702 27.2966 29.8565 27.307C29.8428 27.3174 29.8314 27.3302 29.8231 27.3447C29.8147 27.3591 29.8096 27.3749 29.8079 27.3911C29.8062 27.4074 29.8081 27.4238 29.8134 27.4393C29.8186 27.4549 29.8272 27.4694 29.8386 27.482C29.85 27.4946 29.8639 27.505 29.8797 27.5126C29.8955 27.5202 29.9128 27.5249 29.9305 27.5264C29.9483 27.528 29.9662 27.5263 29.9833 27.5215L36.3275 25.7076C36.3641 25.6978 36.395 25.6752 36.4134 25.6447C36.4318 25.6141 36.4362 25.5781 36.4256 25.5446C36.4149 25.5111 36.3902 25.4828 36.3568 25.466C36.3233 25.4492 36.284 25.4452 36.2473 25.4549L36.2391 25.4676ZM34.9791 27.2688C34.974 27.2533 34.9656 27.2388 34.9544 27.2262C34.9431 27.2137 34.9292 27.2034 34.9135 27.1958C34.8978 27.1883 34.8805 27.1837 34.8629 27.1824C34.8452 27.181 34.8274 27.1829 34.8105 27.188L30.2485 28.484C30.2139 28.4939 30.1849 28.5159 30.1678 28.5452C30.1507 28.5745 30.147 28.6088 30.1574 28.6406C30.1627 28.6563 30.1714 28.6708 30.1829 28.6834C30.1944 28.6959 30.2086 28.7063 30.2245 28.7138C30.2405 28.7213 30.2579 28.7259 30.2758 28.7272C30.2936 28.7285 30.3116 28.7265 30.3287 28.7215L34.8851 27.4255C34.9027 27.4211 34.9192 27.4136 34.9336 27.4032C34.9479 27.3929 34.9598 27.3801 34.9686 27.3654C34.9774 27.3508 34.9828 27.3347 34.9846 27.3181C34.9864 27.3015 34.9845 27.2847 34.9791 27.2688ZM30.5249 29.8507C30.5299 29.8663 30.5383 29.8809 30.5495 29.8935C30.5607 29.9061 30.5746 29.9166 30.5902 29.9244C30.6059 29.9321 30.6231 29.9369 30.6408 29.9386C30.6585 29.9403 30.6764 29.9387 30.6934 29.9341L37.0293 28.1303C37.0485 28.1271 37.0667 28.1202 37.0828 28.1101C37.0988 28.1 37.1124 28.087 37.1225 28.0717C37.1327 28.0565 37.1392 28.0395 37.1416 28.0218C37.1441 28.0041 37.1424 27.9862 37.1367 27.9691C37.131 27.9521 37.1214 27.9364 37.1086 27.9229C37.0958 27.9095 37.08 27.8987 37.0623 27.8913C37.0446 27.8838 37.0253 27.8799 37.0058 27.8797C36.9864 27.8795 36.967 27.8832 36.9492 27.8903L30.6133 29.6941C30.5962 29.699 30.5803 29.7069 30.5665 29.7174C30.5528 29.728 30.5415 29.7409 30.5332 29.7555C30.525 29.7701 30.52 29.786 30.5186 29.8023C30.5172 29.8187 30.5193 29.8351 30.5249 29.8507ZM22.788 36.2297L25.8828 35.3707C25.9138 35.3583 25.9388 35.3359 25.9529 35.3078C25.9671 35.2796 25.9694 35.2477 25.9595 35.2181C25.9497 35.1885 25.9282 35.1632 25.8993 35.1471C25.8704 35.131 25.836 35.1252 25.8026 35.1307L22.7079 35.9897C22.6887 35.9929 22.6705 35.9997 22.6545 36.0098C22.6384 36.0199 22.6248 36.033 22.6147 36.0482C22.6046 36.0634 22.5981 36.0805 22.5956 36.0981C22.5932 36.1158 22.5949 36.1338 22.6005 36.1508C22.6062 36.1679 22.6158 36.1836 22.6286 36.197C22.6415 36.2105 22.6572 36.2212 22.675 36.2287C22.6927 36.2361 22.7119 36.2401 22.7314 36.2402C22.7509 36.2404 22.7702 36.2368 22.788 36.2297ZM22.8654 37.1088C22.8763 37.1405 22.9003 37.167 22.9324 37.1826C22.9644 37.1982 23.0019 37.2017 23.0367 37.1922L27.2091 36.0326C27.2394 36.02 27.2638 35.9979 27.2777 35.9701C27.2916 35.9424 27.294 35.9111 27.2846 35.8818C27.2752 35.8526 27.2545 35.8275 27.2264 35.8111C27.1983 35.7947 27.1647 35.7881 27.1317 35.7926L22.9483 36.9522C22.9152 36.9636 22.8881 36.9862 22.8727 37.0154C22.8572 37.0445 22.8546 37.078 22.8654 37.1088ZM23.8933 37.988L26.3636 37.3008C26.3808 37.2965 26.397 37.289 26.411 37.2788C26.425 37.2686 26.4366 37.256 26.4451 37.2416C26.4537 37.2272 26.4589 37.2113 26.4606 37.195C26.4622 37.1787 26.4602 37.1623 26.4547 37.1467C26.4497 37.1311 26.4413 37.1166 26.4301 37.1039C26.4189 37.0913 26.405 37.0808 26.3894 37.0731C26.3737 37.0653 26.3565 37.0605 26.3388 37.0588C26.3211 37.0572 26.3032 37.0587 26.2862 37.0634L23.7994 37.748C23.7812 37.7528 23.7643 37.7608 23.7495 37.7716C23.7348 37.7824 23.7225 37.7958 23.7134 37.8109C23.7043 37.826 23.6985 37.8426 23.6965 37.8598C23.6944 37.877 23.696 37.8943 23.7013 37.9109C23.7065 37.9275 23.7153 37.943 23.7271 37.9565C23.7389 37.97 23.7535 37.9812 23.7701 37.9895C23.7866 37.9978 23.8048 38.0031 23.8236 38.005C23.8423 38.0069 23.8613 38.0054 23.8795 38.0006L23.8933 37.988ZM24.1917 38.857C24.2026 38.8887 24.2266 38.9152 24.2587 38.9309C24.2907 38.9465 24.3282 38.9499 24.363 38.9404L27.8999 37.9602C27.9309 37.9478 27.9559 37.9254 27.97 37.8972C27.9842 37.8691 27.9865 37.8372 27.9766 37.8076C27.9668 37.778 27.9453 37.7527 27.9164 37.7366C27.8875 37.7205 27.8531 37.7146 27.8197 37.7202L24.2829 38.7004C24.2482 38.7103 24.2192 38.7323 24.2022 38.7616C24.1851 38.7909 24.1814 38.8252 24.1917 38.857ZM26.872 39.188L23.9237 40.004C23.9056 40.0088 23.8886 40.0168 23.8739 40.0276C23.8591 40.0384 23.8469 40.0518 23.8377 40.0669C23.8286 40.082 23.8229 40.0986 23.8208 40.1158C23.8187 40.133 23.8203 40.1503 23.8256 40.1669C23.8309 40.1835 23.8397 40.199 23.8515 40.2125C23.8633 40.226 23.8779 40.2372 23.8944 40.2455C23.911 40.2538 23.9291 40.2591 23.9479 40.261C23.9667 40.2629 23.9857 40.2614 24.0038 40.2566L26.9521 39.4381C26.9866 39.4284 27.0154 39.4065 27.0322 39.3774C27.049 39.3483 27.0525 39.3142 27.0419 39.2827C27.0313 39.2512 27.0074 39.2249 26.9755 39.2095C26.9437 39.1941 26.9064 39.1909 26.872 39.2006V39.188ZM28.3889 34.7391L30.9393 34.0772C30.976 34.0682 31.0072 34.0462 31.0261 34.0161C31.045 33.986 31.0501 33.9503 31.0402 33.9168C31.0303 33.8833 31.0063 33.8548 30.9733 33.8375C30.9404 33.8202 30.9014 33.8156 30.8647 33.8246L28.3143 34.4991C28.2968 34.5032 28.2803 34.5105 28.2659 34.5205C28.2514 34.5305 28.2394 34.5431 28.2303 34.5575C28.2213 34.5719 28.2155 34.5877 28.2134 34.6042C28.2112 34.6206 28.2126 34.6373 28.2176 34.6532C28.2285 34.685 28.2524 34.7117 28.2844 34.7277C28.3163 34.7438 28.3538 34.7478 28.3889 34.7391ZM28.5492 35.6208C28.554 35.6367 28.5622 35.6515 28.5732 35.6644C28.5843 35.6773 28.5981 35.688 28.6138 35.696C28.6295 35.704 28.6468 35.7091 28.6646 35.7109C28.6825 35.7128 28.7005 35.7113 28.7178 35.7067L31.6716 34.9488C31.7082 34.9398 31.7394 34.9178 31.7583 34.8877C31.7772 34.8576 31.7823 34.8219 31.7724 34.7884C31.7625 34.7549 31.7385 34.7264 31.7056 34.7091C31.6727 34.6918 31.6336 34.6871 31.597 34.6962L28.6432 35.4541C28.624 35.4578 28.6059 35.4654 28.5903 35.4763C28.5748 35.4873 28.562 35.5012 28.553 35.5171C28.544 35.5331 28.539 35.5507 28.5384 35.5686C28.5377 35.5865 28.5414 35.6044 28.5492 35.6208ZM31.5859 35.8735C31.575 35.8417 31.5511 35.815 31.5192 35.799C31.4872 35.7829 31.4498 35.7789 31.4146 35.7876L28.972 36.4217C28.9538 36.4261 28.9368 36.4338 28.9219 36.4443C28.9071 36.4548 28.8946 36.4679 28.8852 36.4828C28.8663 36.5129 28.8612 36.5486 28.8711 36.5821C28.881 36.6156 28.9051 36.6441 28.938 36.6614C28.9709 36.6787 29.0099 36.6833 29.0466 36.6743L31.492 36.0402C31.5104 36.0353 31.5276 36.0271 31.5425 36.0159C31.5573 36.0048 31.5695 35.991 31.5783 35.9754C31.5871 35.9598 31.5923 35.9427 31.5936 35.9251C31.5949 35.9076 31.5923 35.89 31.5859 35.8735ZM29.2068 37.5434C29.2116 37.5592 29.2198 37.574 29.2309 37.5869C29.242 37.5998 29.2558 37.6106 29.2714 37.6186C29.2871 37.6266 29.3044 37.6316 29.3222 37.6335C29.3401 37.6353 29.3582 37.6339 29.3754 37.6292L32.2629 36.8714C32.2804 36.8673 32.2968 36.86 32.3112 36.85C32.3255 36.8399 32.3374 36.8273 32.3462 36.8128C32.355 36.7984 32.3605 36.7825 32.3623 36.766C32.3641 36.7496 32.3623 36.733 32.3568 36.7172C32.3521 36.7008 32.3438 36.6855 32.3323 36.6722C32.3208 36.6588 32.3065 36.6478 32.2902 36.6398C32.2739 36.6317 32.2559 36.6268 32.2374 36.6254C32.2189 36.6239 32.2003 36.6259 32.1828 36.6314L29.2953 37.3892C29.2617 37.3997 29.2338 37.4215 29.2174 37.4502C29.2009 37.4788 29.1972 37.5122 29.2068 37.5434ZM31.6301 37.8339L29.6351 38.3518C29.5985 38.3608 29.5673 38.3828 29.5484 38.4129C29.5294 38.443 29.5244 38.4787 29.5343 38.5122C29.5442 38.5457 29.5682 38.5742 29.6011 38.5915C29.634 38.6088 29.6731 38.6134 29.7097 38.6044L31.7047 38.0865C31.7414 38.0775 31.7726 38.0555 31.7915 38.0254C31.8104 37.9953 31.8155 37.9596 31.8056 37.9261C31.7957 37.8926 31.7716 37.8641 31.7387 37.8468C31.7058 37.8295 31.6668 37.8248 31.6301 37.8339ZM18.4029 14.9227C18.5447 15.0516 18.7191 15.1466 18.9106 15.1991C19.102 15.2517 19.3048 15.2603 19.5007 15.2241C19.6967 15.1879 19.8799 15.1081 20.0341 14.9918C20.1883 14.8754 20.3088 14.7261 20.3847 14.557C20.4607 14.3879 20.4899 14.2043 20.4698 14.0224C20.4496 13.8405 20.3807 13.666 20.2692 13.5143C20.1576 13.3626 20.0069 13.2384 19.8303 13.1527C19.6537 13.067 19.4567 13.0224 19.2567 13.0229C19.0151 13.0211 18.7784 13.0854 18.577 13.2077C18.3757 13.3299 18.2191 13.5045 18.1272 13.7089C18.0354 13.9132 18.0125 14.1381 18.0617 14.3544C18.1108 14.5707 18.2297 14.7687 18.4029 14.9227ZM18.5217 13.4575C18.6447 13.3464 18.7956 13.2647 18.9613 13.2196C19.127 13.1745 19.3022 13.1674 19.4716 13.1989C19.6409 13.2304 19.7992 13.2995 19.9325 13.4002C20.0657 13.5009 20.1697 13.63 20.2354 13.7762C20.3012 13.9223 20.3265 14.081 20.3092 14.2383C20.292 14.3955 20.2326 14.5464 20.1364 14.6777C20.0402 14.809 19.9102 14.9166 19.7577 14.9911C19.6053 15.0655 19.4351 15.1045 19.2623 15.1046C19.0535 15.1047 18.8494 15.048 18.6759 14.9418C18.5024 14.8356 18.3674 14.6846 18.288 14.508C18.2086 14.3315 18.1885 14.1373 18.2301 13.9502C18.2717 13.7632 18.3732 13.5916 18.5217 13.4575Z" fill="var(--fill-0, #155DFF)" stroke="var(--stroke-0, #2097F7)" stroke-width="2" mask="url(#path-3-inside-3_0_1075)"/>
</g>
<g id="Vector_4">
<mask id="path-4-inside-4_0_1075" fill="white">
<path d="M24.0127 20.2583C23.2704 21.3849 22.6149 22.5574 22.0509 23.7673C20.8883 23.2106 19.6885 22.7212 18.4588 22.3021C18.4436 22.298 18.4274 22.2988 18.4129 22.3043C18.3983 22.3098 18.3862 22.3197 18.3787 22.3324C18.3719 22.3465 18.3712 22.3625 18.3769 22.377C18.3825 22.3916 18.394 22.4036 18.409 22.4107C19.8293 23.0549 21.9348 24.02 21.9348 24.02C21.3787 25.2111 20.9017 26.4319 20.5063 27.6755C20.5037 27.6841 20.5034 27.6931 20.5052 27.7018C20.5071 27.7105 20.5111 27.7187 20.517 27.7258C20.5229 27.7329 20.5304 27.7386 20.5391 27.7426C20.5478 27.7466 20.5574 27.7487 20.5671 27.7488C20.6721 27.7488 20.5505 27.7488 22.2028 24.1488C23.0539 24.5581 24.4134 25.2604 25.9386 26.1016C25.9529 26.1104 25.9704 26.1135 25.9872 26.1104C26.0041 26.1074 26.0189 26.0983 26.0284 26.0852C26.038 26.0722 26.0414 26.0562 26.038 26.0408C26.0347 26.0254 26.0248 26.0118 26.0105 26.0031C24.8387 25.2181 23.6048 24.5139 22.3189 23.8962C22.8052 22.8553 23.3965 21.6831 24.126 20.3139C24.1341 20.3001 24.1358 20.284 24.1309 20.2691C24.126 20.2542 24.1148 20.2416 24.0997 20.2343C24.0847 20.2269 24.0671 20.2253 24.0508 20.2298C24.0345 20.2343 24.0208 20.2445 24.0127 20.2583ZM27.4335 19.9576C28.5387 20.4629 29.2157 20.7383 31.0256 21.5947C30.4374 22.7708 29.9398 23.983 29.5362 25.2225C29.5311 25.2372 29.5326 25.2532 29.5404 25.267C29.5481 25.2807 29.5616 25.2911 29.5777 25.2957C29.5938 25.3004 29.6113 25.2991 29.6263 25.292C29.6414 25.2849 29.6527 25.2726 29.6578 25.2579C30.2326 23.9795 30.017 24.3509 31.2964 21.721C32.4016 22.2616 33.6478 22.9109 34.9714 23.6435C34.9856 23.6522 35.0031 23.6554 35.02 23.6523C35.0368 23.6493 35.0516 23.6402 35.0612 23.6271C35.0707 23.6141 35.0741 23.5981 35.0708 23.5827C35.0674 23.5673 35.0575 23.5537 35.0432 23.545C33.889 22.7755 32.6756 22.0832 31.4124 21.4734C31.9982 20.3139 32.6475 19.1366 33.167 18.1539C33.1728 18.1407 33.173 18.1261 33.1678 18.1127C33.1626 18.0994 33.1522 18.0882 33.1386 18.0814C33.125 18.0746 33.1092 18.0725 33.0941 18.0756C33.0789 18.0787 33.0656 18.0868 33.0565 18.0983C32.356 19.1479 31.7186 20.2316 31.1472 21.3446C29.9639 20.7759 28.7419 20.2771 27.4888 19.8515C27.4734 19.8448 27.4557 19.844 27.4396 19.8492C27.4236 19.8544 27.4104 19.8653 27.4031 19.8793C27.3958 19.8934 27.3948 19.9096 27.4005 19.9242C27.4062 19.9389 27.4181 19.9509 27.4335 19.9576ZM33.5207 33.9181C33.6067 33.8387 33.6653 33.738 33.6893 33.6285C33.7134 33.519 33.7017 33.4054 33.6558 33.3019C33.6099 33.1983 33.5318 33.1094 33.4312 33.046C33.3306 32.9827 33.2118 32.9477 33.0897 32.9454C32.9894 32.9466 32.8909 32.9701 32.8028 33.0139C32.7147 33.0577 32.6397 33.1205 32.5842 33.1969C32.5286 33.2732 32.4944 33.3608 32.4843 33.452C32.4742 33.5433 32.4886 33.6353 32.5262 33.7203C32.5639 33.8053 32.6237 33.8806 32.7004 33.9397C32.7771 33.9987 32.8684 34.0398 32.9664 34.0593C33.0644 34.0787 33.1661 34.0761 33.2627 34.0515C33.3593 34.0269 33.4478 33.9811 33.5207 33.9181ZM32.6503 33.337C32.6831 33.2729 32.7323 33.217 32.7937 33.1741C32.8552 33.1311 32.927 33.1023 33.0033 33.0901C33.0795 33.078 33.1578 33.0828 33.2315 33.1043C33.3052 33.1257 33.3722 33.1631 33.4268 33.2132C33.4704 33.253 33.5046 33.3004 33.5275 33.3526C33.5504 33.4049 33.5614 33.4608 33.5599 33.5171C33.5583 33.5734 33.5442 33.6288 33.5185 33.6799C33.4928 33.731 33.4559 33.7768 33.4102 33.8145C33.32 33.8899 33.2022 33.9318 33.08 33.9318C32.9578 33.9318 32.84 33.8899 32.7498 33.8145C32.6833 33.755 32.6382 33.6784 32.6205 33.595C32.6027 33.5115 32.6131 33.4251 32.6503 33.3471V33.337ZM34.6508 33.5037C34.7636 33.5511 34.8896 33.5655 35.0117 33.5452C35.1338 33.5249 35.246 33.4707 35.3333 33.3901C35.4449 33.2822 35.507 33.1394 35.507 32.9909C35.507 32.8425 35.4449 32.6996 35.3333 32.5917C35.2773 32.5381 35.21 32.4954 35.1355 32.4662C35.0609 32.437 34.9806 32.422 34.8995 32.422C34.8184 32.422 34.7381 32.437 34.6636 32.4662C34.589 32.4954 34.5217 32.5381 34.4657 32.5917C34.3977 32.6574 34.3476 32.7369 34.3195 32.8236C34.2914 32.9103 34.2862 33.0019 34.3043 33.0908C34.3223 33.1798 34.3632 33.2635 34.4234 33.3353C34.4836 33.4071 34.5615 33.4648 34.6508 33.5037ZM34.4629 32.809C34.4957 32.7449 34.5449 32.689 34.6063 32.6461C34.6678 32.6031 34.7397 32.5743 34.8159 32.5621C34.8921 32.55 34.9704 32.5548 35.0441 32.5763C35.1178 32.5977 35.1848 32.6351 35.2394 32.6852C35.283 32.725 35.3173 32.7724 35.3402 32.8246C35.363 32.8769 35.374 32.9328 35.3725 32.9891C35.3709 33.0454 35.3569 33.1008 35.3311 33.1519C35.3054 33.203 35.2685 33.2488 35.2228 33.2865C35.1331 33.3618 35.0158 33.4035 34.894 33.4035C34.7722 33.4035 34.6549 33.3618 34.5652 33.2865C34.4949 33.2271 34.4471 33.1489 34.4287 33.063C34.4103 32.9772 34.4223 32.8882 34.4629 32.809ZM37.1598 32.8595C37.246 32.7807 37.3049 32.6803 37.3292 32.5711C37.3535 32.4618 37.3422 32.3484 37.2965 32.245C37.2509 32.1416 37.1729 32.0527 37.0725 31.9895C36.972 31.9263 36.8534 31.8915 36.7315 31.8894C36.6308 31.8897 36.5317 31.9126 36.4429 31.956C36.3541 31.9994 36.2783 32.062 36.2221 32.1384C36.1659 32.2148 36.1311 32.3026 36.1206 32.3942C36.1101 32.4858 36.1243 32.5783 36.162 32.6637C36.1997 32.749 36.2597 32.8247 36.3368 32.8839C36.4138 32.9432 36.5056 32.9843 36.6041 33.0036C36.7025 33.0229 36.8046 33.0199 36.9015 32.9948C36.9984 32.9697 37.0871 32.9232 37.1598 32.8595ZM36.2894 32.281C36.3221 32.2169 36.3713 32.161 36.4328 32.1181C36.4942 32.0751 36.5661 32.0463 36.6423 32.0341C36.7185 32.022 36.7968 32.0268 36.8706 32.0483C36.9443 32.0697 37.0113 32.1071 37.0658 32.1572C37.1093 32.1967 37.1436 32.244 37.1664 32.296C37.1893 32.348 37.2003 32.4038 37.1987 32.4599C37.1972 32.5159 37.1831 32.5711 37.1574 32.622C37.1317 32.6729 37.0949 32.7185 37.0492 32.756C36.9598 32.8318 36.8424 32.8739 36.7204 32.8739C36.5985 32.8739 36.481 32.8318 36.3916 32.756C36.3199 32.6981 36.2701 32.621 36.2493 32.5357C36.2284 32.4504 36.2376 32.3612 36.2756 32.281H36.2894ZM38.265 32.4477C38.3781 32.4948 38.5042 32.5088 38.6263 32.488C38.7484 32.4672 38.8606 32.4126 38.9475 32.3315C39.0601 32.2247 39.1231 32.082 39.1231 31.9336C39.1231 31.7852 39.0601 31.6426 38.9475 31.5357C38.8923 31.4816 38.8256 31.4382 38.7516 31.4081C38.6776 31.378 38.5976 31.3619 38.5166 31.3608C38.4356 31.3596 38.3552 31.3733 38.2802 31.4012C38.2051 31.4291 38.137 31.4706 38.0799 31.5231C38.0096 31.589 37.9575 31.6693 37.9281 31.7574C37.8987 31.8454 37.8929 31.9386 37.911 32.0292C37.9291 32.1197 37.9707 32.205 38.0323 32.2778C38.0939 32.3507 38.1737 32.4089 38.265 32.4477ZM38.0799 31.7505C38.1128 31.6869 38.1619 31.6314 38.2231 31.5888C38.2843 31.5461 38.3559 31.5175 38.4317 31.5054C38.5075 31.4933 38.5854 31.4979 38.6588 31.5191C38.7322 31.5402 38.799 31.5771 38.8536 31.6267C38.9104 31.6831 38.9496 31.7524 38.9671 31.8274C38.9845 31.9024 38.9795 31.9804 38.9526 32.053C38.9257 32.1256 38.8779 32.1903 38.8143 32.2402C38.7506 32.2901 38.6734 32.3235 38.5908 32.3367C38.5082 32.3499 38.4232 32.3425 38.3448 32.3154C38.2663 32.2882 38.1974 32.2422 38.1451 32.1822C38.0928 32.1222 38.0592 32.0505 38.0477 31.9745C38.0362 31.8986 38.0474 31.8212 38.0799 31.7505Z"/>
</mask>
<path d="M24.0127 20.2583C23.2704 21.3849 22.6149 22.5574 22.0509 23.7673C20.8883 23.2106 19.6885 22.7212 18.4588 22.3021C18.4436 22.298 18.4274 22.2988 18.4129 22.3043C18.3983 22.3098 18.3862 22.3197 18.3787 22.3324C18.3719 22.3465 18.3712 22.3625 18.3769 22.377C18.3825 22.3916 18.394 22.4036 18.409 22.4107C19.8293 23.0549 21.9348 24.02 21.9348 24.02C21.3787 25.2111 20.9017 26.4319 20.5063 27.6755C20.5037 27.6841 20.5034 27.6931 20.5052 27.7018C20.5071 27.7105 20.5111 27.7187 20.517 27.7258C20.5229 27.7329 20.5304 27.7386 20.5391 27.7426C20.5478 27.7466 20.5574 27.7487 20.5671 27.7488C20.6721 27.7488 20.5505 27.7488 22.2028 24.1488C23.0539 24.5581 24.4134 25.2604 25.9386 26.1016C25.9529 26.1104 25.9704 26.1135 25.9872 26.1104C26.0041 26.1074 26.0189 26.0983 26.0284 26.0852C26.038 26.0722 26.0414 26.0562 26.038 26.0408C26.0347 26.0254 26.0248 26.0118 26.0105 26.0031C24.8387 25.2181 23.6048 24.5139 22.3189 23.8962C22.8052 22.8553 23.3965 21.6831 24.126 20.3139C24.1341 20.3001 24.1358 20.284 24.1309 20.2691C24.126 20.2542 24.1148 20.2416 24.0997 20.2343C24.0847 20.2269 24.0671 20.2253 24.0508 20.2298C24.0345 20.2343 24.0208 20.2445 24.0127 20.2583ZM27.4335 19.9576C28.5387 20.4629 29.2157 20.7383 31.0256 21.5947C30.4374 22.7708 29.9398 23.983 29.5362 25.2225C29.5311 25.2372 29.5326 25.2532 29.5404 25.267C29.5481 25.2807 29.5616 25.2911 29.5777 25.2957C29.5938 25.3004 29.6113 25.2991 29.6263 25.292C29.6414 25.2849 29.6527 25.2726 29.6578 25.2579C30.2326 23.9795 30.017 24.3509 31.2964 21.721C32.4016 22.2616 33.6478 22.9109 34.9714 23.6435C34.9856 23.6522 35.0031 23.6554 35.02 23.6523C35.0368 23.6493 35.0516 23.6402 35.0612 23.6271C35.0707 23.6141 35.0741 23.5981 35.0708 23.5827C35.0674 23.5673 35.0575 23.5537 35.0432 23.545C33.889 22.7755 32.6756 22.0832 31.4124 21.4734C31.9982 20.3139 32.6475 19.1366 33.167 18.1539C33.1728 18.1407 33.173 18.1261 33.1678 18.1127C33.1626 18.0994 33.1522 18.0882 33.1386 18.0814C33.125 18.0746 33.1092 18.0725 33.0941 18.0756C33.0789 18.0787 33.0656 18.0868 33.0565 18.0983C32.356 19.1479 31.7186 20.2316 31.1472 21.3446C29.9639 20.7759 28.7419 20.2771 27.4888 19.8515C27.4734 19.8448 27.4557 19.844 27.4396 19.8492C27.4236 19.8544 27.4104 19.8653 27.4031 19.8793C27.3958 19.8934 27.3948 19.9096 27.4005 19.9242C27.4062 19.9389 27.4181 19.9509 27.4335 19.9576ZM33.5207 33.9181C33.6067 33.8387 33.6653 33.738 33.6893 33.6285C33.7134 33.519 33.7017 33.4054 33.6558 33.3019C33.6099 33.1983 33.5318 33.1094 33.4312 33.046C33.3306 32.9827 33.2118 32.9477 33.0897 32.9454C32.9894 32.9466 32.8909 32.9701 32.8028 33.0139C32.7147 33.0577 32.6397 33.1205 32.5842 33.1969C32.5286 33.2732 32.4944 33.3608 32.4843 33.452C32.4742 33.5433 32.4886 33.6353 32.5262 33.7203C32.5639 33.8053 32.6237 33.8806 32.7004 33.9397C32.7771 33.9987 32.8684 34.0398 32.9664 34.0593C33.0644 34.0787 33.1661 34.0761 33.2627 34.0515C33.3593 34.0269 33.4478 33.9811 33.5207 33.9181ZM32.6503 33.337C32.6831 33.2729 32.7323 33.217 32.7937 33.1741C32.8552 33.1311 32.927 33.1023 33.0033 33.0901C33.0795 33.078 33.1578 33.0828 33.2315 33.1043C33.3052 33.1257 33.3722 33.1631 33.4268 33.2132C33.4704 33.253 33.5046 33.3004 33.5275 33.3526C33.5504 33.4049 33.5614 33.4608 33.5599 33.5171C33.5583 33.5734 33.5442 33.6288 33.5185 33.6799C33.4928 33.731 33.4559 33.7768 33.4102 33.8145C33.32 33.8899 33.2022 33.9318 33.08 33.9318C32.9578 33.9318 32.84 33.8899 32.7498 33.8145C32.6833 33.755 32.6382 33.6784 32.6205 33.595C32.6027 33.5115 32.6131 33.4251 32.6503 33.3471V33.337ZM34.6508 33.5037C34.7636 33.5511 34.8896 33.5655 35.0117 33.5452C35.1338 33.5249 35.246 33.4707 35.3333 33.3901C35.4449 33.2822 35.507 33.1394 35.507 32.9909C35.507 32.8425 35.4449 32.6996 35.3333 32.5917C35.2773 32.5381 35.21 32.4954 35.1355 32.4662C35.0609 32.437 34.9806 32.422 34.8995 32.422C34.8184 32.422 34.7381 32.437 34.6636 32.4662C34.589 32.4954 34.5217 32.5381 34.4657 32.5917C34.3977 32.6574 34.3476 32.7369 34.3195 32.8236C34.2914 32.9103 34.2862 33.0019 34.3043 33.0908C34.3223 33.1798 34.3632 33.2635 34.4234 33.3353C34.4836 33.4071 34.5615 33.4648 34.6508 33.5037ZM34.4629 32.809C34.4957 32.7449 34.5449 32.689 34.6063 32.6461C34.6678 32.6031 34.7397 32.5743 34.8159 32.5621C34.8921 32.55 34.9704 32.5548 35.0441 32.5763C35.1178 32.5977 35.1848 32.6351 35.2394 32.6852C35.283 32.725 35.3173 32.7724 35.3402 32.8246C35.363 32.8769 35.374 32.9328 35.3725 32.9891C35.3709 33.0454 35.3569 33.1008 35.3311 33.1519C35.3054 33.203 35.2685 33.2488 35.2228 33.2865C35.1331 33.3618 35.0158 33.4035 34.894 33.4035C34.7722 33.4035 34.6549 33.3618 34.5652 33.2865C34.4949 33.2271 34.4471 33.1489 34.4287 33.063C34.4103 32.9772 34.4223 32.8882 34.4629 32.809ZM37.1598 32.8595C37.246 32.7807 37.3049 32.6803 37.3292 32.5711C37.3535 32.4618 37.3422 32.3484 37.2965 32.245C37.2509 32.1416 37.1729 32.0527 37.0725 31.9895C36.972 31.9263 36.8534 31.8915 36.7315 31.8894C36.6308 31.8897 36.5317 31.9126 36.4429 31.956C36.3541 31.9994 36.2783 32.062 36.2221 32.1384C36.1659 32.2148 36.1311 32.3026 36.1206 32.3942C36.1101 32.4858 36.1243 32.5783 36.162 32.6637C36.1997 32.749 36.2597 32.8247 36.3368 32.8839C36.4138 32.9432 36.5056 32.9843 36.6041 33.0036C36.7025 33.0229 36.8046 33.0199 36.9015 32.9948C36.9984 32.9697 37.0871 32.9232 37.1598 32.8595ZM36.2894 32.281C36.3221 32.2169 36.3713 32.161 36.4328 32.1181C36.4942 32.0751 36.5661 32.0463 36.6423 32.0341C36.7185 32.022 36.7968 32.0268 36.8706 32.0483C36.9443 32.0697 37.0113 32.1071 37.0658 32.1572C37.1093 32.1967 37.1436 32.244 37.1664 32.296C37.1893 32.348 37.2003 32.4038 37.1987 32.4599C37.1972 32.5159 37.1831 32.5711 37.1574 32.622C37.1317 32.6729 37.0949 32.7185 37.0492 32.756C36.9598 32.8318 36.8424 32.8739 36.7204 32.8739C36.5985 32.8739 36.481 32.8318 36.3916 32.756C36.3199 32.6981 36.2701 32.621 36.2493 32.5357C36.2284 32.4504 36.2376 32.3612 36.2756 32.281H36.2894ZM38.265 32.4477C38.3781 32.4948 38.5042 32.5088 38.6263 32.488C38.7484 32.4672 38.8606 32.4126 38.9475 32.3315C39.0601 32.2247 39.1231 32.082 39.1231 31.9336C39.1231 31.7852 39.0601 31.6426 38.9475 31.5357C38.8923 31.4816 38.8256 31.4382 38.7516 31.4081C38.6776 31.378 38.5976 31.3619 38.5166 31.3608C38.4356 31.3596 38.3552 31.3733 38.2802 31.4012C38.2051 31.4291 38.137 31.4706 38.0799 31.5231C38.0096 31.589 37.9575 31.6693 37.9281 31.7574C37.8987 31.8454 37.8929 31.9386 37.911 32.0292C37.9291 32.1197 37.9707 32.205 38.0323 32.2778C38.0939 32.3507 38.1737 32.4089 38.265 32.4477ZM38.0799 31.7505C38.1128 31.6869 38.1619 31.6314 38.2231 31.5888C38.2843 31.5461 38.3559 31.5175 38.4317 31.5054C38.5075 31.4933 38.5854 31.4979 38.6588 31.5191C38.7322 31.5402 38.799 31.5771 38.8536 31.6267C38.9104 31.6831 38.9496 31.7524 38.9671 31.8274C38.9845 31.9024 38.9795 31.9804 38.9526 32.053C38.9257 32.1256 38.8779 32.1903 38.8143 32.2402C38.7506 32.2901 38.6734 32.3235 38.5908 32.3367C38.5082 32.3499 38.4232 32.3425 38.3448 32.3154C38.2663 32.2882 38.1974 32.2422 38.1451 32.1822C38.0928 32.1222 38.0592 32.0505 38.0477 31.9745C38.0362 31.8986 38.0474 31.8212 38.0799 31.7505Z" fill="var(--fill-0, #155DFF)" stroke="var(--stroke-0, #2097F7)" stroke-width="2" mask="url(#path-4-inside-4_0_1075)"/>
</g>
</g>
</svg>
