<svg preserveAspectRatio="none" width="100%" height="100%" overflow="visible" style="display: block;" viewBox="0 0 32.0009 27.0764" fill="none" xmlns="http://www.w3.org/2000/svg">
<g id="Quote Icon">
<path id="Vector" d="M11.0767 12.3076H6.76899C6.25614 12.3076 5.82014 12.1281 5.46114 11.7691C5.10233 11.4101 4.9227 10.9743 4.9227 10.4613V9.8462C4.9227 8.48716 5.40355 7.32703 6.36519 6.36539C7.32676 5.40409 8.4871 4.92323 9.846 4.92323H11.0767C11.4099 4.92323 11.6983 4.80139 11.942 4.5579C12.1855 4.31427 12.3073 4.02592 12.3073 3.69258V1.23086C12.3073 0.897583 12.1855 0.608964 11.942 0.365338C11.6983 0.122049 11.41 0 11.0767 0H9.846C8.51256 0 7.24041 0.259859 6.02875 0.778835C4.81722 1.29815 3.7693 2.00013 2.88458 2.88485C1.99993 3.76916 1.29815 4.81715 0.778902 6.02881C0.259656 7.24034 0 8.51282 0 9.84613V23.384C0 24.4102 0.358804 25.2815 1.07675 25.9997C1.79476 26.7175 2.66675 27.0764 3.69231 27.0764H11.0771C12.1026 27.0764 12.9743 26.7175 13.6924 25.9997C14.4102 25.2815 14.7692 24.4102 14.7692 23.384V15.9999C14.7692 14.9739 14.4102 14.1026 13.6919 13.3843C12.9742 12.6666 12.1021 12.3076 11.0767 12.3076Z" fill="var(--fill-0, #C7C7C7)"/>
<path id="Vector_2" d="M30.9247 13.3843C30.207 12.6666 29.3352 12.3076 28.3094 12.3076H24.0018C23.4892 12.3076 23.0528 12.1281 22.6944 11.7691C22.3353 11.4101 22.156 10.9743 22.156 10.4613V9.8462C22.156 8.48716 22.6368 7.32703 23.598 6.36539C24.5592 5.40409 25.7195 4.92323 27.0791 4.92323H28.3095C28.6428 4.92323 28.9314 4.80139 29.1749 4.5579C29.4182 4.31427 29.5405 4.02592 29.5405 3.69258V1.23086C29.5405 0.897583 29.4183 0.608964 29.1749 0.365338C28.9314 0.122049 28.6429 0 28.3095 0H27.0791C25.7449 0 24.473 0.259859 23.261 0.778835C22.0497 1.29815 21.0021 2.00013 20.1174 2.88485C19.2327 3.76916 18.5306 4.81715 18.0115 6.02881C17.4924 7.24034 17.2324 8.51282 17.2324 9.84613V23.384C17.2324 24.4102 17.5916 25.2815 18.3093 25.9997C19.0271 26.7175 19.8989 27.0764 20.9246 27.0764H28.309C29.3348 27.0764 30.2065 26.7175 30.9242 25.9997C31.6425 25.2815 32.0009 24.4102 32.0009 23.384V15.9999C32.001 14.9739 31.6425 14.1026 30.9247 13.3843Z" fill="var(--fill-0, #C7C7C7)"/>
</g>
</svg>
