<svg preserveAspectRatio="none" width="100%" height="100%" overflow="visible" style="display: block;" viewBox="0 0 24 24" fill="none" xmlns="http://www.w3.org/2000/svg">
<path id="&#240;&#159;&#150;&#188;&#239;&#184;&#143; Icon" d="M2.81055 13.4316C2.99008 13.432 3.14386 13.56 3.17773 13.7363C3.87148 17.2848 6.65176 20.0879 10.1885 20.8145C10.3632 20.8502 10.4884 21.0043 10.4883 21.1826V23.459C10.4882 23.569 10.4403 23.6739 10.3564 23.7451C10.2726 23.8163 10.1613 23.8469 10.0527 23.8291C8.19871 23.5236 6.44248 22.7853 4.92676 21.6748C4.77733 21.5651 4.57034 21.5816 4.43945 21.7129L2.26172 23.8896C2.19148 23.9598 2.09636 23.9996 1.99707 24H0.375C0.167893 24 0 23.8321 0 23.625V22.0645C0.000323905 21.9651 0.0401164 21.8691 0.110352 21.7988L2.31348 19.5957C2.44449 19.4648 2.46022 19.2577 2.35059 19.1084C1.20844 17.5626 0.456193 15.7638 0.157227 13.8652C0.140215 13.757 0.171055 13.6468 0.242188 13.5635C0.313416 13.4801 0.417667 13.4316 0.527344 13.4316H2.81055ZM23.4824 13.416C23.5922 13.4167 23.6965 13.4651 23.7676 13.5488C23.8386 13.6326 23.8697 13.7431 23.8525 13.8516C23.5561 15.7416 22.8089 17.5324 21.6748 19.0732C21.5651 19.2227 21.5816 19.4297 21.7129 19.5605L23.8896 21.7383C23.9598 21.8085 23.9996 21.9036 24 22.0029V23.625C24 23.8321 23.8321 24 23.625 24H22.0645C21.9651 23.9997 21.8691 23.9599 21.7988 23.8896L19.5918 21.6816C19.4609 21.5504 19.2529 21.5348 19.1035 21.6445C17.571 22.7745 15.7903 23.5216 13.9102 23.8223C13.8015 23.8401 13.6904 23.8086 13.6064 23.7373C13.5226 23.666 13.4746 23.5613 13.4746 23.4512V21.1777C13.4748 20.9989 13.6009 20.8453 13.7764 20.8105C17.3364 20.0981 20.1348 17.2854 20.8311 13.7207C20.8653 13.5443 21.0196 13.4168 21.1992 13.416H23.4824ZM12 6C15.3141 6 18 8.68594 18 12C18 15.3141 15.3141 18 12 18C8.68594 18 6 15.3141 6 12C6 8.68594 8.68594 6 12 6ZM1.93555 0C2.03491 0.000323905 2.13089 0.0401164 2.20117 0.110352L4.39258 2.30176C4.52349 2.43277 4.73056 2.4485 4.87988 2.33887C6.40246 1.21418 8.17036 0.466998 10.0381 0.15918C10.1466 0.141302 10.2579 0.172044 10.3418 0.243164C10.4257 0.314397 10.4745 0.419282 10.4746 0.529297V2.8291C10.4735 3.00697 10.3479 3.16046 10.1738 3.19727C6.68425 3.91459 3.93029 6.65628 3.19434 10.1436C3.15728 10.3172 3.0037 10.4414 2.82617 10.4414H0.53418C0.423924 10.4413 0.319008 10.393 0.248047 10.3086C0.17704 10.224 0.146813 10.1117 0.166016 10.0029C0.473648 8.16195 1.21018 6.41912 2.31543 4.91504C2.42507 4.76572 2.40933 4.55864 2.27832 4.42773L0.110352 2.26172C0.0401624 2.19148 0.00037511 2.09636 0 1.99707V0.375C0 0.167893 0.167893 0 0.375 0H1.93555ZM23.625 0C23.8321 0 24 0.167893 24 0.375V1.93555C23.9997 2.03491 23.9599 2.13089 23.8896 2.20117L21.6963 4.39453C21.5651 4.52533 21.5487 4.73243 21.6582 4.88184C22.7705 6.39144 23.5123 8.1419 23.8223 9.99121C23.8404 10.1001 23.8094 10.2115 23.7383 10.2959C23.667 10.3803 23.5616 10.4294 23.4512 10.4297H21.1592C20.9817 10.4296 20.8281 10.3054 20.791 10.1318C20.055 6.63052 17.2806 3.87901 13.7676 3.17578C13.5918 3.14108 13.4648 2.98674 13.4648 2.80762V0.510742C13.4649 0.400705 13.5128 0.295882 13.5967 0.224609C13.6805 0.153375 13.7918 0.122859 13.9004 0.140625C15.7777 0.441191 17.5568 1.1863 19.0879 2.31348C19.2373 2.42292 19.4444 2.40657 19.5752 2.27539L21.7383 0.110352C21.8085 0.0401625 21.9036 0.000375172 22.0029 0H23.625Z" fill="var(--fill-0, #1F1F1F)"/>
</svg>
