<svg preserveAspectRatio="none" width="100%" height="100%" overflow="visible" style="display: block;" viewBox="0 0 26.9999 23.9999" fill="none" xmlns="http://www.w3.org/2000/svg">
<path id="exclamation-triangle" fill-rule="evenodd" clip-rule="evenodd" d="M24.7472 23.9999C26.4752 23.9999 27.5613 22.1253 26.6961 20.6255L15.4489 1.12431C14.5848 -0.373397 12.4167 -0.376143 11.5511 1.12431L0.303616 20.6255C-0.559908 22.1224 0.521144 23.9999 2.25254 23.9999H24.7472ZM14.6378 15.75H12.3622C12.0634 15.75 11.8168 15.5164 11.8006 15.2181L11.4528 8.84315C11.4353 8.52093 11.6917 8.24998 12.0144 8.24998H14.9855C15.3082 8.24998 15.5647 8.52093 15.5472 8.84315L15.1994 15.2181C15.1832 15.5164 14.9365 15.75 14.6378 15.75ZM13.5 20.9062C12.3091 20.9062 11.3437 19.9408 11.3437 18.75C11.3437 17.5591 12.3091 16.5937 13.5 16.5937C14.6909 16.5937 15.6562 17.5591 15.6562 18.75C15.6562 19.9408 14.6909 20.9062 13.5 20.9062Z" fill="var(--fill-0, #1F1F1F)"/>
</svg>
