<svg preserveAspectRatio="none" width="100%" height="100%" overflow="visible" style="display: block;" viewBox="0 0 152.667 5.7735" fill="none" xmlns="http://www.w3.org/2000/svg">
<path id="Line 49" d="M0 2.88675C0 4.35951 1.19391 5.55342 2.66667 5.55342C4.13943 5.55342 5.33333 4.35951 5.33333 2.88675C5.33333 1.41399 4.13943 0.220085 2.66667 0.220085C1.19391 0.220085 0 1.41399 0 2.88675ZM152.667 2.88675L147.667 0V5.7735L152.667 2.88675ZM2.66667 2.88675V3.38675H3.65351V2.88675V2.38675H2.66667V2.88675ZM5.62719 2.88675V3.38675H7.60088V2.88675V2.38675H5.62719V2.88675ZM9.57456 2.88675V3.38675H11.5482V2.88675V2.38675H9.57456V2.88675ZM13.5219 2.88675V3.38675H15.4956V2.88675V2.38675H13.5219V2.88675ZM17.4693 2.88675V3.38675H19.443V2.88675V2.38675H17.4693V2.88675ZM21.4167 2.88675V3.38675H23.3904V2.88675V2.38675H21.4167V2.88675ZM25.364 2.88675V3.38675H27.3377V2.88675V2.38675H25.364V2.88675ZM29.3114 2.88675V3.38675H31.2851V2.88675V2.38675H29.3114V2.88675ZM33.2588 2.88675V3.38675H35.2325V2.88675V2.38675H33.2588V2.88675ZM37.2061 2.88675V3.38675H39.1798V2.88675V2.38675H37.2061V2.88675ZM41.1535 2.88675V3.38675H43.1272V2.88675V2.38675H41.1535V2.88675ZM45.1009 2.88675V3.38675H47.0745V2.88675V2.38675H45.1009V2.88675ZM49.0482 2.88675V3.38675H51.0219V2.88675V2.38675H49.0482V2.88675ZM52.9956 2.88675V3.38675H54.9693V2.88675V2.38675H52.9956V2.88675ZM56.943 2.88675V3.38675H58.9166V2.88675V2.38675H56.943V2.88675ZM60.8903 2.88675V3.38675H62.864V2.88675V2.38675H60.8903V2.88675ZM64.8377 2.88675V3.38675H66.8114V2.88675V2.38675H64.8377V2.88675ZM68.7851 2.88675V3.38675H70.7587V2.88675V2.38675H68.7851V2.88675ZM72.7324 2.88675V3.38675H74.7061V2.88675V2.38675H72.7324V2.88675ZM76.6798 2.88675V3.38675H78.6535V2.88675V2.38675H76.6798V2.88675ZM80.6272 2.88675V3.38675H82.6009V2.88675V2.38675H80.6272V2.88675ZM84.5746 2.88675V3.38675H86.5482V2.88675V2.38675H84.5746V2.88675ZM88.5219 2.88675V3.38675H90.4956V2.88675V2.38675H88.5219V2.88675ZM92.4693 2.88675V3.38675H94.443V2.88675V2.38675H92.4693V2.88675ZM96.4167 2.88675V3.38675H98.3904V2.88675V2.38675H96.4167V2.88675ZM100.364 2.88675V3.38675H102.338V2.88675V2.38675H100.364V2.88675ZM104.311 2.88675V3.38675H106.285V2.88675V2.38675H104.311V2.88675ZM108.259 2.88675V3.38675H110.232V2.88675V2.38675H108.259V2.88675ZM112.206 2.88675V3.38675H114.18V2.88675V2.38675H112.206V2.88675ZM116.154 2.88675V3.38675H118.127V2.88675V2.38675H116.154V2.88675ZM120.101 2.88675V3.38675H122.075V2.88675V2.38675H120.101V2.88675ZM124.048 2.88675V3.38675H126.022V2.88675V2.38675H124.048V2.88675ZM127.996 2.88675V3.38675H129.969V2.88675V2.38675H127.996V2.88675ZM131.943 2.88675V3.38675H133.917V2.88675V2.38675H131.943V2.88675ZM135.89 2.88675V3.38675H137.864V2.88675V2.38675H135.89V2.88675ZM139.838 2.88675V3.38675H141.811V2.88675V2.38675H139.838V2.88675ZM143.785 2.88675V3.38675H145.759V2.88675V2.38675H143.785V2.88675ZM147.732 2.88675V3.38675H149.706V2.88675V2.38675H147.732V2.88675Z" fill="var(--stroke-0, #FF5A43)"/>
</svg>
