<svg preserveAspectRatio="none" width="100%" height="100%" overflow="visible" style="display: block;" viewBox="0 0 197.667 5.7735" fill="none" xmlns="http://www.w3.org/2000/svg">
<path id="Line 53" d="M0 2.88675C0 4.35951 1.19391 5.55342 2.66667 5.55342C4.13943 5.55342 5.33333 4.35951 5.33333 2.88675C5.33333 1.41399 4.13943 0.220085 2.66667 0.220085C1.19391 0.220085 0 1.41399 0 2.88675ZM197.667 2.88675L192.667 0V5.7735L197.667 2.88675ZM2.66667 2.88675V3.38675H3.66156V2.88675V2.38675H2.66667V2.88675ZM5.65136 2.88675V3.38675H7.64116V2.88675V2.38675H5.65136V2.88675ZM9.63095 2.88675V3.38675H11.6207V2.88675V2.38675H9.63095V2.88675ZM13.6105 2.88675V3.38675H15.6003V2.88675V2.38675H13.6105V2.88675ZM17.5901 2.88675V3.38675H19.5799V2.88675V2.38675H17.5901V2.88675ZM21.5697 2.88675V3.38675H23.5595V2.88675V2.38675H21.5697V2.88675ZM25.5493 2.88675V3.38675H27.5391V2.88675V2.38675H25.5493V2.88675ZM29.5289 2.88675V3.38675H31.5187V2.88675V2.38675H29.5289V2.88675ZM33.5085 2.88675V3.38675H35.4983V2.88675V2.38675H33.5085V2.88675ZM37.4881 2.88675V3.38675H39.4779V2.88675V2.38675H37.4881V2.88675ZM41.4677 2.88675V3.38675H43.4575V2.88675V2.38675H41.4677V2.88675ZM45.4473 2.88675V3.38675H47.4371V2.88675V2.38675H45.4473V2.88675ZM49.4269 2.88675V3.38675H51.4167V2.88675V2.38675H49.4269V2.88675ZM53.4065 2.88675V3.38675H55.3963V2.88675V2.38675H53.4065V2.88675ZM57.386 2.88675V3.38675H59.3758V2.88675V2.38675H57.386V2.88675ZM61.3656 2.88675V3.38675H63.3554V2.88675V2.38675H61.3656V2.88675ZM65.3452 2.88675V3.38675H67.335V2.88675V2.38675H65.3452V2.88675ZM69.3248 2.88675V3.38675H71.3146V2.88675V2.38675H69.3248V2.88675ZM73.3044 2.88675V3.38675H75.2942V2.88675V2.38675H73.3044V2.88675ZM77.284 2.88675V3.38675H79.2738V2.88675V2.38675H77.284V2.88675ZM81.2636 2.88675V3.38675H83.2534V2.88675V2.38675H81.2636V2.88675ZM85.2432 2.88675V3.38675H87.233V2.88675V2.38675H85.2432V2.88675ZM89.2228 2.88675V3.38675H91.2126V2.88675V2.38675H89.2228V2.88675ZM93.2024 2.88675V3.38675H95.1922V2.88675V2.38675H93.2024V2.88675ZM97.182 2.88675V3.38675H99.1718V2.88675V2.38675H97.182V2.88675ZM101.162 2.88675V3.38675H103.151V2.88675V2.38675H101.162V2.88675ZM105.141 2.88675V3.38675H107.131V2.88675V2.38675H105.141V2.88675ZM109.121 2.88675V3.38675H111.111V2.88675V2.38675H109.121V2.88675ZM113.1 2.88675V3.38675H115.09V2.88675V2.38675H113.1V2.88675ZM117.08 2.88675V3.38675H119.07V2.88675V2.38675H117.08V2.88675ZM121.06 2.88675V3.38675H123.049V2.88675V2.38675H121.06V2.88675ZM125.039 2.88675V3.38675H127.029V2.88675V2.38675H125.039V2.88675ZM129.019 2.88675V3.38675H131.009V2.88675V2.38675H129.019V2.88675ZM132.998 2.88675V3.38675H134.988V2.88675V2.38675H132.998V2.88675ZM136.978 2.88675V3.38675H138.968V2.88675V2.38675H136.978V2.88675ZM140.958 2.88675V3.38675H142.947V2.88675V2.38675H140.958V2.88675ZM144.937 2.88675V3.38675H146.927V2.88675V2.38675H144.937V2.88675ZM148.917 2.88675V3.38675H150.907V2.88675V2.38675H148.917V2.88675ZM152.896 2.88675V3.38675H154.886V2.88675V2.38675H152.896V2.88675ZM156.876 2.88675V3.38675H158.866V2.88675V2.38675H156.876V2.88675ZM160.855 2.88675V3.38675H162.845V2.88675V2.38675H160.855V2.88675ZM164.835 2.88675V3.38675H166.825V2.88675V2.38675H164.835V2.88675ZM168.815 2.88675V3.38675H170.804V2.88675V2.38675H168.815V2.88675ZM172.794 2.88675V3.38675H174.784V2.88675V2.38675H172.794V2.88675ZM176.774 2.88675V3.38675H178.764V2.88675V2.38675H176.774V2.88675ZM180.753 2.88675V3.38675H182.743V2.88675V2.38675H180.753V2.88675ZM184.733 2.88675V3.38675H186.723V2.88675V2.38675H184.733V2.88675ZM188.713 2.88675V3.38675H190.702V2.88675V2.38675H188.713V2.88675ZM192.692 2.88675V3.38675H194.682V2.88675V2.38675H192.692V2.88675Z" fill="var(--stroke-0, #FF5A43)"/>
</svg>
