<svg preserveAspectRatio="none" width="100%" height="100%" overflow="visible" style="display: block;" viewBox="0 0 106.667 5.7735" fill="none" xmlns="http://www.w3.org/2000/svg">
<path id="Line 52" d="M0 2.88675C0 4.35951 1.19391 5.55342 2.66667 5.55342C4.13943 5.55342 5.33333 4.35951 5.33333 2.88675C5.33333 1.41399 4.13943 0.220085 2.66667 0.220085C1.19391 0.220085 0 1.41399 0 2.88675ZM106.667 2.88675L101.667 0V5.7735L106.667 2.88675ZM2.66667 2.88675V3.38675H3.66667V2.88675V2.38675H2.66667V2.88675ZM5.66667 2.88675V3.38675H7.66667V2.88675V2.38675H5.66667V2.88675ZM9.66667 2.88675V3.38675H11.6667V2.88675V2.38675H9.66667V2.88675ZM13.6667 2.88675V3.38675H15.6667V2.88675V2.38675H13.6667V2.88675ZM17.6667 2.88675V3.38675H19.6667V2.88675V2.38675H17.6667V2.88675ZM21.6667 2.88675V3.38675H23.6667V2.88675V2.38675H21.6667V2.88675ZM25.6667 2.88675V3.38675H27.6667V2.88675V2.38675H25.6667V2.88675ZM29.6667 2.88675V3.38675H31.6667V2.88675V2.38675H29.6667V2.88675ZM33.6667 2.88675V3.38675H35.6667V2.88675V2.38675H33.6667V2.88675ZM37.6667 2.88675V3.38675H39.6667V2.88675V2.38675H37.6667V2.88675ZM41.6667 2.88675V3.38675H43.6667V2.88675V2.38675H41.6667V2.88675ZM45.6667 2.88675V3.38675H47.6667V2.88675V2.38675H45.6667V2.88675ZM49.6667 2.88675V3.38675H51.6667V2.88675V2.38675H49.6667V2.88675ZM53.6667 2.88675V3.38675H55.6667V2.88675V2.38675H53.6667V2.88675ZM57.6667 2.88675V3.38675H59.6667V2.88675V2.38675H57.6667V2.88675ZM61.6667 2.88675V3.38675H63.6667V2.88675V2.38675H61.6667V2.88675ZM65.6667 2.88675V3.38675H67.6667V2.88675V2.38675H65.6667V2.88675ZM69.6667 2.88675V3.38675H71.6667V2.88675V2.38675H69.6667V2.88675ZM73.6667 2.88675V3.38675H75.6667V2.88675V2.38675H73.6667V2.88675ZM77.6667 2.88675V3.38675H79.6667V2.88675V2.38675H77.6667V2.88675ZM81.6667 2.88675V3.38675H83.6667V2.88675V2.38675H81.6667V2.88675ZM85.6667 2.88675V3.38675H87.6667V2.88675V2.38675H85.6667V2.88675ZM89.6667 2.88675V3.38675H91.6667V2.88675V2.38675H89.6667V2.88675ZM93.6667 2.88675V3.38675H95.6667V2.88675V2.38675H93.6667V2.88675ZM97.6667 2.88675V3.38675H99.6667V2.88675V2.38675H97.6667V2.88675ZM101.667 2.88675V3.38675H103.667V2.88675V2.38675H101.667V2.88675Z" fill="var(--stroke-0, #FF5A43)"/>
</svg>
