<svg preserveAspectRatio="none" width="100%" height="100%" overflow="visible" style="display: block;" viewBox="0 0 176.667 5.7735" fill="none" xmlns="http://www.w3.org/2000/svg">
<path id="Line 51" d="M0 2.88675C0 4.35951 1.19391 5.55342 2.66667 5.55342C4.13943 5.55342 5.33333 4.35951 5.33333 2.88675C5.33333 1.41399 4.13943 0.220085 2.66667 0.220085C1.19391 0.220085 0 1.41399 0 2.88675ZM176.667 2.88675L171.667 0V5.7735L176.667 2.88675ZM2.66667 2.88675V3.38675H3.6553V2.88675V2.38675H2.66667V2.88675ZM5.63258 2.88675V3.38675H7.60985V2.88675V2.38675H5.63258V2.88675ZM9.58712 2.88675V3.38675H11.5644V2.88675V2.38675H9.58712V2.88675ZM13.5417 2.88675V3.38675H15.5189V2.88675V2.38675H13.5417V2.88675ZM17.4962 2.88675V3.38675H19.4735V2.88675V2.38675H17.4962V2.88675ZM21.4508 2.88675V3.38675H23.428V2.88675V2.38675H21.4508V2.88675ZM25.4053 2.88675V3.38675H27.3826V2.88675V2.38675H25.4053V2.88675ZM29.3598 2.88675V3.38675H31.3371V2.88675V2.38675H29.3598V2.88675ZM33.3144 2.88675V3.38675H35.2917V2.88675V2.38675H33.3144V2.88675ZM37.2689 2.88675V3.38675H39.2462V2.88675V2.38675H37.2689V2.88675ZM41.2235 2.88675V3.38675H43.2008V2.88675V2.38675H41.2235V2.88675ZM45.178 2.88675V3.38675H47.1553V2.88675V2.38675H45.178V2.88675ZM49.1326 2.88675V3.38675H51.1098V2.88675V2.38675H49.1326V2.88675ZM53.0871 2.88675V3.38675H55.0644V2.88675V2.38675H53.0871V2.88675ZM57.0417 2.88675V3.38675H59.0189V2.88675V2.38675H57.0417V2.88675ZM60.9962 2.88675V3.38675H62.9735V2.88675V2.38675H60.9962V2.88675ZM64.9507 2.88675V3.38675H66.928V2.88675V2.38675H64.9507V2.88675ZM68.9053 2.88675V3.38675H70.8826V2.88675V2.38675H68.9053V2.88675ZM72.8598 2.88675V3.38675H74.8371V2.88675V2.38675H72.8598V2.88675ZM76.8144 2.88675V3.38675H78.7917V2.88675V2.38675H76.8144V2.88675ZM80.7689 2.88675V3.38675H82.7462V2.88675V2.38675H80.7689V2.88675ZM84.7235 2.88675V3.38675H86.7007V2.88675V2.38675H84.7235V2.88675ZM88.678 2.88675V3.38675H90.6553V2.88675V2.38675H88.678V2.88675ZM92.6326 2.88675V3.38675H94.6098V2.88675V2.38675H92.6326V2.88675ZM96.5871 2.88675V3.38675H98.5644V2.88675V2.38675H96.5871V2.88675ZM100.542 2.88675V3.38675H102.519V2.88675V2.38675H100.542V2.88675ZM104.496 2.88675V3.38675H106.473V2.88675V2.38675H104.496V2.88675ZM108.451 2.88675V3.38675H110.428V2.88675V2.38675H108.451V2.88675ZM112.405 2.88675V3.38675H114.383V2.88675V2.38675H112.405V2.88675ZM116.36 2.88675V3.38675H118.337V2.88675V2.38675H116.36V2.88675ZM120.314 2.88675V3.38675H122.292V2.88675V2.38675H120.314V2.88675ZM124.269 2.88675V3.38675H126.246V2.88675V2.38675H124.269V2.88675ZM128.223 2.88675V3.38675H130.201V2.88675V2.38675H128.223V2.88675ZM132.178 2.88675V3.38675H134.155V2.88675V2.38675H132.178V2.88675ZM136.133 2.88675V3.38675H138.11V2.88675V2.38675H136.133V2.88675ZM140.087 2.88675V3.38675H142.064V2.88675V2.38675H140.087V2.88675ZM144.042 2.88675V3.38675H146.019V2.88675V2.38675H144.042V2.88675ZM147.996 2.88675V3.38675H149.974V2.88675V2.38675H147.996V2.88675ZM151.951 2.88675V3.38675H153.928V2.88675V2.38675H151.951V2.88675ZM155.905 2.88675V3.38675H157.883V2.88675V2.38675H155.905V2.88675ZM159.86 2.88675V3.38675H161.837V2.88675V2.38675H159.86V2.88675ZM163.814 2.88675V3.38675H165.792V2.88675V2.38675H163.814V2.88675ZM167.769 2.88675V3.38675H169.746V2.88675V2.38675H167.769V2.88675ZM171.724 2.88675V3.38675H173.701V2.88675V2.38675H171.724V2.88675Z" fill="var(--stroke-0, #FF5A43)"/>
</svg>
