<svg preserveAspectRatio="none" width="100%" height="100%" overflow="visible" style="display: block;" viewBox="0 0 71.6667 5.7735" fill="none" xmlns="http://www.w3.org/2000/svg">
<path id="Line 50" d="M0 2.88675C0 4.35951 1.19391 5.55342 2.66667 5.55342C4.13943 5.55342 5.33333 4.35951 5.33333 2.88675C5.33333 1.41399 4.13943 0.220085 2.66667 0.220085C1.19391 0.220085 0 1.41399 0 2.88675ZM71.6667 2.88675L66.6667 0V5.7735L71.6667 2.88675ZM2.66667 2.88675V3.38675H3.68137V2.88675V2.38675H2.66667V2.88675ZM5.71078 2.88675V3.38675H7.7402V2.88675V2.38675H5.71078V2.88675ZM9.76961 2.88675V3.38675H11.799V2.88675V2.38675H9.76961V2.88675ZM13.8284 2.88675V3.38675H15.8578V2.88675V2.38675H13.8284V2.88675ZM17.8873 2.88675V3.38675H19.9167V2.88675V2.38675H17.8873V2.88675ZM21.9461 2.88675V3.38675H23.9755V2.88675V2.38675H21.9461V2.88675ZM26.0049 2.88675V3.38675H28.0343V2.88675V2.38675H26.0049V2.88675ZM30.0637 2.88675V3.38675H32.0931V2.88675V2.38675H30.0637V2.88675ZM34.1225 2.88675V3.38675H36.152V2.88675V2.38675H34.1225V2.88675ZM38.1814 2.88675V3.38675H40.2108V2.88675V2.38675H38.1814V2.88675ZM42.2402 2.88675V3.38675H44.2696V2.88675V2.38675H42.2402V2.88675ZM46.299 2.88675V3.38675H48.3284V2.88675V2.38675H46.299V2.88675ZM50.3578 2.88675V3.38675H52.3872V2.88675V2.38675H50.3578V2.88675ZM54.4167 2.88675V3.38675H56.4461V2.88675V2.38675H54.4167V2.88675ZM58.4755 2.88675V3.38675H60.5049V2.88675V2.38675H58.4755V2.88675ZM62.5343 2.88675V3.38675H64.5637V2.88675V2.38675H62.5343V2.88675ZM66.5931 2.88675V3.38675H68.6225V2.88675V2.38675H66.5931V2.88675Z" fill="var(--stroke-0, #FF5A43)"/>
</svg>
