<svg preserveAspectRatio="none" width="100%" height="100%" overflow="visible" style="display: block;" viewBox="0 0 171.015 170.554" fill="none" xmlns="http://www.w3.org/2000/svg">
<g id="Group">
<path id="Vector" fill-rule="evenodd" clip-rule="evenodd" d="M85.4122 71.8427C85.14 71.4383 84.7988 71.0849 84.4042 70.7987C84.1664 70.8039 83.9324 70.8585 83.717 70.9593C83.5016 71.06 83.3096 71.2045 83.1532 71.3837C83.0002 71.5997 83.2342 71.9417 83.3872 72.1757C83.5486 72.4282 83.7356 72.6634 83.9452 72.8777C84.2242 73.0667 84.6652 72.7067 84.9802 72.4727C85.2952 72.2387 85.5292 72.0767 85.4122 71.8427ZM84.1972 72.2567C84.0622 72.0857 83.8102 71.7617 83.6932 71.5727C83.8817 71.3646 84.1001 71.1856 84.3412 71.0417C84.3412 71.0417 84.6742 71.6357 84.7912 71.8607C84.5482 72.0317 84.3502 72.1667 84.1972 72.2567ZM86.0962 73.4087C85.9882 73.2827 85.1152 73.6247 84.8542 73.9937C84.7012 74.2097 84.9262 74.5517 85.0882 74.7947C85.2431 75.0491 85.4307 75.282 85.6462 75.4877C85.6952 75.5261 85.755 75.5481 85.8172 75.5507C86.1052 75.5507 86.9242 74.9117 87.0502 74.7677C87.0919 74.7281 87.1203 74.6765 87.1316 74.6202C87.1428 74.5638 87.1364 74.5053 87.1132 74.4527C86.838 74.0478 86.4937 73.6944 86.0962 73.4087ZM85.8982 74.8667C85.715 74.648 85.5438 74.4197 85.3852 74.1827C85.5784 73.9796 85.7961 73.8012 86.0332 73.6517C86.0332 73.6517 86.3752 74.2547 86.4922 74.4797C86.2132 74.6597 86.0512 74.7767 85.8982 74.8667ZM91.0642 80.6447C93.1432 79.1237 90.2812 76.2887 88.6702 78.3767C88.502 78.6566 88.4131 78.9771 88.4131 79.3037C88.4131 79.6303 88.502 79.9507 88.6702 80.2307C88.9329 80.6028 89.3326 80.8554 89.7815 80.9331C90.2304 81.0107 90.6917 80.907 91.0642 80.6447ZM88.9942 78.9797C89.1022 77.3957 91.7482 77.8727 91.1812 79.5467C91.0863 79.8139 90.8947 80.0359 90.6442 80.1688C90.3937 80.3018 90.1025 80.336 89.828 80.2649C89.5535 80.1937 89.3156 80.0223 89.1612 79.7844C89.0069 79.5465 88.9473 79.2594 88.9942 78.9797ZM85.9072 71.5457C85.9579 71.5794 86.0172 71.5981 86.0782 71.5997C86.3752 71.5997 87.1852 70.9697 87.3112 70.8257C87.3548 70.7854 87.3844 70.7323 87.3957 70.674C87.407 70.6157 87.3995 70.5554 87.3742 70.5017C87.0996 70.1018 86.7587 69.7517 86.3662 69.4667C86.1294 69.477 85.897 69.534 85.6823 69.6344C85.4677 69.7348 85.2749 69.8766 85.1152 70.0517C84.9622 70.2677 85.1962 70.6187 85.3492 70.8437C85.5077 71.0983 85.6949 71.3338 85.9072 71.5457ZM86.3032 69.7457C86.3032 69.7457 86.6362 70.3397 86.7532 70.5647C86.4292 70.7897 86.2852 70.8797 86.1592 70.9607C86.0152 70.7807 85.7722 70.4657 85.6462 70.2767C85.8311 70.0515 86.0533 69.8597 86.3032 69.7097V69.7457ZM89.0122 73.4357C89.0535 73.3958 89.0811 73.3437 89.0908 73.287C89.1005 73.2304 89.0919 73.1721 89.0662 73.1207C88.794 72.7163 88.4528 72.3629 88.0582 72.0767C87.8214 72.087 87.589 72.144 87.3743 72.2444C87.1597 72.3448 86.9669 72.4866 86.8072 72.6617C86.6542 72.8777 86.8972 73.2377 87.0412 73.4627C87.2045 73.7111 87.3913 73.9431 87.5992 74.1557C87.6509 74.1889 87.7093 74.2104 87.7702 74.2187C88.0762 74.2277 88.8772 73.5797 89.0122 73.4357ZM87.8512 73.5347C87.6718 73.3153 87.5035 73.087 87.3472 72.8507C87.5376 72.6446 87.7557 72.4659 87.9952 72.3197C87.9952 72.3197 88.3282 72.9137 88.4452 73.1387C88.2292 73.3187 87.9952 73.4537 87.8512 73.5797V73.5347ZM134.129 71.0147C134.03 71.0867 133.517 71.4647 133.031 71.9147C132.545 72.3647 130.997 73.8497 130.871 74.5247C130.862 74.6481 130.881 74.7721 130.926 74.8873C130.971 75.0026 131.042 75.1062 131.132 75.1907C131.366 75.4427 132.293 76.2347 132.293 75.8567C132.271 75.7922 132.234 75.7337 132.185 75.6857C131.907 75.4204 131.668 75.1174 131.474 74.7857C131.312 74.4617 133.058 72.8057 134.309 71.1857C134.444 71.0687 134.264 70.8797 134.129 71.0147ZM131.663 77.2787C131.537 77.4587 131.411 77.8277 131.663 77.8547C131.663 77.8547 131.888 77.5937 132.167 77.5577C132.698 77.5577 132.671 78.3587 132.662 78.8987C132.662 79.0517 132.869 79.1147 132.905 78.9617C133.149 78.6234 133.259 78.2062 133.211 77.7917C133.031 77.0357 132.032 76.7207 131.663 77.2787ZM132.05 71.9327C132.16 71.9751 132.282 71.9735 132.391 71.9283C132.5 71.883 132.588 71.7976 132.635 71.6897L132.851 71.1947C132.9 71.086 132.904 70.9625 132.861 70.8512C132.819 70.7399 132.735 70.6498 132.626 70.6007C132.573 70.575 132.515 70.5603 132.457 70.5573C132.398 70.5543 132.339 70.5632 132.284 70.5833C132.228 70.6034 132.177 70.6345 132.134 70.6745C132.091 70.7146 132.056 70.763 132.032 70.8167L131.807 71.3387C131.784 71.3936 131.771 71.4526 131.771 71.5123C131.77 71.5721 131.782 71.6313 131.804 71.6866C131.827 71.7419 131.86 71.7921 131.902 71.8344C131.945 71.8766 131.995 71.91 132.05 71.9327ZM135.47 73.7777C135.541 73.8206 135.622 73.8424 135.704 73.8407C136.136 73.8407 136.091 73.4537 136.325 73.2557C136.416 73.1781 136.472 73.0677 136.481 72.9487C136.491 72.8297 136.452 72.7119 136.375 72.6212C136.297 72.5305 136.187 72.4743 136.068 72.465C135.949 72.4557 135.831 72.4941 135.74 72.5717C135.407 72.8507 135.029 73.5077 135.47 73.7777ZM70.7062 51.1697C76.7092 51.5567 91.0192 50.8187 91.0192 50.1167C90.9382 18.3467 91.1272 19.9937 90.7582 19.9217C84.6382 18.7877 82.2712 18.3017 78.1042 18.8597C72.4252 19.6337 70.3102 21.1457 61.0042 21.3527C55.6042 21.4787 55.7482 21.2267 55.7032 21.4427C55.5502 22.1627 55.4152 52.8887 55.9642 53.4557C57.0082 54.5087 65.8912 50.8547 70.7062 51.1697ZM55.9192 21.5597C59.3487 21.7013 62.7837 21.6412 66.2062 21.3797C72.5872 20.8127 77.3122 18.5807 83.3062 19.1747C84.7642 19.3187 88.9942 20.0747 90.4522 20.3807V49.8467C89.2912 49.9727 84.2332 50.4857 78.7522 50.6657C69.8872 50.9627 71.0572 50.1257 66.2602 51.0437C62.1922 51.8177 57.2602 53.4287 56.3602 53.0957C56.0002 51.1247 55.8292 22.9277 55.9192 21.5597Z" fill="var(--fill-0, black)"/>
<path id="Vector_2" fill-rule="evenodd" clip-rule="evenodd" d="M67.6552 44.0506C69.4552 43.7356 81.4612 36.7786 82.2352 35.1766C82.2859 35.1041 82.3131 35.0177 82.3131 34.9291C82.3131 34.8406 82.2859 34.7542 82.2352 34.6816C81.3352 33.7096 68.3572 27.4816 66.8812 27.4366C65.9812 27.4366 66.4492 42.0976 67.1152 43.7446C67.1505 43.854 67.2256 43.9461 67.3256 44.0028C67.4256 44.0594 67.5432 44.0765 67.6552 44.0506ZM66.8452 27.6796C68.2672 27.7606 80.5072 34.0336 81.6952 34.9876C80.3902 36.6796 69.5902 43.0426 67.5292 43.5196C66.4312 40.2796 66.9352 27.6796 66.8452 27.6796ZM35.0302 28.7956C35.02 28.9435 35.002 29.0907 34.9762 29.2366C34.9645 29.2946 34.9646 29.3544 34.9765 29.4124C34.9884 29.4703 35.0119 29.5253 35.0455 29.574C35.0791 29.6227 35.1221 29.6641 35.1721 29.6959C35.222 29.7276 35.2778 29.7489 35.3362 29.7586C35.4518 29.7799 35.5711 29.7551 35.6687 29.6895C35.7662 29.6239 35.8343 29.5227 35.8582 29.4076C35.8942 29.2295 35.9183 29.0491 35.9302 28.8676C35.9349 28.8085 35.9279 28.7491 35.9097 28.6927C35.8915 28.6363 35.8623 28.584 35.8238 28.5389C35.7854 28.4938 35.7384 28.4567 35.6856 28.4297C35.6329 28.4027 35.5753 28.3864 35.5162 28.3816C35.4571 28.3769 35.3976 28.3839 35.3412 28.4021C35.2848 28.4204 35.2326 28.4495 35.1874 28.488C35.1423 28.5264 35.1052 28.5734 35.0782 28.6262C35.0512 28.679 35.0349 28.7365 35.0302 28.7956ZM35.2192 33.6286C35.2192 33.6286 34.3822 32.9536 34.3192 32.8816C34.2127 32.8171 34.1131 32.7417 34.0222 32.6566C34.0222 32.4766 33.6262 32.4316 33.8602 33.0796C34.0222 33.5296 34.8862 34.0966 35.2912 33.8446C35.3198 33.8351 35.3435 33.8146 35.357 33.7876C35.3705 33.7605 35.3727 33.7293 35.3632 33.7006C35.3536 33.672 35.3331 33.6483 35.3061 33.6348C35.2791 33.6213 35.2478 33.6191 35.2192 33.6286Z" fill="var(--fill-0, black)"/>
<path id="Vector_3" fill-rule="evenodd" clip-rule="evenodd" d="M44.4081 74.3177C45.0831 73.7867 44.0571 70.5377 42.7701 66.6677C48.7371 68.8007 53.6961 69.7277 59.8701 68.5217C61.0041 68.7017 62.1021 68.8547 63.1281 68.9717C63.3081 68.9717 63.5241 68.7377 63.8121 68.2157C64.7237 68.8216 65.8212 69.0833 66.9081 68.9537C67.7361 68.7197 70.5081 67.2887 70.7421 66.5597C70.771 66.4883 70.7853 66.4119 70.7842 66.3349C70.783 66.2579 70.7664 66.1819 70.7354 66.1114C70.7043 66.0409 70.6594 65.9774 70.6034 65.9245C70.5474 65.8717 70.4813 65.8306 70.4091 65.8037C72.9292 65.2064 75.4842 64.7675 78.0591 64.4897C85.7361 63.6437 99.7131 66.1727 104.681 65.8397C111.611 65.3627 125.912 58.6397 126.506 57.0377C126.992 55.7417 129.521 3.48774 127.469 0.337744C127.39 0.213921 127.276 0.116751 127.141 0.0589435C127.006 0.00113601 126.857 -0.014617 126.713 0.0137446C123.806 0.0947446 109.298 5.46774 103.889 5.72874C97.3821 6.07974 84.8361 3.28974 77.0601 4.14474C65.8191 5.39574 60.8421 8.95974 52.9041 8.77974C43.3101 8.51874 35.8041 2.83074 26.5701 1.65174C20.8371 0.922744 12.9531 1.00374 7.94012 2.97474C7.39626 3.14254 6.89769 3.43184 6.48212 3.82074C5.78012 4.80174 6.09512 28.4447 6.10412 29.3807C5.78012 28.6967 5.20412 28.9127 4.88912 29.6147C4.26812 31.1267 4.45712 34.9607 4.43012 35.4557C4.04464 36.5964 3.71722 37.7559 3.44912 38.9297H2.54912C2.50862 38.93 2.46926 38.9432 2.43685 38.9675C2.40444 38.9918 2.3807 39.0259 2.36912 39.0647C0.569125 44.5187 -1.83387 55.7597 2.20712 59.8997C3.48575 61.3002 5.20896 62.2158 7.08512 62.4917C7.11096 63.0154 7.20785 63.5332 7.37312 64.0307C7.76912 64.6607 9.17313 64.1297 11.6031 63.3917C10.69 65.7287 9.89701 68.1108 9.22712 70.5287C8.95712 71.4287 7.57112 76.7747 7.86812 77.3687C8.16512 77.9627 9.08312 78.0347 9.66812 78.1787C7.95417 89.0943 7.61252 100.181 8.65112 111.182C8.69612 111.659 9.18212 112.082 10.0101 112.352C9.83912 121.19 11.3241 137.48 11.7291 137.939C11.8647 138.032 12.0178 138.096 12.1791 138.128C12.1791 138.902 12.1341 140.243 12.1791 141.206C12.1625 141.258 12.1625 141.315 12.1791 141.368C12.1713 141.697 12.239 142.023 12.3771 142.322C13.1691 143.339 19.7931 143.357 20.1261 143.096C20.2505 143.014 20.3526 142.902 20.4233 142.771C20.4939 142.64 20.5309 142.493 20.5309 142.344C20.5309 142.195 20.4939 142.049 20.4233 141.917C20.3526 141.786 20.2505 141.675 20.1261 141.593C19.6843 141.32 19.2171 141.091 18.7311 140.909C17.9407 140.602 17.1155 140.393 16.2741 140.288C16.2741 139.757 16.2741 139.001 16.3461 138.389C16.4399 138.394 16.5325 138.366 16.608 138.31C16.6835 138.254 16.7373 138.174 16.7601 138.083C17.2641 136.697 20.7111 119.93 21.9261 113.387C25.0131 113.387 28.3251 113.207 31.4571 112.982C32.0871 122.783 34.4091 136.643 34.7331 136.94C34.8844 137.032 35.0527 137.094 35.2281 137.12V139.487C35.2103 139.539 35.2103 139.596 35.2281 139.649C35.2203 139.978 35.288 140.304 35.4261 140.603C36.2091 141.62 42.8331 141.638 43.1751 141.377C43.2995 141.295 43.4016 141.183 43.4723 141.052C43.5429 140.921 43.5799 140.774 43.5799 140.625C43.5799 140.476 43.5429 140.33 43.4723 140.198C43.4016 140.067 43.2995 139.956 43.1751 139.874C42.7353 139.598 42.2677 139.368 41.7801 139.19C40.989 138.885 40.1641 138.676 39.3231 138.569V137.237C39.3968 137.221 39.4662 137.189 39.5267 137.144C39.5873 137.099 39.6375 137.042 39.6741 136.976C40.7451 134.357 42.3741 119.057 42.3741 111.776C43.5801 111.56 46.9911 110.93 47.6751 109.976C48.6291 108.527 45.5241 88.8797 43.2291 75.1547C43.6378 74.8985 44.0315 74.6191 44.4081 74.3177ZM63.1101 68.5217C56.4231 67.6937 46.3791 65.5607 41.0511 61.4747C38.6031 53.6897 39.0261 51.3677 40.2411 42.9257C43.3731 45.7967 45.6411 49.1447 47.6571 51.5747C48.9891 53.1497 63.4881 63.8417 64.8831 65.1287C64.3536 66.2908 63.7617 67.4234 63.1101 68.5217ZM21.7641 19.8227C22.0202 20.1361 22.3676 20.3618 22.7581 20.4683C23.1485 20.5748 23.5624 20.5568 23.9421 20.4167C23.8521 20.8307 23.8521 20.9387 23.9421 21.0917C23.2353 21.4726 22.6208 22.0042 22.1421 22.6487C21.1161 24.3317 21.2691 24.0797 21.3411 24.9797C21.0414 25.1788 20.7925 25.4453 20.6144 25.7579C20.4362 26.0705 20.3337 26.4204 20.3151 26.7797C20.2449 27.3795 20.2662 27.9864 20.3781 28.5797C20.4479 28.9626 20.6016 29.3253 20.8281 29.6417C20.9977 29.8865 21.2167 30.093 21.4709 30.248C21.7251 30.403 22.0089 30.5031 22.3041 30.5417C22.2388 30.929 22.2388 31.3245 22.3041 31.7117C22.5794 32.8578 23.2093 33.8877 24.1041 34.6547C24.4509 34.9354 24.8741 35.1053 25.3187 35.1422C25.7634 35.1791 26.2088 35.0814 26.5971 34.8617C26.5071 35.3477 26.3631 36.0947 26.2281 36.8687C25.5065 36.8673 24.7854 36.9064 24.0681 36.9857C23.3571 36.2747 17.8491 37.0937 17.8491 38.9297C15.8011 40.049 13.9571 41.5066 12.3951 43.2407C11.9271 33.7007 11.3871 16.6187 11.3151 16.5827C12.2151 16.1777 17.7501 15.7817 23.2491 16.3577C22.9209 16.4836 22.6213 16.6739 22.368 16.9176C22.1146 17.1613 21.9128 17.4533 21.7743 17.7764C21.6358 18.0995 21.5636 18.447 21.5619 18.7985C21.5601 19.15 21.6289 19.4983 21.7641 19.8227ZM32.2311 19.1117C31.1511 19.5437 25.8681 21.0197 24.5631 20.9927C24.3921 20.7497 24.4011 20.8577 24.5001 20.4707C29.0991 19.8677 31.2681 17.4197 32.2311 19.1117ZM37.2531 28.1117C37.3251 28.6877 38.0181 30.9107 38.0811 31.5407C37.8741 31.6937 37.2711 31.7567 37.1091 31.9187C36.9435 32.376 36.8465 32.8551 36.8211 33.3407C36.5421 35.0147 35.1471 35.4197 33.4551 35.4917C32.7891 35.4917 33.0051 35.4917 32.7261 38.0567C30.8215 37.3803 28.8241 37.0009 26.8041 36.9317C26.9751 35.9777 27.0921 35.3747 27.1641 34.9787C27.235 35.1108 27.3545 35.2101 27.4973 35.2554C27.6402 35.3008 27.7951 35.2887 27.9291 35.2217C28.5771 34.8887 28.4151 34.2047 28.1451 33.5387C27.5781 32.1437 27.9381 31.5947 27.6321 31.4237C27.2209 31.1842 26.8748 30.8473 26.6241 30.4427C26.1201 29.5427 26.6241 28.6427 27.2001 28.6427C28.2891 28.6427 28.3431 29.7767 28.6491 30.4427C29.0991 31.4777 30.2601 30.2987 30.1251 28.1297C30.2871 28.0217 30.9621 28.0757 31.2771 27.8597C31.5921 27.6437 31.7631 27.0407 32.0151 26.7437C32.3796 26.8922 32.7737 26.9533 33.166 26.922C33.5583 26.8907 33.9378 26.768 34.2741 26.5637C34.4474 26.4394 34.5906 26.2778 34.6934 26.091C34.7961 25.9041 34.8558 25.6966 34.8681 25.4837C35.0503 25.6068 35.261 25.6812 35.4801 25.6997C35.9411 25.6861 36.3792 25.496 36.7041 25.1687C36.9549 25.3659 37.1869 25.5859 37.3971 25.8257C37.7211 27.4097 37.1901 27.5987 37.2531 28.1027V28.1117ZM20.3961 37.4177C21.4696 37.1866 22.5751 37.144 23.6631 37.2917C24.1662 38.3592 25.0437 39.2047 26.1291 39.6677C24.2391 40.9907 20.1801 40.2797 20.3961 37.4177ZM24.2031 37.2647C27.7444 36.8963 31.3185 37.5195 34.5261 39.0647C32.1951 40.7207 29.4321 40.3967 26.7681 39.3437C25.6913 38.981 24.7809 38.2431 24.2031 37.2647ZM33.2661 38.2457C33.3471 37.5257 33.4101 36.7607 33.4731 36.0317C35.4441 35.9327 37.0191 35.3657 37.3341 33.4127C37.3341 33.1877 37.4421 32.5127 37.4871 32.2607C38.7381 31.8287 38.7201 31.9727 38.3151 30.4607C38.3151 30.5507 37.7031 28.3997 37.6491 27.9497C37.7671 27.7005 37.8402 27.4324 37.8651 27.1577C38.0901 27.2837 38.3601 27.0227 38.4861 26.6357C38.8461 25.4747 37.9731 25.1057 37.9821 24.6917C38.0883 24.1713 38.0605 23.6324 37.9011 23.1257C37.8292 22.6898 37.6621 22.275 37.4116 21.911C37.1612 21.547 36.8336 21.2427 36.4521 21.0197C36.2901 20.9387 35.8311 20.7677 35.7951 20.7317C35.4801 20.4077 35.4441 19.5257 33.8061 19.2197C33.3741 19.1387 32.9061 19.2197 32.7171 19.1387C32.6067 18.8312 32.3979 18.5686 32.1231 18.3917C31.6191 18.0677 31.5561 18.2837 31.7451 18.0767C36.8121 19.2917 43.4451 21.0017 46.8201 21.8927C46.7751 23.9717 46.3881 40.3787 45.8571 48.8297C44.1878 46.5988 42.3234 44.5206 40.2861 42.6197C40.5201 41.0087 36.0921 37.8857 34.7601 38.9027C34.2741 38.6507 33.7701 38.4797 33.2661 38.2457ZM39.8451 42.4217C39.6111 43.7177 39.4581 44.4467 39.1971 46.2287C38.5198 46.3133 37.8323 46.2084 37.211 45.9256C36.5897 45.6427 36.0591 45.1931 35.6781 44.6267C35.4484 43.7467 35.5352 42.8138 35.9235 41.9913C36.3117 41.1687 36.9767 40.5088 37.8021 40.1267C38.9271 40.8647 39.9351 41.8817 39.8451 42.4217ZM40.5291 61.8797C38.4771 62.5997 35.3271 61.6637 35.5701 59.2247C35.5934 58.3253 35.9647 57.4699 36.606 56.8387C37.2473 56.2075 38.1084 55.8498 39.0081 55.8407C39.4034 57.8802 39.9112 59.8963 40.5291 61.8797ZM66.1701 61.1957C66.2331 61.5737 66.4311 63.3647 66.4401 63.8957C66.4401 64.0397 66.4401 63.9857 66.3141 64.0217C65.9463 64.1137 65.5737 64.1858 65.1981 64.2377C65.0361 63.3917 65.0001 63.0587 64.7481 61.7537C65.9001 61.2587 65.9991 61.2587 66.1971 61.1867L66.1701 61.1957ZM70.0041 66.5957C69.017 67.3801 67.923 68.0196 66.7551 68.4947C65.7863 68.6275 64.8006 68.4411 63.9471 67.9637C64.1721 67.5317 64.4421 66.9647 64.7751 66.2717C65.0451 66.3527 65.2431 66.2717 65.5491 66.0377C66.1071 65.6417 67.1331 64.9307 66.7821 65.5967C66.5301 66.0737 66.0891 66.4157 66.2241 66.7397C66.3591 67.0637 66.7911 66.9557 67.1241 66.9107C68.0033 66.7663 68.8721 66.5649 69.7251 66.3077C69.8691 66.2627 70.4901 66.1817 70.0311 66.5867L70.0041 66.5957ZM73.8921 62.3567C73.8921 62.5007 73.8921 62.4467 73.7571 62.4737C73.382 62.5352 73.0031 62.5713 72.6231 62.5817C72.5421 61.7537 72.5151 61.1777 72.3981 60.0797C72.8769 59.925 73.3636 59.7959 73.8561 59.6927C73.9191 60.0797 73.9461 61.8797 73.9191 62.3477L73.8921 62.3567ZM81.9291 61.7357C81.9291 61.8797 81.9291 61.8257 81.7851 61.8437C81.4075 61.8662 81.0288 61.8662 80.6511 61.8437V59.3327C81.8751 59.0897 81.9831 59.1077 82.1361 59.0807C82.1811 59.4857 82.0461 61.2497 81.9291 61.7357ZM90.4701 62.3297C90.4701 62.4647 90.4701 62.4197 90.3081 62.4107C89.9308 62.393 89.555 62.3509 89.1831 62.2847C89.2371 61.7447 89.3991 60.6737 89.4891 59.7917C90.7041 59.6927 90.7311 59.7287 91.0011 59.7107C90.9831 60.0797 90.6411 61.8797 90.5061 62.3297H90.4701ZM108.101 62.5817C108.101 62.7167 108.101 62.6717 107.957 62.6897C107.58 62.7295 107.202 62.7476 106.823 62.7437C106.823 61.9517 106.823 61.4207 106.724 60.2327C108.074 59.8997 107.975 59.9627 108.2 59.9087C108.245 60.3227 108.191 62.0777 108.137 62.5817H108.101ZM115.931 60.4307C115.931 60.5747 115.931 60.5207 115.796 60.5477C115.424 60.6196 115.049 60.6707 114.671 60.7007C114.608 60.2777 114.5 59.2157 114.356 58.1987C115.562 57.8027 115.661 57.8117 115.805 57.7577C115.886 58.1447 115.985 59.9267 115.967 60.4307H115.931ZM122.492 57.4787C122.492 57.5777 122.492 57.5417 122.384 57.5597C122.051 57.6238 121.715 57.6659 121.376 57.6857C121.277 56.9567 121.268 56.6327 121.115 55.4897C121.539 55.3338 121.971 55.2045 122.411 55.1027C122.483 55.4717 122.546 57.0467 122.528 57.4787H122.492ZM126.794 43.8797C121.142 46.5797 118.856 49.4687 111.701 50.7647C108.625 51.3775 105.453 51.313 102.404 50.5757C101.729 47.6417 101.864 21.7757 101.927 20.8217C110.423 22.0817 127.595 15.7457 127.685 15.7187C127.586 24.4937 127.19 35.4557 126.794 43.8797ZM6.32912 10.9397C10.0911 10.4177 16.1121 8.68974 22.7901 9.31074C32.6901 10.2107 40.0611 15.3407 50.4201 16.1777C61.8861 17.0777 66.5031 13.2977 78.5451 12.3977C86.7981 11.7767 97.6881 14.2517 104.375 14.2967C109.829 14.2967 122.519 11.2007 127.775 10.1117V15.4487C127.685 15.4487 109.019 21.9287 101.819 20.2367C101.819 20.2367 101.522 20.2367 101.504 20.4977C101.441 21.5327 101.171 49.2437 102.035 50.8727C102.059 50.9199 102.091 50.9618 102.132 50.9959C102.172 51.0299 102.219 51.0554 102.269 51.0707C105.418 51.8492 108.701 51.9199 111.881 51.2777C119 49.9817 121.43 47.0927 126.848 44.4377C126.713 47.1377 126.587 49.5947 126.47 51.5747C120.17 54.0947 112.79 57.1367 105.86 57.6947C100.577 58.1267 85.6371 56.0207 77.3571 56.6327C68.3571 57.3077 64.0641 59.1347 58.8801 59.9087C47.6211 51.4667 48.3501 51.9797 46.3881 49.4597C46.9191 41.3597 47.2881 25.0607 47.3601 21.6677C47.3619 21.6082 47.3432 21.5498 47.3072 21.5023C47.2712 21.4548 47.22 21.4211 47.1621 21.4067C43.2291 20.3807 37.4331 18.9497 32.0061 17.6627C32.1084 17.4664 32.1432 17.2418 32.1051 17.0237C32.0605 16.7452 31.938 16.4849 31.7516 16.2731C31.5653 16.0612 31.3228 15.9065 31.0521 15.8267C31.1489 15.6798 31.2005 15.5077 31.2005 15.3317C31.2005 15.1558 31.1489 14.9837 31.0521 14.8367C30.8542 14.5288 30.5583 14.2964 30.2121 14.1772C29.8659 14.058 29.4897 14.0589 29.1441 14.1797C27.6861 12.2447 24.2841 13.4507 23.5911 15.1967C22.8981 16.9427 25.4721 15.7817 17.4711 15.8717C16.3191 15.8717 11.9001 16.0337 11.1711 16.5107C11.0541 16.5827 11.8731 41.4767 11.9811 43.8257C11.1704 44.754 10.4417 45.7507 9.80312 46.8047C9.53969 44.1639 8.97811 41.5613 8.12912 39.0467C8.12912 38.9837 8.12912 38.9477 7.79612 38.9297C7.58378 37.8889 7.42756 36.8374 7.32812 35.7797C9.38012 33.6377 8.69613 32.6927 7.80513 32.9717C7.41429 33.1696 7.00794 33.3351 6.59012 33.4667C6.32912 27.9137 6.26612 16.1507 6.32912 10.9397ZM4.82612 35.6357C4.88912 35.5457 5.10512 28.3907 5.62712 29.6327C6.02312 30.5867 5.97812 33.4757 6.06812 33.6467C6.50012 34.5467 7.65212 33.4397 8.12012 33.4217C8.35412 33.7187 7.22012 35.1317 6.94112 35.4557C6.66212 35.7797 6.94112 36.2387 7.49912 38.9207H3.74612C4.11512 37.7147 4.65512 35.9777 4.82612 35.6357ZM7.64312 62.0597C5.69851 61.9201 3.88454 61.0292 2.58512 59.5757C-1.31188 55.6247 1.07312 44.5817 2.72912 39.3167H7.83212C8.68618 41.9127 9.24471 44.5966 9.49713 47.3177C9.50145 47.3545 9.51761 47.3889 9.54317 47.4157C9.56873 47.4426 9.6023 47.4603 9.63884 47.4664C9.67538 47.4725 9.71291 47.4666 9.74579 47.4495C9.77866 47.4324 9.8051 47.4051 9.82112 47.3717C11.7472 43.9952 14.5446 41.1978 17.9211 39.2717C18.2194 44.9172 17.2475 50.5576 15.0771 55.7777C13.6641 59.0627 12.8451 62.3027 7.64312 62.0597ZM16.4631 52.9427C17.2001 52.9974 17.9016 53.2809 18.4696 53.7537C19.0376 54.2265 19.4437 54.8649 19.6311 55.5797C20.6031 58.9547 16.6161 60.0797 14.3121 58.7837C15.1371 56.8782 15.8552 54.9282 16.4631 52.9427ZM11.0631 66.2627C14.6631 67.4777 14.3481 73.3007 9.26312 72.3737C9.75812 70.6277 10.2531 68.8007 11.0991 66.2627H11.0631ZM8.39912 77.1797C8.53637 75.7437 8.79836 74.3223 9.18212 72.9317C14.8251 74.0747 15.5991 67.2887 11.1801 66.0557C11.951 63.6944 12.9018 61.3957 14.0241 59.1797C15.1054 59.774 16.3674 59.9502 17.5701 59.6747C22.1421 58.6307 20.4051 52.7177 16.5351 52.6817C17.9135 48.2641 18.4418 43.6252 18.0921 39.0107C18.0471 38.2727 18.9921 37.7597 20.1531 37.4447C20.1227 37.7018 20.1227 37.9616 20.1531 38.2187C20.3421 40.6667 24.6531 41.8187 26.8581 39.7937C28.5569 40.4191 30.3772 40.6439 32.1771 40.4507C33.2488 40.2658 34.2556 39.8105 35.1021 39.1277C35.5161 38.8127 36.5691 39.2357 37.5861 39.8837C36.7082 40.2068 35.9849 40.8498 35.5611 41.6837C35.2903 42.157 35.1202 42.681 35.0613 43.223C35.0025 43.7651 35.0562 44.3134 35.2191 44.8337C35.6389 45.4976 36.2373 46.0295 36.9457 46.3686C37.6542 46.7077 38.4438 46.8402 39.2241 46.7507C38.7777 49.5576 38.699 52.4106 38.9901 55.2377C38.3307 55.2194 37.6789 55.3827 37.1059 55.7096C36.5329 56.0366 36.0608 56.5147 35.7411 57.0917C33.4461 60.9527 37.3701 63.4727 40.7451 62.0237C41.8251 65.3177 44.4171 72.9227 44.0841 73.8407C42.9742 74.8028 41.6914 75.545 40.3041 76.0277C40.2041 75.4048 39.9529 74.8159 39.5725 74.3125C39.1922 73.8091 38.6943 73.4066 38.1224 73.1402C37.5505 72.8738 36.922 72.7516 36.2919 72.7843C35.6618 72.817 35.0494 73.0036 34.5081 73.3277C32.7711 74.4617 32.3841 77.0267 32.9241 78.0167C29.7443 78.5346 26.5328 78.8353 23.3121 78.9167C23.9781 73.5167 15.4911 72.7607 15.7071 78.9167C13.2016 78.6843 10.7413 78.0995 8.39912 77.1797ZM39.7371 76.2797C37.5953 77.051 35.387 77.6235 33.1401 77.9897V77.9357C33.0125 77.4171 32.9954 76.8775 33.09 76.3518C33.1846 75.8262 33.3887 75.3263 33.6891 74.8847C34.0553 74.3117 34.5898 73.866 35.2194 73.6088C35.8489 73.3517 36.5426 73.2957 37.2053 73.4485C37.8679 73.6014 38.467 73.9555 38.9204 74.4625C39.3737 74.9694 39.659 75.6042 39.7371 76.2797ZM22.7181 78.9257C20.6481 78.9257 18.3891 78.9257 15.9231 78.8717C15.8918 77.9409 16.2111 77.0322 16.8177 76.3256C17.4244 75.6189 18.2743 75.1657 19.1991 75.0557C19.6953 75.0431 20.1883 75.1375 20.6447 75.3324C21.1011 75.5274 21.5102 75.8184 21.8441 76.1856C22.178 76.5528 22.4289 76.9876 22.5797 77.4604C22.7305 77.9333 22.7777 78.433 22.7181 78.9257ZM17.8581 141.143C17.8224 141.222 17.7665 141.29 17.6961 141.341C16.0033 141.361 14.3109 141.274 12.6291 141.08C12.5571 140.18 12.4941 138.938 12.4491 138.164C13.6243 138.351 14.8147 138.427 16.0041 138.389C15.7341 140.711 15.7971 140.576 16.0941 140.666C17.2011 141.08 17.0481 140.846 17.8581 141.143ZM16.2291 137.84C14.8782 137.892 13.5258 137.792 12.1971 137.543C11.6571 133.943 10.3251 119.462 10.3341 112.451C12.5571 113.171 16.8051 113.432 21.6021 113.351C20.1621 119.993 16.6161 136.679 16.2291 137.84ZM40.8891 139.424C40.8509 139.501 40.7955 139.569 40.7271 139.622C39.0347 139.647 37.3423 139.566 35.6601 139.379C35.6061 138.74 35.5611 137.894 35.5251 137.183C36.6646 137.366 37.8223 137.409 38.9721 137.309C38.7921 138.929 38.8281 138.866 39.1251 138.965C40.1871 139.28 40.0611 139.127 40.8711 139.424H40.8891ZM39.1521 136.724C37.8105 136.898 36.4485 136.834 35.1291 136.535C34.5261 134.078 32.4291 121.154 31.7451 112.982C35.7771 112.694 39.5031 112.271 42.0771 111.839C41.8971 118.985 40.0431 134.312 39.1341 136.697L39.1521 136.724ZM47.2521 109.616C45.2631 112.478 9.62312 114.422 9.29012 111.164C8.25457 100.231 8.58107 89.2113 10.2621 78.3587C18.0381 80.6447 35.3721 79.7627 42.7701 75.4877C45.0291 89.2577 48.0081 108.419 47.1981 109.58L47.2521 109.616Z" fill="var(--fill-0, black)"/>
<path id="Vector_4" fill-rule="evenodd" clip-rule="evenodd" d="M29.4772 67.1809C29.5549 66.5986 29.5015 66.0063 29.3209 65.4473C29.1403 64.8882 28.837 64.3767 28.4332 63.9499C28.0404 63.5058 27.5457 63.1637 26.9916 62.9529C26.4375 62.7421 25.8404 62.669 25.2518 62.7398C24.6632 62.8106 24.1005 63.0233 23.6122 63.3595C23.1239 63.6956 22.7244 64.1453 22.4482 64.6699C22.1443 65.1645 21.9508 65.7189 21.8809 66.2952C21.811 66.8715 21.8664 67.456 22.0432 68.0089C23.4832 70.7539 28.9912 70.5199 29.4772 67.1809ZM22.8352 64.8859C23.0769 64.423 23.4279 64.0259 23.8576 63.7291C24.2874 63.4324 24.783 63.2448 25.3016 63.1828C25.8202 63.1207 26.346 63.186 26.8337 63.373C27.3213 63.56 27.7561 63.8631 28.1002 64.2559C28.454 64.6358 28.7184 65.0899 28.8741 65.5851C29.0299 66.0802 29.0729 66.604 29.0002 67.1179C28.5862 69.9889 23.6722 70.1959 22.4212 67.7929C22.2859 67.306 22.2529 66.7964 22.3242 66.2961C22.3954 65.7959 22.5694 65.3157 22.8352 64.8859ZM32.5012 50.7469C32.5845 50.1589 32.5339 49.5597 32.3531 48.9939C32.1723 48.4282 31.8661 47.9107 31.4572 47.4799C31.0651 47.0355 30.571 46.6928 30.0173 46.4813C29.4636 46.2698 28.8668 46.1959 28.2782 46.2658C27.6897 46.3357 27.1268 46.5474 26.6381 46.8827C26.1493 47.2181 25.7493 47.667 25.4722 48.1909C22.2862 53.9419 31.8532 55.2649 32.5012 50.7469ZM25.8592 48.4519C26.1009 47.989 26.4519 47.5919 26.8816 47.2951C27.3114 46.9984 27.807 46.8109 28.3256 46.7488C28.8442 46.6867 29.37 46.752 29.8577 46.939C30.3453 47.126 30.7801 47.4291 31.1242 47.8219C31.4796 48.2007 31.7451 48.6547 31.901 49.1502C32.0568 49.6457 32.0989 50.1699 32.0242 50.6839C31.6102 53.5549 26.6962 53.7529 25.4452 51.3589C25.31 50.872 25.2769 50.3624 25.3482 49.8621C25.4194 49.3619 25.5934 48.8817 25.8592 48.4519ZM147.413 90.1759C145.657 88.9418 143.789 87.8751 141.833 86.9899C141.968 85.9099 142.472 79.6459 142.103 79.0789C141.986 78.9079 141.959 79.0789 142.103 78.7369C142.391 78.9408 142.722 79.074 143.071 79.1256C143.42 79.1772 143.776 79.1458 144.11 79.0339C144.423 79.4521 144.886 79.7328 145.401 79.8167C145.916 79.9006 146.444 79.7813 146.873 79.4839C148.232 78.7639 150.59 75.9559 149.879 73.9669C149.609 73.2199 149.411 73.6969 150.158 73.1839C150.757 72.6639 151.22 72.006 151.508 71.2669C151.874 70.572 152.025 69.7835 151.94 69.0025C151.855 68.2216 151.538 67.4838 151.031 66.8839C150.285 65.9733 149.255 65.3395 148.106 65.0839C147.748 64.9857 147.384 64.9076 147.017 64.8499C146.819 63.6619 147.71 61.5109 144.443 59.7379C143.413 59.2483 142.236 59.1679 141.149 59.5129C139.907 59.8639 140.249 60.4129 140.024 59.7559C139.043 57.1909 135.785 55.3639 133.58 56.7049C132.948 57.0786 132.411 57.5929 132.01 58.2078C131.608 58.8228 131.354 59.5219 131.267 60.2509C131.297 61.0004 131.481 61.7356 131.807 62.4109C128.027 62.8879 128.594 68.4409 131.879 68.3059C131.199 69.859 130.651 71.4667 130.241 73.1119C129.854 75.1279 129.566 77.3959 130.502 79.2319C130.909 79.9655 131.477 80.5975 132.163 81.0807C132.848 81.5639 133.634 81.8856 134.462 82.0219C134.012 82.8769 133.562 83.7319 133.265 84.3889C125.948 82.9219 110.009 87.1789 108.506 88.4839C108.236 88.7179 108.353 88.9249 108.506 89.3839C107.457 89.6804 106.394 89.9237 105.32 90.1129C101.878 85.9899 98.0736 82.1827 93.9532 78.7369C94.0612 76.7119 92.5762 74.3809 90.9202 73.9399C89.1202 71.0689 87.0682 68.2069 86.5552 67.9009C86.0422 67.5949 81.8212 70.3309 81.5512 70.8799C81.4612 71.0509 81.5512 71.1949 81.6952 71.4919C82.5412 73.1209 86.4202 79.4839 88.1572 81.9589C89.5826 85.4395 91.3271 88.7808 93.3682 91.9399C92.7821 92.0101 92.2017 92.1214 91.6312 92.2729C84.8992 94.0099 78.9772 98.3209 74.2252 103.019C68.7442 108.419 63.7222 115.718 61.9852 119.282C61.8952 119.453 61.8232 119.588 61.9042 119.741C62.1102 120.132 62.3385 120.51 62.5882 120.875L62.0572 121.649C60.5002 120.452 55.5412 116.879 53.9572 118.112C52.5352 118.697 51.6352 118.832 53.5792 122.27C54.8212 124.448 58.2232 128.165 60.3922 129.236C61.7962 129.92 62.5792 128.588 62.3182 128.057C63.6465 127.336 64.8825 126.456 65.9992 125.438L66.8992 126.563C66.9529 126.623 67.0267 126.66 67.1065 126.669C67.1863 126.677 67.2664 126.655 67.3312 126.608C77.9422 118.508 90.8032 108.293 91.9372 108.806C94.0342 109.76 101.675 121.964 104.141 123.8C104.169 123.819 104.187 123.848 104.193 123.881C104.199 123.914 104.192 123.948 104.173 123.975C104.154 124.003 104.124 124.022 104.091 124.028C104.059 124.033 104.025 124.026 103.997 124.007C101.153 122.054 93.4222 110.273 91.7212 109.391C90.2272 109.832 85.5382 113.522 77.0782 119.543C72.8122 132.143 71.3002 147.938 71.6782 148.946C71.7592 149.135 72.1552 149.36 72.7312 149.594C72.6232 150.575 72.5152 151.583 72.4342 152.456C70.7692 153.518 65.6392 157.037 66.2872 158.918C66.3502 160.412 66.1432 161.348 70.0762 160.718C72.5332 160.295 75.1612 158.918 77.2762 157.739C77.6272 157.55 77.7532 156.2 77.7712 155.48C78.2668 154.103 78.5696 152.665 78.6712 151.205C79.2582 151.362 79.8724 151.39 80.4712 151.286C80.8852 151.079 82.3882 148.478 84.2872 144.923C82.4872 151.952 80.3632 161.42 81.0742 162.293C81.2915 162.592 81.6047 162.808 81.9616 162.904C82.3185 163.001 82.6977 162.973 83.0362 162.824C84.0712 162.383 89.0482 144.95 90.3352 139.73C94.0972 140.63 100.649 142.196 107.93 143.861C104.636 155.435 101.855 167.081 102.449 167.846C102.658 168.145 102.965 168.362 103.317 168.458C103.668 168.555 104.043 168.527 104.375 168.377C104.879 168.161 108.875 156.344 112.826 144.977C123.626 147.407 134.93 149.81 140.6 150.593C141.5 157.964 143.147 169.655 144.2 170.285C144.509 170.49 144.879 170.582 145.248 170.546C145.617 170.51 145.962 170.348 146.225 170.087C146.846 169.466 145.865 157.487 145.082 150.017C148.214 146.921 154.424 136.733 159.743 127.31C160.922 138.632 164.108 166.01 165.305 168.125C165.454 168.299 165.644 168.435 165.857 168.519C166.07 168.604 166.301 168.635 166.529 168.611C166.905 168.588 167.259 168.424 167.519 168.152C168.338 167.342 164.819 130.712 163.757 123.08C165.746 123.008 167.357 122.927 168.419 122.819C169.778 122.684 170.057 119.102 168.815 118.724C167.509 118.382 166.175 118.156 164.828 118.049C167.06 113.846 168.644 110.642 168.995 109.616C169.067 109.4 169.13 109.166 168.995 109.013C168.536 108.709 168.044 108.458 167.528 108.266C169.589 103.883 170.93 100.886 170.984 100.697C171.929 97.1239 150.968 91.2019 147.413 90.1759ZM59.0962 120.254C58.554 121.472 57.8811 122.628 57.0892 123.701L56.1892 122.621C57.0189 121.761 57.5573 120.662 57.7282 119.48C58.1872 119.732 58.6462 119.993 59.0962 120.254ZM57.2422 119.255C57.0606 120.329 56.5695 121.327 55.8292 122.126C53.3452 118.823 53.6422 117.5 57.2422 119.255ZM60.6082 128.939C58.7092 127.913 54.3892 123.323 53.3002 120.227C53.2282 120.029 53.0302 119.39 53.1742 119.246C53.3035 119.144 53.4457 119.059 53.5972 118.994C53.5432 120.146 54.8482 121.901 55.5592 122.792C56.8822 124.439 59.5372 127.643 61.6612 128.192C61.8096 128.223 61.9628 128.223 62.1112 128.192C62.3002 128.48 61.6792 129.524 60.6082 128.939ZM61.8052 127.67C60.6442 127.355 58.9612 125.807 57.4852 124.16C58.3128 123.013 58.9425 121.735 59.3482 120.38C60.5362 121.091 61.5712 121.802 61.9852 122.117C62.0079 122.134 62.0339 122.146 62.0614 122.152C62.089 122.159 62.1176 122.159 62.1454 122.154C62.1732 122.149 62.1997 122.138 62.2232 122.123C62.2468 122.107 62.2668 122.087 62.2822 122.063C62.2822 122.063 62.5072 121.685 62.8042 121.217C63.7042 122.459 64.8652 124.007 65.8282 125.195C64.3162 126.32 62.3362 127.823 61.8052 127.67ZM70.0852 154.886C71.0412 155.805 71.8952 156.825 72.6322 157.928L71.3092 158.378C70.7852 157.325 69.9449 156.463 68.9062 155.912C69.3292 155.525 69.7342 155.174 70.0852 154.886ZM68.5192 156.272C69.4513 156.821 70.2118 157.619 70.7152 158.576C66.9262 159.773 65.5492 159.152 68.5192 156.272ZM77.1952 157.406C74.3242 158.756 71.0572 160.34 68.0692 160.313C67.8712 160.313 67.1692 160.313 67.1062 160.097C67.0548 159.943 67.0245 159.782 67.0162 159.62C68.3212 160.151 71.1292 159.107 72.4792 158.63C74.0362 158.099 76.4302 157.172 77.5732 155.93C77.5219 156.438 77.3945 156.936 77.1952 157.406ZM77.4022 155.264C76.6642 156.29 74.7022 157.172 73.2082 157.721C72.4065 156.57 71.4321 155.55 70.3192 154.697C72.8032 152.717 72.9202 152.897 72.9382 152.645C72.9382 152.645 73.0192 151.223 73.1272 149.756C74.8536 150.331 76.6152 150.794 78.4012 151.142C78.2651 152.554 77.9381 153.94 77.4292 155.264H77.4022ZM162.002 95.2519C160.454 95.0359 159.122 95.2519 158.447 95.9809C158.132 96.3409 157.187 97.7809 155.837 99.9499C153.99 96.4133 151.417 93.3065 148.286 90.8329C153.506 92.3089 158.429 93.8929 162.029 95.2519H162.002ZM133.274 84.8569C133.463 84.8569 133.274 84.8569 134.777 82.0039C134.939 81.6709 133.877 81.8959 132.419 80.8969C129.854 79.1869 130.061 76.2259 130.691 73.2109C131.149 71.4951 131.751 69.8211 132.491 68.2069C133.278 67.8826 133.989 67.3984 134.579 66.7849C139.034 69.0709 140.744 68.5849 141.536 68.9089C141.358 69.3447 141.125 69.7561 140.843 70.1329C140.843 70.1329 141.311 73.1299 140.636 74.5159C140.357 75.0829 141.392 75.3709 141.869 75.0739C142.104 74.8935 142.318 74.6883 142.508 74.4619C144.182 74.1919 144.308 75.0289 143.489 76.0819C142.472 77.3509 141.77 77.4049 141.689 78.0259C141.644 78.4939 140.708 79.3759 141.518 79.4929C141.568 82.0486 141.442 84.6046 141.14 87.1429C141.131 87.2092 141.143 87.2768 141.176 87.3353C141.208 87.3938 141.259 87.4401 141.32 87.4669C141.86 87.6919 142.436 87.9529 142.994 88.2319C140.519 91.5889 137.315 94.7749 133.094 93.7759C128.873 92.7769 129.431 88.4659 131.42 84.6139C132.043 84.6556 132.662 84.7368 133.274 84.8569ZM131.024 84.7039C130.232 86.2519 129.161 88.9519 129.629 91.1209C130.169 93.5959 132.581 94.5589 135.029 94.4599C138.179 94.3339 140.123 92.5969 142.058 90.4369C142.634 89.7799 143.21 89.0959 143.66 88.4749C153.623 93.5869 158.672 105.71 158.519 107.996C156.719 109.04 146.108 109.175 143.993 109.202C143.401 107.015 142.944 104.794 142.625 102.551C142.625 102.518 142.612 102.485 142.588 102.462C142.565 102.438 142.533 102.425 142.499 102.425C142.466 102.425 142.434 102.438 142.41 102.462C142.386 102.485 142.373 102.518 142.373 102.551C142.614 104.896 143.008 107.223 143.552 109.517C143.624 109.805 143.975 109.724 145.136 109.724L145.298 110.111C138.863 110.858 135.155 111.011 129.845 113.639C126.776 110.597 123.86 107.573 119.315 103.739C117.579 102.145 115.719 100.691 113.753 99.3919C115.42 96.7656 117.318 94.2928 119.423 92.0029C119.549 91.8949 119.378 91.7059 119.252 91.8139C116.828 93.8371 114.817 96.3093 113.33 99.0949C112.484 97.2049 109.64 90.7429 109.055 88.8979C110.594 87.9259 123.329 84.2359 131.024 84.7039ZM138.296 131.756C139.583 129.227 141.113 126.356 142.796 123.395C147.584 123.395 152.507 123.305 156.818 123.233C154.55 127.229 152.156 131.468 150.014 135.212C146.099 133.97 142.13 132.809 138.296 131.756ZM149.672 135.752C146.423 141.422 143.813 145.868 143.255 146.462C141.761 146.462 127.838 143.294 114.5 140.252C116.3 135.122 117.956 130.451 119.126 127.454C128.909 129.776 140.663 132.863 149.672 135.752ZM138.512 123.44L142.319 123.395C141.806 124.349 141.302 125.294 140.816 126.239C140.141 125.402 139.367 124.457 138.512 123.44ZM120.881 123.44C120.053 123.584 119.981 122.738 113.897 140.153L109.748 139.199C114.869 121.613 116.705 120.137 116.948 120.137C117.722 119.048 144.416 117.545 159.653 118.238L157.142 122.666C143.759 122.846 124.229 122.783 120.881 123.404V123.44ZM156.287 117.626C143.687 117.383 126.02 118.292 119.387 119.3C116.759 119.084 119.45 117.311 121.943 116.924C123.833 116.636 125.876 116.717 126.29 116.51C128.45 115.43 129.323 112.613 145.676 110.597C146.063 110.543 145.811 110.111 145.676 109.76C149.415 109.802 153.153 109.591 156.863 109.13C157.224 111.274 157.401 113.445 157.394 115.619C157.252 116.38 156.863 117.073 156.287 117.59V117.626ZM91.0372 74.4259C91.4204 74.537 91.7772 74.7242 92.0865 74.9762C92.3958 75.2283 92.6511 75.54 92.8372 75.8929C93.1619 76.5835 93.3572 77.3279 93.4132 78.0889C92.8462 77.1259 92.4322 76.3429 92.3152 76.2349C92.0002 75.9199 89.6962 76.1269 89.0932 75.3349C88.4902 74.5429 90.1102 74.1559 91.0372 74.3899V74.4259ZM81.9832 71.0779C82.9822 69.9169 86.4832 67.9009 86.4832 68.1259C86.9242 68.4229 88.6702 71.1049 90.3262 73.8499C89.0302 73.8499 87.9412 74.6329 88.6522 75.6499C89.3632 76.6669 91.0372 76.5499 91.9282 76.7029C92.5748 77.7173 93.1434 78.7794 93.6292 79.8799C92.7292 80.3929 89.9032 82.0849 89.2462 82.4089C88.1572 81.1309 82.2712 71.7259 81.9832 71.0779ZM93.9622 91.9129C92.0503 89.0977 90.3909 86.1192 89.0032 83.0119C89.1832 83.0839 89.3542 83.0119 89.5882 82.8679C90.4882 82.3999 93.2782 80.7529 94.0882 80.2759C94.4392 80.0599 94.1602 79.5199 93.9712 79.0969C99.2092 83.3269 104.996 90.5809 105.167 90.6349C106.388 90.5253 107.595 90.29 108.767 89.9329C109.595 92.1379 111.467 96.4309 112.367 98.4469C106.049 94.2079 99.6502 91.4359 93.9622 91.9129ZM95.6092 122.675C103.709 124.43 109.505 125.663 113.609 126.194C112.34 129.605 110.855 134.186 109.397 139.073C99.8752 136.895 91.5862 134.996 89.6782 134.636C92.6662 128.669 95.3302 123.26 95.6092 122.675ZM82.7752 162.275C82.5671 162.352 82.3398 162.359 82.1273 162.296C81.9147 162.232 81.7284 162.102 81.5962 161.924C81.2542 160.718 83.5312 150.278 85.1242 143.42C85.8622 142.025 86.6362 140.522 87.4192 139.001L89.9932 139.64C88.6432 144.68 83.5942 161.087 82.7752 162.275ZM104.123 167.891C103.914 167.968 103.686 167.975 103.473 167.91C103.26 167.845 103.074 167.712 102.944 167.531C102.809 165.731 105.356 154.859 108.344 143.96L112.223 144.86C108.569 155.561 104.852 166.586 104.123 167.891ZM145.793 169.691C145.63 169.841 145.421 169.931 145.2 169.945C144.979 169.96 144.76 169.899 144.578 169.772C143.795 168.755 142.067 157.757 141.05 150.656C144.083 151.052 144.173 150.863 144.65 150.44C145.289 157.64 146.045 168.566 145.829 169.673L145.793 169.691ZM167.069 167.774C166.909 167.912 166.707 167.993 166.496 168.006C166.285 168.019 166.075 167.963 165.899 167.846C164.855 165.992 161.399 137.741 160.076 126.815C160.778 125.564 161.462 124.331 162.119 123.134H163.505C164.306 130.019 167.339 165.281 167.069 167.756V167.774ZM168.689 119.282C169.346 119.48 169.094 122.18 168.41 122.252C167.114 122.378 165.035 122.468 162.452 122.54C163.208 121.154 163.928 119.84 164.594 118.571C165.978 118.676 167.348 118.908 168.689 119.264V119.282ZM168.464 109.382C167.564 112.478 148.556 147.362 143.93 150.26C142.031 151.457 91.5502 139.703 87.5362 138.785C88.2112 137.48 88.8952 136.148 89.5522 134.834C106.652 138.785 142.472 147.506 143.498 147.002C144.677 146.417 164.441 110.615 166.052 108.374C166.88 108.642 167.686 108.973 168.464 109.364V109.382ZM170.399 100.535C169.279 103.047 168.136 105.549 166.97 108.041C166.619 107.906 166.304 107.798 166.133 107.753C166.057 107.717 165.972 107.707 165.889 107.723C165.806 107.739 165.731 107.781 165.674 107.843C165.332 108.221 162.974 112.343 159.914 117.743C158.942 117.698 157.916 117.662 156.854 117.644C157.33 117.086 157.641 116.407 157.754 115.682C157.916 114.71 157.484 111.434 157.133 109.076C158.285 108.851 159.05 108.563 159.113 108.176C159.356 106.907 156.926 101.957 156.197 100.589C157.628 98.2939 158.636 96.7639 158.897 96.4129C160.94 94.0639 170.732 98.7169 170.399 100.517V100.535Z" fill="var(--fill-0, black)"/>
</g>
</svg>
