<svg preserveAspectRatio="none" width="100%" height="100%" overflow="visible" style="display: block;" viewBox="0 0 180 173.884" fill="none" xmlns="http://www.w3.org/2000/svg">
<g id="Group">
<path id="Vector" d="M168.193 39.9218C170.283 39.946 172.382 40.0386 174.045 40.1914C174.876 40.2678 175.596 40.3591 176.149 40.4638C176.426 40.5163 176.659 40.5716 176.841 40.6289C177.027 40.6874 177.145 40.7432 177.207 40.79L177.21 40.792C177.21 40.7919 177.214 40.7959 177.222 40.8066C177.231 40.818 177.243 40.8348 177.256 40.8584C177.282 40.9061 177.311 40.9731 177.342 41.0615C177.402 41.2382 177.462 41.4824 177.521 41.788C177.64 42.3981 177.75 43.2327 177.847 44.2216C178.042 46.1983 178.188 48.7749 178.264 51.3662C178.341 53.9575 178.347 56.5599 178.264 58.5879C178.223 59.6024 178.16 60.4695 178.072 61.1181C178.028 61.4428 177.98 61.7082 177.926 61.9082C177.869 62.118 177.814 62.2247 177.779 62.2627L177.777 62.2636C177.722 62.3236 177.622 62.3918 177.464 62.4619C177.307 62.5308 177.107 62.5967 176.866 62.6572C176.383 62.7781 175.752 62.8756 175.014 62.9521C173.54 63.105 171.657 63.1706 169.714 63.1699C165.82 63.1684 161.721 62.9018 160.2 62.5566H160.199C160.005 62.5133 159.785 62.4649 159.594 62.3828C159.449 62.3205 159.342 62.2481 159.278 62.1621L159.228 62.0713C159.112 61.7455 159.012 61.1795 158.931 60.4199C158.851 59.6631 158.791 58.7296 158.75 57.6826C158.667 55.5891 158.659 53.0484 158.707 50.5673C158.755 48.086 158.858 45.6665 158.999 43.8173C159.02 43.5418 159.042 43.2793 159.064 43.0312C159.048 43.2747 159.031 43.5332 159.016 43.8046C158.922 45.5701 158.856 47.8988 158.838 50.3007C158.819 52.7026 158.847 55.1803 158.941 57.2441C158.988 58.2759 159.051 59.2062 159.134 59.9726C159.215 60.735 159.318 61.3486 159.445 61.7392L159.472 61.8252L159.556 61.8584C159.887 61.9893 160.398 62.0993 161.026 62.1923C161.658 62.2859 162.424 62.3639 163.273 62.4267C164.972 62.5523 167.015 62.6168 169.015 62.6191C171.016 62.6214 172.978 62.5611 174.513 62.4365C175.281 62.3742 175.946 62.2962 176.458 62.2002C176.714 62.1522 176.935 62.0989 177.114 62.04C177.288 61.9828 177.441 61.914 177.544 61.8242L177.584 61.789L177.599 61.7382C177.696 61.4372 177.768 60.9298 177.821 60.2851C177.875 59.6346 177.912 58.8269 177.934 57.916C177.979 56.0939 177.963 53.8492 177.902 51.5976C177.842 49.346 177.737 47.0851 177.6 45.2304C177.465 43.385 177.297 41.9184 177.108 41.2724L177.088 41.2021L177.025 41.163C176.916 41.0951 176.754 41.0375 176.565 40.9853C176.372 40.9319 176.132 40.8796 175.856 40.83C175.304 40.7309 174.592 40.6375 173.777 40.5527C172.148 40.383 170.096 40.2467 168.062 40.165C166.028 40.0833 164.007 40.0568 162.439 40.1084C161.973 40.1237 161.546 40.1467 161.169 40.1767C161.538 40.1323 161.954 40.0935 162.406 40.0605C164.026 39.9424 166.103 39.8977 168.193 39.9218ZM121.502 38.7714C121.468 39.734 120.969 40.6564 120.276 41.2841C119.554 41.9379 118.665 42.2381 117.922 41.9902L117.904 41.9843L117.909 41.9834C118.671 41.7875 119.389 41.3884 120.015 40.8173C120.618 40.2686 121.121 39.5713 121.502 38.7714ZM123.555 27.0136C123.612 27.0138 123.68 27.0428 123.738 27.1171C123.797 27.1929 123.836 27.3042 123.836 27.4267V28.9257C123.836 29.0481 123.797 29.1587 123.738 29.2343C123.68 29.3088 123.612 29.3377 123.555 29.3379C123.497 29.3379 123.428 29.309 123.37 29.2343C123.311 29.1586 123.272 29.0481 123.272 28.9257C123.272 28.5314 123.234 27.952 123.271 27.4404H123.272V27.4267C123.272 27.3042 123.311 27.1929 123.37 27.1171C123.428 27.0426 123.497 27.0136 123.555 27.0136ZM114.109 27.3642C114.167 27.3642 114.235 27.3932 114.294 27.4677C114.353 27.5435 114.391 27.6548 114.391 27.7773V28.9853C114.389 29.1067 114.35 29.2155 114.291 29.291C114.233 29.3654 114.165 29.3955 114.106 29.3974C114.049 29.3963 113.983 29.368 113.926 29.2949C113.866 29.2191 113.828 29.1079 113.828 28.9853V27.7773C113.828 27.6548 113.866 27.5435 113.926 27.4677C113.984 27.3934 114.052 27.3644 114.109 27.3642Z" fill="var(--fill-0, #2349FF)" stroke="var(--stroke-0, #383838)" stroke-width="0.383265"/>
<g id="Vector_2">
<mask id="path-2-inside-1_0_310" fill="white">
<path fill-rule="evenodd" clip-rule="evenodd" d="M178.006 116.361C177.944 116.226 177.856 116.114 177.75 116.034C176.936 115.527 172.502 115.781 171.583 115.829C171.744 84.126 158.653 64.3524 139.65 58.6838C136.164 57.6444 136.155 57.5719 136.06 57.6444L135.416 55.3842C137.235 55.3117 138.722 53.5229 140.389 53.8855C141.649 54.1514 142.284 55.5776 143.525 56.1819C145.628 57.1972 149.369 55.638 150.516 53.0878C151.103 51.7583 150.582 50.3804 150.951 49.4618C151.614 48.7245 153.5 47.5401 154.04 46.6819C155.148 44.9173 155.195 40.965 154.693 38.8257C153.787 36.4048 152.552 34.2075 151.046 32.3352C149.408 30.321 147.955 28.0745 146.717 25.6393C145.192 21.7595 145.135 16.3931 143.875 12.3441C142.486 8.68822 140.337 5.58992 137.661 3.38798C135.047 1.03263 131.896 -0.153045 128.699 0.0158368C125.716 0.257567 124.55 1.87716 123.158 2.43314C121.765 2.98912 121.472 2.43314 119.208 3.70223C118.309 4.40107 117.508 5.28767 116.839 6.325C116.555 6.71177 116.574 6.73595 116.091 6.76012C115.571 6.71019 115.048 6.71019 114.528 6.76012C113.641 7.01128 112.793 7.44828 112.018 8.05338C106.741 12.0903 108.162 20.2124 106.173 26.1832C104.818 30.2442 101.048 34.1482 100.726 38.3906C100.612 40.3412 100.941 42.2925 101.673 44.0108C103.975 49.1717 107.281 45.1228 108.996 48.2773C109.536 49.2684 109.943 50.2354 110.947 50.4287C112.226 50.6463 113.969 49.353 115.011 48.3982C115.23 48.7239 115.478 49.016 115.75 49.2684C116.673 50.0627 117.665 50.7197 118.706 51.2264L116.299 55.5172C111.79 54.8645 104.866 56.7258 100.404 58.4784C100.243 57.028 98.8408 45.0502 97.7799 44.4701C96.3116 43.6482 80.8991 45.9325 79.9613 47.2258C79.2698 48.1686 80.5107 66.117 81.8559 68.8003C82.0548 69.2112 82.7369 69.2233 83.1158 69.2354C80.8991 71.1692 78.7582 73.1272 77.9909 73.8403C77.3941 71.2055 74.2586 57.2697 73.1029 54.9854C72.7714 54.3206 72.4682 54.3327 70.9431 54.9854C70.0738 49.4512 68.9733 43.9803 67.6465 38.596C68.144 37.5525 68.5416 36.4366 68.8306 35.2722C69.1837 33.428 69.2353 31.5107 68.9822 29.6399C70.1379 30.1355 77.0436 32.5528 78.1614 31.8517C78.4617 31.5784 78.6844 31.1883 78.7961 30.7398C80.0181 27.3314 82.1117 15.6921 82.2727 12.0057C82.3391 11.5336 82.2755 11.0469 82.0927 10.6278C80.9844 9.15325 66.074 3.67805 64.8141 4.40324C64.0468 4.85045 61.9722 13.5407 61.7544 14.568C59.945 22.3155 60.8639 20.6113 59.8598 21.0585C58.7041 21.5782 57.7094 24.6844 57.3021 26.1227C56.8947 27.561 56.4685 29.4949 56.9516 30.631C56.7554 31.0931 56.6765 31.6215 56.7257 32.1432C56.7749 32.665 56.9498 33.1544 57.2263 33.5439C56.9251 33.9723 56.7287 34.5039 56.6613 35.073C56.594 35.6421 56.6587 36.224 56.8474 36.7468C57.1221 37.8467 58.8367 38.5719 59.6893 38.8861C59.0161 41.2005 58.4562 43.5659 58.0125 45.9688C57.2569 49.6975 56.653 53.4735 56.2032 57.2818C55.923 59.1324 55.8307 61.0213 55.9285 62.902L54.3749 63.7964C54.3152 63.8314 54.2646 63.8876 54.2293 63.9584C54.194 64.0291 54.1755 64.1114 54.176 64.1953C54.176 64.1953 54.4697 78.8442 58.2494 91.0153C62.8153 105.749 70.3273 110.68 81.7612 105.169C81.8642 106.325 82.0872 107.459 82.4243 108.541C82.5948 108.928 83.1726 109 83.561 109.048C86.924 109.189 90.2905 109.056 93.6402 108.65L96.4821 131.614C95.7148 134.442 87.0092 166.665 87.1323 169.662C87.1323 169.977 87.227 170.218 87.6344 170.46C90.1447 171.947 113.931 175.911 114.831 172.599C115.058 171.79 115.608 166.629 115.712 165.65L129.097 163.764L141.857 164.84C141.995 166.47 142.223 168.085 142.539 169.674C142.653 170.037 142.786 170.23 143.117 170.194C144.377 170.037 151.093 168.49 152.95 168.043C160.074 166.326 159.913 166.181 159.704 165.287C159.202 163.172 154.542 146.674 152.723 138.975C155.383 139.337 158.067 139.337 160.727 138.975C160.756 139.106 160.81 139.225 160.885 139.322C160.959 139.419 161.052 139.491 161.154 139.531C162.887 140.34 178.375 139.216 179.645 137.597C180.791 136.304 178.868 118.198 178.006 116.361ZM64.8331 4.92297C64.9373 4.7175 64.8994 4.63289 65.733 4.79001C69.2095 5.41851 80.577 10.096 81.5622 11.1959C81.7517 13.9637 78.9382 29.1565 77.8299 30.9936C77.0247 31.3441 71.682 29.6037 70.8578 29.3257C64.5868 27.2347 64.833 26.9084 63.4026 26.4853C62.6638 26.159 62.588 26.1469 62.6069 26.014C62.6093 25.984 62.6203 25.9563 62.6378 25.9362C62.6553 25.9161 62.6781 25.905 62.7016 25.9052C63.5542 25.9052 65.8372 25.8206 66.3961 24.9745C66.5195 24.8025 66.6115 24.5978 66.6657 24.3751C66.7199 24.1524 66.7348 23.9171 66.7095 23.6862C66.6841 23.4553 66.6191 23.2343 66.5191 23.0391C66.4191 22.844 66.2865 22.6794 66.1308 22.5572C64.9134 21.9349 63.6409 21.5046 62.3417 21.276C61.9533 21.1793 61.4796 21.0101 61.006 20.9376C61.6596 17.1666 63.8194 6.92933 64.8331 4.92297ZM56.6958 62.5032V60.6298C56.7811 58.3333 57.6431 52.3021 57.8989 50.6463C58.3157 47.9631 58.4104 47.3588 59.6229 41.5331C59.6229 41.3759 60.3524 38.7773 60.3524 38.7773C60.3654 38.7322 60.3708 38.684 60.3682 38.6361C60.3655 38.5881 60.3548 38.5414 60.3369 38.499C60.319 38.4567 60.2942 38.4198 60.2642 38.3906C60.2342 38.3615 60.1996 38.3409 60.1629 38.3301C60.0587 38.3301 57.5957 37.5566 57.321 36.5534C57.0463 35.5502 56.9895 34.3416 57.681 33.8098C57.7064 33.7862 57.7271 33.7553 57.7414 33.7196C57.7557 33.6839 57.7631 33.6444 57.7631 33.6043C57.7631 33.5642 57.7557 33.5247 57.7414 33.489C57.7271 33.4533 57.7064 33.4224 57.681 33.3988C57.3783 33.0817 57.1746 32.6367 57.1068 32.1445C57.039 31.6523 57.1117 31.1454 57.3116 30.7156C57.5294 30.1475 56.3643 30.4255 57.7473 26.3524C58.0978 25.3492 59.2819 22.2671 60.0871 21.9287C60.8001 21.8399 61.5197 21.9429 62.1996 22.2309C63.3869 22.4695 64.5541 22.8499 65.6856 23.367C65.7576 23.4163 65.8196 23.4862 65.867 23.5712C65.9143 23.6562 65.9456 23.754 65.9584 23.8569C65.9713 23.9598 65.9653 24.0652 65.941 24.1647C65.9167 24.2642 65.8747 24.3552 65.8182 24.4306C65.4021 24.7315 64.9461 24.9323 64.4731 25.0229C61.4891 25.7722 62.0196 24.9383 61.6312 26.2315C60.4913 26.1462 59.3517 26.4072 58.3062 26.993C57.8989 27.1017 58.0694 27.4402 58.363 27.3797C59.6322 26.849 60.9896 26.7614 62.2943 27.1259C63.0513 27.3024 63.7913 27.582 64.5015 27.9599C65.1456 28.2937 65.7174 28.8202 66.1687 29.4949C66.2493 29.7506 66.2794 30.0276 66.2563 30.3016C66.2331 30.5756 66.1575 30.8382 66.0361 31.0661C65.8088 31.5133 64.7099 31.2112 64.2931 31.0661C63.7247 30.8486 63.1279 30.6673 62.569 30.4376C61.7828 30.1234 61.868 30.0388 61.6217 30.0629C60.7529 30.22 59.9031 30.5164 59.0925 30.9453C59.0695 30.9486 59.0475 30.9586 59.0281 30.9745C59.0086 30.9903 58.9923 31.0116 58.9803 31.0368C58.9682 31.0619 58.9609 31.0902 58.9588 31.1196C58.9566 31.1489 58.9598 31.1784 58.968 31.206C58.9762 31.2335 58.9892 31.2583 59.006 31.2784C59.0228 31.2986 59.043 31.3136 59.0651 31.3222C59.0872 31.3309 59.1105 31.333 59.1333 31.3284C59.1561 31.3238 59.1778 31.3127 59.1967 31.2958C59.9222 31.0348 60.6637 30.8528 61.4133 30.7519C61.8396 30.7519 61.5649 30.7519 62.6353 31.2958C63.1185 31.5254 63.5826 31.7067 64.0942 31.9243C64.4232 32.0681 64.7628 32.1694 65.1078 32.2264C65.714 32.9516 66.1498 34.6437 65.3351 34.9459C65.015 35.0163 64.6858 34.9659 64.3878 34.8009C62.2185 33.8944 63.6868 33.2417 58.9788 34.4745C58.9403 34.4806 58.905 34.5053 58.8804 34.5435C58.8557 34.5817 58.8434 34.6306 58.8462 34.68C58.8462 34.9942 59.0072 34.8009 61.6123 34.68C61.9272 34.6396 62.2446 34.6396 62.5595 34.68C63.3742 35.2118 64.5868 36.1183 65.5246 35.7678C66.6708 35.2964 66.6329 33.6768 65.894 32.4923C65.6288 32.0814 65.6004 32.2023 65.8277 32.1539C65.994 32.1309 66.1547 32.0643 66.2998 31.9582C66.4448 31.8521 66.5712 31.7089 66.6708 31.5375C66.8951 31.1426 67.0206 30.6705 67.0307 30.183C67.0409 29.6954 66.9352 29.2154 66.7276 28.8059L68.3191 29.4103C68.6342 31.2823 68.6082 33.2216 68.2433 35.0789C68.1417 35.5323 68.0086 35.9732 67.8454 36.3963C67.1539 38.2576 66.8981 38.318 66.9834 38.6685C68.2997 44.1297 69.3844 49.6774 70.2326 55.2875C66.6613 56.8829 60.1155 60.5572 56.6958 62.5032ZM131.655 146.492C135.709 146.71 144.425 147.109 148.422 146.952C148.147 148.475 147.977 149.442 147.929 149.659C146.025 149.659 133.72 146.94 131.655 146.492ZM149.957 145.876C147.418 146.637 114.462 144.994 111.639 143.459C111.932 140.751 114.698 125.534 115.257 122.428C117.744 123.399 120.33 123.888 122.93 123.879C123.878 124.507 125.441 125.595 126.379 126.163C126.274 127.19 126.019 129.62 126.587 130.345C127.155 131.07 140.237 137.198 151.709 138.914C151.246 141.282 150.661 143.607 149.957 145.876ZM114.954 116.784C114.518 116.615 114.115 116.331 113.77 115.95C113.524 115.611 113.609 114.584 113.77 114.101C113.858 113.866 114.015 113.684 114.206 113.593C114.437 113.465 114.684 113.387 114.935 113.363C115.011 113.361 115.083 113.33 115.144 113.273C115.205 113.216 115.251 113.138 115.276 113.047C115.3 112.956 115.303 112.858 115.283 112.766C115.262 112.673 115.221 112.591 115.163 112.529C114.609 111.934 114.223 111.123 114.064 110.221C114.064 109.556 114.263 108.867 115.096 108.263C116.044 108.359 118.886 111.357 120.202 109.629C121.519 107.9 119.965 103.851 121.434 103.513C122.902 103.174 123.641 108.807 123.897 109.423C124.749 111.538 127.042 113.049 128.349 114.789C127.56 118.392 126.927 122.048 126.454 125.74C124.56 124.447 123.158 123.323 123.016 123.323C121.036 123.238 115.722 122.537 114.339 120.736C114.093 120.494 113.924 120.145 113.865 119.756C113.806 119.367 113.86 118.963 114.016 118.621C114.117 118.394 114.253 118.195 114.416 118.037C114.579 117.879 114.765 117.765 114.964 117.702C115.045 117.677 115.117 117.617 115.168 117.533C115.219 117.449 115.247 117.345 115.245 117.238C115.244 117.132 115.215 117.029 115.162 116.946C115.109 116.864 115.036 116.806 114.954 116.784ZM125.507 76.5356C123.747 76.3208 121.979 76.232 120.212 76.2697C119.984 76.2697 119.795 76.4148 119.729 76.6928C119.568 77.4663 116.887 102.606 116.754 103.839C116.186 91.7526 115.598 79.0255 115.163 69.6947C118.459 76.4027 118.743 77.0674 119.264 76.5961C121.021 74.7529 122.682 72.7666 124.238 70.6495C124.522 71.9911 124.977 74.1788 125.507 76.5356ZM134.175 72.2933C133.531 71.0846 132.896 69.876 132.659 69.4288L135.719 59.6024L134.175 72.2933ZM136.382 58.4179C139.965 59.3606 143.458 60.791 146.802 62.6845C146.66 63.2525 144.832 70.3836 142.644 78.8925C141.639 78.7354 135.889 77.841 134.118 77.5992L136.382 58.4179ZM132.508 70.7704L134.004 73.647L133.531 77.5146L132.062 77.2729C132.28 74.6501 132.432 72.1603 132.508 70.7704ZM158.662 83.5216C158.65 85.0953 158.53 86.6645 158.302 88.2112C155.053 87.1476 126.71 78.2519 123.83 80.3429C122.39 81.4065 117.654 106.208 117.199 108.444L116.858 108.227C118.355 94.7984 120.344 77.1883 120.344 77.14C123.575 76.6686 154.693 81.1648 158.662 83.5216ZM142.132 108.795C140.01 108.613 131.589 108.081 129.817 109.58C129.543 109.822 129.429 109.87 128.453 114.342C127.193 112.638 125.081 111.031 124.37 109.133C124.048 108.299 123.527 102.207 121.32 102.679C118.346 103.319 122.144 111.139 117.749 108.722C118.033 107.187 122.694 81.5878 123.991 80.6451C126.739 78.6508 156.701 88.3804 160.491 89.7462C160.273 92.6953 157.488 108.432 156.976 111.309C152.07 110.106 147.114 109.266 142.132 108.795ZM127.544 24.2493C128.074 24.7086 128.055 25.8085 127.961 26.6062C127.297 32.0089 123.054 35.2843 120.108 30.1113C119.435 28.9026 118.914 25.0591 119.369 24.2131C119.672 23.7175 122.116 23.6933 122.608 23.6933C123.518 23.7054 127.07 23.8867 127.506 24.2493H127.544ZM116.262 25.1196C116.262 27.3918 115.665 31.1628 114.083 32.2506C111.535 33.9427 108.948 31.2595 108.882 27.7665C108.785 26.4913 108.833 25.2049 109.024 23.9472L109.119 23.8867C108.967 23.5483 115.627 23.4395 116.224 24.201C116.244 24.5066 116.244 24.8139 116.224 25.1196H116.262ZM119.558 51.4319C121.197 52.0362 123.84 51.7462 125.109 50.0903C125.136 50.0544 125.151 50.0068 125.151 49.9574C125.151 49.9079 125.136 49.8603 125.109 49.8244C124.891 49.486 125.109 50.1387 122.646 50.61C120.183 51.0814 118.696 50.61 116.205 48.5432C115.059 47.2009 114.202 45.5077 113.713 43.624C112.693 40.4361 112.055 37.0707 111.819 33.6406C112.71 33.8268 113.625 33.6358 114.424 33.0967C115.199 32.5183 115.8 31.6244 116.129 30.5585C115.809 31.8357 115.547 33.1351 115.343 34.4504C115.298 34.6187 115.292 34.7996 115.323 34.9725C115.355 35.1455 115.424 35.3037 115.523 35.4294C116.178 35.9402 116.949 36.1532 117.711 36.0337C117.733 36.041 117.757 36.0417 117.779 36.0357C117.802 36.0297 117.823 36.0172 117.841 35.9991C117.86 35.981 117.874 35.9579 117.885 35.9314C117.895 35.9049 117.9 35.8758 117.9 35.8463C117.9 35.8169 117.895 35.7878 117.885 35.7613C117.874 35.7348 117.86 35.7117 117.841 35.6936C117.823 35.6755 117.802 35.663 117.779 35.657C117.757 35.651 117.733 35.6517 117.711 35.659C117.149 35.5792 116.607 35.3485 116.119 34.9822C115.902 34.7888 115.996 34.9096 116.063 34.5108C116.129 34.1119 117.36 28.3467 117.427 27.9841C117.72 27.9841 118.838 27.7907 118.838 27.4402C118.838 27.0897 117.948 26.993 117.616 27.0171C117.616 26.86 117.673 26.7271 117.701 26.6062C117.716 26.5581 117.716 26.5044 117.7 26.4568C117.684 26.4092 117.654 26.3716 117.616 26.3524C117.578 26.3331 117.536 26.3338 117.499 26.3542C117.462 26.3746 117.432 26.4131 117.417 26.4612C117.086 27.283 117.313 26.9809 116.868 27.1259C117.039 26.0084 117.039 24.8592 116.868 23.7417C116.328 22.6781 113.079 22.9198 112.018 23.0044C112.558 18.9554 114.661 16.9611 115.949 13.722C116.31 12.9701 116.791 12.3236 117.36 11.8244C117.645 11.7277 118.203 12.6342 118.545 12.8517C118.886 13.0693 119.208 14.2658 119.492 14.6768C120.385 15.9749 121.415 17.1097 122.552 18.0489C123.499 18.9071 124.977 19.04 125.621 20.1399C125.893 21.0752 126.025 22.0674 126.009 23.0648C124.787 22.9682 119.691 22.8715 119.084 23.9834C118.535 24.8778 118.772 28.9631 119.577 30.5343C121.604 34.4504 124.721 34.6921 127.155 31.1628C127.417 30.7462 127.64 30.2919 127.818 29.8091C129.637 33.4351 131.068 35.5986 131.134 39.853C131.21 45.2436 130.016 54.1756 134.592 55.2996L135.378 58.0674C131.589 70.2265 131.788 69.465 131.788 69.5859C131.788 69.7067 131.608 73.2118 131.276 77.2246C129.457 76.9828 127.762 76.7774 126.255 76.6202C126.142 76.1247 124.73 69.7188 124.759 69.5859C124.901 68.9816 124.19 67.7971 123.641 66.7455C121.581 62.9395 119.331 59.3061 116.906 55.8677L119.558 51.4319ZM116.224 56.194C116.385 56.5083 123.205 66.0808 124.039 69.598C122.506 71.7654 120.85 73.7853 119.084 75.6412C118.45 74.5776 116.735 71.0725 115.106 67.7971C114.812 61.4758 114.613 57.0763 114.566 56.1577C115.096 56.1094 115.693 56.1457 116.186 56.194H116.224ZM82.3958 68.2805C81.3159 65.8632 79.8192 50.1507 80.1697 47.7334C80.1697 47.5159 80.1697 47.4434 80.9654 47.1654C84.3567 46.0413 96.2547 44.7481 97.5051 45.292C98.4524 47.6488 100.527 63.035 100.034 65.4039C99.0682 66.395 85.1809 68.8969 82.358 68.2805H82.3958ZM83.0589 108.045C81.9696 105.314 81.1644 87.8003 81.7043 87.1355C82.5095 86.1444 97.6283 85.2984 99.0587 86.0115C100.006 88.5496 101.351 104.141 100.792 106.256C99.5039 107.489 85.2946 108.698 83.0211 108.045H83.0589ZM104.686 87.7882C105.368 87.5585 110.123 86.0115 110.691 85.5764C111.099 85.2742 111.563 86.2532 103.596 58.3575C104.544 57.2455 112.823 55.8193 114.13 56.339C114.13 57.0038 115.371 85.2138 116.347 107.852C115.883 107.562 115.21 107.115 114.784 107.417C113.003 108.625 112.889 110.632 114.206 112.59C113.96 112.667 113.732 112.816 113.539 113.026C113.347 113.236 113.195 113.5 113.098 113.798C112.946 114.252 112.881 114.745 112.909 115.237C112.937 115.729 113.057 116.206 113.259 116.627C113.48 116.896 113.732 117.121 114.007 117.291C113.724 117.533 113.501 117.873 113.363 118.27C113.239 118.613 113.165 118.982 113.145 119.358L104.686 87.7882ZM128.264 163.003L115.892 164.755C115.949 164.175 117.341 150.167 117.787 145.417C120.363 145.707 123.47 145.961 126.795 146.19C127.345 154.905 128.311 160.924 128.226 163.003H128.264ZM128.917 162.906C129.05 160.15 127.269 146.335 127.26 146.214L128.207 146.275C131.428 147.036 139.726 148.91 140.626 149.103C140.929 152.995 141.687 162.06 141.867 163.921C127.743 162.761 129.268 162.858 128.87 162.906H128.917ZM179.181 137.041C178.233 138.008 164.318 139.627 161.447 138.83C160.339 136.086 159.553 118.585 160.093 117.92C160.907 116.917 176.026 116.095 177.438 116.796C178.328 119.322 179.702 134.974 179.143 137.041H179.181Z"/>
</mask>
<path fill-rule="evenodd" clip-rule="evenodd" d="M178.006 116.361C177.944 116.226 177.856 116.114 177.75 116.034C176.936 115.527 172.502 115.781 171.583 115.829C171.744 84.126 158.653 64.3524 139.65 58.6838C136.164 57.6444 136.155 57.5719 136.06 57.6444L135.416 55.3842C137.235 55.3117 138.722 53.5229 140.389 53.8855C141.649 54.1514 142.284 55.5776 143.525 56.1819C145.628 57.1972 149.369 55.638 150.516 53.0878C151.103 51.7583 150.582 50.3804 150.951 49.4618C151.614 48.7245 153.5 47.5401 154.04 46.6819C155.148 44.9173 155.195 40.965 154.693 38.8257C153.787 36.4048 152.552 34.2075 151.046 32.3352C149.408 30.321 147.955 28.0745 146.717 25.6393C145.192 21.7595 145.135 16.3931 143.875 12.3441C142.486 8.68822 140.337 5.58992 137.661 3.38798C135.047 1.03263 131.896 -0.153045 128.699 0.0158368C125.716 0.257567 124.55 1.87716 123.158 2.43314C121.765 2.98912 121.472 2.43314 119.208 3.70223C118.309 4.40107 117.508 5.28767 116.839 6.325C116.555 6.71177 116.574 6.73595 116.091 6.76012C115.571 6.71019 115.048 6.71019 114.528 6.76012C113.641 7.01128 112.793 7.44828 112.018 8.05338C106.741 12.0903 108.162 20.2124 106.173 26.1832C104.818 30.2442 101.048 34.1482 100.726 38.3906C100.612 40.3412 100.941 42.2925 101.673 44.0108C103.975 49.1717 107.281 45.1228 108.996 48.2773C109.536 49.2684 109.943 50.2354 110.947 50.4287C112.226 50.6463 113.969 49.353 115.011 48.3982C115.23 48.7239 115.478 49.016 115.75 49.2684C116.673 50.0627 117.665 50.7197 118.706 51.2264L116.299 55.5172C111.79 54.8645 104.866 56.7258 100.404 58.4784C100.243 57.028 98.8408 45.0502 97.7799 44.4701C96.3116 43.6482 80.8991 45.9325 79.9613 47.2258C79.2698 48.1686 80.5107 66.117 81.8559 68.8003C82.0548 69.2112 82.7369 69.2233 83.1158 69.2354C80.8991 71.1692 78.7582 73.1272 77.9909 73.8403C77.3941 71.2055 74.2586 57.2697 73.1029 54.9854C72.7714 54.3206 72.4682 54.3327 70.9431 54.9854C70.0738 49.4512 68.9733 43.9803 67.6465 38.596C68.144 37.5525 68.5416 36.4366 68.8306 35.2722C69.1837 33.428 69.2353 31.5107 68.9822 29.6399C70.1379 30.1355 77.0436 32.5528 78.1614 31.8517C78.4617 31.5784 78.6844 31.1883 78.7961 30.7398C80.0181 27.3314 82.1117 15.6921 82.2727 12.0057C82.3391 11.5336 82.2755 11.0469 82.0927 10.6278C80.9844 9.15325 66.074 3.67805 64.8141 4.40324C64.0468 4.85045 61.9722 13.5407 61.7544 14.568C59.945 22.3155 60.8639 20.6113 59.8598 21.0585C58.7041 21.5782 57.7094 24.6844 57.3021 26.1227C56.8947 27.561 56.4685 29.4949 56.9516 30.631C56.7554 31.0931 56.6765 31.6215 56.7257 32.1432C56.7749 32.665 56.9498 33.1544 57.2263 33.5439C56.9251 33.9723 56.7287 34.5039 56.6613 35.073C56.594 35.6421 56.6587 36.224 56.8474 36.7468C57.1221 37.8467 58.8367 38.5719 59.6893 38.8861C59.0161 41.2005 58.4562 43.5659 58.0125 45.9688C57.2569 49.6975 56.653 53.4735 56.2032 57.2818C55.923 59.1324 55.8307 61.0213 55.9285 62.902L54.3749 63.7964C54.3152 63.8314 54.2646 63.8876 54.2293 63.9584C54.194 64.0291 54.1755 64.1114 54.176 64.1953C54.176 64.1953 54.4697 78.8442 58.2494 91.0153C62.8153 105.749 70.3273 110.68 81.7612 105.169C81.8642 106.325 82.0872 107.459 82.4243 108.541C82.5948 108.928 83.1726 109 83.561 109.048C86.924 109.189 90.2905 109.056 93.6402 108.65L96.4821 131.614C95.7148 134.442 87.0092 166.665 87.1323 169.662C87.1323 169.977 87.227 170.218 87.6344 170.46C90.1447 171.947 113.931 175.911 114.831 172.599C115.058 171.79 115.608 166.629 115.712 165.65L129.097 163.764L141.857 164.84C141.995 166.47 142.223 168.085 142.539 169.674C142.653 170.037 142.786 170.23 143.117 170.194C144.377 170.037 151.093 168.49 152.95 168.043C160.074 166.326 159.913 166.181 159.704 165.287C159.202 163.172 154.542 146.674 152.723 138.975C155.383 139.337 158.067 139.337 160.727 138.975C160.756 139.106 160.81 139.225 160.885 139.322C160.959 139.419 161.052 139.491 161.154 139.531C162.887 140.34 178.375 139.216 179.645 137.597C180.791 136.304 178.868 118.198 178.006 116.361ZM64.8331 4.92297C64.9373 4.7175 64.8994 4.63289 65.733 4.79001C69.2095 5.41851 80.577 10.096 81.5622 11.1959C81.7517 13.9637 78.9382 29.1565 77.8299 30.9936C77.0247 31.3441 71.682 29.6037 70.8578 29.3257C64.5868 27.2347 64.833 26.9084 63.4026 26.4853C62.6638 26.159 62.588 26.1469 62.6069 26.014C62.6093 25.984 62.6203 25.9563 62.6378 25.9362C62.6553 25.9161 62.6781 25.905 62.7016 25.9052C63.5542 25.9052 65.8372 25.8206 66.3961 24.9745C66.5195 24.8025 66.6115 24.5978 66.6657 24.3751C66.7199 24.1524 66.7348 23.9171 66.7095 23.6862C66.6841 23.4553 66.6191 23.2343 66.5191 23.0391C66.4191 22.844 66.2865 22.6794 66.1308 22.5572C64.9134 21.9349 63.6409 21.5046 62.3417 21.276C61.9533 21.1793 61.4796 21.0101 61.006 20.9376C61.6596 17.1666 63.8194 6.92933 64.8331 4.92297ZM56.6958 62.5032V60.6298C56.7811 58.3333 57.6431 52.3021 57.8989 50.6463C58.3157 47.9631 58.4104 47.3588 59.6229 41.5331C59.6229 41.3759 60.3524 38.7773 60.3524 38.7773C60.3654 38.7322 60.3708 38.684 60.3682 38.6361C60.3655 38.5881 60.3548 38.5414 60.3369 38.499C60.319 38.4567 60.2942 38.4198 60.2642 38.3906C60.2342 38.3615 60.1996 38.3409 60.1629 38.3301C60.0587 38.3301 57.5957 37.5566 57.321 36.5534C57.0463 35.5502 56.9895 34.3416 57.681 33.8098C57.7064 33.7862 57.7271 33.7553 57.7414 33.7196C57.7557 33.6839 57.7631 33.6444 57.7631 33.6043C57.7631 33.5642 57.7557 33.5247 57.7414 33.489C57.7271 33.4533 57.7064 33.4224 57.681 33.3988C57.3783 33.0817 57.1746 32.6367 57.1068 32.1445C57.039 31.6523 57.1117 31.1454 57.3116 30.7156C57.5294 30.1475 56.3643 30.4255 57.7473 26.3524C58.0978 25.3492 59.2819 22.2671 60.0871 21.9287C60.8001 21.8399 61.5197 21.9429 62.1996 22.2309C63.3869 22.4695 64.5541 22.8499 65.6856 23.367C65.7576 23.4163 65.8196 23.4862 65.867 23.5712C65.9143 23.6562 65.9456 23.754 65.9584 23.8569C65.9713 23.9598 65.9653 24.0652 65.941 24.1647C65.9167 24.2642 65.8747 24.3552 65.8182 24.4306C65.4021 24.7315 64.9461 24.9323 64.4731 25.0229C61.4891 25.7722 62.0196 24.9383 61.6312 26.2315C60.4913 26.1462 59.3517 26.4072 58.3062 26.993C57.8989 27.1017 58.0694 27.4402 58.363 27.3797C59.6322 26.849 60.9896 26.7614 62.2943 27.1259C63.0513 27.3024 63.7913 27.582 64.5015 27.9599C65.1456 28.2937 65.7174 28.8202 66.1687 29.4949C66.2493 29.7506 66.2794 30.0276 66.2563 30.3016C66.2331 30.5756 66.1575 30.8382 66.0361 31.0661C65.8088 31.5133 64.7099 31.2112 64.2931 31.0661C63.7247 30.8486 63.1279 30.6673 62.569 30.4376C61.7828 30.1234 61.868 30.0388 61.6217 30.0629C60.7529 30.22 59.9031 30.5164 59.0925 30.9453C59.0695 30.9486 59.0475 30.9586 59.0281 30.9745C59.0086 30.9903 58.9923 31.0116 58.9803 31.0368C58.9682 31.0619 58.9609 31.0902 58.9588 31.1196C58.9566 31.1489 58.9598 31.1784 58.968 31.206C58.9762 31.2335 58.9892 31.2583 59.006 31.2784C59.0228 31.2986 59.043 31.3136 59.0651 31.3222C59.0872 31.3309 59.1105 31.333 59.1333 31.3284C59.1561 31.3238 59.1778 31.3127 59.1967 31.2958C59.9222 31.0348 60.6637 30.8528 61.4133 30.7519C61.8396 30.7519 61.5649 30.7519 62.6353 31.2958C63.1185 31.5254 63.5826 31.7067 64.0942 31.9243C64.4232 32.0681 64.7628 32.1694 65.1078 32.2264C65.714 32.9516 66.1498 34.6437 65.3351 34.9459C65.015 35.0163 64.6858 34.9659 64.3878 34.8009C62.2185 33.8944 63.6868 33.2417 58.9788 34.4745C58.9403 34.4806 58.905 34.5053 58.8804 34.5435C58.8557 34.5817 58.8434 34.6306 58.8462 34.68C58.8462 34.9942 59.0072 34.8009 61.6123 34.68C61.9272 34.6396 62.2446 34.6396 62.5595 34.68C63.3742 35.2118 64.5868 36.1183 65.5246 35.7678C66.6708 35.2964 66.6329 33.6768 65.894 32.4923C65.6288 32.0814 65.6004 32.2023 65.8277 32.1539C65.994 32.1309 66.1547 32.0643 66.2998 31.9582C66.4448 31.8521 66.5712 31.7089 66.6708 31.5375C66.8951 31.1426 67.0206 30.6705 67.0307 30.183C67.0409 29.6954 66.9352 29.2154 66.7276 28.8059L68.3191 29.4103C68.6342 31.2823 68.6082 33.2216 68.2433 35.0789C68.1417 35.5323 68.0086 35.9732 67.8454 36.3963C67.1539 38.2576 66.8981 38.318 66.9834 38.6685C68.2997 44.1297 69.3844 49.6774 70.2326 55.2875C66.6613 56.8829 60.1155 60.5572 56.6958 62.5032ZM131.655 146.492C135.709 146.71 144.425 147.109 148.422 146.952C148.147 148.475 147.977 149.442 147.929 149.659C146.025 149.659 133.72 146.94 131.655 146.492ZM149.957 145.876C147.418 146.637 114.462 144.994 111.639 143.459C111.932 140.751 114.698 125.534 115.257 122.428C117.744 123.399 120.33 123.888 122.93 123.879C123.878 124.507 125.441 125.595 126.379 126.163C126.274 127.19 126.019 129.62 126.587 130.345C127.155 131.07 140.237 137.198 151.709 138.914C151.246 141.282 150.661 143.607 149.957 145.876ZM114.954 116.784C114.518 116.615 114.115 116.331 113.77 115.95C113.524 115.611 113.609 114.584 113.77 114.101C113.858 113.866 114.015 113.684 114.206 113.593C114.437 113.465 114.684 113.387 114.935 113.363C115.011 113.361 115.083 113.33 115.144 113.273C115.205 113.216 115.251 113.138 115.276 113.047C115.3 112.956 115.303 112.858 115.283 112.766C115.262 112.673 115.221 112.591 115.163 112.529C114.609 111.934 114.223 111.123 114.064 110.221C114.064 109.556 114.263 108.867 115.096 108.263C116.044 108.359 118.886 111.357 120.202 109.629C121.519 107.9 119.965 103.851 121.434 103.513C122.902 103.174 123.641 108.807 123.897 109.423C124.749 111.538 127.042 113.049 128.349 114.789C127.56 118.392 126.927 122.048 126.454 125.74C124.56 124.447 123.158 123.323 123.016 123.323C121.036 123.238 115.722 122.537 114.339 120.736C114.093 120.494 113.924 120.145 113.865 119.756C113.806 119.367 113.86 118.963 114.016 118.621C114.117 118.394 114.253 118.195 114.416 118.037C114.579 117.879 114.765 117.765 114.964 117.702C115.045 117.677 115.117 117.617 115.168 117.533C115.219 117.449 115.247 117.345 115.245 117.238C115.244 117.132 115.215 117.029 115.162 116.946C115.109 116.864 115.036 116.806 114.954 116.784ZM125.507 76.5356C123.747 76.3208 121.979 76.232 120.212 76.2697C119.984 76.2697 119.795 76.4148 119.729 76.6928C119.568 77.4663 116.887 102.606 116.754 103.839C116.186 91.7526 115.598 79.0255 115.163 69.6947C118.459 76.4027 118.743 77.0674 119.264 76.5961C121.021 74.7529 122.682 72.7666 124.238 70.6495C124.522 71.9911 124.977 74.1788 125.507 76.5356ZM134.175 72.2933C133.531 71.0846 132.896 69.876 132.659 69.4288L135.719 59.6024L134.175 72.2933ZM136.382 58.4179C139.965 59.3606 143.458 60.791 146.802 62.6845C146.66 63.2525 144.832 70.3836 142.644 78.8925C141.639 78.7354 135.889 77.841 134.118 77.5992L136.382 58.4179ZM132.508 70.7704L134.004 73.647L133.531 77.5146L132.062 77.2729C132.28 74.6501 132.432 72.1603 132.508 70.7704ZM158.662 83.5216C158.65 85.0953 158.53 86.6645 158.302 88.2112C155.053 87.1476 126.71 78.2519 123.83 80.3429C122.39 81.4065 117.654 106.208 117.199 108.444L116.858 108.227C118.355 94.7984 120.344 77.1883 120.344 77.14C123.575 76.6686 154.693 81.1648 158.662 83.5216ZM142.132 108.795C140.01 108.613 131.589 108.081 129.817 109.58C129.543 109.822 129.429 109.87 128.453 114.342C127.193 112.638 125.081 111.031 124.37 109.133C124.048 108.299 123.527 102.207 121.32 102.679C118.346 103.319 122.144 111.139 117.749 108.722C118.033 107.187 122.694 81.5878 123.991 80.6451C126.739 78.6508 156.701 88.3804 160.491 89.7462C160.273 92.6953 157.488 108.432 156.976 111.309C152.07 110.106 147.114 109.266 142.132 108.795ZM127.544 24.2493C128.074 24.7086 128.055 25.8085 127.961 26.6062C127.297 32.0089 123.054 35.2843 120.108 30.1113C119.435 28.9026 118.914 25.0591 119.369 24.2131C119.672 23.7175 122.116 23.6933 122.608 23.6933C123.518 23.7054 127.07 23.8867 127.506 24.2493H127.544ZM116.262 25.1196C116.262 27.3918 115.665 31.1628 114.083 32.2506C111.535 33.9427 108.948 31.2595 108.882 27.7665C108.785 26.4913 108.833 25.2049 109.024 23.9472L109.119 23.8867C108.967 23.5483 115.627 23.4395 116.224 24.201C116.244 24.5066 116.244 24.8139 116.224 25.1196H116.262ZM119.558 51.4319C121.197 52.0362 123.84 51.7462 125.109 50.0903C125.136 50.0544 125.151 50.0068 125.151 49.9574C125.151 49.9079 125.136 49.8603 125.109 49.8244C124.891 49.486 125.109 50.1387 122.646 50.61C120.183 51.0814 118.696 50.61 116.205 48.5432C115.059 47.2009 114.202 45.5077 113.713 43.624C112.693 40.4361 112.055 37.0707 111.819 33.6406C112.71 33.8268 113.625 33.6358 114.424 33.0967C115.199 32.5183 115.8 31.6244 116.129 30.5585C115.809 31.8357 115.547 33.1351 115.343 34.4504C115.298 34.6187 115.292 34.7996 115.323 34.9725C115.355 35.1455 115.424 35.3037 115.523 35.4294C116.178 35.9402 116.949 36.1532 117.711 36.0337C117.733 36.041 117.757 36.0417 117.779 36.0357C117.802 36.0297 117.823 36.0172 117.841 35.9991C117.86 35.981 117.874 35.9579 117.885 35.9314C117.895 35.9049 117.9 35.8758 117.9 35.8463C117.9 35.8169 117.895 35.7878 117.885 35.7613C117.874 35.7348 117.86 35.7117 117.841 35.6936C117.823 35.6755 117.802 35.663 117.779 35.657C117.757 35.651 117.733 35.6517 117.711 35.659C117.149 35.5792 116.607 35.3485 116.119 34.9822C115.902 34.7888 115.996 34.9096 116.063 34.5108C116.129 34.1119 117.36 28.3467 117.427 27.9841C117.72 27.9841 118.838 27.7907 118.838 27.4402C118.838 27.0897 117.948 26.993 117.616 27.0171C117.616 26.86 117.673 26.7271 117.701 26.6062C117.716 26.5581 117.716 26.5044 117.7 26.4568C117.684 26.4092 117.654 26.3716 117.616 26.3524C117.578 26.3331 117.536 26.3338 117.499 26.3542C117.462 26.3746 117.432 26.4131 117.417 26.4612C117.086 27.283 117.313 26.9809 116.868 27.1259C117.039 26.0084 117.039 24.8592 116.868 23.7417C116.328 22.6781 113.079 22.9198 112.018 23.0044C112.558 18.9554 114.661 16.9611 115.949 13.722C116.31 12.9701 116.791 12.3236 117.36 11.8244C117.645 11.7277 118.203 12.6342 118.545 12.8517C118.886 13.0693 119.208 14.2658 119.492 14.6768C120.385 15.9749 121.415 17.1097 122.552 18.0489C123.499 18.9071 124.977 19.04 125.621 20.1399C125.893 21.0752 126.025 22.0674 126.009 23.0648C124.787 22.9682 119.691 22.8715 119.084 23.9834C118.535 24.8778 118.772 28.9631 119.577 30.5343C121.604 34.4504 124.721 34.6921 127.155 31.1628C127.417 30.7462 127.64 30.2919 127.818 29.8091C129.637 33.4351 131.068 35.5986 131.134 39.853C131.21 45.2436 130.016 54.1756 134.592 55.2996L135.378 58.0674C131.589 70.2265 131.788 69.465 131.788 69.5859C131.788 69.7067 131.608 73.2118 131.276 77.2246C129.457 76.9828 127.762 76.7774 126.255 76.6202C126.142 76.1247 124.73 69.7188 124.759 69.5859C124.901 68.9816 124.19 67.7971 123.641 66.7455C121.581 62.9395 119.331 59.3061 116.906 55.8677L119.558 51.4319ZM116.224 56.194C116.385 56.5083 123.205 66.0808 124.039 69.598C122.506 71.7654 120.85 73.7853 119.084 75.6412C118.45 74.5776 116.735 71.0725 115.106 67.7971C114.812 61.4758 114.613 57.0763 114.566 56.1577C115.096 56.1094 115.693 56.1457 116.186 56.194H116.224ZM82.3958 68.2805C81.3159 65.8632 79.8192 50.1507 80.1697 47.7334C80.1697 47.5159 80.1697 47.4434 80.9654 47.1654C84.3567 46.0413 96.2547 44.7481 97.5051 45.292C98.4524 47.6488 100.527 63.035 100.034 65.4039C99.0682 66.395 85.1809 68.8969 82.358 68.2805H82.3958ZM83.0589 108.045C81.9696 105.314 81.1644 87.8003 81.7043 87.1355C82.5095 86.1444 97.6283 85.2984 99.0587 86.0115C100.006 88.5496 101.351 104.141 100.792 106.256C99.5039 107.489 85.2946 108.698 83.0211 108.045H83.0589ZM104.686 87.7882C105.368 87.5585 110.123 86.0115 110.691 85.5764C111.099 85.2742 111.563 86.2532 103.596 58.3575C104.544 57.2455 112.823 55.8193 114.13 56.339C114.13 57.0038 115.371 85.2138 116.347 107.852C115.883 107.562 115.21 107.115 114.784 107.417C113.003 108.625 112.889 110.632 114.206 112.59C113.96 112.667 113.732 112.816 113.539 113.026C113.347 113.236 113.195 113.5 113.098 113.798C112.946 114.252 112.881 114.745 112.909 115.237C112.937 115.729 113.057 116.206 113.259 116.627C113.48 116.896 113.732 117.121 114.007 117.291C113.724 117.533 113.501 117.873 113.363 118.27C113.239 118.613 113.165 118.982 113.145 119.358L104.686 87.7882ZM128.264 163.003L115.892 164.755C115.949 164.175 117.341 150.167 117.787 145.417C120.363 145.707 123.47 145.961 126.795 146.19C127.345 154.905 128.311 160.924 128.226 163.003H128.264ZM128.917 162.906C129.05 160.15 127.269 146.335 127.26 146.214L128.207 146.275C131.428 147.036 139.726 148.91 140.626 149.103C140.929 152.995 141.687 162.06 141.867 163.921C127.743 162.761 129.268 162.858 128.87 162.906H128.917ZM179.181 137.041C178.233 138.008 164.318 139.627 161.447 138.83C160.339 136.086 159.553 118.585 160.093 117.92C160.907 116.917 176.026 116.095 177.438 116.796C178.328 119.322 179.702 134.974 179.143 137.041H179.181Z" fill="var(--fill-0, #1F1F1F)" stroke="var(--stroke-0, #383838)" stroke-width="0.766531" mask="url(#path-2-inside-1_0_310)"/>
</g>
<g id="Vector_3">
<mask id="path-3-inside-2_0_310" fill="white">
<path fill-rule="evenodd" clip-rule="evenodd" d="M83.0771 128.157C83.0013 127.722 82.8971 127.093 82.6224 126.948C81.6751 126.223 75.4324 126.078 74.3241 126.054C74.0778 120.289 73.642 113.629 72.9316 111.84C72.4674 110.631 41.8509 110.511 40.7994 110.499C40.8752 103.996 40.8847 94.085 40.7994 87.5341C42.1351 87.5341 48.8041 87.5341 49.7229 86.5672C50.8976 85.3585 50.1113 69.223 49.5808 66.0201C49.5051 65.585 49.3914 64.9565 49.1261 64.8114C47.7431 63.7599 32.2264 63.5061 31.1276 64.6301C30.5497 65.2466 30.3319 72.8006 30.3034 73.7555C28.1341 73.7555 14.7205 73.405 9.92719 73.55V63.6753C11.1681 63.6753 18.4528 63.9291 19.4001 62.9139C20.5463 61.7052 20.1674 41.9558 19.078 41.1581C17.9886 40.3604 11.1871 40.1066 10.0124 40.0703C10.0124 38.354 9.90825 34.0271 9.89877 33.9183C14.2847 33.7128 25.8417 34.1842 30.6066 34.1842C30.6066 36.0818 30.5213 42.8381 31.1465 44.5665C31.2981 44.9774 31.8759 45.0983 32.2549 45.1829C35.2673 45.8598 48.6999 46.2586 50.0166 44.8324C51.3333 43.4062 50.4145 25.3368 49.6471 23.3909C49.5963 23.251 49.518 23.1303 49.4198 23.0404C47.9894 21.9647 32.4917 21.8317 31.4213 22.8591C30.8055 23.5239 30.5971 32.1778 30.5782 33.2173C25.7375 33.2173 14.351 32.7459 9.84194 32.9514C9.84194 30.6187 9.74721 28.2618 9.74721 25.9412C11.0924 25.9412 19.2201 25.784 20.2337 24.6479C21.2473 23.5118 20.2337 5.20069 19.4191 3.2185C19.3684 3.07802 19.2859 2.96015 19.1822 2.88008C17.7424 1.85272 2.24466 2.16697 1.18369 3.3031C0.378491 4.19751 0.236397 22.2669 1.31631 25.0589C1.39071 25.2147 1.50421 25.334 1.63839 25.3973C2.7183 25.9774 7.75789 25.9895 8.94201 25.9895C8.94201 31.3922 9.13147 35.7796 9.16936 40.0945C8.22207 40.0945 1.76154 39.9132 1.0416 40.6505C0.321653 41.3877 -0.549855 59.445 0.454274 62.4062C0.596368 62.8051 1.17422 62.9501 1.55313 63.0347C4.06369 63.4973 6.59511 63.7517 9.13147 63.7962V81.6359C8.23154 81.6359 2.06467 81.4908 1.37315 82.204C0.681624 82.9171 -0.227776 100.999 0.776354 103.96C0.918447 104.371 1.4963 104.504 1.87521 104.6C4.94444 105.35 18.3202 106.002 19.6369 104.6C20.9537 103.198 20.2716 85.0805 19.5517 83.1588C19.5004 83.0159 19.4223 82.8913 19.3243 82.7962C18.2918 81.9985 11.1113 81.7326 9.85141 81.6963V74.7103C14.7584 74.5532 27.6226 74.9037 30.2182 74.9158C30.2182 76.9584 30.0666 84.6575 30.7487 86.5309C30.8106 86.6932 30.9192 86.8187 31.0518 86.8814C32.2738 87.5945 38.6301 87.7396 39.9279 87.7517C40.0511 94.3267 40.0416 104.262 39.9279 110.716C27.1963 110.631 13.9911 110.801 11.3292 111.49C11.045 111.562 10.5808 111.683 10.5619 112.191C10.5619 112.191 10.0503 122.633 9.81352 126.223C8.97043 126.223 3.42877 126.223 2.78461 126.948C2.14045 127.673 1.42998 145.779 2.47201 148.704C2.6141 149.103 3.19195 149.236 3.57086 149.32C6.59273 149.997 20.0159 150.396 21.3326 148.97C22.6493 147.544 21.721 129.438 20.9631 127.528C21.0012 127.413 21.0133 127.286 20.9983 127.163C20.9832 127.039 20.9415 126.923 20.8779 126.827C19.7885 125.993 12.0112 125.921 10.7229 125.909C10.9503 122.283 11.4429 112.191 11.4429 112.191C14.6826 110.982 68.574 111.127 72.3443 112.348C72.9221 114.112 73.2916 120.168 73.5947 125.957C72.6474 125.957 65.448 125.885 64.6996 126.682C63.9513 127.48 63.3829 145.622 64.387 148.438C64.4535 148.6 64.5649 148.725 64.6996 148.789C66.3763 149.756 81.8835 150.191 83.2476 148.704C83.4821 148.342 83.6184 147.892 83.636 147.423C84.0812 143.749 83.6928 131.783 83.0771 128.157ZM31.6202 23.0041C32.4633 22.1097 47.582 22.7503 48.984 23.6206C49.3359 25.5282 49.5389 27.4755 49.5903 29.4342C43.5182 28.6485 35.3146 29.2529 31.1276 29.4342C31.1465 28.709 31.2981 23.2942 31.6202 22.9679V23.0041ZM31.1181 30.0989C38.0144 30.3769 46.199 29.9176 49.6187 29.966C49.7229 32.1053 50.0924 42.125 49.4766 43.9743C48.7756 44.5907 43.2529 44.6995 42.4098 44.7115C40.3732 44.7115 33.6569 44.7115 31.6865 43.9863C31.0044 41.8712 31.0708 32.48 31.1181 30.0627V30.0989ZM1.42998 3.39979C2.27307 2.45705 17.4203 2.63834 18.8033 3.39979C19.1141 4.74697 19.311 6.13273 19.3906 7.53339C13.2713 7.30317 7.1475 7.70739 1.07949 8.74204C1.08896 8.30692 1.15527 3.71404 1.42998 3.39979ZM1.93205 24.3699C1.16474 22.1823 1.06054 12.0054 1.07949 9.15298C1.87521 9.03212 19.078 7.94433 19.4285 7.94433C19.6369 10.3616 20.3758 21.6384 19.7127 23.7535C18.4433 24.9259 4.1866 25.1555 1.93205 24.3699ZM1.27842 40.723C2.14045 39.8407 17.2498 40.7955 18.6423 41.6899C18.9521 43.4935 19.1234 45.3312 19.1538 47.1772C19.2485 47.1772 5.75911 46.5003 0.728989 46.7058C0.757407 45.9927 0.984757 41.0131 1.27842 40.723ZM19.1349 103.573C18.0929 104.443 4.12029 104.334 1.3542 103.21C0.672151 101.047 0.880555 91.1238 0.975284 88.5977C1.07001 88.5977 14.0195 89.8789 19.438 89.0691C19.5327 91.2809 19.7885 101.687 19.1349 103.561V103.573ZM18.9075 83.195C19.2159 85.0033 19.3904 86.8445 19.4285 88.6944C19.5233 88.6944 6.06224 88.0176 0.994231 88.211C1.03645 86.268 1.19798 84.3323 1.47735 82.4215C1.54366 82.1798 1.47735 82.1314 2.32991 82.0106C5.72122 81.5271 17.695 82.4094 18.9075 83.183V83.195ZM1.07949 61.6931C0.406909 59.5296 0.615314 49.6791 0.710043 47.0926C0.823718 47.0926 13.7353 48.3738 19.1728 47.564C19.2675 49.7879 19.5327 60.1339 18.8696 62.0678C17.5908 63.1314 3.36246 62.6238 1.07949 61.6931ZM21.0863 133.789C21.2 136.037 21.5599 146.033 20.9442 147.93C19.9401 148.825 5.91068 149.006 3.15406 147.93C2.47201 145.827 2.53832 136.364 2.58568 133.838C8.69571 134.14 14.2468 133.789 21.0863 133.789ZM20.4516 127.577C20.802 129.481 21.0082 131.424 21.0673 133.378C15.0426 132.605 6.55483 133.221 2.59515 133.451C2.59515 132.689 2.77514 127.287 3.08775 126.96C3.94031 126.066 19.0496 126.707 20.4516 127.577ZM31.2981 64.7873C32.1696 63.8566 47.2884 64.5576 48.662 65.4037C49.0223 67.3877 49.2316 69.4115 49.2872 71.4469C45.1759 71.1689 34.9452 70.335 30.815 70.9877C30.8623 70.2987 31.0234 65.1136 31.2981 64.7873ZM31.3928 85.7332C30.7013 83.6181 30.7771 73.9489 30.8339 71.4228C32.1696 71.2536 41.832 72.0271 46.3222 71.9787C47.4684 71.9787 48.5009 71.9183 49.3345 71.8821C49.4387 74.0335 49.7892 83.8598 49.183 85.7211C47.942 86.8452 33.6947 86.6639 31.3928 85.7332ZM64.8607 126.96C65.7132 126.066 80.8225 126.707 82.234 127.577C82.5812 129.485 82.7842 131.432 82.8403 133.39C76.8723 132.617 68.233 133.233 64.3775 133.39C64.387 132.75 64.548 127.323 64.8607 126.997V126.96ZM82.7266 147.93C81.694 148.825 67.6646 149.006 64.9364 147.93C64.2449 145.84 64.3112 136.339 64.3681 133.825C70.7433 134.14 75.5272 133.825 82.8592 133.825C82.9729 136.049 83.3328 146.081 82.7266 147.967V147.93Z"/>
</mask>
<path fill-rule="evenodd" clip-rule="evenodd" d="M83.0771 128.157C83.0013 127.722 82.8971 127.093 82.6224 126.948C81.6751 126.223 75.4324 126.078 74.3241 126.054C74.0778 120.289 73.642 113.629 72.9316 111.84C72.4674 110.631 41.8509 110.511 40.7994 110.499C40.8752 103.996 40.8847 94.085 40.7994 87.5341C42.1351 87.5341 48.8041 87.5341 49.7229 86.5672C50.8976 85.3585 50.1113 69.223 49.5808 66.0201C49.5051 65.585 49.3914 64.9565 49.1261 64.8114C47.7431 63.7599 32.2264 63.5061 31.1276 64.6301C30.5497 65.2466 30.3319 72.8006 30.3034 73.7555C28.1341 73.7555 14.7205 73.405 9.92719 73.55V63.6753C11.1681 63.6753 18.4528 63.9291 19.4001 62.9139C20.5463 61.7052 20.1674 41.9558 19.078 41.1581C17.9886 40.3604 11.1871 40.1066 10.0124 40.0703C10.0124 38.354 9.90825 34.0271 9.89877 33.9183C14.2847 33.7128 25.8417 34.1842 30.6066 34.1842C30.6066 36.0818 30.5213 42.8381 31.1465 44.5665C31.2981 44.9774 31.8759 45.0983 32.2549 45.1829C35.2673 45.8598 48.6999 46.2586 50.0166 44.8324C51.3333 43.4062 50.4145 25.3368 49.6471 23.3909C49.5963 23.251 49.518 23.1303 49.4198 23.0404C47.9894 21.9647 32.4917 21.8317 31.4213 22.8591C30.8055 23.5239 30.5971 32.1778 30.5782 33.2173C25.7375 33.2173 14.351 32.7459 9.84194 32.9514C9.84194 30.6187 9.74721 28.2618 9.74721 25.9412C11.0924 25.9412 19.2201 25.784 20.2337 24.6479C21.2473 23.5118 20.2337 5.20069 19.4191 3.2185C19.3684 3.07802 19.2859 2.96015 19.1822 2.88008C17.7424 1.85272 2.24466 2.16697 1.18369 3.3031C0.378491 4.19751 0.236397 22.2669 1.31631 25.0589C1.39071 25.2147 1.50421 25.334 1.63839 25.3973C2.7183 25.9774 7.75789 25.9895 8.94201 25.9895C8.94201 31.3922 9.13147 35.7796 9.16936 40.0945C8.22207 40.0945 1.76154 39.9132 1.0416 40.6505C0.321653 41.3877 -0.549855 59.445 0.454274 62.4062C0.596368 62.8051 1.17422 62.9501 1.55313 63.0347C4.06369 63.4973 6.59511 63.7517 9.13147 63.7962V81.6359C8.23154 81.6359 2.06467 81.4908 1.37315 82.204C0.681624 82.9171 -0.227776 100.999 0.776354 103.96C0.918447 104.371 1.4963 104.504 1.87521 104.6C4.94444 105.35 18.3202 106.002 19.6369 104.6C20.9537 103.198 20.2716 85.0805 19.5517 83.1588C19.5004 83.0159 19.4223 82.8913 19.3243 82.7962C18.2918 81.9985 11.1113 81.7326 9.85141 81.6963V74.7103C14.7584 74.5532 27.6226 74.9037 30.2182 74.9158C30.2182 76.9584 30.0666 84.6575 30.7487 86.5309C30.8106 86.6932 30.9192 86.8187 31.0518 86.8814C32.2738 87.5945 38.6301 87.7396 39.9279 87.7517C40.0511 94.3267 40.0416 104.262 39.9279 110.716C27.1963 110.631 13.9911 110.801 11.3292 111.49C11.045 111.562 10.5808 111.683 10.5619 112.191C10.5619 112.191 10.0503 122.633 9.81352 126.223C8.97043 126.223 3.42877 126.223 2.78461 126.948C2.14045 127.673 1.42998 145.779 2.47201 148.704C2.6141 149.103 3.19195 149.236 3.57086 149.32C6.59273 149.997 20.0159 150.396 21.3326 148.97C22.6493 147.544 21.721 129.438 20.9631 127.528C21.0012 127.413 21.0133 127.286 20.9983 127.163C20.9832 127.039 20.9415 126.923 20.8779 126.827C19.7885 125.993 12.0112 125.921 10.7229 125.909C10.9503 122.283 11.4429 112.191 11.4429 112.191C14.6826 110.982 68.574 111.127 72.3443 112.348C72.9221 114.112 73.2916 120.168 73.5947 125.957C72.6474 125.957 65.448 125.885 64.6996 126.682C63.9513 127.48 63.3829 145.622 64.387 148.438C64.4535 148.6 64.5649 148.725 64.6996 148.789C66.3763 149.756 81.8835 150.191 83.2476 148.704C83.4821 148.342 83.6184 147.892 83.636 147.423C84.0812 143.749 83.6928 131.783 83.0771 128.157ZM31.6202 23.0041C32.4633 22.1097 47.582 22.7503 48.984 23.6206C49.3359 25.5282 49.5389 27.4755 49.5903 29.4342C43.5182 28.6485 35.3146 29.2529 31.1276 29.4342C31.1465 28.709 31.2981 23.2942 31.6202 22.9679V23.0041ZM31.1181 30.0989C38.0144 30.3769 46.199 29.9176 49.6187 29.966C49.7229 32.1053 50.0924 42.125 49.4766 43.9743C48.7756 44.5907 43.2529 44.6995 42.4098 44.7115C40.3732 44.7115 33.6569 44.7115 31.6865 43.9863C31.0044 41.8712 31.0708 32.48 31.1181 30.0627V30.0989ZM1.42998 3.39979C2.27307 2.45705 17.4203 2.63834 18.8033 3.39979C19.1141 4.74697 19.311 6.13273 19.3906 7.53339C13.2713 7.30317 7.1475 7.70739 1.07949 8.74204C1.08896 8.30692 1.15527 3.71404 1.42998 3.39979ZM1.93205 24.3699C1.16474 22.1823 1.06054 12.0054 1.07949 9.15298C1.87521 9.03212 19.078 7.94433 19.4285 7.94433C19.6369 10.3616 20.3758 21.6384 19.7127 23.7535C18.4433 24.9259 4.1866 25.1555 1.93205 24.3699ZM1.27842 40.723C2.14045 39.8407 17.2498 40.7955 18.6423 41.6899C18.9521 43.4935 19.1234 45.3312 19.1538 47.1772C19.2485 47.1772 5.75911 46.5003 0.728989 46.7058C0.757407 45.9927 0.984757 41.0131 1.27842 40.723ZM19.1349 103.573C18.0929 104.443 4.12029 104.334 1.3542 103.21C0.672151 101.047 0.880555 91.1238 0.975284 88.5977C1.07001 88.5977 14.0195 89.8789 19.438 89.0691C19.5327 91.2809 19.7885 101.687 19.1349 103.561V103.573ZM18.9075 83.195C19.2159 85.0033 19.3904 86.8445 19.4285 88.6944C19.5233 88.6944 6.06224 88.0176 0.994231 88.211C1.03645 86.268 1.19798 84.3323 1.47735 82.4215C1.54366 82.1798 1.47735 82.1314 2.32991 82.0106C5.72122 81.5271 17.695 82.4094 18.9075 83.183V83.195ZM1.07949 61.6931C0.406909 59.5296 0.615314 49.6791 0.710043 47.0926C0.823718 47.0926 13.7353 48.3738 19.1728 47.564C19.2675 49.7879 19.5327 60.1339 18.8696 62.0678C17.5908 63.1314 3.36246 62.6238 1.07949 61.6931ZM21.0863 133.789C21.2 136.037 21.5599 146.033 20.9442 147.93C19.9401 148.825 5.91068 149.006 3.15406 147.93C2.47201 145.827 2.53832 136.364 2.58568 133.838C8.69571 134.14 14.2468 133.789 21.0863 133.789ZM20.4516 127.577C20.802 129.481 21.0082 131.424 21.0673 133.378C15.0426 132.605 6.55483 133.221 2.59515 133.451C2.59515 132.689 2.77514 127.287 3.08775 126.96C3.94031 126.066 19.0496 126.707 20.4516 127.577ZM31.2981 64.7873C32.1696 63.8566 47.2884 64.5576 48.662 65.4037C49.0223 67.3877 49.2316 69.4115 49.2872 71.4469C45.1759 71.1689 34.9452 70.335 30.815 70.9877C30.8623 70.2987 31.0234 65.1136 31.2981 64.7873ZM31.3928 85.7332C30.7013 83.6181 30.7771 73.9489 30.8339 71.4228C32.1696 71.2536 41.832 72.0271 46.3222 71.9787C47.4684 71.9787 48.5009 71.9183 49.3345 71.8821C49.4387 74.0335 49.7892 83.8598 49.183 85.7211C47.942 86.8452 33.6947 86.6639 31.3928 85.7332ZM64.8607 126.96C65.7132 126.066 80.8225 126.707 82.234 127.577C82.5812 129.485 82.7842 131.432 82.8403 133.39C76.8723 132.617 68.233 133.233 64.3775 133.39C64.387 132.75 64.548 127.323 64.8607 126.997V126.96ZM82.7266 147.93C81.694 148.825 67.6646 149.006 64.9364 147.93C64.2449 145.84 64.3112 136.339 64.3681 133.825C70.7433 134.14 75.5272 133.825 82.8592 133.825C82.9729 136.049 83.3328 146.081 82.7266 147.967V147.93Z" fill="var(--fill-0, #2349FF)" stroke="var(--stroke-0, #383838)" stroke-width="0.766531" mask="url(#path-3-inside-2_0_310)"/>
</g>
</g>
</svg>
