<svg preserveAspectRatio="none" width="100%" height="100%" overflow="visible" style="display: block;" viewBox="0 0 167.907 171.212" fill="none" xmlns="http://www.w3.org/2000/svg">
<g id="Group">
<path id="Vector" d="M94.92 131.905C94.8508 131.924 94.792 131.97 94.7565 132.033C94.7211 132.095 94.7119 132.169 94.731 132.238C94.7501 132.308 94.7959 132.366 94.8584 132.402C94.9208 132.437 94.9948 132.446 95.064 132.427C97.3384 131.929 99.4706 130.923 101.301 129.484C108.258 124.345 107.898 117.055 111.858 110.386C115.026 105.301 117.807 105.886 117.591 105.229C117.583 105.203 117.57 105.179 117.552 105.159C117.534 105.138 117.512 105.121 117.488 105.109C117.463 105.098 117.437 105.091 117.41 105.09C117.382 105.089 117.355 105.093 117.33 105.103C104.874 109.684 111.912 126.019 94.92 131.905ZM145.329 115.903C145.68 115.534 146.031 115.147 146.373 114.76C149.019 111.547 150.873 106.57 150.693 102.907C150.688 102.868 150.673 102.83 150.649 102.799C150.624 102.768 150.591 102.744 150.554 102.73C150.517 102.716 150.477 102.712 150.438 102.72C150.399 102.727 150.362 102.746 150.333 102.772C150.063 103.033 150.819 104.473 148.92 109.009C147.12 113.311 145.545 114.409 143.772 116.416C142.184 118.25 140.976 120.382 140.221 122.688C139.465 124.993 139.176 127.426 139.371 129.844C139.381 129.895 139.409 129.941 139.449 129.974C139.489 130.007 139.54 130.025 139.592 130.025C139.643 130.025 139.694 130.007 139.734 129.974C139.774 129.941 139.802 129.895 139.812 129.844C139.75 127.269 140.207 124.708 141.155 122.313C142.102 119.919 143.522 117.739 145.329 115.903ZM66.309 77.0413C67.209 76.4203 67.146 74.5213 66.309 73.8193C66.0723 73.6282 65.7964 73.4917 65.501 73.4194C65.2055 73.3471 64.8977 73.3408 64.5996 73.4009C64.3014 73.4611 64.0202 73.5862 63.7758 73.7674C63.5315 73.9486 63.3301 74.1814 63.186 74.4493C63.019 74.868 62.9889 75.3289 63.1001 75.7658C63.2113 76.2026 63.458 76.5931 63.8049 76.881C64.1518 77.1689 64.581 77.3395 65.0309 77.3683C65.4808 77.3971 65.9282 77.2826 66.309 77.0413ZM63.834 74.9803C64.104 73.9543 65.877 73.8103 66.147 74.8363C66.327 75.5383 66.246 76.0333 65.886 76.3033C65.6696 76.4378 65.4236 76.5172 65.1694 76.5345C64.9151 76.5517 64.6606 76.5063 64.428 76.4023C64.1845 76.2656 63.9937 76.0513 63.8861 75.7936C63.7784 75.5359 63.7601 75.2496 63.834 74.9803ZM97.062 60.3913C97.0274 60.3888 96.9927 60.3935 96.96 60.405C96.9274 60.4166 96.8974 60.4348 96.8721 60.4584C96.8467 60.4821 96.8265 60.5107 96.8128 60.5425C96.799 60.5743 96.7919 60.6086 96.792 60.6433C96.792 61.5433 95.271 62.4433 94.992 62.5333C94.9383 62.5464 94.892 62.5803 94.8633 62.6276C94.8346 62.6749 94.8259 62.7316 94.839 62.7853C94.8521 62.839 94.8861 62.8853 94.9333 62.914C94.9806 62.9427 95.0373 62.9514 95.091 62.9383C97.458 62.4523 97.818 60.3733 97.062 60.3913ZM93.903 59.0143C93.795 58.9513 93.318 58.6003 93.147 58.4653C93.147 58.3483 93.57 56.8453 93.651 56.5573C93.732 56.2693 93.363 56.1973 93.264 56.4313C92.8875 57.1609 92.5859 57.9268 92.364 58.7173C92.436 58.9783 93.687 59.3203 93.777 59.3203C93.8145 59.3254 93.8526 59.3179 93.8854 59.299C93.9182 59.2802 93.9438 59.2509 93.9582 59.216C93.9726 59.181 93.975 59.1422 93.965 59.1057C93.955 59.0692 93.9332 59.0371 93.903 59.0143ZM90.933 54.1903C90.9201 54.1125 90.88 54.0418 90.8198 53.9908C90.7597 53.9398 90.6834 53.9118 90.6045 53.9118C90.5257 53.9118 90.4494 53.9398 90.3892 53.9908C90.329 54.0418 90.2889 54.1125 90.276 54.1903C90.2417 54.8108 90.2417 55.4328 90.276 56.0533C90.3324 56.1455 90.418 56.2164 90.5191 56.2545C90.6203 56.2927 90.7313 56.296 90.8346 56.264C90.9379 56.232 91.0275 56.1665 91.0894 56.0778C91.1512 55.9891 91.1817 55.8823 91.176 55.7743C91.0513 55.2539 90.9701 54.7241 90.933 54.1903ZM97.224 55.7653C97.1086 55.2492 97.0274 54.7261 96.981 54.1993C96.981 54.111 96.9459 54.0263 96.8835 53.9638C96.821 53.9014 96.7363 53.8663 96.648 53.8663C96.5597 53.8663 96.475 53.9014 96.4125 53.9638C96.3501 54.0263 96.315 54.111 96.315 54.1993C96.2823 54.7988 96.2823 55.3997 96.315 55.9993C96.3201 56.069 96.3403 56.1367 96.3744 56.1977C96.4085 56.2586 96.4556 56.3114 96.5123 56.3522C96.5691 56.3929 96.634 56.4208 96.7027 56.4337C96.7714 56.4465 96.842 56.4442 96.9097 56.4268C96.9773 56.4094 97.0403 56.3773 97.0942 56.3329C97.1481 56.2884 97.1916 56.2327 97.2216 56.1696C97.2516 56.1065 97.2673 56.0376 97.2678 55.9677C97.2682 55.8978 97.2532 55.8287 97.224 55.7653Z" fill="var(--fill-0, black)"/>
<path id="Vector_2" d="M167.659 43.5067C167.596 37.8997 165.715 35.6857 159.91 35.8567C158.254 35.8567 128.724 36.1537 126.609 36.2257C125.192 36.2261 123.789 36.5171 122.487 37.0807C121.74 37.3777 117.835 39.3307 117.403 40.3657C116.935 41.1037 117.484 62.1277 117.403 66.4657C116.777 66.1096 116.134 65.7852 115.477 65.4937C115.358 64.9025 115.105 64.3463 114.739 63.8675C114.372 63.3886 113.901 62.9998 113.361 62.7307C112.533 62.4067 111.471 62.7937 110.859 62.2087C110.247 61.6237 111.345 61.3087 111.462 60.4087C111.459 59.7846 111.386 59.1629 111.247 58.5547C110.704 55.2922 109.946 52.0692 108.979 48.9067C108.169 46.3057 107.323 44.1007 104.992 42.6877C104.992 38.3137 104.55 12.6817 104.307 11.3227C104.068 9.98147 103.353 8.77164 102.293 7.91528C101.233 7.05892 99.9002 6.61348 98.5385 6.6607C98.4485 6.6607 36.5105 6.6607 36.4385 6.7327C33.9635 8.2087 33.2975 11.5027 33.1355 13.9327C33.0815 15.1477 34.1435 39.6817 34.5665 47.4757C30.1835 47.5657 8.0435 48.1597 6.7745 48.8347C3.9035 49.5367 0.726495 51.5347 0.105495 54.7837C-0.281505 56.8717 0.501495 96.9847 0.762495 98.8837C0.949412 100.935 1.86592 102.851 3.3455 104.284C4.9565 105.697 7.1525 105.958 9.0875 106.03L50.1545 105.256C46.1405 114.346 41.5145 127.234 38.4545 135.253C38.4401 135.276 38.4325 135.302 38.4325 135.329C38.4325 135.356 38.4401 135.383 38.4545 135.406C39.2826 136.219 40.1868 136.952 41.1545 137.593C39.6875 142.606 39.8495 142.885 39.5255 143.29C36.7445 146.701 33.3875 148.69 30.0755 149.014C28.5365 149.185 27.0155 149.455 26.4755 150.949C26.0345 152.308 27.2045 153.217 28.5725 153.595C29.4725 153.838 35.6105 155.197 36.5195 155.305C37.325 155.44 38.1514 155.256 38.8235 154.792C39.4715 154.315 41.6045 151.795 42.4235 151.039C40.9385 158.239 39.9035 155.944 43.4405 157.483C43.4899 157.509 43.5445 157.524 43.6004 157.527C43.6563 157.529 43.7121 157.52 43.7638 157.498C43.8155 157.477 43.8617 157.444 43.8992 157.402C43.9367 157.361 43.9644 157.311 43.9805 157.258C44.6105 155.458 48.8765 145.171 50.6135 142.498C51.0365 153.37 50.9645 152.803 51.1175 152.848C51.7205 153.001 52.3775 153.145 53.0525 153.28C53.0525 154.792 53.0975 156.34 53.2235 158.032C53.2235 158.086 53.1515 158.176 53.0795 158.32C50.8475 163.216 48.3455 165.214 45.6275 166.42C44.4215 166.96 42.7565 167.698 42.8015 169.363C42.8015 170.803 44.2775 171.262 45.7085 171.208C47.8595 171.136 50.6405 170.848 51.9005 170.785C55.5005 170.569 55.5905 169.885 57.1205 166.798C57.4715 166.087 57.8855 165.241 58.1195 164.827C58.5425 169.885 57.9845 170.632 58.6775 170.596C60.5585 170.497 61.3775 171.01 61.3775 170.335C61.4495 168.481 62.2775 161.191 62.7095 159.4C62.7095 159.193 62.5655 159.076 62.3495 159.031C62.6195 157.357 63.2495 154.063 63.3305 153.46C63.7805 153.397 64.2305 153.325 64.5815 153.244C64.6805 153.244 64.5815 153.721 66.1025 147.448C77.0285 151.759 88.6835 152.794 99.1415 150.337C99.5105 151.768 102.184 161.524 103.642 165.799C104.138 167.195 104.8 168.528 105.612 169.768C105.819 169.966 106.17 170.317 106.512 170.317C106.854 170.317 107.232 169.84 107.322 169.354C107.412 168.868 105.999 154.675 105.522 149.554C107.661 149.024 109.734 148.26 111.706 147.277L114.622 156.961C114.707 157.105 114.835 157.219 114.989 157.286C115.142 157.354 115.313 157.371 115.477 157.336C115.641 157.302 115.79 157.216 115.903 157.092C116.016 156.968 116.087 156.812 116.107 156.646L115.828 145.045C117.19 144.157 118.495 143.183 119.733 142.129C120.296 142.672 120.929 143.139 121.614 143.515C121.685 143.554 121.768 143.563 121.846 143.541C121.923 143.519 121.989 143.468 122.029 143.398C122.777 142.266 123.617 141.197 124.539 140.203C124.359 141.364 124.008 143.74 123.963 144.478C123.962 144.525 123.971 144.573 123.988 144.617C124.006 144.661 124.033 144.701 124.066 144.735C124.1 144.769 124.14 144.795 124.184 144.813C124.229 144.83 124.276 144.839 124.324 144.838C125.279 144.808 126.234 144.932 127.15 145.207C124.216 146.62 122.875 147.817 123.055 148.807C123.406 150.575 123.9 152.311 124.531 154C125.017 155.404 125.521 156.862 127.033 157.474C133.963 160.408 144.258 158.266 151.215 155.341C157.119 153.028 157.983 149.284 157.461 143.992C157.353 142.984 156.184 142.867 153.727 142.93L159.711 135.361C161.511 133.21 159.946 133.282 159.379 129.061C159.921 129.864 160.572 130.588 161.313 131.212C161.358 131.246 161.408 131.271 161.463 131.285C161.517 131.299 161.573 131.302 161.629 131.293C161.872 131.248 161.682 131.374 163.914 127.36C163.957 127.287 163.973 127.201 163.96 127.117C163.947 127.034 163.905 126.957 163.842 126.901C162.861 126.091 160.494 124.201 160.494 124.201C161.715 123.912 162.917 123.551 164.094 123.121C164.375 123.048 164.629 122.897 164.827 122.685C165.025 122.473 165.158 122.209 165.211 121.924C165.328 121.222 165.337 107.083 165.355 105.157C165.355 104.842 164.851 104.752 164.797 105.094C163.744 112.231 158.91 118.171 152.736 119.944C152.934 119.143 153.439 117.406 153.16 116.929C152.142 116.288 151.058 115.757 149.929 115.345C151.054 114.706 153.654 113.041 153.843 112.528C153.96 112.231 153.385 98.3437 153.358 96.8227C153.353 96.76 153.329 96.7004 153.288 96.6523C153.248 96.6043 153.193 96.5703 153.132 96.5553C153.071 96.5403 153.007 96.545 152.949 96.5688C152.891 96.5926 152.842 96.6342 152.809 96.6877C151.066 100.129 148.488 103.077 145.311 105.265C144.942 105.517 142.288 106.93 142.081 107.119C141.415 107.758 142.242 108.541 142.593 109.036C142.845 109.378 143.71 110.539 143.881 110.782C140.713 111.169 139.875 110.08 139.713 110.782C139.402 111.699 138.982 112.575 138.462 113.392C138.648 114.181 138.886 114.956 139.174 115.714C138.646 115.801 138.108 115.801 137.581 115.714C137.486 115.694 137.388 115.709 137.305 115.757C137.222 115.806 137.16 115.883 137.131 115.975C136.879 116.794 136.681 117.478 136.501 118.117C135.41 116.267 134.207 114.484 132.901 112.78C132.262 107.902 129.957 102.205 125.088 101.449C128.751 99.9187 131.155 95.9857 131.731 91.9987C133.459 91.9987 158.425 91.9267 159.433 91.9987C164.896 92.1517 167.335 90.0637 167.848 84.4927C168.055 82.2697 167.659 43.9117 167.659 43.5067ZM43.3775 150.661C43.4002 150.565 43.3859 150.465 43.3374 150.38C43.289 150.295 43.21 150.231 43.1165 150.202C42.3875 149.932 41.8295 150.571 41.4245 151.03C40.3992 152.278 39.2735 153.44 38.0585 154.504C37.3835 154.828 29.5265 153.199 28.5455 152.893C28.0174 152.773 27.5581 152.45 27.2675 151.993C27.1538 151.661 27.1662 151.298 27.3023 150.975C27.4384 150.651 27.6886 150.389 28.0055 150.238C28.6985 149.815 29.2115 149.851 31.1555 149.491C33.0995 149.131 35.0255 148.78 38.4095 145.594C38.8809 145.142 39.32 144.658 39.7235 144.145C40.2854 145.394 41.2313 146.431 42.4235 147.106C44.0207 147.815 45.8045 147.989 47.5085 147.601C46.6085 149.401 44.1245 155.026 43.5035 156.745C43.0085 156.547 42.5045 156.367 42.0095 156.223C42.5669 154.395 43.0236 152.538 43.3775 150.661ZM122.415 101.377C121.15 101.431 119.892 101.612 118.662 101.917C114.631 102.372 110.578 102.607 106.521 102.619C105.927 99.0187 106.108 99.6847 105.955 98.6857C105.892 98.2537 105.802 97.6597 106.117 97.4707C110.428 95.5447 114.91 93.7987 119.203 91.9177C120.103 92.5747 120.175 92.4937 120.256 92.4397C120.294 92.3981 120.316 92.3435 120.316 92.2867C120.316 92.23 120.294 92.1753 120.256 92.1337C119.904 91.7787 119.535 91.4423 119.149 91.1257C115.693 88.0359 113.287 83.9464 112.263 79.4257C112.252 79.372 112.219 79.3252 112.172 79.2957C112.126 79.2662 112.07 79.2563 112.016 79.2682C111.962 79.2801 111.916 79.3129 111.886 79.3593C111.856 79.4058 111.847 79.462 111.858 79.5157C112.621 84.217 115.053 88.4859 118.707 91.5397L106.296 96.6697C105.938 96.775 105.622 96.9927 105.396 97.2907C104.775 97.1218 104.214 96.7819 103.776 96.3097C101.436 94.4287 100.5 95.7157 97.4765 98.1097C97.1842 98.3303 96.9075 98.5708 96.6485 98.8297C95.0499 97.4079 93.4569 95.9799 91.8695 94.5457C91.4645 93.9517 87.7745 81.2257 86.2625 76.1137C87.4313 73.2798 89.317 70.7986 91.7345 68.9137C92.014 69.7673 92.3663 70.5954 92.7875 71.3887C93.4625 72.0367 94.3355 71.7217 95.1815 71.5147C94.9484 71.9984 94.814 72.5237 94.7862 73.0599C94.7583 73.5961 94.8377 74.1325 95.0195 74.6377C95.6567 76.0663 96.6518 77.3063 97.9085 78.2377C100.986 80.9377 100.833 80.8657 101.013 80.8657C101.097 80.8616 101.175 80.8273 101.235 80.7693C101.295 80.7114 101.331 80.6336 101.337 80.5507C101.643 77.4097 102.651 76.5457 105.495 75.5467C107.051 75.039 108.367 73.98 109.196 72.5693C110.025 71.1586 110.309 69.4935 109.995 67.8877C111.877 67.902 113.751 67.6597 115.566 67.1677C115.652 67.1484 115.727 67.0959 115.774 67.0217C115.821 66.9475 115.837 66.8576 115.818 66.7717C115.818 66.6187 115.755 66.4387 115.71 66.2497C128.841 72.6307 136.843 92.5117 126.25 99.9007C125.097 100.672 123.787 101.176 122.415 101.377ZM125.439 102.403C127.752 102.898 129.688 104.842 130.948 108.262C136.96 124.507 122.946 144.19 105.549 148.762C105.441 147.673 104.848 141.355 104.731 140.887C104.644 140.474 104.407 140.108 104.064 139.861C102.957 139.249 101.058 139.924 100.05 140.518C99.0896 141.156 98.2308 141.936 97.5035 142.831C97.5035 143.119 98.7635 148.546 99.0335 149.653C88.0948 151.94 76.725 150.964 66.3365 146.845C67.9385 140.185 70.0625 131.068 70.6565 128.242C76.8485 130.168 85.5515 129.988 85.6415 129.979C85.6703 129.971 85.6957 129.954 85.7139 129.931C85.7321 129.907 85.7419 129.878 85.7419 129.848C85.7419 129.818 85.7321 129.789 85.7139 129.766C85.6957 129.742 85.6703 129.725 85.6415 129.718C80.6465 128.053 76.3355 123.76 73.5095 117.622C69.1625 108.451 60.1445 108.559 56.6345 113.122C51.5585 119.71 50.7395 138.88 50.6585 141.193C50.3435 141.769 48.5345 145.306 47.8505 146.746C42.4505 148.033 40.9115 144.946 40.2545 143.623C40.1465 143.398 40.2005 143.992 41.8745 138.079C42.7745 138.52 49.1735 140.779 49.1825 140.113C49.2545 132.463 51.1085 114.265 56.1305 110.08C59.7305 107.128 67.5155 107.641 70.9625 110.197C73.1539 112.197 74.9465 114.594 76.2455 117.262C79.1345 123.463 84.1115 128.062 89.6375 129.214C96.7205 128.593 104.937 117.307 107.286 110.089C111.624 104.59 118.779 101.44 125.439 102.403ZM139.525 139.006C139.536 139.059 139.569 139.106 139.616 139.136C139.662 139.165 139.718 139.175 139.772 139.163C139.826 139.151 139.872 139.118 139.902 139.072C139.932 139.026 139.941 138.969 139.93 138.916C139.363 136.018 137.761 133.516 136.753 130.816C135.007 126.199 136.276 121.24 137.752 116.551C138.41 116.674 139.09 116.586 139.695 116.299C140.19 115.912 139.794 115.255 139.236 113.599C139.695 112.905 140.056 112.151 140.308 111.358C141.714 111.691 143.177 111.709 144.591 111.412C144.646 111.398 144.697 111.371 144.74 111.334C144.782 111.296 144.816 111.249 144.837 111.197C144.858 111.144 144.866 111.087 144.861 111.031C144.856 110.974 144.838 110.92 144.808 110.872C144.205 110.08 142.612 107.911 142.531 107.749C142.45 107.587 142.53 107.605 142.791 107.488C147.093 105.53 150.621 102.196 152.817 98.0107C152.925 100.954 153.277 111.907 153.178 112.348C151.779 113.36 150.305 114.262 148.767 115.048C148.7 115.085 148.646 115.141 148.611 115.209C148.575 115.277 148.561 115.354 148.57 115.43C148.579 115.506 148.61 115.578 148.659 115.637C148.709 115.695 148.775 115.738 148.849 115.759C150.122 116.194 151.356 116.736 152.538 117.379C152.7 117.64 152.134 119.701 152.035 120.232L151.135 120.412C151.045 120.435 150.968 120.492 150.919 120.571C150.871 120.65 150.854 120.744 150.874 120.835C151.108 122.428 151.638 126.352 151.638 126.352C149.055 123.949 149.073 122.617 148.515 122.563C148.46 122.556 148.404 122.563 148.352 122.583C148.3 122.604 148.254 122.637 148.218 122.68C143.987 127.59 141.611 133.829 141.505 140.311C141.515 140.359 141.541 140.403 141.58 140.434C141.618 140.466 141.666 140.483 141.716 140.483C141.766 140.483 141.814 140.466 141.852 140.434C141.891 140.403 141.917 140.359 141.928 140.311C142.266 134.178 144.541 128.311 148.426 123.553C149.321 125.095 150.496 126.456 151.89 127.567C151.95 127.619 152.025 127.652 152.104 127.66C152.183 127.668 152.262 127.651 152.331 127.611C152.4 127.571 152.454 127.511 152.487 127.438C152.519 127.365 152.528 127.285 152.511 127.207C152.511 127.207 151.863 122.824 151.611 121.042C157.74 119.953 163.006 114.742 164.779 108.1C164.779 111.799 164.653 120.97 164.653 121.06C164.653 121.645 164.653 122.203 164.131 122.464C162.654 122.982 161.152 123.424 159.631 123.787C159.568 123.803 159.511 123.836 159.466 123.882C159.421 123.928 159.389 123.985 159.373 124.047C159.357 124.11 159.359 124.176 159.377 124.237C159.396 124.299 159.43 124.355 159.478 124.399C159.901 124.741 162.331 126.73 163.132 127.369C163.132 127.369 162.034 129.466 161.476 130.501C160.563 129.656 159.807 128.657 159.243 127.549C159.207 127.486 159.151 127.436 159.084 127.408C159.016 127.38 158.942 127.375 158.871 127.394C158.801 127.412 158.738 127.453 158.694 127.51C158.649 127.567 158.624 127.638 158.623 127.711C158.875 133.723 160.801 132.94 159.208 134.911C153.718 141.814 152.754 144.046 146.841 145.792C148.029 140.392 152.098 138.205 153.727 134.308C154.627 132.175 154.428 129.808 155.139 127.666C155.635 126.179 156.444 124.816 157.512 123.67C158.581 122.524 159.883 121.622 161.332 121.024C161.384 121.006 161.427 120.968 161.452 120.918C161.476 120.868 161.48 120.811 161.462 120.758C161.444 120.706 161.406 120.662 161.356 120.638C161.306 120.614 161.249 120.61 161.197 120.628C159.31 121.293 157.646 122.469 156.389 124.025C155.132 125.581 154.332 127.455 154.078 129.439C153.691 132.202 153.771 133.561 152.043 135.982C150.135 138.637 147.013 140.986 146.005 146.017C144.439 146.406 142.838 146.63 141.226 146.683C141.037 145.072 140.046 144.127 139.344 144.091C138.696 142.957 131.865 132.562 129.345 130.285C132.132 125.27 133.413 119.557 133.035 113.833C134.115 115.426 135.96 118.414 136.284 118.999C133.143 131.113 138.274 132.931 139.525 139.006ZM125.332 139.402C125.331 139.338 125.313 139.276 125.278 139.223C125.244 139.169 125.195 139.127 125.137 139.101C125.08 139.074 125.016 139.065 124.953 139.073C124.89 139.082 124.831 139.109 124.783 139.15C123.632 140.292 122.586 141.536 121.659 142.867C121.13 142.557 120.632 142.196 120.175 141.787C122.35 139.896 124.322 137.785 126.06 135.487C135.618 146.953 135.16 146.62 135.43 146.404C135.451 146.389 135.469 146.371 135.483 146.349C135.496 146.328 135.506 146.304 135.51 146.278C135.514 146.253 135.513 146.227 135.507 146.202C135.501 146.178 135.49 146.154 135.475 146.134C134.845 145.18 128.428 137.134 126.475 134.875C127.402 133.593 128.25 132.256 129.012 130.87C132.612 134.389 138.202 143.65 138.724 144.523C138.227 145.238 137.994 146.103 138.066 146.971C136.93 147.288 135.735 147.341 134.575 147.124C133.198 146.854 128.05 144.325 124.675 144.226C124.891 143.245 125.232 140.248 125.358 139.402H125.332ZM101.769 140.545H101.922C102.624 140.383 103.722 140.14 103.983 140.851C104.118 141.337 106.836 168.184 106.836 169.012C106.851 169.142 106.837 169.274 106.795 169.399C106.753 169.523 106.684 169.637 106.594 169.732C104.254 168.832 98.4935 144.955 98.2685 142.93C99.1755 141.808 100.393 140.978 101.769 140.545ZM5.9375 98.0467C5.9375 95.9857 4.5695 55.1257 4.7045 53.6497C4.9385 50.8687 5.9375 49.6177 8.1425 49.3297C10.4735 48.8797 32.2355 48.2587 34.6115 48.1957C34.6655 49.0957 34.7105 49.7257 34.7285 49.8427C34.8283 50.5508 35.166 51.2038 35.6861 51.6945C36.2062 52.1852 36.8778 52.4843 37.5905 52.5427C37.5905 52.4527 36.9965 52.5427 55.5905 52.6057C55.5905 55.4137 55.7615 68.6077 55.7705 69.2287C50.4785 69.4267 45.0245 69.6427 43.9805 69.7417C43.8365 69.7417 43.7105 70.0027 43.7645 70.1287C45.3305 73.9987 52.3055 89.7127 54.2585 93.7447C54.4407 94.2029 54.7537 94.5973 55.1585 94.8787C55.4105 95.2567 55.7075 95.6797 56.0585 96.1027C53.2055 98.3797 52.1795 100.9 50.5235 104.59C42.9005 104.752 12.0035 105.391 11.3105 105.364C9.3845 105.283 8.0255 104.725 7.1795 103.663C5.8925 102.133 5.9465 100.045 5.9375 98.0467ZM110.058 62.1007C110.247 62.7847 110.959 63.1537 112.057 63.1807C113.947 63.0997 114.757 64.7287 115.099 66.6007C113.259 66.9603 111.392 67.168 109.518 67.2217C109.464 67.2223 109.411 67.2354 109.363 67.2601C109.314 67.2848 109.272 67.3203 109.24 67.3639C109.208 67.4075 109.186 67.458 109.177 67.5114C109.167 67.5648 109.17 67.6197 109.185 67.6717C109.473 68.6991 109.476 69.7853 109.193 70.8141C108.911 71.8429 108.355 72.7757 107.583 73.5127C105.162 75.8437 101.284 74.5567 100.717 79.9297C99.9065 79.2277 96.9095 76.6807 96.2975 75.9337C95.2445 74.7187 94.8215 72.7027 95.9015 71.4337C98.2141 71.0557 100.551 70.8482 102.894 70.8127C102.947 70.8127 102.997 70.7919 103.035 70.7547C103.072 70.7176 103.093 70.6672 103.093 70.6147C103.093 70.5622 103.072 70.5118 103.035 70.4747C102.997 70.4376 102.947 70.4167 102.894 70.4167C100.199 70.2256 97.4895 70.4195 94.8485 70.9927C93.8405 71.2717 93.3455 71.4697 92.8955 70.5247C92.6705 70.0477 91.3295 65.9617 91.0955 65.2057C90.6815 64.2247 90.9335 64.5217 91.6895 64.0537C92.4302 64.6797 93.2617 65.1895 94.1555 65.5657C94.1555 65.6737 94.6235 67.1047 94.6955 67.3657C94.7261 67.582 94.8342 67.7797 94.9998 67.9221C95.1654 68.0645 95.3771 68.1419 95.5955 68.1397C97.6943 68.3325 99.8088 68.0252 101.766 67.243C103.723 66.4608 105.467 65.226 106.855 63.6397C106.882 63.602 106.895 63.5554 106.89 63.5089C106.885 63.4624 106.863 63.4193 106.829 63.388C106.794 63.3567 106.749 63.3393 106.702 63.3393C106.655 63.3392 106.61 63.3565 106.575 63.3877C105.182 64.7966 103.507 65.8965 101.66 66.6159C99.8135 67.3354 97.8361 67.6583 95.8565 67.5637C95.2265 67.5187 95.3075 67.6537 94.7765 65.7637C97.2065 66.4477 97.8185 65.5207 96.9545 66.3757C96.9263 66.4094 96.9108 66.4518 96.9104 66.4956C96.9101 66.5395 96.9251 66.5821 96.9527 66.6162C96.9804 66.6502 97.0191 66.6736 97.0621 66.6823C97.1051 66.691 97.1498 66.6844 97.1885 66.6637C100.462 64.2161 102.85 60.7695 103.993 56.8447C104.001 56.8193 104.004 56.7925 104.001 56.7659C103.999 56.7393 103.991 56.7135 103.979 56.6899C103.966 56.6664 103.949 56.6456 103.928 56.6289C103.907 56.6122 103.883 56.5999 103.857 56.5927C103.389 56.4307 103.704 57.3577 101.508 60.9487C100.608 57.3487 101.211 53.5417 100.239 49.9237C100.226 49.8724 100.193 49.8284 100.148 49.8014C100.102 49.7744 100.048 49.7666 99.9965 49.7797C99.9452 49.7928 99.9012 49.8258 99.8742 49.8714C99.8472 49.917 99.8394 49.9714 99.8525 50.0227C100.01 50.7883 100.112 51.5644 100.158 52.3447C98.2415 50.4457 94.1915 47.4127 90.9965 48.1057C90.3082 48.1269 89.6559 48.4183 89.1809 48.9169C88.7059 49.4155 88.4463 50.0812 88.4585 50.7697C87.6845 49.7257 88.2245 48.1327 88.9265 47.2507C90.7805 44.8297 94.0745 43.6507 97.3595 42.7507C100.266 41.9767 104.154 42.0847 106.359 44.7127C107.316 46.0242 108.007 47.5101 108.394 49.0867C109.543 52.6396 110.345 56.2958 110.787 60.0037C110.822 60.1532 110.815 60.3093 110.767 60.4551C110.72 60.601 110.633 60.7311 110.517 60.8317C110.338 60.9855 110.201 61.1833 110.121 61.4057C110.04 61.6281 110.019 61.8675 110.058 62.1007ZM54.9155 93.5287C54.0695 91.7287 45.7085 73.1887 44.3765 70.1287C47.3555 70.1287 80.9705 68.8957 81.5555 68.8777C82.6985 72.5497 89.3585 94.7257 89.3585 94.9147C89.3585 94.9147 81.4025 95.1127 77.1095 95.2837C69.8645 91.6297 63.1595 92.0257 58.2815 94.6087C55.5275 94.4917 55.4015 94.5457 54.9155 93.5287ZM89.1155 56.1967C88.9895 53.4967 89.1155 51.6157 89.5385 51.4267C91.0865 50.7247 93.9755 50.5267 97.1885 51.5437C97.5935 51.6787 98.8895 52.3537 100.194 52.9027C100.338 55.7827 100.194 58.8337 101.094 61.6237C100.299 63.0187 99.277 64.2718 98.0705 65.3317C92.6255 66.0517 89.3585 61.6957 89.0975 56.1967H89.1155ZM97.3775 110.017C97.1615 110.431 100.824 113.185 101.22 113.482C102.516 114.706 100.932 115.372 99.6185 114.193C92.4185 107.722 86.2805 100.306 78.2795 95.8777C82.9415 95.7247 88.7105 95.5537 89.7005 95.5447C90.6995 96.5077 102.3 107.371 105.297 109.945C96.9275 110.008 97.4585 109.873 97.3595 110.017H97.3775ZM106.216 109.891C106.126 109.81 90.9155 96.0667 90.3305 95.3827C89.9885 94.8067 83.6795 73.3957 82.2305 69.0847C83.1195 69.691 83.7788 70.5785 84.1025 71.6047C84.6425 73.1437 90.7715 93.6637 90.7985 93.7627C90.872 94.2611 91.0948 94.7255 91.4375 95.0947C93.8045 97.3717 103.849 106.48 107.116 109.18C106.927 109.414 106.737 109.648 106.557 109.891H106.216ZM105.558 101.242C103.992 101.116 103.497 100.936 103.11 101.413C102.984 101.611 102.625 102.052 102.166 101.953C102.086 101.934 102.011 101.899 101.945 101.851C101.88 101.802 101.825 101.74 101.785 101.669C101.744 101.598 101.719 101.519 101.71 101.438C101.701 101.357 101.709 101.275 101.733 101.197C102.174 100.783 102.633 100.423 103.047 99.9817C103.07 99.9506 103.081 99.913 103.079 99.8749C103.077 99.8367 103.063 99.8003 103.038 99.7713C103.013 99.7423 102.979 99.7224 102.942 99.7149C102.904 99.7074 102.866 99.7126 102.831 99.7297C102.372 100.027 101.931 100.504 101.409 100.819C101.366 100.819 101.324 100.829 101.285 100.848C101.246 100.867 101.212 100.893 101.184 100.927C101.077 100.97 100.96 100.989 100.844 100.98C100.728 100.971 100.616 100.936 100.516 100.877C100.415 100.818 100.33 100.736 100.267 100.639C100.203 100.541 100.163 100.43 100.149 100.315C100.149 99.5947 100.923 99.1177 101.373 98.5867C101.553 98.4067 101.283 98.1367 101.094 98.3077C100.612 98.7148 100.164 99.1603 99.7535 99.6397C99.2349 99.8046 98.7057 99.9339 98.1695 100.027C97.9265 100.027 98.1695 100.18 97.1075 99.2707C98.2147 98.2321 99.4204 97.3037 100.707 96.4987C102.894 95.0587 103.299 97.5517 105.27 97.8397C105.269 98.9799 105.365 100.118 105.558 101.242ZM107.583 108.658L98.5205 100.558C98.8492 100.493 99.1737 100.409 99.4925 100.306C99.4852 100.501 99.5235 100.696 99.6044 100.874C99.6852 101.052 99.8064 101.208 99.9583 101.332C100.11 101.455 100.289 101.541 100.48 101.583C100.671 101.625 100.869 101.622 101.058 101.575C101.095 101.766 101.175 101.945 101.294 102.099C101.412 102.253 101.566 102.377 101.741 102.46C101.917 102.543 102.109 102.584 102.303 102.579C102.498 102.573 102.688 102.522 102.858 102.43C104.1 101.863 102.859 101.647 104.866 101.827C105.127 101.827 105.405 101.881 105.675 101.89C105.756 102.313 105.838 102.7 105.928 103.069C105.949 103.142 105.994 103.207 106.056 103.252C106.118 103.298 106.193 103.322 106.269 103.321C122.361 102.979 114.46 100.756 107.566 108.658H107.583ZM85.9835 75.1417C84.9665 71.7307 84.4355 68.9767 82.3835 68.2747C82.3835 68.3827 83.1485 68.1577 56.5085 69.1747C56.5085 64.7917 56.3195 54.1897 56.2925 52.5787H88.5575C88.3055 56.4757 88.5575 60.6787 91.2575 63.5767C90.9335 63.7027 90.3575 63.9727 90.2225 64.1977C90.5544 65.6523 90.9998 67.0787 91.5545 68.4637C89.1398 70.1678 87.208 72.4686 85.9475 75.1417H85.9835ZM82.2845 47.3227C82.2845 46.0627 81.9965 39.2857 81.9335 38.0437H84.2285C84.2285 39.3217 84.3995 46.0717 84.4535 47.3137C83.7335 47.2957 83.0045 47.3047 82.2845 47.3227ZM69.0995 47.5927C69.1085 45.1447 68.7935 24.4447 68.7485 21.7447H71.0435C71.0435 28.5847 71.2415 45.6937 71.2775 47.5567L69.0995 47.5927ZM54.8975 25.2187H57.2015C57.2015 31.1317 57.3905 46.0627 57.4355 47.8357H55.2575C55.2665 45.6217 54.9515 27.6847 54.8975 25.2187ZM35.3585 49.4467C35.2325 48.6817 34.1885 24.7147 33.7655 15.5347C33.6665 12.7087 34.4135 9.23471 36.3125 7.62371C36.3125 13.9237 37.1225 48.6907 37.3025 51.8407C36.7728 51.6879 36.3026 51.3765 35.9551 50.9486C35.6076 50.5206 35.3994 49.9965 35.3585 49.4467ZM117.933 41.9677C117.859 41.3802 118 40.7858 118.33 40.2937C119.034 39.739 119.791 39.2537 120.588 38.8447C119.688 40.4647 119.923 40.0147 120.4 68.4547C119.657 67.8889 118.885 67.3631 118.086 66.8797C117.996 62.3437 117.951 45.8557 117.96 41.9677H117.933ZM125.8 51.9667C126.218 51.3731 126.773 50.8895 127.419 50.5573C128.065 50.225 128.781 50.054 129.508 50.0587C133.171 50.0587 134.503 54.4147 135.223 57.9607C135.853 60.7417 135.898 64.0177 137.923 66.2857C147.337 74.8177 148.048 62.9107 153.772 63.3697C155.572 63.5767 156.769 65.2237 158.056 66.4117C158.606 67.0297 159.377 67.4056 160.203 67.4578C161.029 67.5101 161.842 67.2344 162.465 66.6907V79.4797C160.251 79.4797 132.136 79.2727 129.049 79.3087C128.297 77.7357 127.412 76.2302 126.403 74.8087C126.511 73.7197 125.845 52.9387 125.827 51.9667H125.8ZM129.4 79.9207C133.54 79.9837 159.81 80.0557 162.537 80.0557C162.541 80.3985 162.562 80.741 162.601 81.0817C162.607 81.1542 162.64 81.2217 162.693 81.2715C162.746 81.3213 162.816 81.3498 162.888 81.3517C163.419 81.3517 163.176 82.1707 163.086 57.7627C163.086 57.703 163.063 57.6458 163.021 57.6036C162.978 57.5614 162.921 57.5377 162.861 57.5377C162.802 57.5377 162.745 57.5614 162.702 57.6036C162.66 57.6458 162.636 57.703 162.636 57.7627C162.636 59.3647 162.538 64.6567 162.529 65.7007C162.322 66.026 162.041 66.2978 161.709 66.4937C161.378 66.6896 161.004 66.8041 160.619 66.8278C160.235 66.8515 159.85 66.7838 159.497 66.6301C159.143 66.4764 158.831 66.2412 158.586 65.9437C155.985 63.2437 153.412 60.9937 149.65 64.4677C146.572 67.6447 144.88 70.3267 140.65 67.5817C138.937 66.6691 137.646 65.1265 137.05 63.2797C135.628 58.1767 136.023 50.3017 130.011 49.2577C129.208 49.1755 128.396 49.2918 127.648 49.5962C126.899 49.9006 126.237 50.3839 125.718 51.0037C125.718 49.6357 125.619 48.3037 125.565 46.9177C125.565 46.8604 125.543 46.8055 125.502 46.765C125.462 46.7245 125.407 46.7017 125.35 46.7017C125.292 46.7017 125.237 46.7245 125.197 46.765C125.156 46.8055 125.133 46.8604 125.133 46.9177C125.133 48.4117 125.601 69.2737 125.745 73.8547C124.359 72.0397 122.764 70.3934 120.993 68.9497C120.993 65.5207 120.688 43.2547 120.652 41.8777C120.598 39.3757 121.597 37.9267 123.901 37.3237C125.791 36.8017 159.775 36.2797 163.006 36.7207C165.148 36.9907 166.372 39.0877 166.678 40.9057C167.056 43.1647 167.164 80.5057 167.173 81.0007C167.245 85.4107 166.723 90.4417 162.133 91.0627C161.098 91.2067 135.493 91.2697 131.776 91.2337C131.89 87.3297 131.083 83.4537 129.417 79.9207H129.4ZM103.047 9.86471C104.127 11.7547 103.516 11.2327 104.281 42.3187C100.555 40.6357 95.2805 42.1837 91.6805 44.1187V17.4517C91.6805 17.2447 92.1485 17.3077 88.9805 17.3077C88.7825 17.3077 88.8005 15.4537 89.4665 45.6127C88.9264 46.1002 88.4569 46.6606 88.0715 47.2777H85.0475C85.0475 46.1077 84.7055 37.8097 84.6695 37.7377C84.6591 37.6909 84.6328 37.6492 84.595 37.6196C84.5573 37.5901 84.5104 37.5746 84.4625 37.5757C83.4901 37.5431 82.5166 37.5641 81.5465 37.6387C81.5177 37.6583 81.4949 37.6855 81.4806 37.7173C81.4663 37.7491 81.4611 37.7842 81.4655 37.8187C81.4655 38.7187 81.6275 46.0267 81.6905 47.3227L78.2975 47.3947C78.4685 32.0227 78.5315 32.8327 78.2975 32.8147C75.8585 32.9137 75.8045 32.8687 75.8045 33.0487V47.4487L71.8445 47.5297C71.8445 45.5227 71.5385 22.8427 71.4755 21.5287C71.4782 21.4695 71.4583 21.4115 71.4199 21.3664C71.3814 21.3213 71.3274 21.2925 71.2685 21.2857C71.2685 21.2857 68.4515 21.2857 68.3615 21.3757C68.1005 21.5827 68.5055 46.5757 68.5055 47.6017L64.2305 47.6827V34.2457C64.1987 34.2332 64.1633 34.2332 64.1315 34.2457C61.6475 34.2457 61.6745 34.2457 61.6745 34.4437V47.7367L58.0205 47.8447C57.7685 24.6067 57.5615 25.0297 57.6515 25.0297C57.6519 24.9721 57.631 24.9163 57.5928 24.8731C57.5546 24.8299 57.5018 24.8024 57.4445 24.7957C57.4445 24.7957 54.6455 24.7957 54.5555 24.8677C54.2495 25.0567 54.6815 46.3147 54.6815 47.9167L49.7315 48.0067C49.7585 12.9337 49.8575 14.5447 49.6235 14.5447L47.4185 14.6257C47.2655 14.6257 47.3195 12.4747 47.3195 48.0427C43.6115 48.1147 43.7195 48.0427 43.6655 48.1867C43.6482 48.2148 43.6385 48.2469 43.6375 48.2798C43.6364 48.3128 43.644 48.3454 43.6595 48.3745C43.675 48.4037 43.6978 48.4282 43.7257 48.4458C43.7536 48.4634 43.7856 48.4733 43.8185 48.4747C49.2815 48.4747 82.3655 48.1417 87.7565 47.9797C87.2165 49.3567 87.3155 50.8777 88.5665 51.6787V51.8767C83.3645 52.0297 38.8505 51.8767 38.0495 51.8767C38.0495 50.6977 37.0415 9.5227 37.0325 7.2187C43.2695 7.2187 98.2325 7.29971 99.6635 7.53371C100.365 7.64733 101.032 7.91539 101.618 8.31852C102.203 8.72165 102.691 9.24977 103.047 9.86471ZM4.9475 50.2747C3.9125 51.7687 3.8585 53.7127 3.8585 55.5937C3.8585 56.0077 5.1185 100.306 5.3075 101.386C5.41513 102.17 5.68928 102.921 6.11152 103.59C6.53376 104.259 7.0943 104.83 7.7555 105.265C6.69761 105.211 5.66341 104.932 4.7225 104.446C2.7245 103.348 1.9685 101.089 1.6985 99.8377C1.2215 97.5877 0.591495 58.9417 0.699495 56.9437C0.636495 53.6317 1.7615 51.8407 4.9295 50.2747H4.9475ZM139.948 152.056C143.55 151.804 147.079 150.915 150.369 149.428C152.709 148.348 155.626 146.638 156.832 145.279C157.021 149.527 156.156 152.272 151.791 154.279C146.013 156.979 132.306 160.291 126.384 156.34C125.853 155.827 124.585 151.93 124.081 150.13C126.664 151.849 134.188 152.515 139.93 152.056H139.948ZM58.5515 163.846C57.7955 163.783 57.4355 164.539 57.1835 165.088C55.0775 169.588 55.1045 169.876 52.9625 170.02C52.2875 170.065 45.9335 170.587 45.4655 170.587C43.8275 170.704 42.9185 169.579 44.0795 168.202C44.7413 167.703 45.4759 167.308 46.2575 167.032C48.7595 165.871 52.7195 162.802 53.5925 159.004C54.4959 160.065 55.7282 160.794 57.0935 161.074C58.7838 161.255 60.4886 160.906 61.9715 160.075C61.6295 162.019 60.8375 168.076 60.7385 169.975C60.2124 169.92 59.6835 169.895 59.1545 169.903C59.1455 169.39 58.9745 163.882 58.5335 163.846H58.5515ZM61.8635 159.211C60.6939 160.038 59.2908 160.47 57.8585 160.444C57.1008 160.387 56.363 160.174 55.691 159.82C55.019 159.465 54.4272 158.976 53.9525 158.383C53.9525 158.104 53.8535 155.089 53.8805 153.469C56.7966 153.699 59.7237 153.756 62.6465 153.64C62.5025 154.432 62.0435 157.645 61.8455 159.211H61.8635Z" fill="var(--fill-0, black)"/>
<path id="Vector_3" d="M151.458 43.0391C151.509 43.0288 151.555 43.0012 151.588 42.961C151.621 42.9208 151.639 42.8705 151.639 42.8186C151.639 42.7667 151.621 42.7164 151.588 42.6762C151.555 42.636 151.509 42.6084 151.458 42.5981H149.946C138.633 42.9491 139.002 42.9401 139.011 43.2551C139.02 43.5701 138.669 43.6421 151.458 43.0391ZM151.836 45.1451C149.82 45.1451 141.936 45.2531 139.911 45.4151C139.84 45.4274 139.776 45.4644 139.73 45.5196C139.683 45.5747 139.658 45.6445 139.658 45.7166C139.658 45.7887 139.683 45.8584 139.73 45.9136C139.776 45.9688 139.84 46.0058 139.911 46.0181C141.972 46.0181 149.811 45.6131 151.845 45.5321C151.889 45.5215 151.929 45.4962 151.956 45.4603C151.984 45.4244 151.998 45.3802 151.997 45.335C151.996 45.2897 151.98 45.2462 151.95 45.2116C151.921 45.1771 151.881 45.1536 151.836 45.1451ZM149.856 48.4571C148.452 48.5111 143.943 48.4571 139.641 48.4571C139.546 48.4571 139.454 48.495 139.387 48.5625C139.319 48.63 139.281 48.7216 139.281 48.8171C139.281 48.9126 139.319 49.0041 139.387 49.0716C139.454 49.1392 139.546 49.1771 139.641 49.1771C140.541 49.2401 148.983 48.8891 149.865 48.8531C149.918 48.8519 149.968 48.8299 150.004 48.7919C150.04 48.7539 150.06 48.7031 150.059 48.6506C150.058 48.5981 150.036 48.5482 149.998 48.5119C149.96 48.4756 149.909 48.4559 149.856 48.4571ZM120.858 3.48408C119.804 3.74308 118.839 4.28332 118.067 5.04725C117.295 5.81117 116.745 6.77017 116.475 7.82208C115.476 11.6471 118.941 15.8141 122.928 15.1481C123.8 14.9641 124.624 14.6042 125.352 14.0904C126.079 13.5766 126.694 12.9198 127.158 12.1601C127.612 11.3216 127.87 10.3911 127.912 9.43852C127.954 8.48598 127.78 7.53631 127.401 6.66108C126.861 5.11308 125.259 2.63808 120.858 3.48408ZM123.036 11.0711C121.299 12.2681 119.265 10.0901 120.066 8.74908C121.506 6.35508 124.062 8.16408 124.125 9.06408C124.124 9.46367 124.023 9.85666 123.832 10.2072C123.64 10.5578 123.363 10.8548 123.027 11.0711H123.036ZM122.928 6.97608C122.321 6.78496 121.667 6.80053 121.07 7.02036C120.472 7.2402 119.964 7.6519 119.625 8.19108C119.349 8.6765 119.244 9.24134 119.329 9.79367C119.414 10.346 119.683 10.8533 120.093 11.2331C120.42 11.5466 120.822 11.771 121.26 11.885C121.698 11.9989 122.158 11.9985 122.596 11.8838C123.034 11.7692 123.435 11.544 123.761 11.23C124.087 10.9159 124.327 10.5234 124.458 10.0901C125.226 10.5938 126.086 10.9424 126.987 11.1161C126.669 11.8935 126.18 12.5897 125.557 13.1535C124.934 13.7173 124.193 14.1344 123.387 14.3741C119.787 15.4181 116.583 12.1511 116.988 8.62308C117.107 7.80141 117.411 7.01743 117.877 6.3303C118.343 5.64317 118.958 5.07085 119.678 4.65654C120.397 4.24222 121.201 3.99675 122.03 3.93864C122.858 3.88053 123.688 4.0113 124.458 4.32108C123.746 5.07421 123.219 5.98334 122.919 6.97608H122.928Z" fill="var(--fill-0, black)"/>
<path id="Vector_4" d="M112.759 18.9371C114.955 18.8201 155.167 18.5141 158.101 17.6411C160.36 17.2271 161.133 16.1831 161.016 13.9061C161.016 13.1501 161.143 4.4831 160.909 2.9441C160.702 1.0451 159.684 0.145103 157.542 0.0281026C155.742 -0.142897 114.028 0.505103 112.057 0.928103C110.455 1.2431 109.357 1.8281 109.141 3.6281C109.042 4.1771 109.474 14.3381 109.528 15.3281C109.654 17.4701 110.725 18.7391 112.759 18.9371ZM116.269 18.3251C115.739 18.2612 115.229 18.0803 114.778 17.7955C114.327 17.5106 113.944 17.129 113.659 16.6781C113.024 15.5855 112.698 14.3414 112.714 13.0781C112.615 11.5481 112.327 5.8781 112.291 4.5101C112.291 3.9521 112.291 2.0981 113.659 1.4321C115.774 1.2161 155.176 0.631103 156.859 0.685103C157.759 0.685103 158.974 0.757103 159.658 1.4501C160.666 2.4671 160.342 4.1501 160.405 13.8251C160.603 16.2911 159.667 16.8311 157.363 17.1641C155.293 17.4791 116.629 18.3251 116.287 18.3251H116.269ZM111.679 3.3671C111.562 4.1771 112.039 11.9171 112.084 12.9431C112.192 15.4901 112.921 17.2991 114.361 18.3431H113.461C111.265 18.3431 110.266 17.2901 110.167 15.0491C110.113 13.7711 109.699 4.2491 109.789 3.7091C109.978 2.0711 111.085 1.7111 112.552 1.5311C112.097 2.04867 111.8 2.68589 111.697 3.3671H111.679Z" fill="var(--fill-0, black)"/>
<path id="Vector_5" d="M132.918 5.69794C133.251 5.69794 143.583 5.43694 143.493 5.43694C143.539 5.4271 143.581 5.40162 143.611 5.36475C143.641 5.32789 143.657 5.28189 143.657 5.23444C143.657 5.187 143.641 5.14099 143.611 5.10413C143.581 5.06726 143.539 5.04178 143.493 5.03194C142.728 5.03194 133.809 4.87894 132.9 5.03194C132.831 5.05706 132.771 5.10337 132.73 5.16431C132.688 5.22525 132.667 5.29772 132.669 5.37144C132.671 5.44515 132.696 5.51636 132.741 5.57497C132.785 5.63358 132.847 5.67661 132.918 5.69794ZM146.661 8.52394C145.365 8.64994 132.351 8.20894 132.261 8.86594C132.261 8.99194 132.378 9.09094 132.468 9.10894C133.602 9.24394 146.616 8.96494 146.706 8.95594C146.734 8.95299 146.762 8.94447 146.787 8.93089C146.812 8.9173 146.834 8.89891 146.852 8.87677C146.87 8.85462 146.884 8.82915 146.892 8.80181C146.9 8.77448 146.902 8.74581 146.9 8.71744C146.897 8.68907 146.888 8.66157 146.874 8.63649C146.861 8.61142 146.843 8.58926 146.82 8.5713C146.798 8.55333 146.773 8.5399 146.745 8.53177C146.718 8.52365 146.689 8.52099 146.661 8.52394ZM146.4 11.9799C144.177 11.9799 132.972 11.9259 132.387 12.0249C132.329 12.0402 132.279 12.0741 132.242 12.1213C132.206 12.1685 132.186 12.2264 132.186 12.2859C132.186 12.3455 132.206 12.4034 132.242 12.4506C132.279 12.4978 132.329 12.5317 132.387 12.5469C133.008 12.6459 145.491 12.3579 146.409 12.3309C146.449 12.3209 146.484 12.2977 146.508 12.2652C146.533 12.2326 146.546 12.1927 146.545 12.1518C146.544 12.111 146.529 12.0718 146.503 12.0405C146.476 12.0093 146.44 11.9879 146.4 11.9799ZM19.158 69.6339C25.251 69.1389 28.482 61.2909 23.748 56.9349C23.577 56.7819 23.901 56.4399 18.915 63.6489C12.885 57.9339 13.209 58.1499 13.074 58.2489C8.30405 62.9559 13.029 70.1379 19.158 69.6339Z" fill="var(--fill-0, black)"/>
<path id="Vector_6" d="M18.4925 60.6971C18.6635 60.8861 18.5825 60.9131 22.6595 54.0371C22.6692 54.0218 22.6758 54.0048 22.6789 53.9869C22.6819 53.969 22.6813 53.9507 22.6771 53.9331C22.6729 53.9154 22.6652 53.8988 22.6544 53.8842C22.6437 53.8696 22.6301 53.8573 22.6145 53.8481C21.1767 53.0915 19.5295 52.8304 17.9283 53.1054C16.3271 53.3804 14.8614 54.1761 13.7585 55.3691C13.6505 55.5041 13.4885 55.2431 18.4925 60.6971ZM9.08747 94.0421C9.31831 94.0406 9.54354 93.9709 9.73483 93.8416C9.92611 93.7124 10.0749 93.5295 10.1624 93.3159C10.25 93.1023 10.2724 92.8676 10.2269 92.6413C10.1813 92.415 10.0698 92.2072 9.90647 92.0441C10.3565 91.3151 13.2725 86.5181 14.1275 85.2221C14.3491 85.3246 14.5964 85.3579 14.8372 85.3178C15.078 85.2776 15.3011 85.1659 15.4775 84.9971L19.6355 88.2011C19.5677 88.4017 19.5556 88.6169 19.6005 88.8239C19.6454 89.0308 19.7456 89.2217 19.8905 89.3761C20.0353 89.5306 20.2193 89.6428 20.423 89.7009C20.6266 89.7589 20.8422 89.7607 21.0467 89.7059C21.2512 89.6511 21.437 89.5418 21.5843 89.3897C21.7316 89.2376 21.8349 89.0484 21.8831 88.8422C21.9313 88.636 21.9227 88.4206 21.8581 88.2189C21.7936 88.0173 21.6755 87.8369 21.5165 87.6971L22.9925 85.7531C23.2566 85.874 23.5561 85.8931 23.8335 85.8067C24.1109 85.7203 24.3466 85.5346 24.4955 85.2851L28.7975 86.7431C28.7742 86.9367 28.7997 87.133 28.8717 87.3142C28.9436 87.4955 29.0597 87.6558 29.2093 87.7808C29.359 87.9057 29.5375 87.9913 29.7287 88.0297C29.9199 88.0681 30.1176 88.0581 30.3039 88.0007C30.4902 87.9432 30.6592 87.8401 30.7956 87.7007C30.9319 87.5613 31.0312 87.3901 31.0845 87.2025C31.1378 87.015 31.1435 86.8171 31.1008 86.6268C31.0582 86.4366 30.9687 86.26 30.8405 86.1131C31.2005 84.8261 34.3145 75.3131 34.6295 74.4131C34.9317 74.3868 35.2121 74.2449 35.4125 74.0171C36.2675 74.6921 38.8325 76.6091 39.6605 77.1671C39.6132 77.3534 39.6125 77.5485 39.6585 77.7351C39.7045 77.9217 39.7957 78.0941 39.9242 78.2371C40.0526 78.3801 40.2143 78.4892 40.395 78.5548C40.5756 78.6204 40.7697 78.6405 40.9599 78.6134C41.1502 78.5862 41.3308 78.5125 41.4859 78.399C41.6409 78.2854 41.7656 78.1353 41.8489 77.9621C41.9322 77.7889 41.9715 77.5978 41.9634 77.4058C41.9553 77.2138 41.9001 77.0267 41.8025 76.8611C44.1965 73.0451 44.3045 73.1081 44.0525 72.9371C44.0051 72.9077 43.9485 72.8969 43.8936 72.9069C43.8387 72.9169 43.7895 72.9469 43.7555 72.9911C43.3325 73.6031 41.3345 76.4111 41.3345 76.4111C41.1216 76.3063 40.8825 76.2666 40.6472 76.297C40.4118 76.3274 40.1907 76.4266 40.0115 76.5821C39.1745 75.9971 36.5195 74.0981 35.6735 73.4411C35.7096 73.2334 35.689 73.0198 35.6137 72.8229C35.5385 72.626 35.4114 72.453 35.246 72.3223C35.0805 72.1917 34.8829 72.1081 34.6739 72.0806C34.4649 72.053 34.2523 72.0824 34.0586 72.1657C33.8649 72.2489 33.6974 72.383 33.5736 72.5537C33.4499 72.7243 33.3745 72.9253 33.3555 73.1352C33.3366 73.3452 33.3747 73.5564 33.4659 73.7465C33.557 73.9366 33.6979 74.0985 33.8735 74.2151C33.0995 76.3211 30.8495 83.6111 30.2735 85.7351C30.0572 85.6793 29.8296 85.6852 29.6165 85.752C29.4034 85.8188 29.2132 85.9439 29.0675 86.1131C28.1675 85.8071 25.4675 84.9881 24.6485 84.7271C24.6485 84.4192 24.5262 84.1239 24.3084 83.9062C24.0907 83.6884 23.7954 83.5661 23.4875 83.5661C23.1796 83.5661 22.8843 83.6884 22.6665 83.9062C22.4488 84.1239 22.3265 84.4192 22.3265 84.7271C22.3284 84.9842 22.4137 85.2336 22.5695 85.4381L20.9585 87.4451C20.8042 87.4113 20.6445 87.4098 20.4896 87.4408C20.3347 87.4718 20.1879 87.5345 20.0585 87.6251L15.7655 84.3761C15.8123 84.0975 15.756 83.8114 15.607 83.5714C15.4581 83.3313 15.2267 83.1538 14.9562 83.0722C14.6858 82.9905 14.3949 83.0102 14.1379 83.1276C13.881 83.2451 13.6757 83.4522 13.5605 83.7101C13.4709 83.8956 13.4345 84.1022 13.4551 84.3071C13.4758 84.512 13.5527 84.7072 13.6775 84.8711C12.8315 86.1401 9.76247 91.0451 9.32147 91.7561C9.15994 91.7155 8.99156 91.7102 8.82778 91.7404C8.664 91.7707 8.50865 91.8358 8.37226 91.9314C8.23588 92.027 8.12166 92.1508 8.03736 92.2945C7.95306 92.4381 7.90065 92.5982 7.88369 92.7639C7.86673 92.9296 7.88562 93.097 7.93907 93.2547C7.99252 93.4125 8.07928 93.5569 8.19347 93.6781C8.30766 93.7994 8.44659 93.8946 8.60085 93.9574C8.7551 94.0202 8.92107 94.0491 9.08747 94.0421ZM24.7475 97.2281C24.6806 97.2281 24.6165 97.2547 24.5693 97.3019C24.522 97.3492 24.4955 97.4133 24.4955 97.4801C24.4955 97.5469 24.522 97.611 24.5693 97.6583C24.6165 97.7056 24.6806 97.7321 24.7475 97.7321C26.3225 97.7321 44.8085 97.0121 45.4475 97.0031C45.4895 96.9938 45.527 96.9704 45.5539 96.9369C45.5808 96.9033 45.5955 96.8616 45.5955 96.8186C45.5955 96.7756 45.5808 96.7339 45.5539 96.7003C45.527 96.6668 45.4895 96.6434 45.4475 96.6341C42.9365 96.6431 26.3585 97.0481 24.7475 97.2281ZM32.6585 90.7931C32.7158 90.7931 32.7707 90.7704 32.8112 90.7298C32.8517 90.6893 32.8745 90.6344 32.8745 90.5771C32.8745 90.5198 32.8517 90.4649 32.8112 90.4244C32.7707 90.3839 32.7158 90.3611 32.6585 90.3611C31.9475 90.3611 29.3735 90.2081 28.7705 90.2351C28.6654 90.2351 28.5647 90.2768 28.4905 90.3511C28.4162 90.4254 28.3745 90.5261 28.3745 90.6311C28.3745 90.7361 28.4162 90.8369 28.4905 90.9111C28.5647 90.9854 28.6654 91.0271 28.7705 91.0271C29.3645 91.0991 31.9115 90.8561 32.6585 90.7931ZM23.0375 91.9451H19.1585C19.0746 91.949 18.9933 91.9755 18.9232 92.0216C18.853 92.0678 18.7966 92.1319 18.7597 92.2074C18.7229 92.2829 18.7071 92.3669 18.7139 92.4506C18.7207 92.5343 18.7499 92.6146 18.7985 92.6831C19.0415 93.0431 19.2305 92.7641 23.0555 92.4401C23.1029 92.4174 23.1428 92.3813 23.17 92.3363C23.1972 92.2913 23.2107 92.2393 23.2088 92.1867C23.2069 92.1341 23.1897 92.0832 23.1592 92.0403C23.1288 91.9974 23.0865 91.9643 23.0375 91.9451ZM7.69247 96.7511C7.88147 96.7511 10.6175 96.4541 11.2205 96.4271C11.2873 96.4271 11.3514 96.4006 11.3987 96.3533C11.4459 96.306 11.4725 96.2419 11.4725 96.1751C11.4725 96.1083 11.4459 96.0442 11.3987 95.9969C11.3514 95.9497 11.2873 95.9231 11.2205 95.9231C10.8695 95.9231 7.82747 96.0491 7.62047 96.1481C7.56552 96.1812 7.52129 96.2294 7.4931 96.2871C7.46491 96.3447 7.45396 96.4092 7.46157 96.4729C7.46917 96.5366 7.49501 96.5967 7.53597 96.6461C7.57693 96.6954 7.63128 96.7319 7.69247 96.7511Z" fill="var(--fill-0, black)"/>
<path id="Vector_7" d="M39.4535 81.1451H39.5975C43.4225 80.8031 43.2875 81.0641 43.4495 80.8841C43.4794 80.8488 43.499 80.8059 43.5062 80.7602C43.5134 80.7145 43.5078 80.6677 43.4901 80.625C43.4725 80.5822 43.4434 80.5451 43.4061 80.5178C43.3687 80.4905 43.3246 80.474 43.2785 80.4701C41.9375 80.4701 40.6775 80.3531 39.4715 80.4071C38.9585 80.4161 39.0035 81.1451 39.4535 81.1451ZM19.3295 73.2881C19.2316 73.2881 19.1378 73.327 19.0686 73.3962C18.9994 73.4654 18.9605 73.5592 18.9605 73.6571C18.9605 73.7549 18.9994 73.8488 19.0686 73.918C19.1378 73.9872 19.2316 74.0261 19.3295 74.0261C20.6165 74.0261 25.6295 73.5671 26.8445 73.4411C26.9021 73.4301 26.954 73.3993 26.9913 73.3541C27.0287 73.309 27.0491 73.2522 27.0491 73.1936C27.0491 73.135 27.0287 73.0782 26.9913 73.033C26.954 72.9878 26.9021 72.9571 26.8445 72.9461C25.5935 73.0451 20.5715 73.1801 19.3295 73.2881ZM18.7175 75.3941C18.6451 75.412 18.5818 75.4558 18.5394 75.5172C18.497 75.5786 18.4785 75.6533 18.4873 75.7274C18.4962 75.8014 18.5317 75.8697 18.5874 75.9194C18.643 75.969 18.7149 75.9967 18.7895 75.9971C20.2115 75.9971 25.7915 75.4931 27.1955 75.4841C27.2576 75.4841 27.3171 75.4594 27.361 75.4155C27.4048 75.3717 27.4295 75.3121 27.4295 75.2501C27.4295 75.188 27.4048 75.1285 27.361 75.0846C27.3171 75.0407 27.2576 75.0161 27.1955 75.0161C24.3642 74.9538 21.532 75.08 18.7175 75.3941ZM26.4755 76.8341C24.1202 76.8001 21.7648 76.8933 19.4195 77.1131C18.9875 77.1671 18.9695 77.8241 19.4195 77.8241C20.2205 77.8241 24.5945 77.3741 26.4845 77.3021C26.5152 77.3015 26.5455 77.2949 26.5737 77.2825C26.6019 77.2702 26.6273 77.2525 26.6486 77.2304C26.67 77.2082 26.6867 77.1821 26.6979 77.1535C26.7091 77.1249 26.7146 77.0943 26.714 77.0636C26.7134 77.0328 26.7068 77.0025 26.6945 76.9744C26.6822 76.9462 26.6644 76.9207 26.6423 76.8994C26.6201 76.8781 26.594 76.8614 26.5654 76.8502C26.5368 76.839 26.5062 76.8335 26.4755 76.8341ZM29.4365 57.4481C29.8775 57.4481 34.3685 56.9801 35.2505 56.9171C35.3126 56.9171 35.3721 56.8924 35.416 56.8485C35.4598 56.8047 35.4845 56.7451 35.4845 56.6831C35.4845 56.621 35.4598 56.5615 35.416 56.5176C35.3721 56.4737 35.3126 56.4491 35.2505 56.4491C34.8095 56.4491 29.9945 56.5931 29.4635 56.6291C28.9325 56.6651 28.9325 57.4481 29.4365 57.4481ZM30.3635 59.2661C31.7765 59.2661 37.2845 58.7441 38.6795 58.6541C38.7304 58.6438 38.7761 58.6162 38.8089 58.576C38.8418 58.5358 38.8597 58.4855 38.8597 58.4336C38.8597 58.3817 38.8418 58.3314 38.8089 58.2912C38.7761 58.251 38.7304 58.2234 38.6795 58.2131C37.2755 58.2761 31.7315 58.3031 30.3545 58.4471C30.2565 58.4627 30.1673 58.5131 30.1033 58.5889C30.0393 58.6648 30.0046 58.7612 30.0057 58.8605C30.0068 58.9597 30.0436 59.0553 30.1092 59.1298C30.1749 59.2042 30.2651 59.2526 30.3635 59.2661Z" fill="var(--fill-0, black)"/>
</g>
</svg>
