<svg preserveAspectRatio="none" width="100%" height="100%" overflow="visible" style="display: block;" viewBox="0 0 21.3333 26.6667" fill="none" xmlns="http://www.w3.org/2000/svg">
<path id="Vector" d="M13.3333 12C13.3333 10.5333 12.1333 9.33333 10.6667 9.33333C9.2 9.33333 8 10.5333 8 12C8 13.4667 9.2 14.6667 10.6667 14.6667C12.1333 14.6667 13.3333 13.4667 13.3333 12ZM5.30667 21.6667C4.92 20.4667 4.54667 19.08 4.29333 17.6667L2.66667 18.76V22.7333L5.30667 21.6667ZM10.6667 0C10.6667 0 17.3333 2.66667 17.3333 14.6667L20.1467 16.5467C20.8933 17.04 21.3333 17.88 21.3333 18.76V26.6667L14.6667 24H6.66667L0 26.6667V18.76C0 17.8667 0.44 17.04 1.18667 16.5467L4 14.6667C4 2.66667 10.6667 0 10.6667 0ZM10.6667 3.14667C10.6667 3.14667 6.66667 5.84 6.66667 14.6667C6.66667 17.6667 8 21.3333 8 21.3333H13.3333C13.3333 21.3333 14.6667 17.6667 14.6667 14.6667C14.6667 5.84 10.6667 3.14667 10.6667 3.14667ZM18.6667 22.7333V18.76L17.04 17.68C16.7867 19.08 16.4133 20.48 16.0267 21.68L18.6667 22.7333Z" fill="var(--fill-0, #0D0D0D)"/>
</svg>
