<svg xmlns="http://www.w3.org/2000/svg" viewBox="0 0 26.6667 26.6667" preserveAspectRatio="xMidYMid meet" fill="none" aria-hidden="true">
<path id="Vector" d="M13.3333 0C5.97333 0 0 5.97333 0 13.3333C0 20.6933 5.97333 26.6667 13.3333 26.6667C20.6933 26.6667 26.6667 20.6933 26.6667 13.3333C26.6667 5.97333 20.6933 0 13.3333 0ZM13.3333 24C7.44 24 2.66667 19.2267 2.66667 13.3333C2.66667 10.8667 3.50667 8.6 4.92 6.8L19.8667 21.7467C18.0667 23.16 15.8 24 13.3333 24ZM21.7467 19.8667L6.8 4.92C8.6 3.50667 10.8667 2.66667 13.3333 2.66667C19.2267 2.66667 24 7.44 24 13.3333C24 15.8 23.16 18.0667 21.7467 19.8667Z" fill="#DE1306"/>
</svg>
