<svg preserveAspectRatio="none" width="100%" height="100%" overflow="visible" style="display: block;" viewBox="0 0 58.6667 53.3333" fill="none" xmlns="http://www.w3.org/2000/svg">
<path id="Vector" d="M37.3333 0H13.3333C11.12 0 9.22667 1.33333 8.42667 3.25333L0.373333 22.0533C0.133333 22.6667 0 23.3067 0 24V29.3333C0 32.2667 2.4 34.6667 5.33333 34.6667H22.16L19.6267 46.8533L19.5467 47.7067C19.5467 48.8 20 49.8133 20.72 50.5333L23.5467 53.3333L41.12 35.76C42.08 34.8 42.6667 33.4667 42.6667 32V5.33333C42.6667 2.4 40.2667 0 37.3333 0ZM37.3333 32L25.76 43.5733L29.3333 29.3333H5.33333V24L13.3333 5.33333H37.3333V32ZM48 0H58.6667V32H48V0Z" fill="var(--fill-0, white)"/>
</svg>
