<svg xmlns="http://www.w3.org/2000/svg" viewBox="0 0 24 24" fill="none" aria-hidden="true">
  <rect width="24" height="24" rx="7.001" fill="#000"/>
  <g transform="translate(4 4)">
    <path fill-rule="evenodd" clip-rule="evenodd" d="M14 15C14.55 15 15 14.5468 15 13.9906V2.00937C15 1.45312 14.55 1 14 1H1.99688C1.44687 1 1 1.45312 1 2.00937V13.9906C1 14.5468 1.44687 15 1.99688 15H14ZM4.19375 5.40624C3.52813 5.40624 2.99063 4.86562 2.99063 4.20312C2.99063 3.54061 3.52813 3 4.19375 3C4.85625 3 5.39687 3.54061 5.39687 4.20312C5.39687 4.86873 4.85937 5.40624 4.19375 5.40624ZM8.60936 13H6.53435V6.31874H8.52498V7.23125H8.55311C8.83122 6.70622 9.50935 6.15312 10.5187 6.15312C12.6187 6.15312 13.0093 7.53749 13.0093 9.33747V13H10.9344V9.74998C10.9344 8.97499 10.9187 7.9781 9.85624 7.9781C8.77498 7.9781 8.60936 8.82185 8.60936 9.69374V13ZM5.23437 13H3.15624V6.31874H5.23437V13Z" fill="#fff"/>
  </g>
</svg>
