<svg xmlns="http://www.w3.org/2000/svg" viewBox="0 0 24 24" fill="none" aria-hidden="true">
  <rect width="24" height="24" rx="7.001" fill="#000"/>
  <g transform="translate(4 4)">
    <path d="M0.140906 0C0.053207 0.183303 0 0.385915 0 0.602336V9.03798C0 9.2544 0.053207 9.45704 0.140906 9.64031L4.99231 4.82016L0.140906 0Z" fill="#fff" transform="translate(0 3.1792)"/>
    <path d="M4.85157 4.53046e-06L0.000169901 4.82016L4.85157 9.64032C4.93927 9.45701 4.99248 9.25437 4.99248 9.03798V0.602341C4.99248 0.385919 4.93927 0.183308 4.85157 4.53046e-06Z" fill="#fff" transform="translate(11.005 3.1792)"/>
    <path d="M13.7869 2.5669e-06H0.602336C0.385915 2.5669e-06 0.183303 0.0532097 0 0.140909L6.2006 6.31027C6.74886 6.85852 7.64041 6.85852 8.18866 6.31027L14.3893 0.140909C14.206 0.0532097 14.0033 2.5669e-06 13.7869 2.5669e-06Z" fill="#fff" transform="translate(0.805 2.3744)"/>
    <path d="M9.53787 1.26151e-05L8.85136 0.686517C7.93784 1.60003 6.45139 1.60003 5.53787 0.686517L4.8514 1.26151e-05L0 4.82017C0.183303 4.90787 0.385915 4.96108 0.602336 4.96108H13.7869C14.0033 4.96108 14.206 4.90787 14.3893 4.82017L9.53787 1.26151e-05Z" fill="#fff" transform="translate(0.805 8.6624)"/>
  </g>
</svg>
