<svg xmlns="http://www.w3.org/2000/svg" viewBox="0 0 24 24" fill="none" aria-hidden="true">
  <rect width="24" height="24" rx="7.001" fill="#0066cc"/>
  <g transform="translate(5.666 5.667)">
    <path d="M9.6299 8.37939C9.21608 7.97084 8.69946 7.97084 8.28827 8.37939C7.97461 8.69042 7.66095 9.00144 7.35256 9.31774C7.26821 9.40472 7.19704 9.42317 7.09425 9.36519C6.89129 9.25448 6.67515 9.16486 6.4801 9.04362C5.57075 8.47165 4.809 7.73625 4.13423 6.90861C3.79948 6.49742 3.50163 6.05724 3.2934 5.56171C3.25123 5.46155 3.25914 5.39565 3.34085 5.31394C3.65451 5.01082 3.96026 4.6998 4.26865 4.38877C4.69829 3.9565 4.69829 3.45042 4.26602 3.01551C4.02089 2.76775 3.77576 2.52525 3.53063 2.27748C3.27759 2.02445 3.02719 1.76877 2.77151 1.51837C2.35769 1.11509 1.84107 1.11509 1.42988 1.52101C1.11359 1.83203 0.810467 2.15096 0.488898 2.45672C0.191051 2.73875 0.0408093 3.08404 0.00917955 3.48732C-0.0409009 4.14364 0.119884 4.76306 0.346564 5.36666C0.810467 6.61603 1.51687 7.72571 2.3735 8.74313C3.53063 10.119 4.91179 11.2076 6.52755 11.9931C7.25503 12.3463 8.00887 12.6178 8.82861 12.6626C9.39268 12.6942 9.88294 12.5519 10.2757 12.1117C10.5445 11.8112 10.8476 11.5371 11.1323 11.2498C11.554 10.8228 11.5567 10.3062 11.1376 9.88444C10.6368 9.381 10.1333 8.8802 9.6299 8.37939Z" fill="#fff"/>
    <path d="M9.12801 6.27896L10.1006 6.1129C9.94775 5.21936 9.52602 4.41017 8.88551 3.76703C8.20811 3.08962 7.35147 2.66262 6.40785 2.53083L6.27079 3.50872C7.00091 3.61152 7.66513 3.94099 8.18966 4.46552C8.68519 4.96105 9.0094 5.58838 9.12801 6.27896Z" fill="#fff"/>
    <path d="M10.6489 2.05078C9.52601 0.927922 8.10531 0.218888 6.537 0.000115298L6.39994 0.978002C7.75475 1.16778 8.98304 1.78193 9.95301 2.74927C10.8729 3.66917 11.4765 4.83156 11.6953 6.10993L12.6679 5.94388C12.4122 4.46255 11.7137 3.11828 10.6489 2.05078Z" fill="#fff"/>
  </g>
</svg>
